<svg width="30" height="29" viewBox="0 0 30 29" fill="none" xmlns="http://www.w3.org/2000/svg">
<g clip-path="url(#clip0_270_2086)">
<path d="M29.3497 0.379883H1.23975V28.4899H29.3497V0.379883Z" stroke="#0095FF" stroke-width="0.75" stroke-miterlimit="10"/>
<path d="M1.26978 27.9099L9.43978 8.31994L24.1398 3.18994L29.3098 27.9099H1.26978Z" stroke="#0095FF" stroke-width="0.4" stroke-miterlimit="10"/>
<path d="M8.92969 9.5598L24.3197 4.0498" stroke="#0095FF" stroke-width="0.4" stroke-miterlimit="10"/>
<path d="M8.16968 11.3801L24.6997 5.8501" stroke="#0095FF" stroke-width="0.4" stroke-miterlimit="10"/>
<path d="M7.16968 13.76L25.1997 8.27002" stroke="#0095FF" stroke-width="0.4" stroke-miterlimit="10"/>
<path d="M5.94971 16.6999L25.8197 11.1899" stroke="#0095FF" stroke-width="0.4" stroke-miterlimit="10"/>
<path d="M4.50977 20.1299L26.5498 15.1699" stroke="#0095FF" stroke-width="0.4" stroke-miterlimit="10"/>
<path d="M2.76978 24.3L27.7198 20.27" stroke="#0095FF" stroke-width="0.4" stroke-miterlimit="10"/>
<path d="M2.22974 27.9096L9.96974 8.13965" stroke="#0095FF" stroke-width="0.4" stroke-miterlimit="10"/>
<path d="M5.73975 27.9099L12.1297 7.37988" stroke="#0095FF" stroke-width="0.4" stroke-miterlimit="10"/>
<path d="M9.84985 27.9098L14.6399 6.50977" stroke="#0095FF" stroke-width="0.4" stroke-miterlimit="10"/>
<path d="M14.6597 27.9098L17.2597 5.58984" stroke="#0095FF" stroke-width="0.4" stroke-miterlimit="10"/>
<path d="M20.3797 27.9096L19.9897 4.63965" stroke="#0095FF" stroke-width="0.4" stroke-miterlimit="10"/>
<path d="M27.1197 27.9101L22.9097 3.62012" stroke="#0095FF" stroke-width="0.4" stroke-miterlimit="10"/>
</g>
<defs>
<clipPath id="clip0_270_2086">
<rect width="28.86" height="28.86" fill="white" transform="translate(0.859863)"/>
</clipPath>
</defs>
</svg>
