<svg width="30" height="30" viewBox="0 0 30 30" fill="none" xmlns="http://www.w3.org/2000/svg">
<g clip-path="url(#clip0_270_2049)">
<path d="M29.53 0.379883H1.23999V28.6699H29.53V0.379883Z" stroke="#0095FF" stroke-width="0.75" stroke-miterlimit="10"/>
<path d="M15.3799 0.379883V28.6599" stroke="#0095FF" stroke-width="0.5" stroke-miterlimit="10"/>
<path d="M1.23999 14.52H29.52" stroke="#0095FF" stroke-width="0.5" stroke-miterlimit="10"/>
<path d="M3.86006 2.30969C3.85809 2.48132 3.80539 2.64853 3.7086 2.79028C3.61181 2.93203 3.47526 3.04198 3.31612 3.1063C3.15699 3.17062 2.98238 3.18642 2.81428 3.15173C2.64619 3.11704 2.4921 3.03341 2.37143 2.91135C2.25076 2.78928 2.16888 2.63426 2.13612 2.46577C2.10335 2.29729 2.12115 2.12287 2.18729 1.96448C2.25342 1.80609 2.36492 1.67081 2.50777 1.57564C2.65062 1.48048 2.81842 1.4297 2.99006 1.42969C3.10516 1.42968 3.21911 1.45251 3.32532 1.49686C3.43153 1.5412 3.52789 1.60618 3.60881 1.68803C3.68972 1.76988 3.7536 1.86697 3.79673 1.97368C3.83986 2.08039 3.86138 2.1946 3.86006 2.30969Z" fill="#0095FF"/>
<path d="M14.38 2.3101C14.3569 2.52604 14.2547 2.7258 14.0932 2.87096C13.9317 3.01612 13.7222 3.09643 13.505 3.09643C13.2878 3.09643 13.0783 3.01612 12.9168 2.87096C12.7553 2.7258 12.6531 2.52604 12.63 2.3101C12.6169 2.18734 12.6297 2.06318 12.6677 1.9457C12.7057 1.82823 12.7679 1.72006 12.8505 1.62822C12.933 1.53639 13.0339 1.46295 13.1467 1.41268C13.2595 1.36241 13.3815 1.33643 13.505 1.33643C13.6285 1.33643 13.7505 1.36241 13.8633 1.41268C13.9761 1.46295 14.077 1.53639 14.1595 1.62822C14.2421 1.72006 14.3043 1.82823 14.3423 1.9457C14.3803 2.06318 14.3931 2.18734 14.38 2.3101Z" fill="#0095FF"/>
<path d="M3.85988 12.89C3.85581 13.0624 3.80059 13.2298 3.70124 13.3707C3.60188 13.5117 3.46287 13.6199 3.30185 13.6817C3.14084 13.7435 2.96509 13.7561 2.79694 13.7178C2.62878 13.6795 2.4758 13.5921 2.35742 13.4667C2.23904 13.3412 2.16061 13.1835 2.1321 13.0134C2.10358 12.8433 2.12625 12.6686 2.19725 12.5114C2.26824 12.3542 2.38434 12.2217 2.53081 12.1306C2.67729 12.0396 2.84751 11.9941 3.01988 12C3.24888 12.0079 3.46554 12.1057 3.62282 12.2724C3.78009 12.439 3.86528 12.6609 3.85988 12.89Z" fill="#0095FF"/>
<path d="M14.3801 12.8901C14.382 13.065 14.3319 13.2365 14.2359 13.3827C14.14 13.5289 14.0027 13.6433 13.8415 13.7111C13.6803 13.779 13.5025 13.7972 13.3309 13.7636C13.1592 13.73 13.0015 13.6459 12.8779 13.5223C12.7542 13.3986 12.6702 13.2409 12.6365 13.0693C12.6029 12.8976 12.6212 12.7199 12.689 12.5587C12.7569 12.3975 12.8712 12.2601 13.0174 12.1642C13.1637 12.0683 13.3352 12.0181 13.5101 12.0201C13.7408 12.0201 13.9621 12.1117 14.1252 12.2749C14.2884 12.438 14.3801 12.6593 14.3801 12.8901Z" fill="#0095FF"/>
<path d="M17.9099 2.30975C17.9099 2.48379 17.8583 2.65393 17.7616 2.79865C17.6649 2.94336 17.5275 3.05615 17.3667 3.12276C17.2059 3.18936 17.0289 3.20679 16.8582 3.17284C16.6875 3.13888 16.5307 3.05507 16.4076 2.932C16.2846 2.80893 16.2008 2.65213 16.1668 2.48143C16.1329 2.31072 16.1503 2.13378 16.2169 1.97298C16.2835 1.81219 16.3963 1.67475 16.541 1.57805C16.6857 1.48136 16.8559 1.42975 17.0299 1.42975C17.1458 1.42841 17.2609 1.45025 17.3682 1.494C17.4756 1.53775 17.5732 1.60252 17.6551 1.6845C17.7371 1.76649 17.8019 1.86403 17.8456 1.9714C17.8894 2.07878 17.9112 2.19381 17.9099 2.30975Z" fill="#0095FF"/>
<path d="M28.3999 2.30969C28.3999 2.48374 28.3483 2.65387 28.2516 2.79859C28.1549 2.9433 28.0175 3.0561 27.8567 3.1227C27.6959 3.18931 27.5189 3.20673 27.3482 3.17278C27.1775 3.13882 27.0207 3.05501 26.8976 2.93194C26.7746 2.80887 26.6908 2.65207 26.6568 2.48137C26.6228 2.31066 26.6403 2.13373 26.7069 1.97293C26.7735 1.81213 26.8863 1.67469 27.031 1.57799C27.1757 1.4813 27.3458 1.42969 27.5199 1.42969C27.7533 1.42969 27.9771 1.5224 28.1421 1.68743C28.3072 1.85247 28.3999 2.0763 28.3999 2.30969Z" fill="#0095FF"/>
<path d="M17.9101 12.8901C17.9121 13.0645 17.8622 13.2356 17.7667 13.3817C17.6712 13.5277 17.5345 13.642 17.3738 13.7102C17.2132 13.7783 17.036 13.7972 16.8646 13.7644C16.6933 13.7316 16.5355 13.6485 16.4115 13.5259C16.2874 13.4032 16.2026 13.2464 16.1678 13.0755C16.133 12.9045 16.1499 12.727 16.2162 12.5657C16.2825 12.4043 16.3952 12.2663 16.5402 12.1691C16.6851 12.072 16.8556 12.0201 17.0301 12.0201C17.1452 12.0188 17.2594 12.0403 17.3661 12.0834C17.4728 12.1265 17.5699 12.1904 17.6517 12.2713C17.7336 12.3523 17.7986 12.4486 17.8429 12.5548C17.8873 12.661 17.9101 12.775 17.9101 12.8901Z" fill="#0095FF"/>
<path d="M28.4 12.8898C28.4132 13.0126 28.4003 13.1368 28.3623 13.2542C28.3244 13.3717 28.2621 13.4799 28.1796 13.5717C28.097 13.6636 27.9961 13.737 27.8833 13.7873C27.7706 13.8375 27.6485 13.8635 27.525 13.8635C27.4016 13.8635 27.2795 13.8375 27.1667 13.7873C27.0539 13.737 26.953 13.6636 26.8705 13.5717C26.788 13.4799 26.7257 13.3717 26.6877 13.2542C26.6497 13.1368 26.6369 13.0126 26.65 12.8898C26.6731 12.6739 26.7753 12.4741 26.9368 12.329C27.0983 12.1838 27.3078 12.1035 27.525 12.1035C27.7422 12.1035 27.9517 12.1838 28.1132 12.329C28.2748 12.4741 28.3769 12.6739 28.4 12.8898Z" fill="#0095FF"/>
<path d="M3.85987 16.3197C3.85987 16.4918 3.80885 16.66 3.71325 16.8031C3.61766 16.9461 3.48178 17.0576 3.32281 17.1235C3.16384 17.1893 2.98891 17.2066 2.82014 17.173C2.65138 17.1394 2.49636 17.0566 2.37469 16.9349C2.25302 16.8132 2.17016 16.6582 2.13659 16.4894C2.10302 16.3207 2.12025 16.1457 2.1861 15.9868C2.25195 15.8278 2.36346 15.6919 2.50653 15.5963C2.6496 15.5007 2.8178 15.4497 2.98987 15.4497C3.21981 15.4523 3.43959 15.5448 3.60218 15.7074C3.76478 15.87 3.85728 16.0898 3.85987 16.3197Z" fill="#0095FF"/>
<path d="M14.3801 16.3198C14.382 16.4946 14.3319 16.6662 14.2359 16.8124C14.14 16.9586 14.0027 17.073 13.8415 17.1408C13.6803 17.2086 13.5025 17.2269 13.3309 17.1933C13.1592 17.1596 13.0015 17.0756 12.8779 16.952C12.7542 16.8283 12.6702 16.6706 12.6365 16.4989C12.6029 16.3273 12.6212 16.1496 12.689 15.9884C12.7569 15.8272 12.8712 15.6898 13.0174 15.5939C13.1637 15.498 13.3352 15.4478 13.5101 15.4498C13.74 15.4524 13.9598 15.5449 14.1224 15.7075C14.285 15.8701 14.3775 16.0898 14.3801 16.3198Z" fill="#0095FF"/>
<path d="M3.85991 26.91C3.85192 27.0814 3.79344 27.2466 3.6918 27.3848C3.59017 27.5231 3.44992 27.6282 3.28871 27.6869C3.1275 27.7457 2.95251 27.7554 2.78576 27.715C2.61902 27.6745 2.46795 27.5857 2.35157 27.4596C2.23519 27.3335 2.15869 27.1759 2.13169 27.0064C2.10469 26.837 2.1284 26.6633 2.19983 26.5073C2.27126 26.3513 2.38723 26.2199 2.53315 26.1296C2.67907 26.0394 2.84842 25.9943 3.01991 26C3.13506 26.0038 3.24829 26.0305 3.35305 26.0785C3.4578 26.1265 3.55198 26.1948 3.63013 26.2794C3.70828 26.3641 3.76883 26.4634 3.80827 26.5717C3.84772 26.6799 3.86527 26.7949 3.85991 26.91Z" fill="#0095FF"/>
<path d="M14.3801 26.9101C14.382 27.085 14.3319 27.2565 14.2359 27.4027C14.14 27.549 14.0027 27.6633 13.8415 27.7311C13.6803 27.799 13.5025 27.8172 13.3309 27.7836C13.1592 27.75 13.0015 27.666 12.8779 27.5423C12.7542 27.4186 12.6702 27.2609 12.6365 27.0893C12.6029 26.9176 12.6212 26.7399 12.689 26.5787C12.7569 26.4175 12.8712 26.2802 13.0174 26.1842C13.1637 26.0883 13.3352 26.0381 13.5101 26.0401C13.7408 26.0401 13.9621 26.1318 14.1252 26.2949C14.2884 26.4581 14.3801 26.6794 14.3801 26.9101Z" fill="#0095FF"/>
<path d="M17.91 16.32C17.9232 16.4428 17.9103 16.5669 17.8724 16.6844C17.8344 16.8019 17.7721 16.9101 17.6896 17.0019C17.607 17.0937 17.5061 17.1672 17.3933 17.2174C17.2806 17.2677 17.1585 17.2937 17.035 17.2937C16.9116 17.2937 16.7895 17.2677 16.6767 17.2174C16.5639 17.1672 16.463 17.0937 16.3805 17.0019C16.298 16.9101 16.2357 16.8019 16.1977 16.6844C16.1597 16.5669 16.1469 16.4428 16.16 16.32C16.1831 16.1041 16.2853 15.9043 16.4468 15.7592C16.6084 15.614 16.8179 15.5337 17.035 15.5337C17.2522 15.5337 17.4617 15.614 17.6232 15.7592C17.7848 15.9043 17.8869 16.1041 17.91 16.32Z" fill="#0095FF"/>
<path d="M28.4 16.32C28.4132 16.4428 28.4003 16.5669 28.3623 16.6844C28.3244 16.8019 28.2621 16.9101 28.1796 17.0019C28.097 17.0937 27.9961 17.1672 27.8833 17.2174C27.7706 17.2677 27.6485 17.2937 27.525 17.2937C27.4016 17.2937 27.2795 17.2677 27.1667 17.2174C27.0539 17.1672 26.953 17.0937 26.8705 17.0019C26.788 16.9101 26.7257 16.8019 26.6877 16.6844C26.6497 16.5669 26.6369 16.4428 26.65 16.32C26.6731 16.1041 26.7753 15.9043 26.9368 15.7592C27.0983 15.614 27.3078 15.5337 27.525 15.5337C27.7422 15.5337 27.9517 15.614 28.1132 15.7592C28.2748 15.9043 28.3769 16.1041 28.4 16.32Z" fill="#0095FF"/>
<path d="M17.9101 26.9101C17.9121 27.0846 17.8622 27.2557 17.7667 27.4017C17.6712 27.5477 17.5345 27.6621 17.3738 27.7302C17.2132 27.7983 17.036 27.8172 16.8646 27.7844C16.6933 27.7516 16.5355 27.6686 16.4115 27.5459C16.2874 27.4232 16.2026 27.2665 16.1678 27.0955C16.133 26.9245 16.1499 26.7471 16.2162 26.5857C16.2825 26.4243 16.3952 26.2863 16.5402 26.1891C16.6851 26.092 16.8556 26.0401 17.0301 26.0401C17.1452 26.0388 17.2594 26.0603 17.3661 26.1034C17.4728 26.1466 17.5699 26.2104 17.6517 26.2913C17.7336 26.3723 17.7986 26.4686 17.8429 26.5748C17.8873 26.681 17.9101 26.795 17.9101 26.9101Z" fill="#0095FF"/>
<path d="M28.4001 26.91C28.4021 27.0845 28.3521 27.2556 28.2567 27.4016C28.1612 27.5477 28.0244 27.662 27.8638 27.7301C27.7032 27.7983 27.526 27.8171 27.3546 27.7843C27.1833 27.7515 27.0255 27.6685 26.9014 27.5458C26.7774 27.4232 26.6926 27.2664 26.6578 27.0954C26.623 26.9245 26.6399 26.747 26.7062 26.5856C26.7725 26.4242 26.8852 26.2862 27.0302 26.1891C27.1751 26.0919 27.3456 26.0401 27.5201 26.04C27.7517 26.04 27.9741 26.1314 28.1388 26.2942C28.3036 26.4571 28.3974 26.6784 28.4001 26.91Z" fill="#0095FF"/>
</g>
<defs>
<clipPath id="clip0_270_2049">
<rect width="29.04" height="29.04" fill="white" transform="translate(0.860107)"/>
</clipPath>
</defs>
</svg>
