<svg width="55" height="30" viewBox="0 0 55 30" fill="none" xmlns="http://www.w3.org/2000/svg">
<g clip-path="url(#clip0_270_1856)">
<path d="M0.25 8C2.65 5.41333 5.05333 2.83 7.46 0.25C7.52781 0.173225 7.61081 0.111363 7.70376 0.0683294C7.79672 0.0252959 7.89759 0.00202854 8 0C9.66 0.29 11.31 0.6 13 0.91L22 2.58L29 3.88L35.35 5.05L42.35 6.35L49.35 7.64L54.8 8.64V8.72L50.13 10C50.33 9.07 49.94 9 49.41 8.93C47.75 8.68 46.09 8.34 44.41 8.05L39.95 7.27V12.38H39.84V8.65H39.69V16.13H39.58V13L37.65 13.49C36.86 13.7 36.86 13.7 36.86 14.78V15.52V13.75L36.45 13.68C37.35 13.35 38.25 13.11 39.14 12.87C39.69 12.71 39.71 12.66 39.55 11.87C38.11 12.02 36.74 13.07 35.21 12.53V10.53L34.71 10.32L39.44 8.72C38.44 8.45 37.51 8.08 36.53 8.61C36.0086 8.84326 35.4704 9.03713 34.92 9.19C34.8199 9.23694 34.7106 9.26086 34.6 9.26C33.74 9.11 32.89 8.96 32.04 8.79C31.72 8.72 31.62 8.89 31.62 9.29C31.62 10.29 31.62 11.29 31.62 12.29V15.36H31.03V14.68L31.09 15.3H31.55V8.89C30.9 9.14 30.31 9.39 29.71 9.59C29.42 9.69 29.34 9.89 29.35 10.26C29.35 10.97 29.35 11.69 29.35 12.42L28.67 12.7L29.32 12.86L29.25 13L27.96 12.66V11.74L25.96 11.43V6.21L39.86 8.48V7.24L12.05 2.4V3.93L24.7 6V14.84H24.61V6.2H24.44V11.26L18.72 10.54C18.72 10.12 18.64 9.75 18.59 9.34L24.32 6.4V6.21C23.69 6.21 23.08 5.82 22.42 6.15C20.85 6.94 19.27 7.69 17.71 8.49C16.83 8.94 15.97 9.44 15.11 9.92C14.9883 9.98806 14.8958 10.0983 14.85 10.23C14.76 10.92 14.69 11.62 14.63 12.31C14.63 12.72 14.63 13.13 14.63 13.54C14.595 12.9972 14.595 12.4528 14.63 11.91C14.63 11.38 14.53 11.2 14.1 11.19C13.41 11.19 12.73 11.03 12.04 10.94V10.8L14.89 11.11C14.76 10.65 14.71 10.11 14.58 10.11C13.7502 9.94859 12.9123 9.83176 12.07 9.76C12.07 10 12.07 10.16 12.07 10.32C12.07 9.91 12.07 9.5 12.07 9.09C12.07 7.09 12.07 5.01 12.07 2.98C12.07 2.78 11.95 2.45 11.85 2.42C11.4365 2.3134 11.0152 2.23984 10.59 2.2V6.88H10.5V2.34H10.25V9.48L6.46 9C6.31 8.55 6.65 8 6.06 7.78L9.68 4.78C10.3 4.26 10.36 4.04 10.14 2.98C9.71 3.36 9.3 3.76 8.87 4.09C7.71 5 6.74 6.24 5.4 6.81C4.74275 7.24453 4.14155 7.7584 3.61 8.34C3.46563 8.46089 3.35285 8.61511 3.28142 8.78933C3.20999 8.96356 3.18204 9.15256 3.2 9.34C3.2 10.74 3.2 12.14 3.2 13.53C3.14 12.37 3.2 11.2 3.13 10.04C3.13 9.85 3 9.5 2.91 9.49C2.03 9.38 1.14 9.31 0.25 9.23V8ZM28.11 12.52C29.11 12.52 29.34 12.29 29.18 11.37C28.03 11.6 27.94 11.69 28.11 12.52Z" fill="#0095FF"/>
<path d="M0.25 18.4901L3.05 18.6801V22.3901H3.13C3.13 21.1301 3.13 19.8801 3.13 18.6301C3.13943 18.5174 3.1718 18.4078 3.2251 18.308C3.27841 18.2083 3.35154 18.1205 3.44 18.0501C4.06038 17.6635 4.73426 17.3704 5.44 17.1801C6.96 16.9401 8.25 16.0001 9.63 15.5001C9.78 15.4501 9.93 15.3801 10.14 15.2901C10.1708 15.6694 10.1708 16.0507 10.14 16.4301C10.1107 16.5231 10.0627 16.6091 9.99913 16.683C9.93553 16.7569 9.85758 16.8172 9.77 16.8601C8.66 17.3301 7.55 17.7701 6.44 18.2201C6.3138 18.2598 6.20462 18.3408 6.13 18.4501H6.8C7.8 18.5001 8.8 18.5301 9.86 18.6301C10.46 18.6901 10.08 19.3001 10.18 19.7101H8.75V19.8301H10.12V26.7301H10.25V14.8501C10.733 14.8249 11.217 14.8249 11.7 14.8501C12.36 14.9101 13.02 15.0601 13.7 15.1201C17.1 15.4301 20.51 15.7201 23.92 16.0201L36.19 17.1301C37.3 17.2301 38.41 17.3701 39.53 17.4701L48.39 18.2301C48.72 18.2301 49.05 18.3201 49.39 18.3601V19.4801L41.06 18.8201V19.6001C42.35 19.4901 43.62 19.3101 44.88 19.3001C45.9826 19.3189 47.0809 19.4428 48.16 19.6701L41.08 20.6001V20.7501L48.99 19.7501C48.99 20.0101 48.99 20.2401 49.04 20.4201C49.04 20.1801 49.12 19.8901 49.16 19.6001H49.34V22.6001H49.45V18.2501L50.24 18.3501C50.24 18.5701 50.24 18.7501 50.24 18.9201L54.68 18.3001V18.1901L7.74 13.6901V13.3101C7.64 13.4501 7.54 13.7501 7.36 13.8401C5.07333 15.1334 2.79333 16.4067 0.52 17.6601C0.433819 17.7005 0.343203 17.7307 0.25 17.7501L0.25 18.4901Z" fill="#0095FF"/>
<path d="M24.45 19.5698V17.6998H24.58V26.1598H24.67V17.5298L11.99 16.5298V18.7798L14.72 18.9698V19.9698H12.11C12.73 19.9698 13.36 20.0898 13.98 20.0798C14.44 20.0798 14.61 20.2098 14.6 20.8698C14.6 22.8698 14.6 24.7998 14.6 26.7698C14.6 24.8698 14.6 22.9798 14.6 21.0898C14.6291 20.419 14.7026 19.7509 14.82 19.0898C14.82 18.9698 15.01 18.8298 15.13 18.7998C16 18.5398 16.87 18.2698 17.75 18.0598C18.7184 17.8118 19.6999 17.6181 20.69 17.4798C21.358 17.4428 22.028 17.473 22.69 17.5698C23.1859 17.5955 23.6782 17.6692 24.16 17.7898L18.63 19.1698V19.2498L24.45 19.5698Z" fill="#0095FF"/>
<path d="M29.34 19.5499C28.23 19.9999 27.11 19.6699 26 19.6999V17.6299L39.87 18.7399C39.49 19.4299 39.79 20.2199 39.62 20.9499L36.42 21.3599C36.36 20.9299 36.32 20.5899 36.28 20.2499H36.14V26.6599H36.02V21.4099H35.97V27.1999C35.8986 27.0606 35.8609 26.9064 35.86 26.7499C35.86 25.2499 35.86 23.7499 35.86 22.2499C35.8988 21.9887 35.8783 21.7221 35.8 21.4699C35.7 21.3099 35.44 21.3099 35.11 21.1899H36.02V20.3499L35.33 20.2799L34.9 19.6099L39.02 18.9999C38.8906 18.909 38.738 18.857 38.58 18.8499C36.64 18.7099 34.7 18.5999 32.76 18.4099C31.6045 18.3561 30.4482 18.4981 29.34 18.8299V19.5999V19.5499ZM39.58 19.9199C38.58 20.0699 37.58 20.1899 36.58 20.3799C36.46 20.3799 36.4 20.8399 36.25 21.2299L39.58 20.7999V19.9199Z" fill="#0095FF"/>
<path d="M40.9399 8.66992L49.2999 9.99992V13.9999H49.2499V10.3399L40.9499 12.5899L40.9399 8.66992ZM44.3699 10.4599C43.3699 10.7699 42.4499 11.0599 41.4799 11.2899C40.9699 11.4099 40.9099 11.7299 41.0499 12.3399L48.7299 10.2699C47.3057 9.77367 45.7456 9.84166 44.3699 10.4599Z" fill="#0095FF"/>
<path d="M29.2501 21.0002C29.2916 21.2585 29.3183 21.5189 29.3301 21.7802C29.3301 23.4102 29.3301 25.0302 29.3301 26.6602C29.3301 27.1502 29.4801 27.2702 29.8701 27.0902V21.3102L30.9801 21.1802V22.0002C30.9801 23.5202 30.9801 25.0002 30.9801 26.5702C30.9801 27.2502 31.0401 27.3002 31.6101 27.1002V23.5802V27.1702H30.9201V21.3102L29.9201 21.5002V27.2002H26.5501V27.1402H27.5501C27.5501 25.1402 27.5501 23.1402 27.5501 21.1402C27.5501 21.0202 27.3001 20.8202 27.1501 20.8002C26.7905 20.7752 26.4296 20.7752 26.0701 20.8002V20.7402H27.7801V25.8602C27.7801 26.1502 27.7801 26.4402 27.7801 26.7302C27.7801 27.0202 28.0001 27.2302 28.2201 27.1402C28.6001 26.9802 29.3101 27.5802 29.3501 26.7802C29.4501 24.8402 29.3501 22.8902 29.3501 20.9302L29.2501 21.0002ZM27.6501 21.0002H27.5601V27.0002H27.6501V21.0002Z" fill="#0095FF"/>
<path d="M49.7099 27.7798H41.1699V27.8498H49.7099V27.7798Z" fill="#0095FF"/>
<path d="M27.73 12.6302L25.99 12.4502V12.5802C26.37 12.6302 26.75 12.6902 27.13 12.7102C27.51 12.7302 27.56 12.8702 27.54 13.2802C27.54 13.8902 27.54 14.5002 27.54 15.1202C27.78 15.0002 27.78 15.0002 27.73 12.6302Z" fill="#0095FF"/>
<path d="M18.6899 11.7401L24.3899 12.4101V12.2501L18.7099 11.5801L18.6899 11.7401Z" fill="#0095FF"/>
<path d="M32.7 27.6699H25.98V27.7399H32.7V27.6699Z" fill="#0095FF"/>
<path d="M50.3799 29.7001V28.7001C50.3799 27.8901 50.3799 27.8501 51.0499 27.8501C52.2199 27.8501 53.3799 27.8501 54.5399 27.8501H50.3799V29.7001Z" fill="#0095FF"/>
<path d="M6.41992 10.2999L10.2099 10.7399V10.5899L6.41992 10.1299V10.2999Z" fill="#0095FF"/>
<path d="M4.80009 27.1502H3.14009V23.2202H3.09009V27.2202H4.81009L4.80009 27.1502Z" fill="#0095FF"/>
<path d="M23.4401 20.5098L19.5801 20.3198V20.4198L23.4301 20.6198L23.4401 20.5098Z" fill="#0095FF"/>
<path d="M30.92 11.8599L30.05 12.1299C30.2205 12.9144 30.2877 13.7179 30.25 14.5199C30.25 13.9899 30.25 13.4599 30.25 12.9299C30.25 12.3999 30.31 12.1799 30.71 12.1399C30.8 12.1399 30.88 12.0499 30.97 11.9999L30.92 11.8599Z" fill="#0095FF"/>
<path d="M29.34 19.5498C29.34 19.6798 29.34 19.7998 29.34 19.9198C29.34 20.3698 29.25 20.6198 28.86 20.6098C28.6243 20.6233 28.3965 20.6992 28.2 20.8298L29.3099 20.9598C29.3099 20.4898 29.31 20.0198 29.36 19.5498H29.34Z" fill="#0095FF"/>
<path d="M36.9399 27.82H39.9399V27.77H36.9399V27.82Z" fill="#0095FF"/>
<path d="M41.0601 21.6099V25.1699C41.0701 23.9999 41.0701 22.7999 41.0601 21.6099Z" fill="#0095FF"/>
<path d="M8.33994 19.6001H6.43994V19.6801H8.33994V19.6001Z" fill="#0095FF"/>
</g>
<defs>
<clipPath id="clip0_270_1856">
<rect width="54.53" height="29.7" fill="white" transform="translate(0.25)"/>
</clipPath>
</defs>
</svg>
