<svg width="44" height="38" viewBox="0 0 44 38" fill="none" xmlns="http://www.w3.org/2000/svg">
<g clip-path="url(#clip0_270_2217)">
<path d="M0.580078 7L2.65008 23.43L30.7501 36.66L31.7401 15.11L0.580078 7Z" stroke="#0095FF" stroke-width="0.81" stroke-miterlimit="10"/>
<path d="M42.91 8.69971L40.85 27.5497L30.75 36.6597L31.74 15.1097L42.91 8.69971Z" stroke="#0095FF" stroke-width="0.81" stroke-miterlimit="10"/>
<path d="M42.9101 8.7L31.7401 15.11L0.580078 7" stroke="#0095FF" stroke-width="0.81" stroke-miterlimit="10"/>
<path d="M20.2001 1.82989C20.2501 2.76989 17.1001 3.68989 13.2001 3.82989C9.30013 3.96989 6.04013 3.41989 6.00013 2.47989C5.96013 1.53989 9.10013 0.609889 13.0001 0.479889C16.9001 0.349889 20.1601 0.879889 20.2001 1.82989Z" stroke="#0095FF" stroke-width="0.81" stroke-miterlimit="10"/>
<path d="M6.11019 2.6999C6.45571 4.12103 6.39682 5.61048 5.94019 6.9999C8.18343 8.00697 10.6172 8.51929 13.0761 8.50203C15.535 8.48478 17.9613 7.93836 20.1902 6.8999C20.0438 5.32085 20.0171 3.73299 20.1102 2.1499" stroke="#0095FF" stroke-width="0.81" stroke-miterlimit="10"/>
<path d="M37.33 4.75999C37.33 5.89999 33.52 6.85999 28.8 6.89999C24.08 6.93999 20.25 6.05999 20.24 4.89999C20.23 3.73999 24.04 2.79999 28.76 2.74999C33.48 2.69999 37.32 3.61999 37.33 4.75999Z" stroke="#0095FF" stroke-width="0.81" stroke-miterlimit="10"/>
<path d="M20.31 5.1899C21.04 7.3999 19.97 10.3399 19.97 10.3399C22.621 11.6557 25.5249 12.3834 28.4831 12.4731C31.4414 12.5629 34.3841 12.0126 37.11 10.8599C36.9961 8.95719 37.0229 7.04868 37.19 5.1499" stroke="#0095FF" stroke-width="0.81" stroke-miterlimit="10"/>
<path d="M1.01001 10.3999L31.36 19.8999" stroke="#0095FF" stroke-width="0.81" stroke-miterlimit="10"/>
<path d="M1.80005 16.6597L31.15 27.8497" stroke="#0095FF" stroke-width="0.81" stroke-miterlimit="10"/>
<path d="M2.25 20.29L30.93 32.63" stroke="#0095FF" stroke-width="0.81" stroke-miterlimit="10"/>
<path d="M13.1401 2.82971C14.2612 2.82971 15.1701 2.63271 15.1701 2.38971C15.1701 2.1467 14.2612 1.94971 13.1401 1.94971C12.019 1.94971 11.1101 2.1467 11.1101 2.38971C11.1101 2.63271 12.019 2.82971 13.1401 2.82971Z" stroke="#0095FF" stroke-width="0.25" stroke-miterlimit="10"/>
<path d="M30.83 4.99971C30.83 5.30971 29.76 5.54971 28.44 5.54971C27.12 5.54971 26.05 5.34971 26.05 4.99971C26.05 4.64971 27.12 4.44971 28.44 4.44971C29.76 4.44971 30.83 4.73971 30.83 4.99971Z" stroke="#0095FF" stroke-width="0.25" stroke-miterlimit="10"/>
<path d="M8.96003 2.15008L12.2 2.83008L8.53003 3.23008H12.11L11.11 3.68008L13.44 3.37008L18.46 2.73008H15.81L18.2 1.83008L15.17 2.39008" stroke="#0095FF" stroke-width="0.25" stroke-miterlimit="10"/>
<path d="M13.1401 1.83004L14.1001 1.04004L13.8601 1.95004" stroke="#0095FF" stroke-width="0.25" stroke-miterlimit="10"/>
<path d="M13.02 1.95L13.1 1.83L13.24 1.75" stroke="#0095FF" stroke-width="0.81" stroke-miterlimit="10"/>
<path d="M22.4 4.49002C22.4 4.49002 25.55 5.23002 26.26 5.27002L27.26 5.52002L22 5.88002L26.88 6.00002L25.65 6.60002L27.81 6.07002L28.09 6.60002L28.76 6.03002L29.87 6.60002L29.66 5.89002L32.66 6.60002L31.57 6.00002L36.11 5.56002L31.34 5.33002L33.43 4.27002L30.58 4.81002" stroke="#0095FF" stroke-width="0.25" stroke-miterlimit="10"/>
<path d="M27.47 4.48978V3.52979L28.14 4.26979L28.26 4.48978" stroke="#0095FF" stroke-width="0.25" stroke-miterlimit="10"/>
<path d="M5.94009 4.79004L0.340088 6.62004" stroke="#0095FF" stroke-width="0.81" stroke-miterlimit="10"/>
<path d="M43.2501 8.49975L37.0701 5.98975" stroke="#0095FF" stroke-width="0.81" stroke-miterlimit="10"/>
<path d="M22.3601 3.52965L20.0601 2.38965" stroke="#0095FF" stroke-width="0.81" stroke-miterlimit="10"/>
</g>
<defs>
<clipPath id="clip0_270_2217">
<rect width="43.29" height="37.61" fill="white" transform="translate(0.110107)"/>
</clipPath>
</defs>
</svg>
