<svg width="27" height="36" viewBox="0 0 27 36" fill="none" xmlns="http://www.w3.org/2000/svg">
<g clip-path="url(#clip0_270_2155)">
<path d="M3.64015 2.1702V3.7002H1.04015C1.04015 3.7002 -0.399854 5.1602 1.04015 5.9202H4.04015V9.0002C4.04015 9.0002 5.29015 11.5802 6.75015 9.4202L9.14015 9.2802C9.14015 9.2802 11.4401 9.5602 12.0401 13.0002H16.4401C16.4401 13.0002 16.2301 9.5502 18.2401 8.5102H21.0401C21.0401 8.5102 22.1401 10.5102 23.0401 8.5102V4.6302L25.6501 4.5002C25.6501 4.5002 27.5001 3.3702 25.7801 2.1702H22.6801V1.2402C22.6801 1.2402 21.6101 -0.709798 20.0401 1.2402V2.3902H17.4101C17.4101 2.3902 15.0401 3.6702 17.5401 4.8702H20.1201V6.2502C18.581 6.32292 17.0554 5.93282 15.7401 5.1302L12.0401 5.1002C12.0401 5.1002 8.31015 7.4802 7.60015 7.2202H7.21015V5.6302L9.27015 5.5502C9.27015 5.5502 11.7201 4.5502 9.27015 3.2802H6.27015V2.0802C6.13084 1.85146 5.9332 1.66388 5.6975 1.53671C5.4618 1.40953 5.19651 1.34734 4.92884 1.3565C4.66117 1.36566 4.40076 1.44584 4.1743 1.58883C3.94784 1.73182 3.76349 1.93247 3.64015 2.1702Z" stroke="#0095FF" stroke-width="0.75" stroke-miterlimit="10"/>
<path d="M10.44 11.9404C10.44 11.9404 7.18004 14.3104 8.80004 18.9404C8.80004 18.9404 9.19004 21.3204 6.61004 20.4604C6.61004 20.4604 3.85004 13.1504 8.93004 10.3904C8.93004 10.4004 10.81 9.88036 10.44 11.9404Z" stroke="#0095FF" stroke-width="0.75" stroke-miterlimit="10"/>
<path d="M18.0402 11.2002C18.0402 11.2002 21.3002 13.5802 19.6802 18.2002C19.6802 18.2002 19.2902 20.5702 21.8802 19.7102C21.8802 19.7102 24.6402 12.4102 19.5502 9.64022C19.5402 9.66022 17.6702 9.14021 18.0402 11.2002Z" stroke="#0095FF" stroke-width="0.75" stroke-miterlimit="10"/>
<path d="M14.5101 18.4002C15.8191 18.4002 16.8801 17.3391 16.8801 16.0302C16.8801 14.7212 15.8191 13.6602 14.5101 13.6602C13.2012 13.6602 12.1401 14.7212 12.1401 16.0302C12.1401 17.3391 13.2012 18.4002 14.5101 18.4002Z" stroke="#0095FF" stroke-width="0.75" stroke-miterlimit="10"/>
<path d="M14.9501 15.93C14.9501 16.0467 14.9037 16.1586 14.8212 16.2411C14.7387 16.3236 14.6268 16.37 14.5101 16.37C14.406 16.3542 14.3111 16.3016 14.2425 16.2218C14.1739 16.142 14.1362 16.0402 14.1362 15.935C14.1362 15.8298 14.1739 15.728 14.2425 15.6482C14.3111 15.5684 14.406 15.5158 14.5101 15.5C14.6251 15.5 14.7355 15.545 14.8177 15.6253C14.9 15.7057 14.9475 15.815 14.9501 15.93Z" stroke="#0095FF" stroke-width="0.75" stroke-miterlimit="10"/>
<path d="M18.2601 23.1302C18.2621 23.6626 18.106 24.1837 17.8116 24.6274C17.5173 25.0711 17.0978 25.4174 16.6065 25.6225C16.1151 25.8277 15.5739 25.8824 15.0515 25.7797C14.529 25.6771 14.0488 25.4217 13.6716 25.0459C13.2944 24.67 13.0372 24.1908 12.9326 23.6687C12.8279 23.1466 12.8806 22.6052 13.0839 22.1131C13.2872 21.621 13.632 21.2003 14.0746 20.9042C14.5172 20.6082 15.0377 20.4502 15.5701 20.4502C16.2818 20.4502 16.9645 20.7322 17.4687 21.2345C17.9729 21.7369 18.2575 22.4185 18.2601 23.1302Z" stroke="#0095FF" stroke-width="0.75" stroke-miterlimit="10"/>
<path d="M16.1001 27.3301L23.4101 33.4501" stroke="#0095FF" stroke-width="0.75" stroke-miterlimit="10"/>
<path d="M13.9402 29.83C13.9402 29.83 16.5702 31.83 18.8402 29.83L18.9302 29.73" stroke="#0095FF" stroke-width="0.75" stroke-miterlimit="10"/>
<path d="M12.8901 31.6C12.8901 31.6 16.4701 34.96 20.8201 31.29" stroke="#0095FF" stroke-width="0.75" stroke-miterlimit="10"/>
<path d="M11.2002 33.4501C12.861 34.7701 14.9459 35.4393 17.0647 35.3326C19.1834 35.2258 21.1905 34.3503 22.7102 32.8701" stroke="#0095FF" stroke-width="0.75" stroke-miterlimit="10"/>
</g>
<defs>
<clipPath id="clip0_270_2155">
<rect width="26.85" height="35.74" fill="white" transform="translate(0.0400391)"/>
</clipPath>
</defs>
</svg>
