<svg width="41" height="31" viewBox="0 0 41 31" fill="none" xmlns="http://www.w3.org/2000/svg">
<g clip-path="url(#clip0_270_1969)">
<path d="M40.4699 21.4602C40.3899 22.9202 40.3199 24.3702 40.2199 25.8302C40.2027 25.9202 40.1671 26.0056 40.1155 26.0813C40.0639 26.157 39.9974 26.2213 39.9199 26.2702C38.8399 26.8402 37.7599 27.4002 36.6499 27.9202C36.247 28.0768 35.8277 28.1875 35.3999 28.2502C33.2699 28.7102 31.1399 29.2002 28.9899 29.6002C27.9299 29.8002 26.8299 29.8602 25.7499 29.9602C23.2999 30.2002 20.8599 30.4502 18.4099 30.6402C17.7914 30.6463 17.1742 30.5826 16.5699 30.4502C13.9299 30.0802 11.2899 29.7102 8.65994 29.2902C7.94538 29.1452 7.24325 28.9446 6.55994 28.6902C5.09994 28.2402 3.63994 27.7702 2.18994 27.2902C2.00538 27.235 1.83715 27.1354 1.69994 27.0002C1.20994 26.5102 0.699941 26.0002 0.279941 25.4902C0.111362 25.3063 0.0123214 25.0693 -5.92079e-05 24.8202C-5.92079e-05 23.3102 -5.92079e-05 21.8202 -5.92079e-05 20.2902C-0.0193032 18.8954 0.159136 17.5049 0.529941 16.1602C0.839941 14.9202 1.11994 13.6602 1.41994 12.4202C1.46443 12.2298 1.53867 12.0475 1.63994 11.8802C2.97327 9.9202 4.30661 7.9702 5.63994 6.0302C5.77619 5.84403 5.94571 5.68468 6.13994 5.5602C8.34994 4.1902 10.5499 2.8202 12.7799 1.5002C13.2139 1.27324 13.6844 1.1243 14.1699 1.0602C16.1099 0.6902 17.9999 0.3202 19.9999 0.000199632C20.5146 -0.0289722 21.0307 0.0216257 21.5299 0.1502C23.3299 0.4702 25.1199 0.8202 26.9199 1.1502C27.0771 1.18051 27.2266 1.24169 27.3599 1.3302C29.6266 2.7902 31.8966 4.2602 34.1699 5.7402C34.3021 5.82896 34.4173 5.94074 34.5099 6.0702C35.8599 8.0102 37.2199 9.9402 38.5099 11.8802C38.5996 12.013 38.6703 12.1578 38.7199 12.3102C39.3399 14.0402 39.9599 15.7702 40.5599 17.5102C40.6199 17.735 40.6402 17.9685 40.6199 18.2002C40.6199 19.2702 40.4999 20.3502 40.4399 21.4202L40.4699 21.4602ZM13.2899 21.2402L18.1999 30.0002L23.1999 21.4102L13.2899 21.2402ZM18.6099 30.2402L28.3499 29.3002C26.7499 26.7302 25.1899 24.2202 23.5999 21.6802L18.6099 30.2402ZM27.0499 12.2402C25.9999 15.1202 24.9999 18.0002 23.9299 20.9202L32.9299 19.9202L27.0499 12.2402ZM28.7099 29.0002L32.9299 20.3602L23.9799 21.3602C25.5599 23.9102 27.1199 26.4102 28.7099 29.0002ZM17.7699 30.1702L12.8999 21.4602L8.71994 28.8502L17.7699 30.1702ZM13.3499 20.7802L23.1599 20.9502L18.4099 14.0002L13.3499 20.7802ZM4.78994 19.3702L12.5899 20.7202C11.8099 17.8102 11.0599 15.0002 10.2899 12.0902L4.78994 19.3702ZM4.78994 19.8302C5.99994 22.7502 7.16994 25.6002 8.38994 28.5202C9.78994 26.0302 11.1499 23.6202 12.5399 21.1702L4.78994 19.8302ZM23.5699 20.6902L26.6199 12.0002L18.7899 13.7802L23.5699 20.6902ZM17.9999 13.7802L10.7099 11.9002L12.9999 20.4902L17.9999 13.7802ZM33.1499 19.5102C33.6099 16.7802 34.0599 14.1502 34.5099 11.5102L27.3799 11.9302L33.1499 19.5102ZM33.2699 20.6202L29.1199 29.1202L36.1199 27.6302L33.2699 20.6202ZM19.1099 6.4802C18.9599 8.8202 18.8099 11.0602 18.6599 13.3502L26.4199 11.5802C23.9999 9.8602 21.5599 8.2002 19.1099 6.4802ZM27.4299 4.6602L19.4299 6.1902L26.7399 11.2902C26.9999 9.0002 27.2099 6.8802 27.4299 4.6602ZM10.9999 11.4902L18.2599 13.3502C18.3999 11.0702 18.5499 8.8302 18.6999 6.5002L10.9999 11.4902ZM11.3499 4.6502C11.1399 6.8102 10.9299 8.9202 10.7099 11.1302L18.3699 6.1302L11.3499 4.6502ZM34.3499 11.0402L27.8699 4.8602C27.6499 7.1002 27.4399 9.2502 27.2299 11.4502L34.3499 11.0402ZM4.64994 18.7402H4.73994L10.0299 11.7402L4.42994 11.3102C4.42994 13.8402 4.50994 16.2902 4.57994 18.7402H4.64994ZM2.29994 26.8602L7.99994 28.6602L4.40994 20.2002C3.69994 22.4602 2.99994 24.6302 2.29994 26.8602ZM38.7799 18.8602L34.9999 12.0002H34.9199C34.4799 14.5502 34.0499 17.1102 33.6099 19.7202L38.7799 18.8602ZM36.3999 27.1202C37.2199 24.4802 37.9999 21.9402 38.8099 19.3302L33.6299 20.2402L36.3999 27.1202ZM10.7999 5.1202H10.7099L4.63994 10.9102L10.1799 11.3402C10.3899 9.2302 10.5899 7.1602 10.7999 5.0902V5.1202ZM26.7999 4.3502V4.2302L19.8999 1.3902C19.6799 2.8602 19.4599 4.3002 19.2399 5.7802L26.7999 4.3502ZM11.9999 4.2602V4.3502L18.6699 5.7902C18.8899 4.3302 19.1099 2.9102 19.3299 1.4302L11.9999 4.2602ZM3.89994 12.1202H3.81994L0.589941 18.3002L4.13994 19.2302C4.06994 16.8202 3.99994 14.4702 3.92994 12.1202H3.89994ZM0.549941 18.7602L1.99994 26.0002H2.07994C2.74661 23.9269 3.41327 21.8435 4.07994 19.7502L0.549941 18.7602ZM28.6199 4.8502L28.5699 4.9202L34.5099 10.6402C34.3299 9.1702 34.1699 7.8002 33.9899 6.4302C33.9717 6.37687 33.9414 6.32843 33.9016 6.28857C33.8617 6.24871 33.8133 6.21848 33.7599 6.2002C32.0499 5.7402 30.3299 5.3002 28.6199 4.8502ZM36.8099 27.3402C37.6799 26.9002 38.4599 26.4702 39.2699 26.1202C39.3522 26.0953 39.4287 26.054 39.4947 25.9989C39.5607 25.9438 39.6149 25.876 39.6541 25.7994C39.6933 25.7229 39.7167 25.6392 39.7229 25.5535C39.729 25.4677 39.7178 25.3815 39.6899 25.3002C39.5299 24.1502 39.3999 23.0002 39.2599 21.8502L39.0499 20.3202H38.9999C38.2699 22.6302 37.5499 24.9402 36.8099 27.3402ZM38.6799 17.7702H38.7699C38.6099 16.0502 38.4399 14.3302 38.2699 12.6202C38.2475 12.557 38.2118 12.4993 38.1653 12.451C38.1187 12.4027 38.0623 12.3649 37.9999 12.3402C37.2099 12.1202 36.4099 11.9202 35.6099 11.7102H35.2999C36.4499 13.7202 37.5599 15.7502 38.6799 17.7702ZM4.72994 10.0802L4.78994 10.1302L10.1599 5.0002C8.85994 5.3302 7.59994 5.7002 6.33994 6.0902C6.29079 6.10817 6.24587 6.13609 6.20802 6.17223C6.17016 6.20837 6.14017 6.25193 6.11994 6.3002C5.64994 7.5302 5.18994 8.8102 4.72994 10.0802ZM27.3499 4.0002C27.3499 3.8202 27.3499 3.7002 27.2799 3.5902C27.1699 3.0802 27.0399 2.5902 26.9499 2.0702C26.8999 1.7702 26.7899 1.6602 26.4799 1.6502C24.9699 1.5902 23.4799 1.5002 21.9599 1.4202C21.7199 1.4202 21.4899 1.4202 21.2499 1.4202V1.4902L27.3499 4.0002ZM34.5999 7.0602H34.5299C34.6499 8.0602 34.7899 9.0602 34.8899 9.9902C34.9899 10.9202 34.9799 10.9902 35.9799 11.2702L37.9199 11.7602L34.5999 7.0602ZM32.5999 5.4202V5.3402L27.3399 1.9402C27.4999 2.6502 27.6499 3.2702 27.7599 3.9402C27.7724 4.03662 27.8164 4.1262 27.8852 4.19495C27.9539 4.2637 28.0435 4.30774 28.1399 4.3202C29.2299 4.5902 30.3099 4.8802 31.3999 5.1602L32.5999 5.4202ZM11.8299 3.7702L11.8799 3.8302L17.9999 1.4602L17.8699 1.4102L13.5899 1.6602C13.5302 1.66489 13.472 1.68146 13.4188 1.70894C13.3656 1.73641 13.3184 1.77424 13.2799 1.8202C12.7899 2.4602 12.3099 3.1202 11.8299 3.7702ZM3.54994 11.6802L3.48994 11.6202C2.99994 11.8502 2.48994 12.0602 2.02994 12.3002C1.93949 12.3769 1.87924 12.4832 1.85994 12.6002C1.69994 13.2502 1.54994 13.9002 1.39994 14.5402L0.999941 16.4902H1.05994C1.87994 14.8969 2.70994 13.2935 3.54994 11.6802ZM0.549941 21.0002H0.469941C0.469941 22.1002 0.539941 23.2002 0.469941 24.2902C0.399941 25.3802 1.09994 25.5802 1.61994 26.0902L0.549941 21.0002ZM12.2599 2.4402L12.1999 2.3802L7.84994 5.0502C8.84994 4.8102 9.84994 4.5202 10.8499 4.2102C10.9111 4.18651 10.9634 4.14462 10.9999 4.0902L12.2599 2.4402ZM5.06994 7.8002L4.99994 7.7602L2.44994 11.5102C2.92389 11.3806 3.38564 11.21 3.82994 11.0002C3.87403 10.9859 3.91328 10.9596 3.9433 10.9243C3.97332 10.889 3.99293 10.846 3.99994 10.8002C4.33994 9.8002 4.70994 8.8002 5.06994 7.8002ZM38.9999 14.3402H38.8999C39.0299 15.7202 39.1699 17.1002 39.3199 18.5502C39.6099 18.2702 39.8499 18.0602 40.0699 17.8302C40.0875 17.7891 40.0966 17.7449 40.0966 17.7002C40.0966 17.6555 40.0875 17.6113 40.0699 17.5702L38.9999 14.3402ZM39.8799 23.0802H39.9499C40.0299 21.5502 40.1199 20.0202 40.2099 18.3702C39.9199 18.6402 39.7199 18.8102 39.5399 19.0102C39.4639 19.099 39.4246 19.2134 39.4299 19.3302C39.5499 20.5802 39.7099 21.8302 39.8599 23.0802H39.8799ZM23.3099 1.0002C22.4899 0.8102 21.6599 0.6802 20.8399 0.4902C20.4699 0.4002 20.2899 0.4902 20.1699 0.8702L23.3099 1.0002ZM19.7599 0.6202L19.6899 0.5202L17.5899 0.9002C18.1793 0.940412 18.7706 0.940412 19.3599 0.9002C19.4999 0.8402 19.6299 0.7002 19.7599 0.6202Z" fill="#0095FF"/>
</g>
<defs>
<clipPath id="clip0_270_1969">
<rect width="40.66" height="30.65" fill="white"/>
</clipPath>
</defs>
</svg>
