<svg width="52" height="33" viewBox="0 0 52 33" fill="none" xmlns="http://www.w3.org/2000/svg">
<g clip-path="url(#clip0_270_2240)">
<path d="M22.05 9.90967H27V12.6197L22.05 12.8797L21.98 9.90967" fill="white"/>
<path d="M22.05 9.90967H27V12.6197L22.05 12.8797L21.98 9.90967" stroke="#0095FF" stroke-width="0.17" stroke-miterlimit="10"/>
<path d="M1.78979 32.7699L22.9198 12.6099" stroke="#0095FF" stroke-width="0.13" stroke-miterlimit="10"/>
<path d="M51.32 32.4199L26.73 12.6099" stroke="#0095FF" stroke-width="0.13" stroke-miterlimit="10"/>
<path d="M0.369873 0.339844L22.3799 10.2098" stroke="#0095FF" stroke-width="0.75" stroke-miterlimit="10"/>
<path d="M51.32 1.50977L26.73 10.5198" stroke="#0095FF" stroke-width="0.75" stroke-miterlimit="10"/>
<path d="M0.369873 9.41002L22.1599 10.52L0.369873 5.27002" stroke="#0095FF" stroke-width="0.75" stroke-miterlimit="10"/>
<path d="M0.369873 13.3701L22.1599 11.3301" stroke="#0095FF" stroke-width="0.75" stroke-miterlimit="10"/>
<path d="M0.369873 17.2198L22.1599 11.7998" stroke="#0095FF" stroke-width="0.75" stroke-miterlimit="10"/>
<path d="M0.369873 21.1196L22.1599 12.3496" stroke="#0095FF" stroke-width="0.75" stroke-miterlimit="10"/>
<path d="M0.369873 25.2599L22.1599 12.6099" stroke="#0095FF" stroke-width="0.75" stroke-miterlimit="10"/>
<path d="M51.28 10.38L26.96 10.75L51.32 6.22998" stroke="#0095FF" stroke-width="0.75" stroke-miterlimit="10"/>
<path d="M51.3198 13.8199L26.9998 11.3599" stroke="#0095FF" stroke-width="0.75" stroke-miterlimit="10"/>
<path d="M51.3198 17.4296L26.9998 11.6196" stroke="#0095FF" stroke-width="0.75" stroke-miterlimit="10"/>
<path d="M51.3198 21.16L27.0698 11.96" stroke="#0095FF" stroke-width="0.75" stroke-miterlimit="10"/>
<path d="M51.3198 25.26L26.9998 12.27" stroke="#0095FF" stroke-width="0.75" stroke-miterlimit="10"/>
<path d="M0.369873 30.0301L22.2599 12.8101" stroke="#0095FF" stroke-width="0.75" stroke-miterlimit="10"/>
<path d="M51.32 29.3097L26.96 12.4697" stroke="#0095FF" stroke-width="0.75" stroke-miterlimit="10"/>
<path d="M1.78979 32.7699L10.7798 24.1899H40.7998L51.3198 32.4199L1.78979 32.7699Z" fill="white"/>
<path d="M10.8899 24.0899L15.0199 20.1499L36.1599 20.2199L40.7999 24.0899H10.8899Z" fill="white"/>
<path d="M15.1299 20.0499L17.2299 18.1099L33.6299 18.1799L36.0799 20.1499L15.1299 20.0499Z" fill="white"/>
<path d="M17.3198 17.96L18.4598 16.87L31.9098 16.79L33.5398 18.11L17.3198 17.96Z" fill="white"/>
<path d="M19.5598 15.8198L18.5398 16.7898L31.7598 16.6698L30.3398 15.5298L19.7498 15.6398L19.5598 15.8198Z" fill="white"/>
<path d="M22.8198 12.7096L26.7298 12.6196L28.2598 13.8496L21.7798 13.6996L22.8198 12.7096Z" fill="white"/>
<path d="M21.6599 13.8198L28.3399 13.9098L30.2199 15.4298L19.8499 15.5398L21.6599 13.8198Z" fill="white"/>
<path d="M9.06994 4.23975C7.47504 7.64898 6.62844 11.3601 6.58704 15.1238C6.54565 18.8874 7.31041 22.6163 8.82994 26.0597" stroke="#0095FF" stroke-width="0.75" stroke-miterlimit="10"/>
<path d="M14.8199 6.81982C13.7926 8.96704 13.2353 11.3087 13.1853 13.6885C13.1353 16.0683 13.5937 18.4313 14.5299 20.6198" stroke="#0095FF" stroke-width="0.75" stroke-miterlimit="10"/>
<path d="M17.3099 7.93994C17.3099 7.93994 14.5699 12.9999 17.2299 18.1099" stroke="#0095FF" stroke-width="0.75" stroke-miterlimit="10"/>
<path d="M18.9099 8.6499C18.9099 8.6499 16.9099 11.3799 18.7799 16.5599" stroke="#0095FF" stroke-width="0.75" stroke-miterlimit="10"/>
<path d="M19.8499 9.06982C19.4022 10.0855 19.1635 11.1808 19.148 12.2907C19.1326 13.4005 19.3407 14.5021 19.7599 15.5298" stroke="#0095FF" stroke-width="0.75" stroke-miterlimit="10"/>
<path d="M20.7 9.45996C20.324 10.2504 20.1289 11.1147 20.1289 11.99C20.1289 12.8652 20.324 13.7295 20.7 14.52" stroke="#0095FF" stroke-width="0.75" stroke-miterlimit="10"/>
<path d="M21.36 9.75C21.36 9.75 20.36 12.24 21.43 13.85" stroke="#0095FF" stroke-width="0.75" stroke-miterlimit="10"/>
<path d="M22.0399 10.0601C21.7848 11.0793 21.8194 12.1495 22.1399 13.1501" stroke="#0095FF" stroke-width="0.75" stroke-miterlimit="10"/>
<path d="M42.8198 4.23975C44.4147 7.64898 45.2613 11.3601 45.3027 15.1238C45.3441 18.8874 44.5793 22.6163 43.0598 26.0597" stroke="#0095FF" stroke-width="0.75" stroke-miterlimit="10"/>
<path d="M36.2598 7C37.287 9.14722 37.8443 11.4889 37.8943 13.8687C37.9443 16.2485 37.4859 18.6115 36.5498 20.8" stroke="#0095FF" stroke-width="0.75" stroke-miterlimit="10"/>
<path d="M33.3999 8.08984C33.3999 8.08984 36.1399 12.9998 33.4799 17.9198" stroke="#0095FF" stroke-width="0.75" stroke-miterlimit="10"/>
<path d="M31.6099 8.79004C31.6099 8.79004 33.6099 11.51 31.7399 16.69" stroke="#0095FF" stroke-width="0.75" stroke-miterlimit="10"/>
<path d="M30.3899 9.17969C30.8379 10.1935 31.0768 11.2872 31.0923 12.3955C31.1078 13.5038 30.8995 14.6038 30.4799 15.6297" stroke="#0095FF" stroke-width="0.75" stroke-miterlimit="10"/>
<path d="M29.2698 9.5498C29.643 10.341 29.8366 11.205 29.8366 12.0798C29.8366 12.9546 29.643 13.8186 29.2698 14.6098" stroke="#0095FF" stroke-width="0.75" stroke-miterlimit="10"/>
<path d="M28.6098 9.90967C28.6098 9.90967 29.6098 12.3997 28.5398 14.0097" stroke="#0095FF" stroke-width="0.75" stroke-miterlimit="10"/>
</g>
<defs>
<clipPath id="clip0_270_2240">
<rect width="51.39" height="32.82" fill="white" transform="translate(0.139893)"/>
</clipPath>
</defs>
</svg>
