<svg width="38" height="36" viewBox="0 0 38 36" fill="none" xmlns="http://www.w3.org/2000/svg">
<g clip-path="url(#clip0_270_1456)">
<path d="M1.65994 22.9998C1.65994 22.6998 1.52994 22.3498 1.43994 21.9998L3.76994 21.5298C3.94994 21.9398 4.12994 22.3598 4.31994 22.7798C3.58552 23.0688 2.83412 23.3125 2.06994 23.5098L1.71994 22.6998C1.71994 22.8298 1.71994 22.9298 1.71994 23.0198L1.65994 22.9998Z" fill="white"/>
<path d="M4.13992 13.67C3.96992 14.12 3.79992 14.54 3.62992 14.99L1.41992 14.58C1.48709 14.0344 1.63539 13.5018 1.85992 13L4.13992 13.67Z" fill="white"/>
<path d="M1.37991 14.6899V14.9699L3.58991 15.3799C3.58991 15.8399 3.58991 16.2899 3.58991 16.7699L1.22991 16.5699V15.8099L1.15991 15.8699C1.23991 15.4599 1.30991 15.0699 1.38991 14.6899H1.37991Z" fill="white"/>
<path d="M10.9 33.9998C10.5912 33.8422 10.2908 33.6686 9.99997 33.4798C9.89997 33.4098 9.82997 33.2798 9.69997 33.2298L9.46997 33.1498C9.63682 32.9488 9.7873 32.7348 9.91997 32.5098C10.08 32.2798 10.25 32.0698 10.41 31.8398C10.57 31.6098 10.55 31.5898 10.62 31.4598C10.69 31.3298 10.69 31.3498 10.73 31.2798L12 31.7798L11.6 32.5498L11 33.6798C10.9547 33.7556 10.9011 33.826 10.84 33.8898H10.94L10.9 33.9998Z" fill="white"/>
<path d="M5.5 29.5899C5.11013 29.2368 4.77331 28.8293 4.5 28.3799C5.06 27.9999 5.66 27.5599 6.29 27.1299L7.29 28.1299L5.5 29.5899Z" fill="white"/>
<path d="M20.4399 0.129875L20.2499 2.47988H18.9399C18.9399 1.68988 18.9399 0.899875 18.9399 0.0898752C19.4099 0.0498752 19.9099 0.119875 20.4399 0.129875Z" fill="white"/>
<path d="M27.33 2.06006L28.72 2.88006L27.5 4.71006L26.21 4.18006L27.33 2.06006Z" fill="white"/>
<path d="M27.8401 4.93986C28.3101 4.36986 28.6201 3.70986 29.0701 3.10986L30.3401 4.10986L28.8701 5.92986L27.8401 4.93986Z" fill="white"/>
<path d="M1.3101 20L3.6601 19.77C3.6601 20.23 3.6601 20.67 3.6601 21.1L1.4601 21.6C1.31276 21.0803 1.26192 20.538 1.3101 20Z" fill="white"/>
<path d="M12.04 1.52994L13.48 0.939941C13.73 1.69994 13.96 2.43994 14.2 3.19994L12.99 3.71994C12.66 2.99994 12.37 2.27994 12.04 1.52994Z" fill="white"/>
<path d="M7.35001 4.40967L8.88001 6.22967L7.96001 7.17967L6.26001 5.49967C6.66001 5.12967 6.95001 4.75967 7.35001 4.40967Z" fill="white"/>
<path d="M17.23 0.210078C17.74 0.120078 18.23 0.130078 18.78 0.0800781V2.49008H17.51C17.41 1.74008 17.32 1.00008 17.23 0.210078Z" fill="white"/>
<path d="M29.99 6.9998C30.53 6.4498 31.08 5.8798 31.66 5.2998C32.01 5.6698 32.35 6.0398 32.72 6.4198L30.9 7.9098L29.99 6.9998Z" fill="white"/>
<path d="M11.56 4.32979L10.27 4.87979L9.04004 3.11979C9.47156 2.80592 9.92619 2.52512 10.4 2.27979L11.56 4.32979Z" fill="white"/>
<path d="M36.8901 17.79L34.5701 17.85V16.53L36.8401 16.25C36.9271 16.7586 36.9439 17.2768 36.8901 17.79Z" fill="white"/>
<path d="M9.40993 30.1499L10.4099 31.0899C10.3299 31.1899 10.2799 31.2699 10.2099 31.3499C10.1399 31.4299 10.1199 31.5199 10.0099 31.5799C9.89993 31.6399 9.93993 31.7499 9.88993 31.8299L9.25993 32.8299L9.20993 32.9199L9.41993 33.0799C9.34993 33.0799 9.30993 33.0799 9.28993 33.0799C9.10931 33.008 8.94579 32.899 8.80993 32.7599C8.62993 32.5099 8.34993 32.3999 8.15993 32.1599C8.0893 32.0984 8.01218 32.0447 7.92993 31.9999L9.40993 30.1499Z" fill="white"/>
<path d="M24.2599 0.819824L25.6599 1.35982C25.3599 2.10982 25.0699 2.83982 24.7699 3.60982L23.6599 3.11982L24.2599 0.819824Z" fill="white"/>
<path d="M23.49 3.06969L22.2 2.54969C22.29 1.83969 22.44 1.14969 22.57 0.429688C23.0983 0.514911 23.6196 0.638572 24.1299 0.799688C23.9099 1.54969 23.71 2.28969 23.49 3.06969Z" fill="white"/>
<path d="M6.16011 5.60986L7.88011 7.26986L6.97011 8.26986L5.11011 6.71986L6.16011 5.60986Z" fill="white"/>
<path d="M13.23 34.9399L14.16 35.2099L14.83 32.9399L16.07 33.4099C15.93 34.1499 15.7933 34.8799 15.66 35.5999C15.4431 35.6065 15.2267 35.5761 15.02 35.5099C14.89 35.3199 14.66 35.3599 14.48 35.2999C14.3 35.2399 14.33 35.2999 14.27 35.2999C13.9297 35.2206 13.5955 35.117 13.27 34.9899L13.23 34.9399Z" fill="white"/>
<path d="M23.8499 32.77C24.0799 33.53 24.3099 34.25 24.5299 34.97C24.2303 35.1777 23.8891 35.3176 23.5299 35.38C23.3669 35.395 23.2029 35.395 23.0399 35.38C22.9499 34.92 22.8499 34.46 22.7599 33.99C22.8199 33.89 22.7599 33.83 22.7599 33.75C22.7133 33.6264 22.6765 33.4994 22.6499 33.37L23.8499 32.77Z" fill="white"/>
<path d="M20.5699 0.159668C21.1032 0.185036 21.6344 0.245164 22.1599 0.339668C22.0299 1.04967 21.9099 1.74967 21.7899 2.46967H20.3899C20.4499 1.69967 20.5099 0.939668 20.5699 0.159668Z" fill="white"/>
<path d="M11.92 1.56982L12.92 3.76982L11.66 4.26982L10.5 2.26982C10.9605 2.01127 11.4345 1.7776 11.92 1.56982Z" fill="white"/>
<path d="M4.96008 24.2598C5.13008 24.6698 5.30008 25.0498 5.48008 25.4498C4.81008 25.8598 4.12008 26.2098 3.41008 26.6098C3.23008 26.1198 2.98008 25.6798 2.83008 25.1698L4.96008 24.2598Z" fill="white"/>
<path d="M28.96 6.00012L30.44 4.12012L31.57 5.12012L29.88 6.94012L28.96 6.00012Z" fill="white"/>
<path d="M3.09009 9.82998C3.36009 9.36998 3.61009 8.92998 3.88009 8.47998C4.53009 8.82998 5.07009 9.31998 5.75009 9.64998C5.58009 10.08 5.41009 10.5 5.23009 10.93L3.09009 9.82998Z" fill="white"/>
<path d="M36.66 21.5597C36.5759 22.076 36.4488 22.5845 36.28 23.0797C35.53 22.8897 34.79 22.6697 34.02 22.4597C34.19 22.0197 34.36 21.5997 34.54 21.1597L36.66 21.5597Z" fill="white"/>
<path d="M7.43994 4.3201L8.65994 3.3501C9.07994 3.9501 9.48994 4.5301 9.89994 5.1301C9.56994 5.4401 9.22994 5.7501 8.89994 6.1301L7.43994 4.3201Z" fill="white"/>
<path d="M2.48999 11.38C2.67999 10.89 2.85999 10.38 3.04999 9.95996L5.17999 11.07C5.01999 11.46 4.86999 11.85 4.70999 12.25L2.48999 11.38Z" fill="white"/>
<path d="M14.0601 35.1197L12.6001 34.5597C12.8901 33.8497 13.1701 33.1397 13.4701 32.4097L14.7101 32.8797L14.0601 35.1197Z" fill="white"/>
<path d="M6.88987 8.30008L5.95987 9.30008C5.36987 8.86008 4.65987 8.58008 4.11987 8.10008L5.02987 6.83008L6.88987 8.30008Z" fill="white"/>
<path d="M16.4701 33.5098H17.8601C17.8101 34.2998 17.7001 35.0598 17.6501 35.8498L16.0601 35.6798C16.2001 34.9198 16.3301 34.2198 16.4701 33.5098Z" fill="white"/>
<path d="M34.8501 9.58008C35.0701 10.0501 35.2901 10.5001 35.5101 10.9801L33.3101 11.9201L32.8101 10.7201L34.8501 9.58008Z" fill="white"/>
<path d="M11.03 33.9999C11.4 33.2899 11.76 32.6199 12.13 31.9199L13.35 32.4099C13.06 33.1299 12.78 33.8299 12.48 34.5599L11.03 33.9999Z" fill="white"/>
<path d="M13.6599 0.93002C14.1499 0.76002 14.6599 0.65002 15.1599 0.52002C15.3799 1.20002 15.4099 1.92002 15.6499 2.61002L14.3999 3.14002C14.1021 2.42146 13.8549 1.683 13.6599 0.93002Z" fill="white"/>
<path d="M27.2199 1.99967L26.0899 4.12967L24.9299 3.64967L25.8199 1.40967L27.2199 1.99967Z" fill="white"/>
<path d="M32.8 6.5L33.8 7.76L31.98 9L30.98 8L32.8 6.5Z" fill="white"/>
<path d="M20.9001 35.7697H21.0801C20.9901 35.0097 20.9101 34.2497 20.8301 33.4697H22.1501L22.6601 35.4897H22.9001C22.6618 35.6309 22.3865 35.6971 22.1101 35.6797C21.9011 35.6722 21.6921 35.6958 21.4901 35.7497L20.9201 35.8797V35.7897L20.9001 35.7697Z" fill="white"/>
<path d="M3.44011 26.7699L3.54011 26.8999C3.54011 26.7699 3.54011 26.7099 3.60011 26.6499L5.50011 25.6499C5.66677 26.0299 5.83677 26.4199 6.01011 26.8199L5.88011 26.9299L4.36011 27.9299C4.29011 27.9799 4.19011 28.0099 4.17011 28.1399C4.12011 28.0499 4.08011 27.9599 4.03011 27.8799C3.98011 27.7999 3.93011 27.5399 3.73011 27.4899C3.58012 27.2859 3.45585 27.0643 3.36011 26.8299L3.44011 26.7699Z" fill="white"/>
<path d="M32.75 10.5999L32.21 9.29986L33.96 8.10986C34.2588 8.54732 34.5326 9.00138 34.78 9.46986L32.75 10.5999Z" fill="white"/>
<path d="M36.0801 12.5201L33.8601 13.2201C33.6901 12.8301 33.5301 12.4401 33.3601 12.0301L35.5501 11.1001C35.7301 11.5701 35.9001 12.0001 36.0801 12.5201Z" fill="white"/>
<path d="M3.58999 18.3501C3.58999 18.7701 3.58999 19.1901 3.58999 19.6301L1.31999 19.9001C1.26476 19.3849 1.26476 18.8653 1.31999 18.3501H3.58999Z" fill="white"/>
<path d="M34.4399 14.6096L33.9099 13.3296L36.0999 12.6396C36.2736 13.1415 36.4204 13.6522 36.5399 14.1696L35.3399 14.4296L34.4399 14.6096Z" fill="white"/>
<path d="M34.5901 19.26V18H36.8801C36.9445 18.5046 36.9445 19.0154 36.8801 19.52L34.5901 19.26Z" fill="white"/>
<path d="M34.6001 20.7696V19.3896L36.8901 19.5796C36.8301 20.0996 36.7701 20.5796 36.7101 21.1396L34.6001 20.7696Z" fill="white"/>
<path d="M1.25995 18.19C1.25995 17.7 1.25995 17.19 1.19995 16.71C2.00995 16.77 2.77995 16.85 3.56995 16.92V18.16C2.80146 18.221 2.02977 18.2311 1.25995 18.19Z" fill="white"/>
<path d="M24.0901 14.8398C24.3501 15.4598 24.6101 16.0598 24.8901 16.6798L22.8901 17.1198C22.7101 16.7498 22.5401 16.3798 22.3601 15.9898L24.0901 14.8398Z" fill="white"/>
<path d="M34.9599 26.2196L34.1399 27.5996C33.8199 27.3796 33.5199 27.1896 33.2299 26.9796C33.1199 26.8996 32.9599 26.8596 32.9099 26.6996C32.7399 26.6996 32.6599 26.5596 32.5199 26.5096C32.4674 26.4898 32.4197 26.4591 32.3799 26.4196L32.8999 25.1396L34.9599 26.2196Z" fill="white"/>
<path d="M19.33 35.78H17.78C17.86 35.02 17.93 34.26 18.01 33.48H19.28C19.32 34.23 19.29 35 19.33 35.78Z" fill="white"/>
<path d="M16.7499 14.9297L15.9199 15.7997L14.1899 14.6497L15.5799 13.2197L16.7499 14.9297Z" fill="white"/>
<path d="M4.65991 12.38C4.50991 12.77 4.35991 13.14 4.20991 13.54C3.42991 13.34 2.67991 13.11 1.90991 12.88L2.44991 11.5L4.65991 12.38Z" fill="white"/>
<path d="M24.97 34.84L24.66 35C24.43 34.26 24.2 33.53 23.97 32.77L25.14 32.27C25.45 32.98 25.75 33.68 26.07 34.4L25.5 34.64L25.27 34.77C25.2252 34.7649 25.1798 34.7725 25.1392 34.792C25.0985 34.8114 25.0641 34.8419 25.04 34.88L24.97 34.84Z" fill="white"/>
<path d="M30.1899 28.7499L31.1399 27.8599L32.9099 29.2699L31.8599 30.3799L30.1899 28.7499Z" fill="white"/>
<path d="M2.75989 25.05L2.13989 23.68C2.88989 23.41 3.62989 23.23 4.36989 22.96C4.57989 23.34 4.70989 23.73 4.89989 24.13L2.75989 25.05Z" fill="white"/>
<path d="M30.0999 28.8599L31.7599 30.4799C31.4143 30.843 31.0397 31.1774 30.6399 31.4799L29.1899 29.7499L30.0999 28.8599Z" fill="white"/>
<path d="M27.57 33.7199C27.516 33.7803 27.4497 33.8286 27.3755 33.8613C27.3014 33.8941 27.2211 33.9107 27.14 33.9099C27.0662 33.9196 26.9949 33.9433 26.93 33.9799L26.19 34.2999C25.88 33.5999 25.58 32.8899 25.27 32.1599L26.41 31.6699L27.57 33.7199Z" fill="white"/>
<path d="M8.40002 29.1699L9.27002 30.0899C8.82002 30.6699 8.34002 31.2699 7.85002 31.8799L6.77002 30.8799L8.40002 29.1699Z" fill="white"/>
<path d="M28.99 32.8001L27.66 33.6301L26.53 31.6301L27.8 31.0801L28.99 32.8001Z" fill="white"/>
<path d="M34.54 16.4001V15.0601L36.66 14.5801C36.7773 15.0862 36.8509 15.6014 36.88 16.1201L34.54 16.4001Z" fill="white"/>
<path d="M20.9 35.76H19.45V33.46H20.68C20.68 33.59 20.68 33.69 20.68 33.79L20.8899 35.59C20.899 35.663 20.899 35.7369 20.8899 35.81L20.9 35.76Z" fill="white"/>
<path d="M32.95 25.0001C33.11 24.6201 33.2599 24.2401 33.4199 23.8501L35.56 24.6901C35.4291 25.174 35.2411 25.6406 35 26.0801L32.95 25.0001Z" fill="white"/>
<path d="M35.66 24.5998L33.49 23.7298C33.64 23.3398 33.8 22.9598 33.95 22.5698L36.21 23.2098C36 23.6798 35.83 24.1298 35.66 24.5998Z" fill="white"/>
<path d="M17.0499 14.7297L15.8899 12.9997L17.7099 12.2397C17.8599 12.9297 17.9999 13.5997 18.1299 14.2397L17.0499 14.7297Z" fill="white"/>
<path d="M17.3801 2.50996H16.0301C15.8801 1.82996 15.7201 1.14996 15.5601 0.449961C16.0672 0.334361 16.5818 0.254167 17.1001 0.209961L17.3801 2.50996Z" fill="white"/>
<path d="M6.65991 30.7397L5.65991 29.6497L7.39991 28.1997L8.29991 29.0797C7.74991 29.6297 7.21991 30.1797 6.65991 30.7397Z" fill="white"/>
<path d="M29.1299 29.9199L30.5299 31.6099C30.1989 32.0083 29.7817 32.3263 29.3099 32.5399L28.1399 30.8499L29.1299 29.9199Z" fill="white"/>
<path d="M13.2099 19.1299C13.2099 18.4599 13.2099 17.8299 13.1599 17.1299C13.8499 17.2399 14.5099 17.3799 15.1599 17.5099V18.7099L13.2099 19.1299Z" fill="white"/>
<path d="M15.71 16.08C15.57 16.45 15.43 16.8 15.27 17.18L13.27 16.79L14 15L15.71 16.08Z" fill="white"/>
<path d="M22.4601 13.1499L23.8901 14.5099L22.1601 15.6899L21.3401 14.8899C21.7201 14.3099 22.0801 13.7399 22.4601 13.1499Z" fill="white"/>
<path d="M32.99 29.15L31.2 27.73L32.1399 26.73C32.6899 27.18 33.33 27.48 33.9 27.9C33.66 28.35 33.3 28.74 32.99 29.15Z" fill="white"/>
<path d="M17.85 23.94L16.02 23.23L17.12 21.5L18.2 21.94C18.09 22.6 17.97 23.26 17.85 23.94Z" fill="white"/>
<path d="M20.0401 12.1797C19.9101 12.8697 19.7801 13.5297 19.6501 14.1797H18.5001C18.3601 13.5197 18.2301 12.8497 18.0901 12.1797H20.0401Z" fill="white"/>
<path d="M20.5299 23.9101C20.3899 23.2201 20.2499 22.5701 20.1199 21.9101L20.8399 21.6101C20.9071 21.5847 20.9709 21.5511 21.0299 21.5101C21.1199 21.4501 21.1799 21.4601 21.2399 21.5101C21.5999 22.0301 21.9499 22.5101 22.3099 23.0601C22.3131 23.0766 22.3131 23.0936 22.3099 23.1101L20.5299 23.9101Z" fill="white"/>
<path d="M15.26 19.1099C15.42 19.4699 15.56 19.8099 15.72 20.1899C15.2 20.5799 14.65 20.9499 14.08 21.3599C13.82 20.7299 13.57 20.1299 13.3 19.4999L15.26 19.1099Z" fill="white"/>
<path d="M22.35 20.4097L24.03 21.4697L22.66 22.9097L21.5 21.2497L22.35 20.4097Z" fill="white"/>
<path d="M19.76 22C19.89 22.65 20.02 23.29 20.16 24H18.22C18.35 23.31 18.44 22.64 18.58 22H19.76Z" fill="white"/>
<path d="M14.3 21.66L15.95 20.5L16.79 21.31L15.66 23C15.21 22.58 14.77 22.12 14.3 21.66Z" fill="white"/>
<path d="M22.95 19L24.95 19.37C24.71 19.98 24.48 20.59 24.25 21.19L22.65 20.19C22.52 20.1 22.54 20.09 22.65 19.94L22.94 19.19L22.95 19Z" fill="white"/>
<path d="M20.41 12.2197L22.15 12.9497L21.03 14.7097C20.6889 14.5852 20.355 14.4417 20.03 14.2797C20.14 13.5997 20.27 12.9297 20.41 12.2197Z" fill="white"/>
<path d="M27.3 7.92008L26.47 7.00008C26.87 6.39008 27.29 5.74008 27.73 5.08008L28.73 6.08008L27.3 7.92008Z" fill="white"/>
<path d="M23 18.6001V17.4701L25 17.0601C25 17.7101 25 18.3201 25 18.9601L23 18.6001Z" fill="white"/>
<path d="M25.01 6.4501L26.13 4.3501L27.4 4.8801L26.11 6.8801C25.74 6.7701 25.39 6.6001 25.01 6.4501Z" fill="white"/>
<path d="M30.5401 11.8297L30.0701 10.7597L32.0701 9.40967L32.6101 10.6797L30.5401 11.8297Z" fill="white"/>
<path d="M10.6001 8.06978L9.09009 6.27979L10.0901 5.27979C10.5401 5.92979 10.9801 6.56978 11.4401 7.20978L10.6001 8.06978Z" fill="white"/>
<path d="M15.6599 2.81006C15.8299 3.59006 15.9899 4.34006 16.1599 5.11006L15.0899 5.58006L14.3799 3.35006L15.6599 2.81006Z" fill="white"/>
<path d="M34.27 14.6699L31.98 15.1699L31.51 14.0799L33.73 13.3799L34.27 14.6699Z" fill="white"/>
<path d="M12.8099 6.53977L11.7299 6.99977C11.2899 6.35977 10.8599 5.70977 10.3999 5.04977C10.8199 4.84977 11.2199 4.67977 11.6599 4.50977L12.8099 6.53977Z" fill="white"/>
<path d="M3.82007 14.9997L4.34007 13.6997L6.55007 14.3397C6.41007 14.6997 6.27007 15.0497 6.12007 15.4097C5.36007 15.3297 4.60007 15.1797 3.82007 14.9997Z" fill="white"/>
<path d="M29.05 9.62012L30.85 8.12012L31.85 9.12012L29.85 10.4501L29.05 9.62012Z" fill="white"/>
<path d="M6.65994 22.09L4.46994 22.78C4.28994 22.34 4.12994 21.93 3.93994 21.49C4.67994 21.3 5.41994 21.17 6.17994 21C6.37994 21.35 6.52994 21.71 6.65994 22.09Z" fill="white"/>
<path d="M21.3099 4.99996H20.2C20.2166 4.23308 20.2835 3.46812 20.4 2.70996H21.7099C21.6321 3.48195 21.4984 4.24729 21.3099 4.99996Z" fill="white"/>
<path d="M22.79 5.52002L21.73 5.07002C21.87 4.31002 22.01 3.56002 22.15 2.77002L23.43 3.27002C23.22 4.00002 23.01 4.76002 22.79 5.52002Z" fill="white"/>
<path d="M6.11011 9.40967L7.05011 8.40967L8.87011 9.85967L8.09011 10.6997L6.11011 9.40967Z" fill="white"/>
<path d="M32.22 26.33L30.27 25.07L30.66 24L32.66 25.06C32.56 25.47 32.39 25.89 32.22 26.33Z" fill="white"/>
<path d="M6.05002 15.8397V16.9997C5.30002 16.9997 4.55002 16.8597 3.77002 16.7997V15.4297L6.05002 15.8397Z" fill="white"/>
<path d="M7.4499 12.1L5.3999 11L5.9099 9.72998L7.9099 10.99C7.7299 11.38 7.5899 11.72 7.4499 12.1Z" fill="white"/>
<path d="M34.3001 21.1099L33.8001 22.3999L31.5901 21.7599C31.7301 21.3999 31.8701 21.0599 32.0101 20.6899L34.3001 21.1099Z" fill="white"/>
<path d="M23.79 32.5897L22.51 33.1297C22.35 32.3697 22.19 31.6397 22.03 30.8897L23.1 30.4297C23.36 31.1397 23.56 31.8597 23.79 32.5897Z" fill="white"/>
<path d="M16.51 33.3098C16.66 32.5398 16.8 31.7998 16.93 31.0498H18.09C18.04 31.7898 17.96 32.5198 17.89 33.2698C17.4311 33.3086 16.9704 33.3219 16.51 33.3098Z" fill="white"/>
<path d="M34.3801 20.7099L32.1101 20.2999V19.1499L34.3801 19.3599V20.7099Z" fill="white"/>
<path d="M16.0701 2.73975H17.4001C17.5001 3.48975 17.5901 4.23975 17.6901 5.01975H16.5501C16.3901 4.27975 16.2301 3.51975 16.0701 2.73975Z" fill="white"/>
<path d="M27.7101 30.8997L26.4501 31.4397C26.0901 30.7997 25.7201 30.1497 25.3501 29.4397L26.3501 28.9897L27.7101 30.8997Z" fill="white"/>
<path d="M30.06 25.3896L31.99 26.6496C31.67 26.9796 31.36 27.2896 31.05 27.6496L29.26 26.2096L30.06 25.3896Z" fill="white"/>
<path d="M10.94 28.23L11.76 29.02C11.33 29.66 10.92 30.29 10.5 30.93L9.5 30L10.94 28.23Z" fill="white"/>
<path d="M6.48999 27L8.36999 25.71L9.15999 26.53L7.44999 28L6.48999 27Z" fill="white"/>
<path d="M12.1001 29.23L13.1501 29.66C12.7901 30.33 12.4501 30.98 12.1001 31.66L10.8401 31.16L12.1001 29.23Z" fill="white"/>
<path d="M32.0701 16.6898V15.5698L34.3201 15.0898C34.3201 15.5398 34.3201 15.9698 34.3201 16.4198L32.0701 16.6898Z" fill="white"/>
<path d="M6.10994 20.62C5.35994 20.76 4.63994 20.94 3.87994 21.06C3.87994 20.61 3.81994 20.19 3.87994 19.74L6.13994 19.48L6.10994 20.62Z" fill="white"/>
<path d="M26.75 28.81L27.55 28.02L28.97 29.74L28.04 30.68C27.6 30.05 27.17 29.43 26.75 28.81Z" fill="white"/>
<path d="M16.1099 33.2398L14.8799 32.7598C15.0899 32.0298 15.2999 31.3098 15.5099 30.5698L16.5099 30.9698C16.3999 31.7298 16.2599 32.4698 16.1099 33.2398Z" fill="white"/>
<path d="M13.9901 6.00012C13.6801 5.30012 13.3901 4.60012 13.0801 3.89012C13.4601 3.70012 13.8501 3.54012 14.2701 3.37012C14.5001 4.12012 14.7301 4.84012 14.9701 5.59012L13.9901 6.00012Z" fill="white"/>
<path d="M7.65995 24.3999L8.09995 25.3999L6.22995 26.6999C6.04995 26.2799 5.87995 25.8899 5.69995 25.4999L7.65995 24.3999Z" fill="white"/>
<path d="M20.23 2.69969C20.17 3.45969 20.1 4.20969 20.04 4.98969C19.66 4.99969 19.36 4.99969 18.99 4.99969C18.99 4.20969 18.99 3.45969 18.99 2.67969L20.23 2.69969Z" fill="white"/>
<path d="M9.77987 8.91988L8.11987 7.31988C8.38987 6.98988 8.68987 6.69988 8.99987 6.37988L10.5099 8.14988L9.77987 8.91988Z" fill="white"/>
<path d="M17.81 4.99993L17.54 2.73993C17.9614 2.68954 18.3858 2.66949 18.81 2.67993C18.87 3.44993 18.81 4.21993 18.86 4.99993H17.81Z" fill="white"/>
<path d="M20.8 33.22C20.71 32.47 20.63 31.74 20.55 31H21.66C21.82 31.72 21.98 32.47 22.14 33.22H20.8Z" fill="white"/>
<path d="M3.83008 19.5798V18.3198C4.57008 18.3198 5.32008 18.3198 6.09008 18.3198C6.09008 18.4998 6.09008 18.6698 6.09008 18.8398V19.3298C5.34354 19.4661 4.58834 19.5496 3.83008 19.5798Z" fill="white"/>
<path d="M24.7399 3.77984L23.8699 5.99984L22.9199 5.56984C23.1199 4.82984 23.3299 4.09984 23.5499 3.33984L24.7399 3.77984Z" fill="white"/>
<path d="M8.96988 9.76967L7.12988 8.33967C7.41988 8.01967 7.70988 7.70967 8.01988 7.40967L9.65988 8.99967L8.96988 9.76967Z" fill="white"/>
<path d="M28.1099 8.73994L27.4099 7.99994L28.8399 6.18994L29.7499 7.07994L28.1099 8.73994Z" fill="white"/>
<path d="M33.1501 11.9998L31.0101 12.9198L30.5801 11.9198L32.5801 10.7798C32.8301 11.1898 32.9601 11.5898 33.1501 11.9998Z" fill="white"/>
<path d="M28.95 9.53965L28.25 8.75965L29.84 7.13965L30.71 8.06965L28.95 9.53965Z" fill="white"/>
<path d="M7.21988 23.29L7.63988 24.29C6.99988 24.68 6.32988 25.03 5.63988 25.4L5.12988 24.22L7.21988 23.29Z" fill="white"/>
<path d="M14.39 30.1396L15.39 30.5196C15.19 31.2496 14.98 31.9596 14.77 32.6896C14.35 32.5696 13.97 32.3897 13.55 32.2397L14.39 30.1396Z" fill="white"/>
<path d="M31.4601 13.9997C31.3201 13.6697 31.2001 13.3797 31.0701 13.0897C31.7434 12.7296 32.4419 12.4188 33.1601 12.1597C33.3743 12.5205 33.5423 12.9069 33.6601 13.3097L31.4601 13.9997Z" fill="white"/>
<path d="M34.3901 19.24L32.1001 19V18H34.3701C34.4201 18.4 34.3701 18.8 34.3901 19.24Z" fill="white"/>
<path d="M34.3601 16.5498C34.3601 16.9898 34.3601 17.3998 34.3601 17.8398H32.0801V16.8198L34.3601 16.5498Z" fill="white"/>
<path d="M12.22 31.6997C12.57 31.0297 12.92 30.3797 13.22 29.6997L14.22 30.0897L13.37 32.1897L12.22 31.6997Z" fill="white"/>
<path d="M11.79 4.45L12.95 4L13.87 6.13L12.93 6.53C12.54 5.83 12.2 5.15 11.79 4.45Z" fill="white"/>
<path d="M29.9601 28.7197L29.0201 29.5897L27.6001 27.8897L28.3701 27.1797L29.9601 28.7197Z" fill="white"/>
<path d="M30.94 27.7001C30.67 28.0401 30.3499 28.3001 30.0599 28.6201L28.45 27.0701L29.2199 26.3301L30.94 27.7001Z" fill="white"/>
<path d="M7.01988 13.1799L4.87988 12.3299L5.34988 11.1499L7.34988 12.2199L7.01988 13.1799Z" fill="white"/>
<path d="M24.91 6.39982L24.02 5.99982C24.2582 5.25496 24.5455 4.52669 24.88 3.81982L26 4.27982L24.91 6.39982Z" fill="white"/>
<path d="M19.29 33.27H18.02C18.09 32.53 18.16 31.8 18.23 31.04H19.23C19.3 31.78 19.28 32.51 19.29 33.27Z" fill="white"/>
<path d="M4.59009 22.8897L6.75009 22.2197C6.89009 22.5297 7.02009 22.8297 7.16009 23.1597L5.08009 24.0597L4.59009 22.8897Z" fill="white"/>
<path d="M6.07005 17.1499V18.1499H3.80005C3.80005 17.7699 3.80005 17.3699 3.80005 16.9899C4.56013 16.9686 5.32047 17.0222 6.07005 17.1499Z" fill="white"/>
<path d="M4.38989 13.5997L4.82989 12.4497L6.96989 13.2997L6.59989 14.2397C5.84989 14.0497 5.13989 13.8197 4.38989 13.5997Z" fill="white"/>
<path d="M9.43003 29.9099L8.53003 28.9999L10.1 27.3799L10.85 28.0999L9.43003 29.9099Z" fill="white"/>
<path d="M31.1599 22.8196L31.5399 21.8896C32.2799 22.0796 32.9899 22.2996 33.7499 22.5196C33.6199 22.9096 33.4499 23.2696 33.2899 23.6596L31.1599 22.8196Z" fill="white"/>
<path d="M23.23 30.38L24.17 29.98L25.07 32.04L23.91 32.54C23.66 31.82 23.46 31.11 23.23 30.38Z" fill="white"/>
<path d="M8.44007 28.9301C8.14007 28.6401 7.86007 28.3501 7.57007 28.0501L9.28007 26.6201L10.0101 27.3201C9.49007 27.8801 8.95007 28.4001 8.44007 28.9301Z" fill="white"/>
<path d="M19.4199 33.28V31H20.4199L20.6599 33.23L19.4199 33.28Z" fill="white"/>
<path d="M26.53 14.84L24.6 15.67L24.2 14.76L25.9699 13.54L26.53 14.84Z" fill="white"/>
<path d="M24.3 29.93L25.22 29.52L26.32 31.52L25.1901 32L24.3 29.93Z" fill="white"/>
<path d="M33.23 23.8197C33.08 24.1797 32.93 24.5397 32.78 24.9197L30.78 23.8697L31.13 22.9897C31.8517 23.2081 32.5541 23.4857 33.23 23.8197Z" fill="white"/>
<path d="M14.5701 11.1298L15.8501 10.5898C16.1301 11.2298 16.4001 11.8598 16.6901 12.5098C16.4101 12.6698 16.1001 12.7598 15.8101 12.9098L14.5701 11.1298Z" fill="white"/>
<path d="M25.0299 16.6599C24.8999 16.3499 24.7799 16.0699 24.6599 15.7699L26.5799 14.9399C26.7599 15.3699 26.9399 15.7799 27.1299 16.2099C26.4299 16.3899 25.7299 16.4999 25.0299 16.6599Z" fill="white"/>
<path d="M23.23 13.7198L22.52 13.0598L23.71 11.2598L24.71 12.2598L23.23 13.7198Z" fill="white"/>
<path d="M20.4401 9.92969C20.3101 10.6397 20.1901 11.3297 20.0601 12.0297H19.1101C19.1101 11.3297 19.1101 10.6397 19.0601 9.92969H20.4401Z" fill="white"/>
<path d="M13.23 12.4297L13.5 12.6797L14.58 13.7297C14.71 13.8697 14.71 13.8897 14.58 14.0197L14.06 14.5797L12.26 13.4197L13.23 12.4297Z" fill="white"/>
<path d="M11.0801 19.9998L13.1401 19.5698L13.5201 20.4498C12.8901 20.7398 12.2601 20.9998 11.6101 21.2898L11.0801 19.9998Z" fill="white"/>
<path d="M17.66 12.11L17.57 12.16L16.79 12.48L15.95 10.55L17.22 10C17.39 10.73 17.53 11.42 17.66 12.11Z" fill="white"/>
<path d="M18.9601 10.0001V12.0001C18.6801 12.0001 18.3801 12.0001 18.0601 12.0001C17.9001 11.3001 17.7501 10.6201 17.6001 9.9301C18.0546 9.90174 18.5109 9.92523 18.9601 10.0001Z" fill="white"/>
<path d="M14.2601 11.3501L15.4801 13.0801L14.7801 13.7501L13.3201 12.3301C13.6601 12.0001 13.9401 11.6901 14.2601 11.3501Z" fill="white"/>
<path d="M26.3501 7.22998L27.2001 8.04998L25.7701 9.82998L25.0701 9.16998L26.3501 7.22998Z" fill="white"/>
<path d="M26.0399 6.9999L24.7499 8.9999L23.8699 8.6499L24.9499 6.6499L26.0399 6.9999Z" fill="white"/>
<path d="M27.16 19.7799L26.66 21.0599L24.74 20.2899L25.12 19.3799L27.16 19.7799Z" fill="white"/>
<path d="M23.48 22.2801L24.14 21.5601L25.92 22.7201L24.92 23.7201L23.48 22.2801Z" fill="white"/>
<path d="M20.8099 10L22.0599 10.5C21.8099 11.16 21.5399 11.81 21.2899 12.5L20.4199 12.14C20.5499 11.41 20.6599 10.72 20.8099 10Z" fill="white"/>
<path d="M13.01 18.0697L10.95 18.1197V16.7397L13.01 17.1197V18.0697Z" fill="white"/>
<path d="M11.5601 14.9997L12.0801 13.7397L13.8501 14.8797L13.7201 15.2097L13.5701 15.6097C13.5101 15.7597 13.4801 15.7697 13.3401 15.7097L11.8801 15.1197L11.5601 14.9997Z" fill="white"/>
<path d="M21.0101 26.1099L20.5601 24.0499L21.4301 23.6699L22.2601 25.5699L21.0101 26.1099Z" fill="white"/>
<path d="M14.77 25.1201L15.94 23.3501L16.81 23.6901L16.06 25.6201L14.77 25.1201Z" fill="white"/>
<path d="M16.1699 25.6597C16.4099 25.0397 16.6399 24.4697 16.8599 23.8897C16.9199 23.7497 16.9299 23.7397 17.0799 23.7897L17.8099 24.0697C17.7099 24.7597 17.5599 25.4297 17.4399 26.1397C16.9999 25.9997 16.5999 25.8197 16.1699 25.6597Z" fill="white"/>
<path d="M17.8101 26.1998C17.8901 25.7498 17.9801 25.3098 18.0601 24.8698C18.0601 24.6698 18.1301 24.4798 18.1701 24.2798C18.2101 24.0798 18.2401 24.1598 18.2801 24.1598C18.5601 24.1598 18.8401 24.1598 19.1601 24.1598V26.1598L17.8101 26.1998Z" fill="white"/>
<path d="M29.1899 14.8096L31.3299 14.1396C31.5199 14.4796 31.6399 14.8296 31.8099 15.2096L29.5599 15.6996C29.4299 15.3996 29.3199 15.1196 29.1899 14.8096Z" fill="white"/>
<path d="M11.02 19.6098C11.02 19.1398 11.02 18.7098 10.96 18.2498C11.64 18.1998 12.31 18.2498 12.96 18.2498C13.0077 18.5339 13.0311 18.8216 13.03 19.1098C13.03 19.2098 12.96 19.2198 12.88 19.2398L11.66 19.4698L11.02 19.6098Z" fill="white"/>
<path d="M13.1 16.7599L11 16.3699C11.17 15.9399 11.34 15.5399 11.51 15.1099L13.44 15.8699C13.32 16.1699 13.22 16.4499 13.1 16.7599Z" fill="white"/>
<path d="M15.1299 5.74982C15.481 5.58503 15.8416 5.44144 16.2099 5.31982C16.3799 6.06982 16.5399 6.79982 16.6999 7.54982L15.8299 7.91982C15.5899 7.18982 15.3699 6.47982 15.1299 5.74982Z" fill="white"/>
<path d="M25.1399 17.9996V17.0596C25.1769 17.0341 25.2173 17.0139 25.2599 16.9996L26.9699 16.6396H27.1899V17.9596L25.1399 17.9996Z" fill="white"/>
<path d="M22.2199 12.87L21.3799 12.52L22.1699 10.52L23.3999 11.02C23.0199 11.66 22.5999 12.24 22.2199 12.87Z" fill="white"/>
<path d="M11.6599 21.3801L13.5399 20.5601C13.6599 20.8601 13.7799 21.1401 13.9099 21.4501C13.3699 21.8401 12.7899 22.2101 12.1999 22.6201L11.6599 21.3801Z" fill="white"/>
<path d="M23.3201 13.8198L24.8301 12.3398L25.7601 13.2198L23.9901 14.4398L23.3201 13.8198Z" fill="white"/>
<path d="M20.8999 7.43994H19.8999C19.9599 6.69994 20.0199 5.95994 20.1099 5.18994C20.4899 5.18994 20.8499 5.18994 21.2599 5.18994C21.1599 5.99994 21.0399 6.68994 20.8999 7.43994Z" fill="white"/>
<path d="M13.1501 9.04971L11.8201 7.14971L12.8901 6.69971C13.2701 7.33971 13.6301 7.98971 14.0101 8.69971L13.1501 9.04971Z" fill="white"/>
<path d="M23.6001 24.9998L22.3801 25.5498L21.5601 23.6798C21.8201 23.4898 22.1201 23.4298 22.4101 23.2598C22.8201 23.7898 23.1901 24.3698 23.6001 24.9998Z" fill="white"/>
<path d="M14.45 24.8998L13.45 23.9598C13.92 23.4698 14.39 22.9598 14.87 22.5098C15.1284 22.698 15.3605 22.9199 15.56 23.1698C15.22 23.7298 14.84 24.2998 14.45 24.8998Z" fill="white"/>
<path d="M21.66 5.25977L22.73 5.68977C22.53 6.41977 22.33 7.12977 22.13 7.83977C21.8182 7.79295 21.519 7.68414 21.25 7.51977C21.41 6.78977 21.54 5.99977 21.66 5.25977Z" fill="white"/>
<path d="M11.51 7.37988C11.97 8.01988 12.4 8.63988 12.83 9.25988L12.19 9.94988L10.72 8.19988L11.51 7.37988Z" fill="white"/>
<path d="M8.65996 20.4897C8.77996 20.7897 8.89996 21.0597 9.02996 21.3597C8.32996 21.5997 7.62996 21.8097 6.90996 22.0297C6.75996 21.6797 6.60996 21.3397 6.45996 20.9697L8.65996 20.4897Z" fill="white"/>
<path d="M28.4201 13.0001C28.2901 12.7001 28.1801 12.4301 28.0601 12.1301C28.6601 11.7001 29.2701 11.2801 29.9201 10.8501C30.0801 11.2001 30.2301 11.5401 30.3801 11.9001L28.4201 13.0001Z" fill="white"/>
<path d="M17.37 28.6699H18.27C18.2696 29.3999 18.2127 30.1287 18.1 30.8499C17.73 30.8499 17.36 30.8499 16.96 30.8499C17.1 30.1199 17.23 29.3999 17.37 28.6699Z" fill="white"/>
<path d="M6.30005 15.4897C6.45005 15.1197 6.58005 14.7697 6.72005 14.4097L8.87005 14.9997L8.52005 15.8597L6.30005 15.4897Z" fill="white"/>
<path d="M10.82 11.39L10.11 12C9.50999 11.63 8.87999 11.24 8.23999 10.8C8.50999 10.52 8.75999 10.25 9.02999 9.97998L10.82 11.39Z" fill="white"/>
<path d="M28.58 22.8896L30.58 23.8896C30.43 24.2496 30.29 24.5996 30.15 24.9696L28.26 23.7396L28.58 22.8896Z" fill="white"/>
<path d="M8.43001 16.2801C8.43001 16.6001 8.43001 16.9001 8.48001 17.2201C7.72001 17.2201 7.00001 17.0801 6.26001 17.0201V15.8701L8.43001 16.2801Z" fill="white"/>
<path d="M14.15 21.7598L14.82 22.4198L13.39 23.8698L12.48 22.8698L14.15 21.7598Z" fill="white"/>
<path d="M9.59991 13.2399L7.65991 12.1899L8.07991 11.1899L9.98991 12.3999L9.59991 13.2399Z" fill="white"/>
<path d="M23.93 24.7697L22.77 23.0497L23.42 22.4097L24.87 23.7897L23.93 24.7697Z" fill="white"/>
<path d="M20.6601 26.1699H19.3501C19.3501 25.4899 19.3501 24.8299 19.3501 24.1699C19.6463 24.111 19.9484 24.0875 20.2501 24.0999C20.3401 24.7999 20.4801 25.4699 20.6601 26.1699Z" fill="white"/>
<path d="M23.05 30.2599L22 30.7099C21.84 29.9799 21.68 29.2599 21.52 28.5199L22.38 28.1499C22.66 28.8499 22.83 29.5399 23.05 30.2599Z" fill="white"/>
<path d="M27.84 11.82L27.2 11.17C27.74 10.68 28.33 10.23 28.91 9.72998L29.7299 10.51L27.84 11.82Z" fill="white"/>
<path d="M24.3699 21.2699L24.7299 20.4199C25.3499 20.6599 25.9699 20.8999 26.6099 21.1799C26.4399 21.5999 26.2899 21.9999 26.1199 22.4099L24.3699 21.2699Z" fill="white"/>
<path d="M17.0701 7.45975C16.9101 6.71975 16.7501 5.99975 16.5901 5.23975H17.7201C17.8101 5.96975 17.9001 6.69975 18.0001 7.45975H17.0701Z" fill="white"/>
<path d="M31.83 20.6697L31.43 21.6697L29.27 21.0697L29.64 20.1997L31.83 20.6697Z" fill="white"/>
<path d="M25.2199 18.1001H27.2199V19.4201H26.9999L25.3099 19.0001C25.1299 19.0001 25.1299 19.0001 25.1899 18.7701C25.1998 18.6603 25.1998 18.5499 25.1899 18.4401L25.2199 18.1001Z" fill="white"/>
<path d="M8.49005 19.1997C8.50523 19.5029 8.50523 19.8066 8.49005 20.1097L6.30005 20.5797C6.30005 20.1997 6.30005 19.8397 6.30005 19.4597L8.49005 19.1997Z" fill="white"/>
<path d="M31.91 19.14V20.24C31.17 20.17 30.45 19.97 29.71 19.85V19C30.45 19 31.18 19.07 31.91 19.14Z" fill="white"/>
<path d="M26.29 28.87L25.29 29.32C24.93 28.68 24.58 28.04 24.21 27.39L25.05 27.02C25.44 27.63 25.86 28.23 26.29 28.87Z" fill="white"/>
<path d="M29.6599 16.0799L31.8699 15.6099V16.7099L29.6599 16.9999V16.0799Z" fill="white"/>
<path d="M8.5 25.6201L10.36 24.3701L10.98 25.0101L9.32 26.4101L8.5 25.6201Z" fill="white"/>
<path d="M13.2399 29.4997L12.1899 29.0797L13.4299 27.1997L14.2699 27.5397C13.9199 28.1997 13.5799 28.8397 13.2399 29.4997Z" fill="white"/>
<path d="M27.3799 24.7198L28.0499 24.0898L29.8999 25.2998L29.1199 26.0998L27.3799 24.7198Z" fill="white"/>
<path d="M25.3799 26.8297L25.9899 26.1597L27.3999 27.8497L26.5899 28.5997L25.3799 26.8297Z" fill="white"/>
<path d="M12.4401 26.3501L13.0601 27.0301L11.8501 28.8501L11.0601 28.0901L12.4401 26.3501Z" fill="white"/>
<path d="M16.5601 30.79L15.5601 30.4C15.7601 29.69 15.9601 28.99 16.1601 28.27L16.9801 28.58C16.8601 29.31 16.6601 30 16.5601 30.79Z" fill="white"/>
<path d="M9.7901 23.23C9.9101 23.5 10.0301 23.75 10.1501 24.03L8.2901 25.29L7.8501 24.29L9.7901 23.23Z" fill="white"/>
<path d="M21.66 30.7899H20.52C20.44 30.0799 20.36 29.3699 20.27 28.6299C20.5565 28.6149 20.8435 28.6149 21.13 28.6299C21.29 29.3299 21.45 30.0499 21.66 30.7899Z" fill="white"/>
<path d="M15.7101 7.9998L14.9701 8.3198L14.0601 6.1998L15.0601 5.7998L15.7101 7.9998Z" fill="white"/>
<path d="M7.79988 24.1901L7.37988 23.1901L9.37988 22.3301L9.70988 23.0801L7.79988 24.1901Z" fill="white"/>
<path d="M9.90991 9.0498L10.6599 8.2998L12.0899 9.9998L11.5399 10.5898L9.90991 9.0498Z" fill="white"/>
<path d="M11.4401 10.6896L10.8901 11.2796L9.11011 9.88965L9.83011 9.13965L11.4401 10.6896Z" fill="white"/>
<path d="M16.0299 28.2197C15.8399 28.9297 15.6399 29.6297 15.4399 30.3597L14.4399 29.9797C14.7199 29.2897 14.9899 28.6197 15.2599 27.9297L16.0299 28.2197Z" fill="white"/>
<path d="M22.98 8.22973L22.24 7.92973L22.86 5.71973L23.86 6.10973C23.54 6.81973 23.26 7.50973 22.98 8.22973Z" fill="white"/>
<path d="M18.87 5.22998C18.87 5.95998 18.87 6.68998 18.87 7.43998H18.07C17.98 6.71998 17.87 5.98998 17.8 5.22998H18.87Z" fill="white"/>
<path d="M18.9901 5.20996H19.9901C19.9901 5.94996 19.8701 6.67996 19.8001 7.44996H19.0001C19.0401 6.69996 18.9601 5.99996 18.9901 5.20996Z" fill="white"/>
<path d="M13.3601 29.54L14.3601 27.54L15.1201 27.84L14.3001 29.89L13.3601 29.54Z" fill="white"/>
<path d="M13.01 6.65L13.95 6.25L14.86 8.32L14.13 8.64L13.01 6.65Z" fill="white"/>
<path d="M29.03 26.1898L28.32 26.9298L26.73 25.3998L27.28 24.8198L29.03 26.1898Z" fill="white"/>
<path d="M28.08 8.92969L28.82 9.63969C28.24 10.1297 27.67 10.6397 27.08 11.0897L26.51 10.5497L28.08 8.92969Z" fill="white"/>
<path d="M29.1399 14.6998L28.8699 13.9998C29.5073 13.636 30.1768 13.3314 30.8699 13.0898L31.2699 14.0098L29.1399 14.6998Z" fill="white"/>
<path d="M30.85 13.0001L28.79 13.8901L28.49 13.1601C29.12 12.7801 29.77 12.4401 30.43 12.0601L30.85 13.0001Z" fill="white"/>
<path d="M6.30001 18.3001C7.03001 18.3001 7.75001 18.2501 8.49001 18.3001V19.0001C8.43463 19.0208 8.37781 19.0375 8.32001 19.0501L6.32001 19.2801C6.32001 19.2801 6.32001 19.2801 6.26001 19.2801L6.30001 18.3001Z" fill="white"/>
<path d="M28.2001 27L27.4601 27.71L26.0801 26.06L26.6301 25.48L28.2001 27Z" fill="white"/>
<path d="M6.28003 17.1597L8.47003 17.3597V18.0997C7.74127 18.1598 7.00879 18.1598 6.28003 18.0997V17.1597Z" fill="white"/>
<path d="M26.4299 10.4799L25.8699 9.8999C26.3399 9.3299 26.7999 8.7399 27.2699 8.1499L27.9799 8.8699L26.4299 10.4799Z" fill="white"/>
<path d="M31.8899 17.8898H29.6599V17.1098L31.8599 16.8398L31.8899 17.8898Z" fill="white"/>
<path d="M9.35996 22.22L7.35996 23.09C7.21996 22.77 7.07996 22.48 6.95996 22.15L7.65996 21.93C8.07996 21.8 8.48996 21.68 8.89996 21.54C9.02996 21.54 9.08996 21.54 9.12996 21.64L9.35996 22.22Z" fill="white"/>
<path d="M11.77 25.71L12.32 26.28C11.88 26.85 11.43 27.41 10.96 27.99L10.23 27.29L11.77 25.71Z" fill="white"/>
<path d="M9.50996 13.3301C9.51225 13.3734 9.51225 13.4168 9.50996 13.4601L9.28996 14.0701C8.57996 13.8201 7.90996 13.5201 7.20996 13.2401C7.33996 12.9301 7.45996 12.6201 7.57996 12.3101L9.50996 13.3301Z" fill="white"/>
<path d="M31.8899 19.0001L29.6599 18.8201V18.0601C30.3899 18.0601 31.1099 18.0601 31.8299 18.0601C31.9006 18.3681 31.9209 18.6855 31.8899 19.0001Z" fill="white"/>
<path d="M23.9101 6.16992C24.2262 6.27342 24.5366 6.39359 24.8401 6.52992C24.4901 7.20992 24.1501 7.86992 23.7901 8.52992L23.4401 8.38992L23.0701 8.24992C23.3501 7.56992 23.6601 6.88992 23.9101 6.16992Z" fill="white"/>
<path d="M22.51 28.1L23.23 27.79L24.11 29.79L23.18 30.19C22.95 29.5 22.73 28.81 22.51 28.1Z" fill="white"/>
<path d="M6.78003 14.2701L7.14003 13.3701C7.84003 13.6301 8.50003 13.9201 9.20003 14.1901L8.94003 14.8801C8.87347 14.8855 8.80659 14.8855 8.74003 14.8801L6.85003 14.3401L6.78003 14.2701Z" fill="white"/>
<path d="M18.45 28.6597H19.23C19.23 29.3697 19.23 30.0897 19.23 30.8397H18.23C18.32 30.1197 18.38 29.3997 18.45 28.6597Z" fill="white"/>
<path d="M28.9399 21.9998L29.2299 21.2998C29.9499 21.4498 30.6399 21.6798 31.3699 21.8898L31.0099 22.8098L28.9399 21.9998Z" fill="white"/>
<path d="M23.3501 27.7397L24.0501 27.4297L25.1401 29.3697L24.2301 29.7597L23.3501 27.7397Z" fill="white"/>
<path d="M9.44995 26.4598L11.11 25.0898C11.3 25.2698 11.48 25.4298 11.67 25.6198L10.15 27.1798L9.44995 26.4598Z" fill="white"/>
<path d="M19.9601 18.0001V18.1601L19.7401 18.2101L19.9201 18.3501V18.4801H19.6901C19.7132 18.5224 19.7399 18.5625 19.7701 18.6001L19.8501 18.6801L19.4401 19.0001L19.3001 18.8701L19.1901 19.0401H19.0701C19.0701 18.9701 19.0701 18.9101 19.0201 18.8201L18.9301 18.9201C18.9301 18.9901 18.8301 18.9701 18.7801 18.9201L18.5701 18.7801C18.4801 18.7201 18.5701 18.6401 18.5701 18.5701C18.3701 18.4701 18.3701 18.4501 18.4801 18.2601C18.3701 18.2601 18.3101 18.1801 18.3601 18.0501L18.5401 17.9801L18.3901 17.8701L18.4501 17.7501H18.6701L18.5401 17.6001L18.6301 17.4701L18.7601 17.6701C18.9101 17.5601 18.7601 17.5001 18.7601 17.4001L18.9201 17.3301L19.0201 17.5401H19.0701V17.3401C19.2801 17.3401 19.0701 17.5301 19.2501 17.5701L19.3501 17.3701C19.4901 17.4201 19.3501 17.5101 19.4101 17.5901C19.4701 17.6701 19.4901 17.5001 19.5901 17.4601L19.6501 17.5601L19.5201 17.7101L19.6001 17.7601L19.7701 17.6801L19.8801 17.8701L19.7201 17.9701C19.7201 17.9701 19.7201 18.0301 19.7701 18.0301L19.9601 18.0001Z" fill="white"/>
<path d="M30.5901 23.7898L28.5901 22.7898C28.6901 22.5498 28.7901 22.3298 28.8801 22.0898L30.9401 22.8998L30.5901 23.7898Z" fill="white"/>
<path d="M20.1199 28.6299C20.2099 29.3599 20.2899 30.0699 20.3799 30.7999H19.3799V28.6499C19.6599 28.6299 19.8499 28.6299 20.1199 28.6299Z" fill="white"/>
<path d="M20.88 7.6001C20.74 8.3401 20.61 9.0601 20.47 9.7801H19.73C19.79 9.0501 19.86 8.3301 19.92 7.6001H20.88Z" fill="white"/>
<path d="M24.32 11.6598L23.78 11.1598L24.99 9.27979L25.69 9.93979L24.32 11.6598Z" fill="white"/>
<path d="M24.66 9.04973L23.46 10.9997L22.79 10.7197L23.79 8.71973L24.66 9.04973Z" fill="white"/>
<path d="M27.9301 12.23C28.0601 12.52 28.1701 12.78 28.2901 13.07C27.6701 13.44 27.0301 13.79 26.3801 14.15L26.0901 13.47C26.6601 13.05 27.3101 12.65 27.9301 12.23Z" fill="white"/>
<path d="M29.41 15.7299L27.27 16.1899C27.17 15.9699 27.08 15.7599 26.98 15.5199C27.67 15.2799 28.35 15.0699 29.05 14.8599L29.41 15.7299Z" fill="white"/>
<path d="M16.5399 10.16C16.3099 9.44996 16.0899 8.76996 15.8699 8.05996L16.7399 7.70996C16.8999 8.43996 17.0499 9.14996 17.1999 9.85996L16.5399 10.16Z" fill="white"/>
<path d="M11.94 13.6399C11.85 13.8699 11.76 14.0799 11.67 14.3199L9.73999 13.3199C9.85999 13.0299 9.96999 12.7499 10.09 12.4399L11.94 13.6399Z" fill="white"/>
<path d="M10.9201 20C11.0101 20.22 11.0901 20.43 11.1901 20.66L9.19008 21.31C9.07008 21.02 8.96008 20.75 8.83008 20.45C9.49008 20.27 10.2001 20.16 10.9201 20Z" fill="white"/>
<path d="M22.1001 7.99967C21.9001 8.69967 21.7101 9.39967 21.5101 10.1297L20.8401 9.86967C20.9801 9.13967 21.1101 8.40967 21.2501 7.65967C21.5401 7.75967 21.8101 7.88967 22.1001 7.99967Z" fill="white"/>
<path d="M10.7499 16.7098V17.4498L8.65991 17.2498V16.3198L10.7499 16.7098Z" fill="white"/>
<path d="M13.25 9.17006L14.09 8.81006L15.17 10.7201L14.5 11.0101C14.09 10.4001 13.66 9.80006 13.25 9.17006Z" fill="white"/>
<path d="M29.12 21.0698L27.05 20.4898L27.33 19.8198C28.03 19.9198 28.73 20.0598 29.46 20.1998C29.35 20.4998 29.24 20.7698 29.12 21.0698Z" fill="white"/>
<path d="M17.7899 26.3701H18.5099L18.3299 28.4901H17.4099C17.5399 27.7901 17.6599 27.0901 17.7899 26.3701Z" fill="white"/>
<path d="M8.65991 15.9201L8.99991 15.0801L11.0699 15.6701L10.8299 16.3301C10.1399 16.2101 9.42991 16.0801 8.65991 15.9201Z" fill="white"/>
<path d="M25.8599 13.1598L25.3999 12.6398L27.0799 11.2598L27.6699 11.9398C27.1199 12.3398 26.4899 12.7298 25.8599 13.1598Z" fill="white"/>
<path d="M17.1199 7.63965H18.0199C18.1099 8.33965 18.1999 9.04965 18.2999 9.77965H17.5699C17.4199 9.07965 17.2699 8.36965 17.1199 7.63965Z" fill="white"/>
<path d="M12.97 9.44971C13.36 10.0197 13.77 10.6097 14.18 11.2197L13.69 11.7297L12.29 10.0697L12.97 9.44971Z" fill="white"/>
<path d="M22.34 28L21.49 28.36C21.31 27.66 21.2 26.97 21.04 26.27L21.66 26C21.93 26.65 22.12 27.32 22.34 28Z" fill="white"/>
<path d="M12.66 12.8097L12.19 13.3297L10.29 12.1197L10.93 11.4697L12.66 12.8097Z" fill="white"/>
<path d="M24.9401 26.8899L24.1001 27.2499L23.1001 25.4199C23.2978 25.2869 23.5132 25.1826 23.7401 25.1099L24.9401 26.8899Z" fill="white"/>
<path d="M8.65991 20.0699V19.1699L10.7799 18.9199V19.6299L8.65991 20.0699Z" fill="white"/>
<path d="M25.5601 23.3098L26.0501 22.7998L27.8801 23.9998C27.6501 24.2298 27.4501 24.4398 27.2501 24.6598L25.5601 23.3098Z" fill="white"/>
<path d="M26.26 22.4801L26.52 21.8501C27.17 22.1501 27.78 22.4801 28.43 22.8501L28.09 23.6901L26.26 22.4801Z" fill="white"/>
<path d="M27.3601 17.2701V16.5601L29.4801 16.1201V17.0001C28.7901 17.1001 28.0801 17.1801 27.3601 17.2701Z" fill="white"/>
<path d="M13.1701 26.8698L12.5601 26.1998L13.8601 24.5498L14.3301 25.0798C13.9701 25.6398 13.6001 26.2398 13.1701 26.8698Z" fill="white"/>
<path d="M9.93994 23.1401L11.7999 22.0801C11.8999 22.3001 11.9799 22.5001 12.0699 22.7201L10.2999 23.9401C10.1597 23.683 10.0394 23.4155 9.93994 23.1401Z" fill="white"/>
<path d="M13.52 27.0697L14.66 25.2397L15.3 25.4997C14.96 26.1397 14.63 26.7597 14.3 27.3997L13.52 27.0697Z" fill="white"/>
<path d="M29.5299 18.9297V19.7997L27.3999 19.4197V18.7397L29.5299 18.9297Z" fill="white"/>
<path d="M12.79 23.51L11.14 24.88L10.51 24.27L12.3 23L12.79 23.51Z" fill="white"/>
<path d="M17.4101 26.3C17.2801 27.01 17.1501 27.71 17.0201 28.44L16.2301 28.14C16.2247 28.0968 16.2247 28.0531 16.2301 28.01L16.7101 26.28C16.7601 26.08 16.8101 26.07 17.0001 26.14L17.4101 26.3Z" fill="white"/>
<path d="M25.88 25.9996L25.27 26.6296L24.03 24.8496L24.51 24.3896C25 24.9996 25.43 25.4896 25.88 25.9996Z" fill="white"/>
<path d="M21.09 28.4501H20.25C20.16 27.7501 20.08 27.0701 19.99 26.3701C20.1789 26.3196 20.3752 26.3027 20.57 26.3201C20.66 26.3201 20.67 26.4101 20.69 26.4901L20.96 27.7801C21 28.0001 21.04 28.2101 21.09 28.4501Z" fill="white"/>
<path d="M20.6599 17.1401L22.2199 16.0601C22.4099 16.4101 22.5599 16.7701 22.7299 17.1401L20.8499 17.5401L20.7499 17.3401L20.6599 17.1401Z" fill="white"/>
<path d="M11.01 11.3798L11.56 10.7998L13.09 12.2898L12.74 12.7198C12.15 12.2998 11.6 11.8298 11.01 11.3798Z" fill="white"/>
<path d="M15.21 27.7501L14.46 27.4501L15.46 25.5601C15.6547 25.5959 15.8392 25.6744 16 25.7901C15.73 26.4301 15.47 27.0801 15.21 27.7501Z" fill="white"/>
<path d="M16.6601 25.9997C16.4701 26.6997 16.2801 27.3697 16.0901 28.0697L15.3401 27.7798C15.4101 27.5898 15.4801 27.4197 15.5501 27.2497C15.7201 26.8197 15.8801 26.3798 16.0601 25.9498C16.1201 25.7998 16.1301 25.7897 16.2901 25.8497L16.6601 25.9997Z" fill="white"/>
<path d="M9.88006 22.9997L9.56006 22.2597L11.5601 21.4297L11.7901 21.9497L9.88006 22.9997Z" fill="white"/>
<path d="M15.05 8.40986L15.76 8.10986L16.42 10.1899L15.96 10.3999C15.6013 9.76328 15.2969 9.09759 15.05 8.40986Z" fill="white"/>
<path d="M9.50996 22.16C9.39996 21.91 9.30996 21.68 9.20996 21.43L11.21 20.79L11.44 21.32L9.50996 22.16Z" fill="white"/>
<path d="M24.8299 12.12L24.4199 11.73L25.7799 10L26.3399 10.53L24.8299 12.12Z" fill="white"/>
<path d="M11.6599 10.7299L12.2099 10.1699L13.5899 11.7999L13.2199 12.2299L11.6599 10.7299Z" fill="white"/>
<path d="M26.92 15.41C26.84 15.23 26.78 15.07 26.71 14.89L28.66 14L28.97 14.72L26.92 15.41Z" fill="white"/>
<path d="M15.8 10.46L15.28 10.68L14.21 8.76996L14.92 8.45996C15.22 9.12996 15.5 9.77996 15.8 10.46Z" fill="white"/>
<path d="M22.1101 10.3898L21.6101 10.1898C21.8001 9.4798 22.0001 8.7798 22.2001 8.0498L22.9301 8.3398C22.6601 8.9998 22.3901 9.6998 22.1101 10.3898Z" fill="white"/>
<path d="M18.9199 9.78986H18.4099C18.3199 9.06986 18.2299 8.35986 18.1299 7.60986H18.8799C18.9452 8.33464 18.9586 9.06317 18.9199 9.78986Z" fill="white"/>
<path d="M27.3699 17.3899L29.4899 17.1299V17.9199H27.3699V17.3899Z" fill="white"/>
<path d="M17.2201 17.9098V18.2998L15.3601 18.6998V17.5698C15.9701 17.6598 16.5801 17.7998 17.2201 17.9098Z" fill="white"/>
<path d="M26.66 14.7797C26.6 14.6097 26.53 14.4597 26.46 14.2697C27.07 13.8997 27.7 13.5697 28.35 13.1997C28.4 13.3197 28.46 13.4297 28.5 13.5497C28.54 13.6697 28.6 13.7797 28.65 13.9197L26.66 14.7797Z" fill="white"/>
<path d="M19.0701 9.79984C19.0701 9.04984 19.0701 8.33984 19.0701 7.58984H19.8401C19.7601 8.31984 19.6601 8.99984 19.6601 9.77984H19.3901L19.0701 9.79984Z" fill="white"/>
<path d="M25.0701 23.7999L25.5101 23.4399C26.0401 23.8299 26.5901 24.2599 27.1401 24.7199C26.9738 24.9162 26.7969 25.1032 26.6101 25.2799L25.0701 23.7999Z" fill="white"/>
<path d="M24.6599 24.3299L25.0199 23.9399C25.5688 24.3733 26.0776 24.8552 26.5399 25.3799V25.4499C26.3899 25.6099 26.2399 25.7799 26.0699 25.9499L24.6599 24.3299Z" fill="white"/>
<path d="M13.7599 24.4701L12.4499 26.1401L11.8799 25.6001C12.3799 25.0901 12.8799 24.6001 13.3699 24.0801C13.4399 24.1501 13.5099 24.2001 13.5699 24.2701C13.6299 24.3401 13.6599 24.3901 13.7599 24.4701Z" fill="white"/>
<path d="M25.2599 12.5996L24.9099 12.1896L26.4099 10.6396L26.9499 11.1996L25.2599 12.5996Z" fill="white"/>
<path d="M8.65995 19.0498C8.63483 18.787 8.63483 18.5225 8.65995 18.2598H10.76C10.7852 18.4288 10.7852 18.6007 10.76 18.7698C10.11 18.8998 9.39995 18.9998 8.65995 19.0498Z" fill="white"/>
<path d="M12.9 23.6099L13.26 24.0099L11.8 25.4899L11.27 24.9399C11.79 24.5099 12.32 23.9999 12.9 23.6099Z" fill="white"/>
<path d="M15.4199 17.21C15.5699 16.85 15.7099 16.52 15.8499 16.21L17.4599 17.21C17.4099 17.33 17.3599 17.44 17.2999 17.56L15.4199 17.21Z" fill="white"/>
<path d="M18.5799 16.3099L18.2299 16.4399L17.1299 14.8499L18.1299 14.4199C18.3099 15.0499 18.4399 15.6699 18.5799 16.3099Z" fill="white"/>
<path d="M19.2 28.4899H18.47C18.47 27.7799 18.57 27.0899 18.64 26.3799H19.2V28.4899Z" fill="white"/>
<path d="M9.08008 15L9.37008 14.29L11.3701 15.09L11.1701 15.6L9.08008 15Z" fill="white"/>
<path d="M17.92 16.6199L17.66 16.8999L16.05 15.8999L16.87 15.1299L17.92 16.6199Z" fill="white"/>
<path d="M20.78 18.9301L20.91 18.6001C21.53 18.6901 22.14 18.8301 22.78 18.9501L22.38 20.0001C21.85 19.6401 21.3 19.3301 20.78 18.9301Z" fill="white"/>
<path d="M11.4199 14.9399L9.41992 14.1399C9.51992 13.8999 9.60992 13.6799 9.69992 13.4399L9.87992 13.5199L11.4599 14.3499C11.6099 14.4299 11.6099 14.4399 11.5599 14.5899L11.4199 14.9399Z" fill="white"/>
<path d="M19.7201 21.84H18.6001C18.7201 21.21 18.8301 20.6 18.9501 19.98H19.3301C19.4601 20.58 19.5901 21.19 19.7201 21.84Z" fill="white"/>
<path d="M22.6599 10.6396L22.1599 10.4496L22.9899 8.38965L23.6899 8.66965C23.3799 9.32965 23.0399 9.99965 22.6599 10.6396Z" fill="white"/>
<path d="M27.3899 18.63V18.12C28.0941 18.0474 28.803 18.0307 29.5099 18.07V18.8L27.3899 18.63Z" fill="white"/>
<path d="M17.4599 18.9997C16.9299 19.3697 16.4599 19.7197 15.8899 20.0697L15.4399 19.0697C16.0599 18.9097 16.6699 18.8097 17.2999 18.6597L17.4599 18.9997Z" fill="white"/>
<path d="M28.8 21.8897L26.8 21.1097C26.86 20.9597 26.92 20.8297 26.98 20.7097C27.04 20.5897 27.1101 20.6297 27.1901 20.6597L28.29 20.9597L29.08 21.1897C28.98 21.4297 28.9 21.6597 28.8 21.8897Z" fill="white"/>
<path d="M21.8101 25.93L22.3201 25.71C22.6101 26.36 22.8801 26.99 23.1701 27.65L22.4601 27.95L21.8101 25.93Z" fill="white"/>
<path d="M17.2 21.3898L18.25 19.7798L18.58 19.8998C18.49 20.5198 18.3499 21.1298 18.2299 21.7698C17.8799 21.6698 17.56 21.5198 17.2 21.3898Z" fill="white"/>
<path d="M16.8901 21.1698L16.0901 20.3998L17.6601 19.3198L17.9101 19.5898L16.8901 21.1698Z" fill="white"/>
<path d="M21.0899 21.32L20.0899 21.76L19.6599 19.89L19.9999 19.73L21.0899 21.32Z" fill="white"/>
<path d="M10.7899 18.1099H8.65991V17.3799L9.65991 17.4599L10.4399 17.5399H10.6399C10.6644 17.5398 10.6887 17.5448 10.7112 17.5545C10.7337 17.5641 10.754 17.5783 10.7709 17.5961C10.7877 17.6139 10.8008 17.6349 10.8092 17.6579C10.8176 17.6809 10.8213 17.7054 10.8199 17.7299C10.7699 17.8699 10.7799 17.9999 10.7899 18.1099Z" fill="white"/>
<path d="M21.4101 21.1098C21.0401 20.5598 20.6901 20.0398 20.3301 19.5198L20.5701 19.2598L22.1701 20.2598L21.4101 21.1098Z" fill="white"/>
<path d="M21.28 15L22.07 15.75L20.46 16.86L20.25 16.56L21.28 15Z" fill="white"/>
<path d="M26.7701 21.23L28.7701 22.01L28.5001 22.7L26.5801 21.7L26.7701 21.23Z" fill="white"/>
<path d="M19.6601 14.3501C19.5501 14.9801 19.4301 15.6001 19.3201 16.2301H18.9801C18.8401 15.6101 18.7101 14.9901 18.5701 14.3501H19.6601Z" fill="white"/>
<path d="M22.9099 25.4399C23.2699 26.0599 23.6199 26.6599 23.9699 27.2899C23.7528 27.4102 23.5252 27.5106 23.2899 27.5899L22.4399 25.6599L22.9099 25.4399Z" fill="white"/>
<path d="M19.3501 26.3701H19.8601L20.1001 28.4501H19.3501V26.3701Z" fill="white"/>
<path d="M22.84 17.5098V18.5698L21.01 18.2098V17.8898C21.6 17.7398 22.2 17.6298 22.84 17.5098Z" fill="white"/>
<path d="M19.9099 16.4097H19.7999L19.6599 16.2897C19.7699 15.6797 19.8899 15.0597 19.9999 14.4097C20.3499 14.5097 20.6499 14.6697 20.9999 14.7997L19.9099 16.4097Z" fill="white"/>
<path d="M18.5801 19L18.8501 19.14C18.8501 19.27 18.8501 19.41 18.7801 19.57L18.3201 19.39L18.5801 19Z" fill="white"/>
<path d="M18.7801 16.6299C18.7801 16.7799 18.8501 16.8999 18.8801 17.0399L18.5801 17.1899C18.4901 17.0699 18.4101 16.9499 18.3201 16.8099L18.7801 16.6299Z" fill="white"/>
<path d="M18.2099 18.6699L17.8199 18.9299L17.6599 18.4799L18.0799 18.3799L18.2099 18.6699Z" fill="white"/>
<path d="M17.6599 18.3599V17.8599L18.0899 17.9399V18.2699L17.6599 18.3599Z" fill="white"/>
<path d="M17.8299 17.2998C17.9699 17.3798 18.0799 17.4598 18.1999 17.5398L18.0899 17.8198L17.6599 17.7498L17.8299 17.2998Z" fill="white"/>
<path d="M20.33 17.23L20.55 17.71L20.18 17.81L20.01 17.45L20.33 17.23Z" fill="white"/>
<path d="M18.4699 19L18.2399 19.38L17.9099 19L18.2499 18.75L18.4699 19Z" fill="white"/>
<path d="M20.35 18.9997C20.21 19.1097 20.1 19.2097 19.98 19.3197L19.8 18.9997L20.04 18.7397L20.35 18.9997Z" fill="white"/>
<path d="M18.2199 16.8896L18.4699 17.2396L18.2799 17.4496L17.9199 17.2096L18.2199 16.8896Z" fill="white"/>
<path d="M19.3699 19.5997H18.9099C18.9044 19.5298 18.9044 19.4596 18.9099 19.3897C18.9099 19.3397 18.9099 19.2797 18.9099 19.1997H19.1999C19.3099 19.3297 19.3299 19.4497 19.3699 19.5997Z" fill="white"/>
<path d="M20.2 17.9298L20.58 17.8398C20.58 17.9998 20.58 18.1298 20.58 18.2898L20.2 18.2298V17.9298Z" fill="white"/>
<path d="M19.4899 19.5698C19.4899 19.4198 19.4299 19.2998 19.3999 19.1598L19.6799 19.0498L19.8999 19.3598L19.4899 19.5698Z" fill="white"/>
<path d="M20.5601 18.4101L20.4201 18.8501L20.0901 18.6401L20.2001 18.3501L20.5601 18.4101Z" fill="white"/>
<path d="M19.2599 17.0001H18.9899C18.9899 16.8701 18.9299 16.7401 18.8999 16.5801H19.3299L19.2599 17.0001Z" fill="white"/>
<path d="M19.6599 17.1698L19.8799 16.8398L20.2099 17.1398L19.8899 17.3598L19.6599 17.1698Z" fill="white"/>
<path d="M19.5999 17.1201L19.3799 17.0501L19.4499 16.6201L19.8199 16.7701C19.7499 16.9001 19.6599 17.0001 19.5999 17.1201Z" fill="white"/>
<path d="M2.65991 25.1499L3.22991 26.3199C2.94074 25.9865 2.74419 25.5831 2.65991 25.1499Z" fill="white"/>
<path d="M24.97 34.8398H25.05L25.28 34.7298L25.85 34.5498C25.5244 34.7558 25.1659 34.9046 24.79 34.9898L24.97 34.8398Z" fill="white"/>
<path d="M11.89 34.5001L11.03 34.1001C11.3493 34.1475 11.648 34.2865 11.89 34.5001Z" fill="white"/>
<path d="M12.1201 34.54L12.9901 34.87C12.6784 34.8144 12.3756 34.7169 12.0901 34.58L12.1201 34.54Z" fill="white"/>
<path d="M2.0599 24.0499C1.9529 23.8653 1.90411 23.6527 1.9199 23.4399C1.9899 23.6399 2.0499 23.8399 2.1099 24.0299L2.0599 24.0499Z" fill="white"/>
<path d="M1.11999 16.4897C1.11999 16.6897 1.11999 16.8897 1.06999 17.0997C1.0073 16.8976 1.02522 16.679 1.11999 16.4897Z" fill="white"/>
<path d="M6.47005 30.8296L6.05005 30.3896L6.47005 30.8196V30.8296Z" fill="white"/>
<path d="M2.43011 24.84L2.36011 24.71L2.44011 24.84H2.43011Z" fill="white"/>
<path d="M34.11 27.7197L34.04 27.8097L34.12 27.7197H34.11Z" fill="white"/>
<path d="M25.2801 34.7198L25.05 34.8298C25.0742 34.7917 25.1086 34.7612 25.1492 34.7418C25.1899 34.7223 25.2353 34.7147 25.2801 34.7198Z" fill="#0095FF"/>
<path d="M3.97998 8.27979L17.54 17.0198" stroke="#0095FF" stroke-width="0.75" stroke-miterlimit="10"/>
<path d="M33.9999 8.04004L20.6199 17.06" stroke="#0095FF" stroke-width="0.75" stroke-miterlimit="10"/>
<path d="M8.86987 3.31982L18.0499 16.4898" stroke="#0095FF" stroke-width="0.75" stroke-miterlimit="10"/>
<path d="M15.3301 0.52002L18.7701 16.28" stroke="#0095FF" stroke-width="0.75" stroke-miterlimit="10"/>
<path d="M19.4299 16.2796L22.3699 0.389648" stroke="#0095FF" stroke-width="0.75" stroke-miterlimit="10"/>
<path d="M28.8201 2.98975L20.0901 16.4897" stroke="#0095FF" stroke-width="0.75" stroke-miterlimit="10"/>
<path d="M1.37988 14.6899L17.2599 17.7499" stroke="#0095FF" stroke-width="0.75" stroke-miterlimit="10"/>
<path d="M20.8999 17.7501L36.5399 14.3701" stroke="#0095FF" stroke-width="0.75" stroke-miterlimit="10"/>
<path d="M3.93994 27.9397L17.4899 19.1997" stroke="#0095FF" stroke-width="0.75" stroke-miterlimit="10"/>
<path d="M33.9501 28.1797L20.5701 19.1597" stroke="#0095FF" stroke-width="0.75" stroke-miterlimit="10"/>
<path d="M9.1001 33.0501L17.8701 19.6001" stroke="#0095FF" stroke-width="0.75" stroke-miterlimit="10"/>
<path d="M15.5801 35.7397L18.6401 19.9097" stroke="#0095FF" stroke-width="0.75" stroke-miterlimit="10"/>
<path d="M19.3799 19.9497L22.3199 35.8297" stroke="#0095FF" stroke-width="0.75" stroke-miterlimit="10"/>
<path d="M28.7801 33.23L20.05 19.73" stroke="#0095FF" stroke-width="0.75" stroke-miterlimit="10"/>
<path d="M1.33008 21.53L17.2101 18.48" stroke="#0095FF" stroke-width="0.75" stroke-miterlimit="10"/>
<path d="M20.8501 18.48L36.4901 21.85" stroke="#0095FF" stroke-width="0.75" stroke-miterlimit="10"/>
<path d="M18.97 35.6096C28.867 35.6096 36.89 27.7254 36.89 17.9996C36.89 8.27391 28.867 0.389648 18.97 0.389648C9.07311 0.389648 1.05005 8.27391 1.05005 17.9996C1.05005 27.7254 9.07311 35.6096 18.97 35.6096Z" stroke="#0095FF" stroke-width="0.77" stroke-miterlimit="10"/>
</g>
<defs>
<clipPath id="clip0_270_1456">
<rect width="36.61" height="36" fill="white" transform="translate(0.659912)"/>
</clipPath>
</defs>
</svg>
