<svg width="35" height="42" viewBox="0 0 35 42" fill="none" xmlns="http://www.w3.org/2000/svg">
<g clip-path="url(#clip0_270_2108)">
<path d="M2.38979 34.32L1.44979 34.56C1.35349 34.5792 1.2535 34.5613 1.16979 34.51C0.980871 34.3674 0.800556 34.2138 0.629785 34.05C0.57888 33.9976 0.544161 33.9316 0.529785 33.86C0.529785 33.86 0.529785 33.78 0.529785 33.73C0.529785 28.2033 0.529785 22.6767 0.529785 17.15C0.529785 16.91 0.589785 16.84 0.819785 16.82C1.15584 16.8011 1.49007 16.7577 1.81979 16.69C2.22662 16.6571 2.63578 16.7116 3.01979 16.85C3.01979 16.85 3.10979 16.94 3.11979 16.99C3.13068 17.0964 3.13068 17.2036 3.11979 17.31L3.32979 17.13L12.7898 8.53L20.0998 1.86C20.2798 1.7 20.4498 1.52 20.6398 1.38C20.7419 1.31578 20.8223 1.22226 20.8705 1.11166C20.9186 1.00106 20.9323 0.878509 20.9098 0.76C20.8997 0.576806 20.8997 0.393194 20.9098 0.21C21.4623 0.110416 22.0198 0.0403165 22.5798 0C22.8878 0.0234245 23.1909 0.0907729 23.4798 0.2C23.4958 0.213438 23.5086 0.230293 23.5173 0.249328C23.5259 0.268363 23.5302 0.289095 23.5298 0.31C23.5398 0.379644 23.5398 0.450356 23.5298 0.52C23.5298 5.98 23.5298 11.4467 23.5298 16.92C23.5298 17.15 23.5998 17.24 23.8298 17.29L34.0698 19.89C34.2298 19.89 34.2798 19.99 34.2698 20.15C34.2598 20.31 34.2698 20.56 34.2698 20.76C34.2653 20.7973 34.2521 20.833 34.2312 20.8643C34.2104 20.8956 34.1825 20.9215 34.1498 20.94C33.9798 20.94 33.9698 21.07 33.9698 21.2C33.9698 22.3 33.9698 23.4 33.9698 24.51C33.9744 24.5728 33.9619 24.6357 33.9338 24.692C33.9056 24.7483 33.8628 24.796 33.8098 24.83L15.1598 39.12L11.6398 41.82C11.6163 41.8474 11.5872 41.8695 11.5544 41.8846C11.5216 41.8997 11.4859 41.9075 11.4498 41.9075C11.4137 41.9075 11.378 41.8997 11.3452 41.8846C11.3124 41.8695 11.2833 41.8474 11.2598 41.82L2.58979 35C2.51612 34.9572 2.45683 34.8935 2.41944 34.8169C2.38205 34.7404 2.36825 34.6544 2.37979 34.57C2.39357 34.4874 2.39693 34.4034 2.38979 34.32ZM25.9398 28.78L25.6898 28.84L21.5298 29.75C21.4198 29.75 21.3198 29.75 21.3198 29.95C21.3198 30.5 21.3198 31.06 21.3198 31.61C21.3198 31.67 21.3198 31.76 21.3898 31.77C21.5798 31.84 21.5798 31.98 21.5798 32.14C21.5597 32.296 21.5597 32.454 21.5798 32.61C21.5798 32.79 21.5798 32.84 21.3898 32.88L16.9698 34C16.8598 34 16.7898 34.06 16.7898 34.2C16.7898 34.81 16.7898 35.43 16.7898 36.04C16.7898 36.4 16.7898 36.76 16.8498 37.11L16.6698 37.18L11.7998 38.64C11.7553 38.6374 11.7109 38.6459 11.6705 38.6647C11.6301 38.6834 11.5949 38.7119 11.5682 38.7475C11.5415 38.7832 11.524 38.8249 11.5173 38.8689C11.5106 38.913 11.5149 38.958 11.5298 39C11.5298 39.76 11.5298 40.53 11.5298 41.29C11.5298 41.36 11.5298 41.43 11.5298 41.53L11.7698 41.35L21.8798 33.62L33.5298 24.7C33.5924 24.6593 33.643 24.6026 33.6764 24.5358C33.7098 24.469 33.7248 24.3945 33.7198 24.32C33.7198 23.32 33.7198 22.32 33.7198 21.32V21.07H33.5898L30.2598 21.8C30.1198 21.8 30.1298 21.92 30.1298 22.02V23.86C30.1195 23.9095 30.1195 23.9605 30.1298 24.01C30.3098 24.35 30.1898 24.71 30.2298 25.01L25.6498 25.8V27.39C25.6498 27.54 25.6498 27.69 25.8298 27.74C25.8497 27.7535 25.8664 27.7712 25.8785 27.792C25.8906 27.8128 25.8979 27.836 25.8998 27.86C25.9398 28.2 25.9398 28.48 25.9398 28.78ZM7.93979 16.46L7.80979 16.57C6.31979 17.98 4.80979 19.4 3.32979 20.83C3.24621 20.9275 3.20012 21.0516 3.19979 21.18C3.19979 24.28 3.19979 27.39 3.19979 30.49V30.74C3.24297 30.7451 3.2866 30.7451 3.32979 30.74L6.47978 30.13C6.52978 30.12 6.52979 30 6.57979 30C6.57979 29.65 6.57979 29.29 6.57979 28.94C6.57229 28.8919 6.55514 28.8459 6.52936 28.8046C6.50358 28.7634 6.46971 28.7278 6.42979 28.7C6.34262 28.6794 6.26065 28.6411 6.18901 28.5873C6.11737 28.5336 6.05761 28.4656 6.01348 28.3877C5.96935 28.3097 5.9418 28.2235 5.93256 28.1344C5.92332 28.0454 5.93259 27.9553 5.95978 27.87V27.8C5.95978 27.66 5.95979 27.59 6.14979 27.57C6.63979 27.49 7.14979 27.38 7.60979 27.3C7.82979 27.3 7.89979 27.19 7.89979 26.96C7.89979 23.57 7.89979 20.18 7.89979 16.79L7.93979 16.46ZM20.9498 4.07L20.7998 4.18C19.6298 5.29 18.4698 6.41 17.2898 7.51C17.2337 7.56003 17.1894 7.62184 17.16 7.69098C17.1307 7.76013 17.1169 7.83492 17.1198 7.91C17.1198 11.97 17.1198 16.04 17.1198 20.11V20.39L18.4698 20.14C18.4698 19.67 18.4698 19.22 18.4698 18.76C18.4698 18.71 18.3798 18.64 18.3198 18.61C18.2598 18.58 17.8798 18.55 17.7998 18.43C17.7198 18.31 17.7998 18.05 17.7998 17.86C17.7998 17.67 17.7998 17.66 17.9798 17.64C18.8998 17.47 19.8098 17.28 20.7298 17.12C20.9598 17.12 20.9998 16.99 20.9998 16.78V4.07H20.9498ZM16.3998 36.26L16.2498 36.17L6.91979 30.45C6.816 30.4149 6.70357 30.4149 6.59979 30.45L4.08979 30.92L2.08979 31.3C2.17979 31.36 2.21979 31.41 2.27979 31.45L11.0798 37.73C11.131 37.7711 11.192 37.7983 11.2569 37.8088C11.3217 37.8193 11.3882 37.8128 11.4498 37.79L14.0198 37L16.3998 36.26ZM6.39979 27.76L7.00979 28.1L16.1998 33.05C16.3075 33.1055 16.4308 33.1231 16.5498 33.1L19.5498 32.35L21.0698 32L20.8798 31.88L18.6698 30.76C16.2798 29.55 13.8898 28.35 11.5098 27.13C11.3658 27.0381 11.2035 26.9789 11.0342 26.9564C10.8649 26.934 10.6927 26.9488 10.5298 27C10.3631 27.0486 10.1925 27.0821 10.0198 27.1L6.39979 27.76ZM21.6398 1.43L21.2498 1.79L11.0098 11.22C8.52978 13.49 6.08979 15.77 3.61979 18C3.45371 18.1231 3.32288 18.2876 3.2404 18.4772C3.15791 18.6667 3.12667 18.8746 3.14979 19.08C3.14979 19.53 3.14979 19.99 3.14979 20.5L3.34979 20.32L6.59979 17.23L13.3398 10.83L17.5798 6.83C18.8798 5.61 20.1965 4.37 21.5298 3.11C21.5991 3.04418 21.6418 2.95522 21.6498 2.86C21.6498 2.41 21.6398 2 21.6398 1.43ZM14.5298 23.3C14.5298 22.83 14.5298 22.37 14.5298 21.91C14.5239 21.8835 14.5118 21.8587 14.4944 21.8378C14.477 21.817 14.4548 21.8006 14.4298 21.79C14.2698 21.79 14.2598 21.65 14.2698 21.51C14.2798 21.37 14.2698 21.26 14.2698 21.13C14.2698 21 14.2698 20.93 14.4598 20.9C14.8498 20.84 15.2298 20.76 15.6098 20.68V9.14L15.5298 9.23C14.7998 9.92 14.0598 10.62 13.3398 11.32C13.2561 11.4135 13.2098 11.5345 13.2098 11.66C13.2098 15.54 13.2098 19.42 13.2098 23.3V23.56L14.5298 23.3ZM25.3998 27.92L25.2398 27.84L14.7098 23.64C14.6249 23.615 14.5346 23.615 14.4498 23.64L12.0998 24.08L10.7798 24.34L10.9198 24.41L20.6798 28.85C20.7939 28.8848 20.9157 28.8848 21.0298 28.85L23.6998 28.27L25.3998 27.92ZM11.6298 12.92C11.5948 12.9445 11.5614 12.9712 11.5298 13C10.8998 13.6 10.2798 14.2 9.63978 14.79C9.5818 14.8406 9.53629 14.904 9.5068 14.9751C9.47731 15.0462 9.46464 15.1232 9.46978 15.2V26.9L10.9898 26.6V26.37C10.9898 26.04 10.9898 25.71 10.9898 25.37C10.9834 25.3319 10.9672 25.2961 10.9426 25.2662C10.918 25.2364 10.886 25.2135 10.8498 25.2C10.3598 25.08 10.2398 24.76 10.3098 24.29C10.3098 24.15 10.3098 24.09 10.5098 24.07L11.6698 23.84L11.6298 12.92ZM14.9198 21.1V21.15L15.1198 21.23L25.1198 24.86C25.2289 24.8797 25.3407 24.8797 25.4498 24.86L28.5298 24.38L29.6198 24.19L29.3598 24.09L26.4798 23.09L18.8098 20.47C18.6815 20.4405 18.5481 20.4405 18.4198 20.47C17.6698 20.6 16.9198 20.74 16.1798 20.89L14.9198 21.1ZM2.91979 30.81V17.09C2.50979 17.17 2.10979 17.26 1.70979 17.31C1.47979 17.31 1.43979 17.43 1.43979 17.64C1.43979 23.09 1.43979 28.54 1.43979 33.99V34.28C1.73979 34.2 2.01979 34.12 2.29979 34.06C2.32315 34.0576 2.34578 34.0504 2.36623 34.0389C2.38668 34.0273 2.40452 34.0117 2.41861 33.9929C2.43271 33.9741 2.44275 33.9526 2.44812 33.9297C2.45348 33.9068 2.45405 33.8831 2.44979 33.86C2.44979 33.44 2.44979 33.01 2.44979 32.59C2.46036 32.528 2.45047 32.4642 2.42161 32.4083C2.39275 32.3523 2.34648 32.3073 2.28979 32.28C2.0842 32.2031 1.91582 32.0504 1.81915 31.8533C1.72247 31.6563 1.70481 31.4297 1.76979 31.22C1.76979 31.1 1.76979 31.05 1.92979 31.03C2.19979 31 2.52979 30.88 2.85979 30.82L2.91979 30.81ZM18.7398 18.74C18.7398 19.15 18.7398 19.54 18.7398 19.92C18.7398 20.11 18.7998 20.18 18.9698 20.24L29.6898 23.9L29.9198 23.95C29.9198 23.32 29.9198 22.72 29.9198 22.11C29.9198 21.9 29.8498 21.82 29.6498 21.76C26.4098 20.87 23.1698 19.96 19.9298 19.06L18.7398 18.74ZM2.73979 32.63C2.73738 32.67 2.73738 32.71 2.73979 32.75C2.73979 33.35 2.73979 33.95 2.73979 34.56C2.7524 34.6504 2.79887 34.7326 2.86979 34.79L11.1098 41.28L11.3798 41.48V38.86C11.2507 38.8353 11.126 38.7915 11.0098 38.73L3.73979 33.4L2.73979 32.63ZM33.7398 20.09L33.4098 20L23.6898 17.54C23.5208 17.485 23.3388 17.485 23.1698 17.54C22.9266 17.6515 22.6623 17.7092 22.3948 17.7092C22.1273 17.7092 21.863 17.6515 21.6198 17.54C21.2186 17.3421 20.7567 17.3063 20.3298 17.44H20.1298L18.4398 17.77L18.6598 17.84L29.9898 20.8C30.1147 20.8301 30.2449 20.8301 30.3698 20.8C31.1298 20.65 31.8798 20.48 32.6398 20.31L33.7398 20.09ZM22.3298 17.47V1C22.3298 0.54 22.3298 0.53 21.8798 0.47C21.6698 0.47 21.4598 0.47 21.2398 0.47V1.1H21.8898V1.16C21.8647 1.58296 21.8647 2.00704 21.8898 2.43C21.9322 2.66155 21.9044 2.90049 21.81 3.11611C21.7155 3.33174 21.5587 3.51419 21.3598 3.64C21.3118 3.68589 21.2751 3.74228 21.2525 3.80474C21.23 3.8672 21.2222 3.93403 21.2298 4V17.15L22.3298 17.47ZM14.7998 21.93C14.7998 22.36 14.7998 22.75 14.7998 23.13C14.788 23.2014 14.8043 23.2747 14.8453 23.3343C14.8863 23.394 14.9489 23.4355 15.0198 23.45L24.5298 27.23L25.5298 27.61V25.94C25.3414 25.9414 25.1536 25.9213 24.9698 25.88L16.4298 22.57L14.7998 21.93ZM22.4698 17.47L23.2598 17.22V0.43C23.0912 0.462458 22.9209 0.485825 22.7498 0.5C22.5098 0.5 22.4698 0.61 22.4698 0.83V17.47ZM6.86979 28.89C6.86979 29.26 6.86979 29.57 6.86979 29.89C6.86703 29.9471 6.88062 30.0037 6.90896 30.0533C6.93731 30.1029 6.97922 30.1434 7.02979 30.17C10.1498 32.07 13.2631 33.9767 16.3698 35.89L16.5298 36V34.16C16.3539 34.164 16.1784 34.1404 16.0098 34.09L9.60979 30.45L6.86979 28.89ZM11.2198 25.4C11.2198 25.8 11.2198 26.14 11.2198 26.47C11.2198 26.61 11.2698 26.67 11.3898 26.73L12.7798 27.43L19.9298 31.06L21.0498 31.61V29.91C20.8683 29.9212 20.6861 29.9043 20.5098 29.86L12.6698 26.1L11.2198 25.4ZM16.8298 20.45V8C16.5498 8.27 16.2998 8.51 16.0398 8.74C15.988 8.78597 15.9475 8.84328 15.9215 8.90745C15.8955 8.97163 15.8846 9.04094 15.8898 9.11V20.63L16.8298 20.45ZM11.9098 23.79L12.5998 23.67C12.7998 23.67 12.8898 23.58 12.8898 23.35C12.8898 19.57 12.8898 15.7867 12.8898 12V11.71C12.5998 11.99 12.3598 12.23 12.0998 12.45C12.039 12.5032 11.9912 12.5696 11.96 12.6441C11.9288 12.7187 11.915 12.7993 11.9198 12.88V23.79H11.9098ZM9.11979 27V15.28C8.84979 15.54 8.59979 15.78 8.33979 16.01C8.2852 16.0585 8.24241 16.1189 8.21468 16.1865C8.18695 16.2541 8.17502 16.3271 8.17979 16.4V27.13L9.11979 27ZM3.17979 18.26L21.5298 1.38C21.4469 1.34468 21.355 1.3363 21.2671 1.35604C21.1791 1.37577 21.0996 1.42263 21.0398 1.49L13.7298 8.1C10.2631 11.2333 6.82312 14.36 3.40979 17.48C3.30051 17.5741 3.22069 17.6978 3.17989 17.8361C3.1391 17.9745 3.13906 18.1216 3.17979 18.26ZM1.24979 34.16V17.67C1.24979 17.3 1.24979 17.27 0.829785 17.19V17.46C0.829785 22.8 0.829785 28.15 0.829785 33.46C0.8129 33.6066 0.844918 33.7548 0.920867 33.8814C0.996816 34.0079 1.11244 34.1059 1.24979 34.16ZM18.0798 17.91C17.9998 18.15 18.0798 18.25 18.2998 18.32L29.8498 21.52L30.0798 21.57C30.1798 21.06 30.1498 20.99 29.8098 20.9L20.8098 18.61L18.0798 17.91ZM20.7498 29.65C20.7397 29.5636 20.7397 29.4764 20.7498 29.39C20.7998 29.11 20.6798 28.99 20.4198 28.87C17.3998 27.5367 14.3798 26.1633 11.3598 24.75L10.5598 24.39C10.5407 24.4365 10.5312 24.4864 10.532 24.5366C10.5328 24.5869 10.5438 24.6365 10.5644 24.6823C10.585 24.7282 10.6147 24.7693 10.6518 24.8033C10.6888 24.8373 10.7323 24.8634 10.7798 24.88C14.0198 26.42 17.2398 27.98 20.4698 29.53L20.7498 29.65ZM25.1598 25.65C25.1598 25.47 25.1598 25.35 25.1598 25.22C25.1598 25.09 25.1098 25 24.9698 24.95L14.7798 21.27L14.5798 21.21C14.4898 21.44 14.5798 21.53 14.7698 21.61L23.0098 24.84L25.1598 25.65ZM16.2998 33.9C16.2998 33.72 16.2998 33.59 16.2998 33.46C16.3085 33.4021 16.2975 33.343 16.2684 33.2922C16.2394 33.2414 16.1941 33.2019 16.1398 33.18L6.44979 28L6.25979 27.91C6.17979 28.17 6.25979 28.29 6.48979 28.4L15.9098 33.74L16.2998 33.9ZM11.1598 38.53C11.2798 38.07 11.2298 37.94 10.8998 37.7L2.52979 31.74L2.00979 31.38C1.96914 31.4724 1.964 31.5766 1.99537 31.6725C2.02674 31.7685 2.0924 31.8495 2.17979 31.9L10.6798 38.18L11.1598 38.53ZM16.5298 36.37L15.0898 36.81L11.5298 37.87C11.3798 37.87 11.2998 37.98 11.3198 38.15C11.3305 38.2564 11.3305 38.3636 11.3198 38.47L16.5298 36.9C16.5298 36.71 16.5298 36.57 16.5298 36.37ZM16.4498 33.82L20.8798 32.7C21.2998 32.59 21.2998 32.59 21.2598 32.15V32.09H21.0698L16.8598 33.09C16.4098 33.2 16.4098 33.2 16.4498 33.67C16.4434 33.7202 16.4468 33.7711 16.4598 33.82H16.4498ZM25.6398 28L24.9898 28.14L21.0698 29C21.0316 29.0063 20.9959 29.0226 20.966 29.0472C20.9362 29.0718 20.9133 29.1038 20.8998 29.14C20.8843 29.2863 20.8843 29.4337 20.8998 29.58L25.6798 28.58C25.6598 28.36 25.6498 28.2 25.6398 28ZM29.9598 24.27L29.0698 24.42C27.8698 24.62 26.6698 24.81 25.4698 25.02C25.4369 25.0262 25.4057 25.0392 25.3782 25.0581C25.3506 25.077 25.3273 25.1015 25.3098 25.13C25.2997 25.2865 25.2997 25.4435 25.3098 25.6L29.9698 24.8L29.9598 24.27ZM33.9598 20.17C33.9066 20.1649 33.853 20.1649 33.7998 20.17L30.6198 20.86C30.1798 20.96 30.1798 20.97 30.1998 21.42C30.1939 21.443 30.1939 21.467 30.1998 21.49H30.2698L33.8198 20.71C33.8484 20.699 33.8741 20.6815 33.8949 20.659C33.9157 20.6364 33.9311 20.6094 33.9398 20.58C34.0198 20.46 34.0098 20.33 34.0098 20.19L33.9598 20.17ZM1.14979 17.07V17.14C1.57979 17.31 1.96979 17.05 2.37979 17.05V16.93L1.14979 17.07ZM22.6998 0.38V0.28L22.1198 0.34L22.6998 0.38Z" fill="#0095FF"/>
<path d="M25.9399 28.7798C25.9399 28.4798 25.9399 28.1998 25.9399 27.9098C25.938 27.8858 25.9307 27.8626 25.9186 27.8418C25.9064 27.821 25.8898 27.8033 25.8699 27.7898C25.6599 27.7398 25.6899 27.5898 25.6899 27.4398V25.8498L30.2699 25.0598C30.2699 24.7198 30.3499 24.3598 30.1699 24.0598C30.1596 24.0103 30.1596 23.9593 30.1699 23.9098V21.9998C30.1699 21.8998 30.1699 21.8098 30.2999 21.7798L33.6299 21.0498H33.7599V21.2998C33.7599 22.2998 33.7599 23.2998 33.7599 24.2998C33.7648 24.3743 33.7498 24.4488 33.7164 24.5156C33.683 24.5824 33.6324 24.6391 33.5699 24.6798L21.9399 33.5698L11.8299 41.2998L11.5899 41.4798C11.5899 41.3798 11.5899 41.3098 11.5899 41.2398C11.5899 40.4798 11.5899 39.7098 11.5899 38.9498C11.5827 38.9128 11.5834 38.8747 11.5919 38.838C11.6003 38.8013 11.6164 38.7668 11.639 38.7366C11.6616 38.7065 11.6902 38.6814 11.7231 38.663C11.756 38.6446 11.7923 38.6333 11.8299 38.6298L16.6999 37.1698L16.8799 37.0998C16.8799 36.7498 16.8199 36.3898 16.8199 36.0298C16.8199 35.4198 16.8199 34.7998 16.8199 34.1898C16.8199 34.0498 16.8899 34.0198 16.9999 33.9898L21.4099 32.8798C21.5699 32.8798 21.6399 32.7898 21.5999 32.6098C21.5798 32.4538 21.5798 32.2958 21.5999 32.1398C21.5999 31.9798 21.5999 31.8398 21.4099 31.7698C21.4099 31.7698 21.3399 31.6698 21.3399 31.6098C21.3399 31.0598 21.3399 30.4998 21.3399 29.9498C21.3399 29.7898 21.4399 29.7698 21.5499 29.7498L25.7399 28.8398L25.9399 28.7798Z" fill="white"/>
<path d="M21.6397 1.43018C21.6397 1.96018 21.6397 2.43018 21.6397 2.86018C21.6317 2.9554 21.589 3.04436 21.5197 3.11018C20.193 4.37018 18.883 5.61351 17.5897 6.84018L13.3497 10.8402L6.60971 17.2402L3.35971 20.3502L3.15971 20.5302C3.15971 20.0202 3.15971 19.5302 3.15971 19.1102C3.12994 18.9009 3.15693 18.6875 3.23785 18.4922C3.31877 18.297 3.45065 18.127 3.61971 18.0002C6.08971 15.7402 8.54971 13.4602 11.0097 11.1902L21.2497 1.79018L21.6397 1.43018Z" fill="white"/>
<path d="M2.85987 30.8201C2.52987 30.8801 2.19987 30.9601 1.85987 31.0101C1.72987 31.0101 1.67987 31.0801 1.69987 31.2001C1.6349 31.4098 1.65256 31.6364 1.74923 31.8334C1.84591 32.0305 2.01429 32.1831 2.21987 32.2601C2.27657 32.2874 2.32284 32.3324 2.3517 32.3883C2.38056 32.4443 2.39045 32.5081 2.37987 32.5701C2.37987 32.9901 2.37987 33.4201 2.37987 33.8401C2.38414 33.8632 2.38357 33.8869 2.37821 33.9098C2.37284 33.9327 2.36279 33.9542 2.3487 33.973C2.33461 33.9918 2.31677 34.0074 2.29632 34.019C2.27587 34.0305 2.25324 34.0377 2.22987 34.0401C1.94987 34.1001 1.66987 34.1801 1.36987 34.2601V34.0001C1.36987 28.5501 1.36987 23.1001 1.36987 17.6501C1.36987 17.4401 1.36987 17.3501 1.63987 17.3201C2.03987 17.3201 2.43987 17.1801 2.84987 17.1001L2.85987 30.8201Z" fill="white"/>
<path d="M18.7397 18.7402L19.9397 19.0602C23.1797 19.9602 26.4197 20.8702 29.6597 21.7602C29.8597 21.8202 29.9297 21.9002 29.9297 22.1102C29.9297 22.7202 29.9297 23.3202 29.9297 23.9502L29.6997 23.9002L18.9697 20.2402C18.7997 20.1802 18.7297 20.1102 18.7397 19.9202C18.7597 19.5402 18.7397 19.1502 18.7397 18.7402Z" fill="white"/>
<path d="M2.68969 32.6299L3.68969 33.3999L10.8997 38.7299C11.0159 38.7914 11.1406 38.8352 11.2697 38.8599V41.4799L10.9997 41.2799L2.80969 34.7899C2.73877 34.7325 2.69231 34.6503 2.67969 34.5599C2.67969 33.9499 2.67969 33.3499 2.67969 32.7499C2.68061 32.7097 2.68395 32.6696 2.68969 32.6299Z" fill="white"/>
<path d="M22.3299 17.4699L21.2299 17.1499V3.99994C21.2182 3.9226 21.2279 3.84356 21.2579 3.77131C21.2878 3.69907 21.3369 3.63636 21.3999 3.58994C21.5953 3.46551 21.7497 3.28632 21.844 3.07471C21.9382 2.86309 21.9681 2.62842 21.9299 2.39994C21.9048 1.97698 21.9048 1.5529 21.9299 1.12994V1.06994H21.2799V0.439941C21.4999 0.439941 21.7099 0.439941 21.9199 0.439941C22.3699 0.499941 22.3699 0.509941 22.3699 0.969941V17.4699H22.3299Z" fill="white"/>
<path d="M14.7999 21.9302L16.4299 22.5702L24.8799 25.8802C25.0636 25.9215 25.2515 25.9416 25.4399 25.9402V27.6102L24.4399 27.2302L14.9799 23.4502C14.9089 23.4356 14.8464 23.3942 14.8054 23.3345C14.7644 23.2748 14.748 23.2016 14.7599 23.1302C14.8099 22.7502 14.7999 22.3602 14.7999 21.9302Z" fill="white"/>
<path d="M22.4697 17.4702V0.830176C22.4697 0.610176 22.4697 0.490176 22.7497 0.500176C22.9209 0.486001 23.0911 0.462634 23.2597 0.430176V17.2202L22.4697 17.4702Z" fill="white"/>
<path d="M6.86973 28.8901L9.60972 30.4501L16.0397 34.0901C16.2083 34.1406 16.3838 34.1642 16.5597 34.1601V36.0001L16.3597 35.8901C13.2531 33.9635 10.1397 32.0568 7.01972 30.1701C6.96916 30.1435 6.92725 30.1031 6.8989 30.0535C6.87056 30.0039 6.85697 29.9472 6.85973 29.8901C6.86973 29.5701 6.86973 29.2601 6.86973 28.8901Z" fill="white"/>
<path d="M11.2197 25.3999L12.6697 26.0999L20.5297 29.8599C20.7061 29.9042 20.8882 29.9211 21.0697 29.9099V31.6099L19.9497 31.0599L12.7997 27.4299L11.4097 26.7299C11.2897 26.6699 11.2297 26.6099 11.2397 26.4699C11.2297 26.1399 11.2197 25.7999 11.2197 25.3999Z" fill="white"/>
<path d="M16.8297 20.45L15.8897 20.63V9.06996C15.8845 9.0009 15.8954 8.93159 15.9214 8.86742C15.9474 8.80324 15.9879 8.74593 16.0397 8.69996C16.2997 8.46996 16.5497 8.22996 16.8297 7.95996V20.45Z" fill="white"/>
<path d="M11.9099 23.79V12.88C11.9051 12.7993 11.9188 12.7186 11.95 12.6441C11.9812 12.5696 12.0291 12.5032 12.0899 12.45C12.3499 12.23 12.5899 11.99 12.8799 11.71V12C12.8799 15.7866 12.8799 19.57 12.8799 23.35C12.8799 23.58 12.7899 23.65 12.5899 23.67L11.9099 23.79Z" fill="white"/>
<path d="M9.11971 27L8.17971 27.18V16.4C8.17337 16.3255 8.18453 16.2505 8.21231 16.1811C8.24009 16.1116 8.28371 16.0496 8.33971 16C8.59971 15.77 8.84971 15.53 9.11971 15.27V27Z" fill="white"/>
<path d="M3.17968 18.2601C3.13896 18.1218 3.139 17.9746 3.17979 17.8363C3.22059 17.6979 3.3004 17.5743 3.40968 17.4801C6.86302 14.3601 10.303 11.2335 13.7297 8.10014L20.9897 1.49014C21.0526 1.41147 21.1411 1.35737 21.2397 1.33727C21.3384 1.31716 21.441 1.33234 21.5297 1.38014L3.17968 18.2601Z" fill="white"/>
<path d="M1.2498 34.1602C1.1159 34.1092 1.00189 34.0166 0.924497 33.896C0.847104 33.7754 0.81041 33.6332 0.8198 33.4902C0.8198 28.1502 0.8198 22.8002 0.8198 17.4902V17.2202C1.2098 17.3002 1.2398 17.3302 1.2398 17.7002V34.1602H1.2498Z" fill="white"/>
<path d="M18.0797 17.9102L20.8197 18.6102L29.8197 20.9002C30.1597 20.9902 30.1897 21.0602 30.0897 21.5702L29.8597 21.5202L18.3097 18.3202C18.0697 18.2502 17.9997 18.1502 18.0797 17.9102Z" fill="white"/>
<path d="M20.7498 29.6501L20.4698 29.5301C17.2398 27.9801 14.0198 26.4201 10.7798 24.8801C10.7324 24.8635 10.6888 24.8375 10.6518 24.8035C10.6147 24.7695 10.585 24.7283 10.5644 24.6824C10.5439 24.6366 10.5328 24.587 10.532 24.5368C10.5312 24.4865 10.5407 24.4366 10.5598 24.3901L11.3598 24.7501C14.3798 26.1301 17.3998 27.5035 20.4198 28.8701C20.6798 28.9901 20.7998 29.1101 20.7498 29.3901C20.7397 29.4765 20.7397 29.5638 20.7498 29.6501Z" fill="white"/>
<path d="M25.1597 25.68L23.0097 24.84L14.7697 21.61C14.5697 21.53 14.4897 21.44 14.5797 21.21L14.7797 21.27L24.9697 25C25.1097 25.05 25.1797 25.11 25.1597 25.27C25.1397 25.43 25.1597 25.5 25.1597 25.68Z" fill="white"/>
<path d="M16.2997 33.8999L15.9097 33.6899L6.52972 28.3499C6.32972 28.2399 6.21972 28.1199 6.29972 27.8599L6.48972 27.9499L16.1797 33.1799C16.234 33.2017 16.2793 33.2412 16.3084 33.2921C16.3374 33.3429 16.3485 33.402 16.3397 33.4599C16.2897 33.5899 16.2997 33.7199 16.2997 33.8999Z" fill="white"/>
<path d="M11.1598 38.5299L10.6898 38.1799L2.18982 31.8999C2.10244 31.8493 2.03677 31.7683 2.0054 31.6724C1.97404 31.5764 1.97917 31.4723 2.01982 31.3799L2.53982 31.7399L10.8998 37.7399C11.2298 37.9399 11.2798 38.0699 11.1598 38.5299Z" fill="white"/>
<path d="M16.4599 33.8202C16.4584 33.8002 16.4584 33.7801 16.4599 33.7602C16.4599 33.2902 16.4599 33.2902 16.8699 33.1802L21.0799 32.1802H21.2699V32.2402C21.2699 32.6802 21.2699 32.6802 20.8899 32.7902L16.4599 33.8202Z" fill="white"/>
<path d="M25.6398 28C25.6398 28.18 25.6398 28.34 25.6398 28.53L20.8598 29.53C20.8443 29.3837 20.8443 29.2363 20.8598 29.09C20.8733 29.0538 20.8961 29.0218 20.926 28.9972C20.9558 28.9726 20.9916 28.9563 21.0298 28.95L24.9498 28.1L25.6398 28Z" fill="white"/>
<path d="M29.9598 24.29V24.82L25.2998 25.62C25.2897 25.4635 25.2897 25.3065 25.2998 25.15C25.3173 25.1216 25.3406 25.0971 25.3682 25.0781C25.3957 25.0592 25.4269 25.0462 25.4598 25.04C26.6598 24.83 27.8598 24.64 29.0598 24.44L29.9598 24.29Z" fill="white"/>
<path d="M34.0098 20.1902C34.0098 20.3302 34.0098 20.4602 34.0098 20.5902C34.0011 20.6197 33.9858 20.6467 33.965 20.6692C33.9442 20.6918 33.9185 20.7092 33.8898 20.7202L30.3398 21.5002H30.2698C30.2639 21.4773 30.2639 21.4532 30.2698 21.4302C30.2698 20.9802 30.2698 20.9702 30.6898 20.8702L33.8698 20.1802C33.9167 20.1797 33.9635 20.183 34.0098 20.1902Z" fill="white"/>
<path d="M1.14988 17.0702L2.35988 16.9302V17.0502C1.94988 17.0502 1.55988 17.3102 1.12988 17.1402L1.14988 17.0702Z" fill="white"/>
<path d="M12.7999 41.9102C12.7252 41.8684 12.6652 41.8048 12.6276 41.728C12.5901 41.6511 12.5769 41.5647 12.5899 41.4802C12.5949 41.3969 12.5949 41.3134 12.5899 41.2302L11.6599 41.4702C11.5664 41.5055 11.4633 41.5055 11.3699 41.4702C11.1799 41.3302 11.0099 41.1702 10.8399 41.0202C10.7968 40.9624 10.7631 40.8983 10.7399 40.8302C10.7348 40.7836 10.7348 40.7367 10.7399 40.6902V24.0602C10.7399 23.8302 10.7999 23.7502 11.0299 23.7302C11.3659 23.7107 11.7001 23.6672 12.0299 23.6002C12.4367 23.5673 12.8459 23.6218 13.2299 23.7602C13.2299 23.7602 13.3199 23.8502 13.3299 23.9002C13.34 24.0066 13.34 24.1137 13.3299 24.2202L13.5499 24.0502L23.0099 15.4402L30.3199 8.78016C30.4877 8.6039 30.6682 8.44013 30.8599 8.29016C30.9583 8.22233 31.0357 8.1283 31.0834 8.01873C31.1312 7.90915 31.1472 7.7884 31.1299 7.67016C31.1198 7.48696 31.1198 7.30335 31.1299 7.12016C31.6725 7.02194 32.2199 6.95185 32.7699 6.91016C33.0739 6.93849 33.373 7.00571 33.6599 7.11016C33.6599 7.11016 33.7299 7.18016 33.7399 7.23016C33.7451 7.29672 33.7451 7.36359 33.7399 7.43016C33.7399 12.9035 33.7399 18.3702 33.7399 23.8302C33.7399 24.0602 33.8099 24.1502 34.0299 24.2002M18.0299 23.3702C17.9858 23.4021 17.9455 23.439 17.9099 23.4802C16.4099 24.9002 14.9099 26.3102 13.4299 27.7402C13.3463 27.8377 13.3002 27.9617 13.2999 28.0902C13.2999 31.1902 13.2999 34.3002 13.2999 37.4002V37.6502H13.5299L16.6799 37.0502C16.7139 37.0322 16.7434 37.0066 16.7659 36.9754C16.7885 36.9442 16.8035 36.9081 16.8099 36.8702C16.8299 36.5138 16.8299 36.1565 16.8099 35.8002C16.8077 35.7531 16.7938 35.7074 16.7693 35.6672C16.7449 35.627 16.7106 35.5936 16.6699 35.5702C16.5823 35.5484 16.5002 35.5089 16.4285 35.4542C16.3568 35.3995 16.2971 35.3306 16.253 35.2519C16.209 35.1732 16.1815 35.0863 16.1724 34.9965C16.1633 34.9068 16.1726 34.8161 16.1999 34.7302V34.6702C16.1999 34.5202 16.1999 34.4502 16.3799 34.4302C16.8699 34.3502 17.3799 34.2402 17.8499 34.1602C18.0699 34.1602 18.1399 34.0502 18.1399 33.8202C18.1399 30.4268 18.1399 27.0368 18.1399 23.6502L18.0299 23.3702ZM31.1499 11.0002L31.0099 11.1102C29.8399 12.2202 28.6699 13.3402 27.4999 14.4402C27.4438 14.4902 27.3995 14.552 27.3701 14.6211C27.3407 14.6903 27.327 14.7651 27.3299 14.8402V27.3002L28.6699 27.0502C28.6699 26.5802 28.6699 26.1302 28.6699 25.6702C28.6551 25.6365 28.6331 25.6065 28.6055 25.5823C28.5778 25.5581 28.5452 25.5403 28.5099 25.5302C28.3399 25.4602 28.0799 25.4602 27.9999 25.3402C27.9199 25.2202 27.9999 24.9602 27.9999 24.7702C27.9999 24.5802 27.9999 24.5802 28.1799 24.5502C29.0999 24.3802 30.0099 24.1902 30.9299 24.0302C31.1499 24.0302 31.1999 23.9002 31.1999 23.6902C31.1999 19.5502 31.1999 15.4068 31.1999 11.2602L31.1499 11.0002ZM17.1499 37.3802C17.0495 37.3451 16.9402 37.3451 16.8399 37.3802L14.3299 37.8502L12.3299 38.2302L12.5099 38.3802M21.7099 34.0802C21.5642 33.9836 21.3988 33.921 21.2257 33.8967C21.0527 33.8725 20.8764 33.8873 20.7099 33.9402C20.543 33.9879 20.3724 34.0213 20.1999 34.0402L16.5699 34.7402L17.1799 35.0702M31.8499 8.34016L31.4599 8.70016L21.2199 18.1302C18.7599 20.4002 16.2999 22.6802 13.8299 24.9402C13.6651 25.0603 13.5342 25.2211 13.4501 25.4069C13.366 25.5926 13.3315 25.7971 13.3499 26.0002C13.3751 26.4732 13.3751 26.9472 13.3499 27.4202L13.5599 27.2502L16.7999 24.1502L23.5299 17.7702L27.7599 13.7702L31.7099 10.0002C31.7472 9.96937 31.778 9.93136 31.8003 9.8884C31.8227 9.84545 31.8361 9.79843 31.8399 9.75016C31.8499 9.32016 31.8499 8.87016 31.8499 8.34016ZM24.7299 30.2102V28.8202C24.724 28.7936 24.7119 28.7689 24.6945 28.748C24.6771 28.7271 24.6549 28.7107 24.6299 28.7002C24.4699 28.7002 24.4499 28.5602 24.4599 28.4302C24.4699 28.3003 24.4699 28.17 24.4599 28.0402C24.4599 27.8902 24.5099 27.8402 24.6599 27.8102C25.0399 27.7502 25.4299 27.6702 25.7999 27.5902V16.0502L25.6999 16.1402L23.5299 18.2302C23.449 18.3246 23.4062 18.4458 23.4099 18.5702C23.4099 22.4502 23.4099 26.3302 23.4099 30.2102V30.4702L24.7299 30.2102ZM24.9099 30.5502C24.825 30.5252 24.7347 30.5252 24.6499 30.5502L22.2999 31.0002L20.9699 31.2602L21.1099 31.3302M21.8199 19.8702L21.6899 19.9802L19.7999 21.7702C19.7399 21.8192 19.6931 21.8823 19.6634 21.9538C19.6338 22.0254 19.6222 22.1031 19.6299 22.1802V33.8102L21.1499 33.5102V33.2902C21.1499 32.9502 21.1499 32.6202 21.1499 32.2902C21.1454 32.2528 21.131 32.2173 21.1081 32.1874C21.0853 32.1574 21.0548 32.1342 21.0199 32.1202C20.5299 32.0002 20.4099 31.6802 20.4699 31.2102C20.4699 31.0702 20.5299 31.0102 20.6799 30.9902L21.8299 30.7602L21.8199 19.8702ZM29.0299 27.4002C28.9015 27.371 28.7682 27.371 28.6399 27.4002C27.8899 27.5302 27.1399 27.6802 26.3899 27.8202L25.1199 28.0002L25.3099 28.0802M13.0699 37.7302V24.0002C12.6499 24.0802 12.2599 24.1702 11.8499 24.2202C11.6199 24.2202 11.5899 24.3402 11.5899 24.5502V41.1902C11.8899 41.1102 12.1599 41.0302 12.4399 40.9702C12.5699 40.9702 12.5999 40.8902 12.5899 40.7702C12.5899 40.3502 12.5899 39.9302 12.5899 39.5002C12.598 39.4371 12.5859 39.3732 12.5554 39.3175C12.5248 39.2617 12.4774 39.2172 12.4199 39.1902C12.2158 39.1112 12.0489 38.9583 11.9525 38.7619C11.8562 38.5654 11.8374 38.3399 11.8999 38.1302C11.8999 38.0102 11.8999 37.9602 12.0599 37.9402C12.4099 37.8702 12.7399 37.8002 13.0699 37.7302ZM30.1399 26.0002L28.9499 25.6802C28.9499 26.0902 28.9499 26.4802 28.9499 26.8602C28.9499 27.0502 28.9499 27.1202 29.1799 27.1802M13.9499 40.3102L12.8999 39.5402C12.8975 39.5801 12.8975 39.6202 12.8999 39.6602C12.8999 40.2602 12.8999 40.8702 12.8999 41.4702C12.9057 41.5162 12.9212 41.5605 12.9453 41.6001C12.9695 41.6397 13.0017 41.6738 13.0399 41.7002M33.8999 24.4602C33.731 24.4045 33.5487 24.4045 33.3799 24.4602C33.1367 24.5716 32.8724 24.6293 32.6049 24.6293C32.3374 24.6293 32.073 24.5716 31.8299 24.4602C31.4284 24.2632 30.9668 24.2275 30.5399 24.3602H30.3399L28.6399 24.6902L28.8699 24.7602M32.5299 24.3802V7.93016C32.5299 7.47016 32.5299 7.46016 32.0799 7.40016C31.8699 7.40016 31.6499 7.40016 31.4399 7.35016V8.00016H32.0899C32.0899 8.00016 32.0899 8.00016 32.0899 8.06016C32.0899 8.49016 32.0899 8.91016 32.0899 9.33016C32.1375 9.56082 32.1132 9.80056 32.0202 10.017C31.9272 10.2334 31.77 10.416 31.5699 10.5402C31.5032 10.5831 31.4512 10.6454 31.4209 10.7186C31.3905 10.7919 31.3832 10.8726 31.3999 10.9502V24.0602L32.5299 24.3802ZM26.6299 29.4802L24.9999 28.8402C24.9999 29.2702 24.9999 29.6602 24.9999 30.0402C24.9905 30.1139 25.0089 30.1884 25.0514 30.2494C25.0939 30.3104 25.1575 30.3534 25.2299 30.3702M32.6799 24.3702L33.4699 24.1302V7.34016C33.302 7.37686 33.1314 7.40026 32.9599 7.41016C32.7099 7.41016 32.6699 7.52016 32.6699 7.74016C32.6699 13.1868 32.6699 18.6368 32.6699 24.0902L32.6799 24.3702ZM17.0699 35.8002C17.0699 36.1702 17.0699 36.4802 17.0699 36.8002C17.0644 36.8576 17.0769 36.9154 17.1055 36.9655C17.1341 37.0156 17.1776 37.0557 17.2299 37.0802M22.8699 33.0002L21.4299 32.3102C21.4299 32.7002 21.4299 33.0402 21.4299 33.3802C21.4299 33.5102 21.4799 33.5702 21.5899 33.6302M27.0299 27.3502V14.8702C26.7499 15.1402 26.5099 15.3802 26.2499 15.6102C26.1974 15.6561 26.1559 15.7131 26.1282 15.7771C26.1005 15.8411 26.0874 15.9105 26.0899 15.9802C26.0899 19.7468 26.0899 23.5168 26.0899 27.2902V27.5402L27.0299 27.3502ZM22.1199 30.7002C22.3699 30.6502 22.5899 30.6002 22.8099 30.5702C23.0299 30.5402 23.0999 30.4802 23.0999 30.2502C23.0999 26.4702 23.0999 22.6902 23.0999 18.9102V18.6102C22.7999 18.8902 22.5599 19.1302 22.3099 19.3502C22.2472 19.4018 22.1981 19.468 22.1667 19.5429C22.1353 19.6178 22.1227 19.6993 22.1299 19.7802V30.7102L22.1199 30.7002ZM19.3299 33.8602V22.1902C19.0499 22.4502 18.8099 22.7002 18.5499 22.9202C18.494 22.9682 18.4498 23.0282 18.4203 23.0957C18.3909 23.1633 18.3771 23.2366 18.3799 23.3102C18.3799 26.8035 18.3799 30.2902 18.3799 33.7702V34.0002L19.3299 33.8602ZM13.3299 25.1702L31.6799 8.29016C31.598 8.25854 31.5086 8.25212 31.423 8.27172C31.3375 8.29132 31.2598 8.33605 31.1999 8.40016L23.9299 15.0002C20.5032 18.1335 17.0665 21.2602 13.6199 24.3802C13.509 24.4755 13.4275 24.6004 13.385 24.7403C13.3425 24.8802 13.3407 25.0293 13.3799 25.1702H13.3299ZM11.3999 41.0702V24.5802C11.3999 24.2102 11.3999 24.1802 10.9899 24.1002V24.3702C10.9899 29.7035 10.9899 35.0368 10.9899 40.3702C10.9756 40.5217 11.0134 40.6737 11.097 40.8009C11.1806 40.9281 11.3051 41.0231 11.4499 41.0702H11.3999ZM31.0299 25.5202L28.2899 24.8202C28.2099 25.0602 28.2899 25.1702 28.4999 25.2302M21.5299 31.6602L20.7299 31.3102C20.7109 31.3559 20.7015 31.4052 20.7024 31.4547C20.7033 31.5043 20.7144 31.5531 20.7351 31.5982C20.7557 31.6432 20.7855 31.6836 20.8224 31.7166C20.8594 31.7496 20.9028 31.7747 20.9499 31.7902M24.9499 28.1802L24.7399 28.1202C24.6499 28.3502 24.7399 28.4502 24.9399 28.5202M16.6199 34.8602L16.4299 34.7802C16.3399 35.0302 16.4299 35.1502 16.6499 35.2602M12.6999 38.6502L12.1799 38.2902C12.1444 38.3842 12.1429 38.4877 12.1758 38.5827C12.2087 38.6777 12.2738 38.7582 12.3599 38.8102M11.3499 24.0002V24.0802C11.7699 24.2402 12.1599 23.9802 12.5699 23.9802V23.8602L11.3499 24.0002ZM32.9099 7.29016V7.19016L32.3299 7.25016L32.9099 7.29016Z" fill="#0095FF"/>
<path d="M31.8499 8.33984C31.8499 8.86984 31.8499 9.33984 31.8499 9.76984C31.8461 9.81812 31.8327 9.86514 31.8104 9.90809C31.788 9.95105 31.7573 9.98906 31.7199 10.0198L27.7999 13.7498L23.5699 17.7498L16.8199 24.1498L13.5299 27.2698L13.3199 27.4398C13.3451 26.9668 13.3451 26.4928 13.3199 26.0198C13.2979 25.8135 13.3307 25.605 13.4149 25.4154C13.4992 25.2258 13.632 25.0618 13.7999 24.9398C16.2699 22.6798 18.7299 20.3998 21.1899 18.1298L31.4599 8.69984L31.8499 8.33984Z" fill="white"/>
<path d="M13.0699 37.73C12.7399 37.8 12.4099 37.87 12.0699 37.92C11.9499 37.92 11.8999 37.99 11.9099 38.11C11.8473 38.3197 11.8661 38.5453 11.9625 38.7417C12.0589 38.9382 12.2258 39.0911 12.4299 39.17C12.4874 39.197 12.5348 39.2416 12.5654 39.2973C12.5959 39.353 12.608 39.417 12.5999 39.48C12.5999 39.91 12.5999 40.33 12.5999 40.75C12.5999 40.87 12.5999 40.92 12.4499 40.95C12.1699 41.01 11.8999 41.09 11.5999 41.17V24.55C11.5999 24.34 11.5999 24.25 11.8599 24.22C12.2699 24.22 12.6599 24.08 13.0799 24L13.0699 37.73Z" fill="white"/>
<path d="M29.1798 27.1499C28.9998 27.0899 28.9398 27.0199 28.9498 26.8299C28.9498 26.4499 28.9498 26.0599 28.9498 25.6499L30.1398 25.9699" fill="white"/>
<path d="M32.5299 24.3801L31.4299 24.0601V10.9301C31.4132 10.8526 31.4205 10.7718 31.4509 10.6986C31.4813 10.6253 31.5332 10.5631 31.5999 10.5201C31.8001 10.3959 31.9573 10.2133 32.0503 9.99691C32.1433 9.7805 32.1676 9.54076 32.1199 9.3101C32.1199 8.8901 32.1199 8.4701 32.1199 8.0401C32.1199 8.0401 32.1199 8.0401 32.1199 7.9801H31.4699V7.3501C31.6799 7.3501 31.8999 7.3501 32.1099 7.4001C32.5599 7.4601 32.5599 7.4701 32.5599 7.9301V24.3801H32.5299Z" fill="white"/>
<path d="M32.6797 24.3798V24.0898C32.6797 18.6432 32.6797 13.1932 32.6797 7.73984C32.6797 7.51984 32.6797 7.40984 32.9697 7.40984C33.1413 7.39995 33.3118 7.37654 33.4797 7.33984V24.1398L32.6797 24.3798Z" fill="white"/>
<path d="M21.5898 33.6398C21.4798 33.5798 21.4198 33.5198 21.4298 33.3898C21.4298 33.0498 21.4298 32.7098 21.4298 32.3198L22.8698 33.0098" fill="white"/>
<path d="M27.0299 27.3601L26.0999 27.5401V27.2901C26.0999 23.5168 26.0999 19.7468 26.0999 15.9801C26.0975 15.9104 26.1105 15.8411 26.1382 15.7771C26.1659 15.7131 26.2075 15.6561 26.2599 15.6101C26.5199 15.3801 26.7599 15.1401 27.0399 14.8701L27.0299 27.3601Z" fill="white"/>
<path d="M22.1199 30.7101V19.7901C22.1127 19.7092 22.1253 19.6278 22.1567 19.5529C22.1881 19.4779 22.2372 19.4118 22.2999 19.3601C22.5499 19.1401 22.7899 18.9001 23.0899 18.6201V18.9201C23.0899 22.7001 23.0899 26.4801 23.0899 30.2601C23.0899 30.4901 22.9999 30.5601 22.7999 30.5801C22.5999 30.6001 22.3699 30.6601 22.1199 30.7101Z" fill="white"/>
<path d="M19.3298 33.8599L18.3898 34.0399V33.7699C18.3898 30.2899 18.3898 26.8033 18.3898 23.3099C18.387 23.2363 18.4008 23.163 18.4302 23.0955C18.4597 23.028 18.5039 22.968 18.5598 22.9199C18.8198 22.6999 19.0598 22.4499 19.3398 22.1899L19.3298 33.8599Z" fill="white"/>
<path d="M13.3799 25.1698C13.3428 25.0304 13.3456 24.8833 13.3881 24.7454C13.4305 24.6075 13.5108 24.4843 13.6199 24.3898C17.0732 21.2698 20.5099 18.1398 23.9299 14.9998L31.1999 8.39981C31.2598 8.3357 31.3375 8.29097 31.4231 8.27137C31.5086 8.25177 31.598 8.25819 31.6799 8.28981L13.3799 25.1698Z" fill="white"/>
<path d="M11.4498 41.0701C11.3177 41.0174 11.2059 40.9241 11.1304 40.8037C11.0549 40.6832 11.0197 40.5419 11.0298 40.4001C11.0298 35.0668 11.0298 29.7334 11.0298 24.4001V24.1001C11.4198 24.1801 11.4398 24.2101 11.4398 24.5801V41.0701H11.4498Z" fill="white"/>
<path d="M28.5297 25.2298C28.2997 25.1698 28.2397 25.0598 28.3197 24.8198L31.0597 25.5198" fill="white"/>
<path d="M20.9897 31.7901C20.9426 31.7746 20.8992 31.7495 20.8623 31.7165C20.8253 31.6835 20.7956 31.6431 20.7749 31.5981C20.7543 31.553 20.7431 31.5042 20.7422 31.4546C20.7413 31.4051 20.7507 31.3558 20.7697 31.3101L21.5697 31.6601" fill="white"/>
<path d="M24.9798 28.5201C24.7798 28.4501 24.6898 28.3501 24.7798 28.1201L24.9898 28.1801" fill="white"/>
<path d="M16.6897 35.2598C16.4897 35.1498 16.3797 35.0298 16.4697 34.7798L16.6597 34.8598" fill="white"/>
<path d="M12.3999 38.81C12.3138 38.7581 12.2487 38.6776 12.2158 38.5826C12.1829 38.4876 12.1844 38.3841 12.2199 38.29L12.7399 38.65" fill="white"/>
<path d="M11.3498 23.9998L12.5298 23.8398V23.9998C12.1198 23.9998 11.7298 24.2598 11.3098 24.0998L11.3498 23.9998Z" fill="white"/>
</g>
<defs>
<clipPath id="clip0_270_2108">
<rect width="33.78" height="41.91" fill="white" transform="translate(0.529785)"/>
</clipPath>
</defs>
</svg>
