<svg width="42" height="37" viewBox="0 0 42 37" fill="none" xmlns="http://www.w3.org/2000/svg">
<g clip-path="url(#clip0_270_2071)">
<path d="M20.9403 35.8401L20.7903 27.9401L20.1603 26.5901L20.0603 25.6701L19.8903 25.4701V23.6101C19.8903 23.6101 19.9703 23.4601 19.8903 23.3901C19.8201 23.277 19.7631 23.1562 19.7203 23.0301V22.6401C19.8015 22.6307 19.8764 22.5915 19.9303 22.5301L20.1603 22.2801C20.2221 22.2288 20.279 22.1719 20.3303 22.1101C20.388 22.0558 20.4295 21.9865 20.4503 21.9101V21.8501L20.0103 21.3801L19.7203 21.2301H17.8703L16.2703 20.8801C16.2703 20.8801 14.0203 20.3201 13.8603 20.2601C13.7003 20.2001 8.18032 18.8601 8.18032 18.8601L4.81032 18.1801L3.24032 17.7301L2.47032 17.0801L1.09032 16.5201C1.09032 16.5201 2.14032 15.8801 0.830322 15.0901V14.9101L0.910322 14.7001H2.35032C2.35032 14.7001 3.73032 14.3301 3.12032 13.1801V13.0701L3.27032 13.0001H4.37032C4.37032 13.0001 6.37032 11.5601 6.17032 10.7601L6.09032 10.6201C6.09032 10.6201 8.70032 11.0001 9.89032 7.8201V7.5801C9.89032 7.5801 10.2303 7.5801 10.2303 7.6401C10.2303 7.7001 10.3303 7.7801 10.3303 7.7801C10.3303 7.7801 13.4803 7.3301 14.4803 5.2501L14.1903 5.0001L14.0403 4.8801L14.3303 4.1101V3.7801L14.5403 3.8401C14.6162 3.84246 14.6909 3.85943 14.7603 3.8901C14.7603 3.8901 15.1103 4.0601 15.1303 4.1101C15.1682 4.15853 15.2119 4.20218 15.2603 4.2401C16.4873 4.34491 17.7225 4.1809 18.8796 3.75949C20.0367 3.33809 21.0881 2.66942 21.9603 1.8001V1.1601L22.3603 0.600098L22.7103 0.990098V2.0001C23.4886 2.9376 24.4755 3.67999 25.592 4.16791C26.7085 4.65584 27.9236 4.87576 29.1403 4.8101H29.3003C29.3543 4.9544 29.4248 5.09198 29.5103 5.2201C29.5499 5.25113 29.582 5.29055 29.6045 5.3355C29.627 5.38046 29.6392 5.42985 29.6403 5.4801C29.6403 5.5901 29.3803 5.8901 29.3803 5.8901C29.6657 6.63585 30.1677 7.27913 30.8217 7.73715C31.4758 8.19516 32.252 8.44695 33.0503 8.4601L33.4403 8.3101V8.6601C33.5966 9.34258 33.9469 9.9653 34.449 10.4532C34.9511 10.9412 35.5836 11.2735 36.2703 11.4101H36.5803C36.5803 11.4101 36.4503 13.2801 39.0103 13.7701C39.0103 13.7701 38.1203 15.5301 40.8203 15.5301C40.8203 15.5301 39.8203 16.7901 40.8203 17.1401L37.2703 18.5401L33.5303 19.3201C33.5303 19.3201 31.2803 19.7401 31.0903 19.8101C30.7083 19.9084 30.321 19.9851 29.9303 20.0401L28.7703 20.2201L27.8303 20.4901L27.1603 20.6401C26.9703 20.6401 26.0003 20.7501 26.0003 20.7501L25.2703 21.0001C25.0908 21.0213 24.9135 21.0581 24.7403 21.1101C24.6279 21.1782 24.5013 21.2192 24.3703 21.2301C24.2208 21.2476 24.0698 21.2476 23.9203 21.2301C23.6906 21.195 23.4556 21.2227 23.2403 21.3101C23.0779 21.3923 22.9015 21.4432 22.7203 21.4601L22.4603 21.5701C22.3378 21.63 22.2107 21.6801 22.0803 21.7201L21.9303 21.9501L22.2103 22.3601L22.5303 22.5601L22.6403 22.8101C22.6276 22.9058 22.6041 22.9997 22.5703 23.0901C22.5235 23.1913 22.4931 23.2993 22.4803 23.4101C22.4803 23.5201 22.4803 23.6301 22.4803 23.7401C22.4576 23.8456 22.4576 23.9546 22.4803 24.0601C22.4958 24.1914 22.5192 24.3216 22.5503 24.4501L22.6103 24.6201C22.6406 24.6937 22.6608 24.7711 22.6703 24.8501C22.6703 24.9201 22.6703 24.9601 22.6703 25.0701V25.1801C22.6703 25.1801 22.6703 25.3501 22.6703 25.4701C22.6521 25.5527 22.6253 25.6331 22.5903 25.7101V26.2001L22.5203 26.5501C22.4692 26.6343 22.4225 26.7211 22.3803 26.8101C22.3303 26.9401 22.2303 27.3201 22.2303 27.3201L22.1003 27.5801C22.1003 27.6801 22.1003 27.5801 22.1003 27.6801C22.0678 27.7373 22.041 27.7976 22.0203 27.8601L22.1903 34.8601V35.2001C22.1903 35.2801 22.1903 35.6901 22.1903 35.7401C22.1786 35.8122 22.1585 35.8827 22.1303 35.9501H20.9303L20.9403 35.8401Z" stroke="#0095FF" stroke-width="0.75" stroke-miterlimit="10"/>
<path d="M14.3303 4.1301L20.8103 12.7301L22.3303 0.600098" stroke="#0095FF" stroke-width="0.75" stroke-miterlimit="10"/>
<path d="M6.05029 10.6003L20.8103 12.7303L9.89029 7.82031" stroke="#0095FF" stroke-width="0.75" stroke-miterlimit="10"/>
<path d="M0.830322 15.09L20.8103 12.73L3.08032 13.07" stroke="#0095FF" stroke-width="0.75" stroke-miterlimit="10"/>
<path d="M3.56033 17.83L20.8103 12.73L1.09033 16.52" stroke="#0095FF" stroke-width="0.75" stroke-miterlimit="10"/>
<path d="M40.7903 15.56L20.8103 12.73L40.7903 17.17" stroke="#0095FF" stroke-width="0.75" stroke-miterlimit="10"/>
<path d="M38.9803 13.7999L20.8103 12.7299L36.5503 11.4399" stroke="#0095FF" stroke-width="0.75" stroke-miterlimit="10"/>
<path d="M29.2703 4.78027L20.8103 12.7303L33.4103 8.28027" stroke="#0095FF" stroke-width="0.75" stroke-miterlimit="10"/>
<path d="M31.0503 19.81L20.8103 12.73" stroke="#0095FF" stroke-width="0.75" stroke-miterlimit="10"/>
<path d="M8.15039 18.86L20.8104 12.73L12.4804 19.92" stroke="#0095FF" stroke-width="0.75" stroke-miterlimit="10"/>
<path d="M25.9604 20.75L20.8104 12.73L16.6904 20.98" stroke="#0095FF" stroke-width="0.75" stroke-miterlimit="10"/>
<path d="M35.6903 18.86L20.8103 12.73" stroke="#0095FF" stroke-width="0.75" stroke-miterlimit="10"/>
</g>
<defs>
<clipPath id="clip0_270_2071">
<rect width="41.6" height="36.34" fill="white" transform="translate(0.270264)"/>
</clipPath>
</defs>
</svg>
