<svg width="50" height="35" viewBox="0 0 50 35" fill="none" xmlns="http://www.w3.org/2000/svg">
<g clip-path="url(#clip0_270_2175)">
<path d="M1.27013 8.40011C1.27013 8.40011 16.2701 -0.199887 24.5501 0.400113C24.5501 0.400113 43.3801 1.40011 48.6401 6.40011C48.6401 6.40011 48.8501 8.83011 25.7701 9.54011C25.7701 9.52011 1.06013 10.3301 1.27013 8.40011Z" stroke="#0095FF" stroke-width="0.75" stroke-miterlimit="10"/>
<path d="M1.27002 8.39988L2.99002 31.4799C2.99002 31.4799 26.89 37.5599 48.24 29.8699C49.509 22.1005 49.6437 14.188 48.64 6.37988" stroke="#0095FF" stroke-width="0.75" stroke-miterlimit="10"/>
<path d="M1.38013 12.0003C1.38013 12.0003 3.57013 15.4803 26.5801 13.5603C26.5801 13.5603 46.5801 12.5603 49.0301 10.2803" stroke="#0095FF" stroke-width="0.75" stroke-miterlimit="10"/>
<path d="M1.38013 15.8201C1.38013 15.8201 3.57013 19.3001 26.5801 17.3801C26.5801 17.3801 46.5801 16.4301 49.0301 14.1001" stroke="#0095FF" stroke-width="0.75" stroke-miterlimit="10"/>
<path d="M1.38013 19.68C1.38013 19.68 3.57013 23.16 26.5801 21.25C26.5801 21.25 46.5801 20.25 49.0301 17.96" stroke="#0095FF" stroke-width="0.75" stroke-miterlimit="10"/>
<path d="M4.53003 9.68994L5.76003 32.1499" stroke="#0095FF" stroke-width="0.75" stroke-miterlimit="10"/>
<path d="M9.39014 9.68994L10.2801 32.9699" stroke="#0095FF" stroke-width="0.75" stroke-miterlimit="10"/>
<path d="M15.6201 10.2402L16.3701 33.7902" stroke="#0095FF" stroke-width="0.75" stroke-miterlimit="10"/>
<path d="M23.0801 9.68994L23.3601 33.7899" stroke="#0095FF" stroke-width="0.75" stroke-miterlimit="10"/>
<path d="M31.03 33.7899V9.68994" stroke="#0095FF" stroke-width="0.75" stroke-miterlimit="10"/>
<path d="M38.01 9.28027L38.28 32.1503" stroke="#0095FF" stroke-width="0.75" stroke-miterlimit="10"/>
<path d="M43.28 8.52002L44.1 30.78" stroke="#0095FF" stroke-width="0.75" stroke-miterlimit="10"/>
</g>
<defs>
<clipPath id="clip0_270_2175">
<rect width="48.76" height="34.14" fill="white" transform="translate(0.890137)"/>
</clipPath>
</defs>
</svg>
