<svg width="49" height="29" viewBox="0 0 49 29" fill="none" xmlns="http://www.w3.org/2000/svg">
<g clip-path="url(#clip0_270_1371)">
<path d="M15.7397 8.79992H14.9097V8.74992L15.7297 8.66992L15.7397 8.79992Z" fill="white"/>
<path d="M6.38982 8.54997H1.56982C1.56982 7.89997 1.56982 7.26997 1.56982 6.64997C1.56982 6.57997 1.71982 6.47997 1.81982 6.44997L10.0898 4.22997C14.8098 2.99997 19.5198 1.69997 24.2498 0.449973C24.4704 0.400139 24.6993 0.400139 24.9198 0.449973L46.6298 6.24997C46.8798 6.31997 47.1298 6.36997 47.3698 6.45997C47.4158 6.48032 47.4567 6.5106 47.4895 6.54864C47.5224 6.58669 47.5464 6.63154 47.5598 6.67997C47.5598 7.27997 47.5598 7.88997 47.5598 8.52997H42.7298V26.53H44.1598V27.47H47.5398V28.47H1.58982V27.47H4.93982V26.53H6.38982V8.54997ZM41.1498 25V8.57997H7.96982V25H8.65982V26.57H40.4798V25H41.1498ZM44.1498 27.63V27.14C44.1498 26.68 44.1498 26.68 43.6898 26.68H5.45982C5.38658 26.685 5.31307 26.685 5.23982 26.68C5.06982 26.68 5.00982 26.74 5.01982 26.9C5.02982 27.06 5.01982 27.36 5.01982 27.63H1.65982V28.44H47.4598V27.63H44.1498ZM1.63982 8.41997H47.4798V7.22997C47.4798 6.58997 47.4798 6.57997 46.8498 6.40997L24.7998 0.529973C24.6396 0.485172 24.4701 0.485172 24.3098 0.529973C18.9365 1.94997 13.5832 3.37997 8.24982 4.81997L1.89982 6.51997C1.75982 6.51997 1.62982 6.56997 1.63982 6.75997C1.64982 7.29997 1.63982 7.83997 1.63982 8.41997ZM41.9198 25V8.56997H41.2498V25H41.9198ZM7.18982 8.56997V25H7.84982V8.56997H7.18982ZM8.55982 25.08H6.55982V26.56H8.55982V25.08ZM40.5598 25.08V26.58H42.5598V25.08H40.5598ZM7.07982 24.6V19.53H6.67982V24.6H7.07982ZM42.4398 24.6V19.53H42.0498V24.6H42.4398ZM42.4398 19.04V14.23H42.0398V19L42.4398 19.04ZM6.67982 14.23V19H7.07982V14.2L6.67982 14.23ZM42.0398 8.92997V13.74H42.4398V8.92997H42.0398ZM6.68982 8.92997V13.74H7.07982V8.92997H6.68982ZM42.5498 25H42.6098V8.56997H42.5498V25ZM6.54982 25H6.60982V8.57997H6.50982L6.54982 25ZM7.09982 24.65L6.69982 24.86C6.76982 24.91 6.83982 25 6.90982 25.02C6.97982 25.04 7.13982 24.91 7.05982 24.61L7.09982 24.65ZM42.0398 24.73C42.0398 24.84 42.0398 24.98 42.1198 24.99C42.227 25.0251 42.3426 25.0251 42.4498 24.99C42.4498 24.99 42.4498 24.84 42.4998 24.74L42.0398 24.73ZM7.07982 19.14H6.68982C6.62982 19.33 6.68982 19.44 6.86982 19.44C7.04982 19.44 7.13982 19.35 7.07982 19.14ZM41.9898 19.14C41.9898 19.25 42.0498 19.38 42.0998 19.41C42.1474 19.4298 42.1983 19.44 42.2498 19.44C42.3013 19.44 42.3523 19.4298 42.3998 19.41C42.4498 19.41 42.3998 19.25 42.4598 19.15L41.9898 19.14ZM7.06982 13.85H6.68982L6.62982 13.95C6.70982 14.01 6.77982 14.1 6.85982 14.12C6.93982 14.14 7.14982 14.09 7.06982 13.85ZM42.0098 13.85C42.0098 13.95 42.0098 14.08 42.0798 14.1C42.1794 14.1395 42.2903 14.1395 42.3898 14.1C42.3898 14.1 42.3898 13.96 42.4698 13.85H42.0098ZM6.68982 8.56997C6.60982 8.81997 6.68982 8.82997 6.90982 8.82997C7.12982 8.82997 7.12982 8.73997 7.06982 8.56997H6.68982ZM42.4898 8.65997L42.4098 8.56997H42.0498C41.9598 8.80997 42.0498 8.85997 42.2498 8.81997C42.4498 8.77997 42.4098 8.71997 42.4898 8.65997Z" fill="#0095FF"/>
<path d="M0.319756 6.70012C0.291725 6.60802 0.268362 6.51457 0.249756 6.42012L3.16976 5.63012C10.0431 3.80345 16.9098 1.96345 23.7698 0.110121C24.2831 -0.0347538 24.8264 -0.0347538 25.3398 0.110121L48.5498 6.33012L48.8598 6.42012V6.67012C48.8271 6.67957 48.7924 6.67957 48.7598 6.67012L38.4198 3.93012L24.8198 0.300121C24.64 0.248713 24.4495 0.248713 24.2698 0.300121L0.409756 6.69012L0.319756 6.70012ZM48.7398 6.57012V6.50012C48.6505 6.45643 48.5565 6.42288 48.4598 6.40012L24.7998 0.0801207C24.6491 0.0398106 24.4904 0.0398106 24.3398 0.0801207L1.55976 6.16012C1.15976 6.26012 0.759756 6.38012 0.359756 6.49012V6.58012L0.759756 6.51012L24.2498 0.220121C24.4399 0.170117 24.6397 0.170117 24.8298 0.220121L39.3098 4.08012L48.4098 6.51012L48.7398 6.57012Z" fill="#0095FF"/>
<path d="M7.05967 24.6104C7.13967 24.9104 7.05967 25.0204 6.86967 24.9804C6.67967 24.9404 6.72967 24.8704 6.65967 24.8204L7.05967 24.6104Z" fill="white"/>
<path d="M41.9998 24.6899H42.4598C42.4598 24.7899 42.4598 24.9299 42.4098 24.9399C42.3026 24.9751 42.187 24.9751 42.0798 24.9399C42.0798 24.9399 42.0298 24.7999 41.9998 24.6899Z" fill="white"/>
<path d="M7.07965 19.1401C7.13965 19.3501 7.07965 19.4401 6.86965 19.4401C6.65965 19.4401 6.62965 19.3301 6.68965 19.1401H7.07965Z" fill="white"/>
<path d="M41.9897 19.1401H42.4597C42.4597 19.2401 42.4597 19.3701 42.3997 19.4001C42.3522 19.4199 42.3012 19.4301 42.2497 19.4301C42.1983 19.4301 42.1473 19.4199 42.0997 19.4001C42.0497 19.3801 42.0397 19.2501 41.9897 19.1401Z" fill="white"/>
<path d="M7.06964 13.8501C7.14964 14.0901 7.06964 14.1601 6.85964 14.1201C6.64964 14.0801 6.70964 14.0001 6.62964 14.0001L6.68964 13.9001L7.06964 13.8501Z" fill="white"/>
<path d="M42.0098 13.8501H42.4698C42.4698 13.9601 42.4698 14.0801 42.3898 14.1001C42.2902 14.1396 42.1793 14.1396 42.0798 14.1001C42.0798 14.1001 42.0298 14.0001 42.0098 13.8501Z" fill="white"/>
<path d="M6.6897 8.57031H7.0697C7.1297 8.74031 7.0697 8.83031 6.9097 8.83031C6.7497 8.83031 6.6097 8.82031 6.6897 8.57031Z" fill="white"/>
<path d="M42.4899 8.66031C42.4099 8.72031 42.3399 8.81031 42.2499 8.82031C42.1599 8.83031 41.9599 8.82031 42.0499 8.57031H42.4099L42.4899 8.66031Z" fill="white"/>
<path d="M47.0298 6.91991V7.99991H2.07983C2.07983 7.66991 2.07983 7.34991 2.07983 6.99991C2.07983 6.91991 2.23983 6.82991 2.33983 6.79991L7.24983 5.51991L24.3098 0.99991C24.4701 0.955108 24.6396 0.955108 24.7998 0.99991L46.7998 6.86991L47.0298 6.91991ZM45.2998 7.32991C45.3898 7.26529 45.4872 7.21158 45.5898 7.16991L46.4198 6.88991V6.79991C46.2702 6.78494 46.1195 6.78494 45.9698 6.79991C45.7462 6.85789 45.5259 6.92799 45.3098 7.00991L45.9198 6.69991L41.9198 5.62991V7.99991C42.1117 7.97802 42.302 7.94463 42.4898 7.89991L43.1898 7.71991L42.6798 7.93991V7.99991L43.5598 7.90991C43.6123 7.94025 43.6699 7.9606 43.7298 7.96991H46.8698C46.9026 7.97884 46.9371 7.97884 46.9698 7.96991V7.30991C46.9698 6.92991 46.8598 6.83991 46.4898 6.94991L45.2998 7.32991ZM5.56983 7.85991L6.45983 7.99991L5.93983 7.72991L7.24983 7.99991V5.61991L3.24983 6.70991L3.84983 6.99991C3.63983 6.99991 3.43983 6.88991 3.22983 6.85991C3.05332 6.84968 2.87635 6.84968 2.69983 6.85991V6.93991L3.85983 7.34991C3.75658 7.35549 3.65309 7.35549 3.54983 7.34991C3.22983 7.24991 2.90983 7.12991 2.54983 7.03991C2.37983 7.03991 2.16983 6.97991 2.13983 7.22991C2.10983 7.47991 2.13983 7.74991 2.13983 8.02991H5.43983C5.43983 8.02991 5.52983 7.87991 5.56983 7.85991ZM40.9198 5.51991C40.9233 5.46997 40.9233 5.41985 40.9198 5.36991C40.8 5.35994 40.6796 5.35994 40.5598 5.36991C40.5598 5.36991 40.5598 5.24991 40.4698 5.23991C40.2098 5.14991 39.9398 5.08991 39.6798 5.00991L36.2498 4.10991V7.99991L36.6898 7.90991H37.2498C37.344 7.94041 37.4413 7.96053 37.5398 7.96991H40.9998H41.3098V5.75991C41.2998 5.39991 41.2498 5.37991 40.9198 5.51991ZM8.24983 5.50991C7.86983 5.38991 7.85983 5.38991 7.85983 5.78991V7.92991H11.7498C11.7498 7.92991 11.8198 7.92991 11.8598 7.85991H12.4598L12.8998 7.94991V4.10991L8.63983 5.24991C8.63983 5.24991 8.63983 5.32991 8.57983 5.37991C8.46337 5.37008 8.34629 5.37008 8.22983 5.37991C8.23325 5.42368 8.23993 5.46714 8.24983 5.50991ZM31.3198 7.84991C31.4226 7.88853 31.5304 7.9121 31.6398 7.91991H35.3198H35.6198V4.07991C35.6198 4.07991 35.6198 3.92991 35.5398 3.92991C35.4608 3.92846 35.3835 3.95306 35.3198 3.99991C35.0998 4.17991 34.8898 4.36991 34.6798 4.55991L35.2998 3.88991V3.80991C35.1812 3.84255 35.067 3.88957 34.9598 3.94991L33.6598 5.12991L34.9798 3.76991L30.5498 2.58991V7.99991C30.6635 7.97126 30.7716 7.92395 30.8698 7.85991C31.0198 7.73991 31.1398 7.58991 31.2798 7.46991C31.5798 7.18991 31.8898 6.91991 32.1998 6.64991L30.8998 7.88991L30.9698 7.98991L31.3198 7.84991ZM14.4398 4.55991C14.2598 4.39991 14.0798 4.23991 13.8898 4.08991C13.7911 4.02527 13.6874 3.96843 13.5798 3.91991C13.5391 4.02257 13.5122 4.13018 13.4998 4.23991C13.4998 5.36991 13.4998 6.49991 13.4998 7.63991C13.4998 7.72991 13.4998 7.81991 13.4998 7.92991H17.6198C17.6798 7.92991 17.7298 7.92991 17.7798 7.85991L18.1398 7.94991V7.87991L16.9198 6.61991C17.0285 6.68173 17.1321 6.75194 17.2298 6.82991L18.2298 7.82991C18.3406 7.90941 18.4617 7.97334 18.5898 8.01991V2.58991L14.1798 3.75991L14.0998 3.88991L15.4598 5.12991C15.3825 5.07524 15.312 5.01144 15.2498 4.93991C14.9098 4.61991 14.5698 4.26991 14.2498 3.93991C14.1426 3.87957 14.0284 3.83255 13.9098 3.79991V3.87991L14.4398 4.55991ZM29.6798 2.55991C29.6798 2.48991 29.6798 2.41991 29.6798 2.37991C29.6798 2.33991 29.5598 2.37991 29.5198 2.37991C29.4553 2.42786 29.395 2.4814 29.3398 2.53991L29.4398 2.28991L24.8798 1.06991V7.99991L25.3298 7.70991V7.89991L25.3898 7.95991L25.7598 7.69991V7.89991H29.9998V2.39991L29.6798 2.55991ZM23.4098 7.72991L23.8698 8.00991L23.7898 7.72991L24.2498 7.99991V1.06991L19.6998 2.27991L19.8298 2.52991C19.7712 2.47128 19.7076 2.41775 19.6398 2.36991C19.6398 2.36991 19.4998 2.36991 19.4798 2.36991C19.4685 2.42601 19.4685 2.48381 19.4798 2.53991L19.2498 2.39991V7.90991H23.4498L23.4098 7.72991ZM24.7798 7.91991V1.32991C24.7798 1.17991 24.7798 1.00991 24.5898 0.98991C24.3998 0.96991 24.3398 1.10991 24.3398 1.29991V7.66991C24.3355 7.75319 24.3355 7.83663 24.3398 7.91991H24.7798ZM19.0798 2.47991C18.7398 2.47991 18.6398 2.60991 18.6398 2.93991C18.6398 4.46991 18.6398 5.99991 18.6398 7.51991V7.89991H19.0698L19.0798 2.47991ZM30.0798 2.47991V7.90991H30.5098V7.50991C30.5098 5.98991 30.5098 4.50991 30.5098 2.92991C30.4798 2.58991 30.3598 2.46991 30.0398 2.47991H30.0798ZM13.4098 3.99991C13.0698 3.99991 12.9598 4.12991 12.9698 4.45991C12.9698 5.45991 12.9698 6.53991 12.9698 7.57991C12.9698 7.68991 12.9698 7.79991 12.9698 7.90991H13.3898L13.4098 3.99991ZM35.7198 3.99991V7.90991H36.1398V7.54991C36.1398 6.54991 36.1398 5.48991 36.1398 4.45991C36.1598 4.13991 36.0698 3.99991 35.7198 3.99991ZM41.3898 5.51991V7.89991H41.8198C41.8198 7.23991 41.8198 6.59991 41.8198 5.96991C41.8398 5.63991 41.7198 5.50991 41.3898 5.51991ZM7.73983 7.90991V5.40991C7.54983 5.54991 7.32983 5.63991 7.31983 5.73991C7.31983 6.45991 7.31983 7.17991 7.31983 7.90991H7.73983Z" fill="#0095FF"/>
<path d="M24.7797 7.92018H24.3697C24.3654 7.83691 24.3654 7.75346 24.3697 7.67018V1.30018C24.3697 1.11018 24.3697 0.970184 24.6197 0.990184C24.8697 1.01018 24.8097 1.18018 24.8097 1.33018V7.92018H24.7797Z" fill="white"/>
<path d="M19.0798 2.47999V7.89999H18.6498V7.51999C18.6498 5.99999 18.6498 4.51999 18.6498 2.93999C18.6398 2.60999 18.7398 2.46999 19.0798 2.47999Z" fill="white"/>
<path d="M30.0398 2.47998C30.3598 2.47998 30.4798 2.58998 30.4798 2.92998C30.4798 4.45998 30.4798 5.98998 30.4798 7.50998V7.90998H30.0498L30.0398 2.47998Z" fill="white"/>
<path d="M23.4099 7.73035C22.0765 5.99035 20.7432 4.25702 19.4099 2.53035C19.3985 2.47425 19.3985 2.41645 19.4099 2.36035C19.4099 2.36035 19.5299 2.36035 19.5699 2.36035C19.6376 2.40819 19.7012 2.46172 19.7599 2.52035L23.7599 7.72035L23.8399 8.00035L23.4099 7.73035Z" fill="white"/>
<path d="M29.6798 2.54012C28.3598 4.26012 27.0398 5.99012 25.6798 7.71012L25.3398 8.00012L25.2498 7.91012V7.72012L29.2498 2.53012C29.3049 2.4716 29.3652 2.41806 29.4298 2.37012C29.4298 2.37012 29.5698 2.37012 29.5898 2.37012C29.6098 2.37012 29.6698 2.47012 29.6798 2.54012Z" fill="white"/>
<path d="M13.4098 4V7.91H12.9898C12.9898 7.8 12.9898 7.69 12.9898 7.58C12.9898 6.58 12.9898 5.5 12.9898 4.46C12.9598 4.13 13.0698 4 13.4098 4Z" fill="white"/>
<path d="M35.7197 4C36.0697 4 36.1597 4.14 36.1497 4.46C36.1497 5.46 36.1497 6.52 36.1497 7.55V7.91H35.7297L35.7197 4Z" fill="white"/>
<path d="M34.6796 4.56006L33.1796 6.07006C33.1796 6.07006 33.0896 6.07006 33.0696 6.07006L31.2996 7.86006L30.9496 7.96006L30.8796 7.86006L32.2496 6.61006L33.7096 5.13006L34.9296 4.00006C35.0281 3.92377 35.1355 3.85995 35.2496 3.81006V3.89006L34.6796 4.56006Z" fill="white"/>
<path d="M15.9298 6.07006L14.4398 4.56006L13.8198 3.89006V3.81006C13.9384 3.8427 14.0526 3.88972 14.1598 3.95006C14.4998 4.27006 14.8398 4.62006 15.1598 4.95006C15.2343 5.02425 15.3184 5.08815 15.4098 5.14006C15.8898 5.64006 16.4098 6.14006 16.8698 6.63006L18.1098 7.89006V7.95006L17.7498 7.86006L16.0498 6.11006C16.0498 6.11006 15.9698 6.08006 15.9298 6.07006Z" fill="white"/>
<path d="M11.8599 7.85017L8.24986 5.51017C8.24614 5.46358 8.24614 5.41676 8.24986 5.37017C8.36632 5.36033 8.4834 5.36033 8.59986 5.37017L12.4799 7.85017H11.8599Z" fill="white"/>
<path d="M40.9197 5.52004L37.2497 7.86004H36.6697L40.5497 5.38004C40.6695 5.37007 40.7899 5.37007 40.9097 5.38004C40.916 5.42644 40.9194 5.4732 40.9197 5.52004Z" fill="white"/>
<path d="M41.3896 5.52002C41.7196 5.52002 41.8397 5.64002 41.8297 5.97002C41.8297 6.60002 41.8297 7.24002 41.8297 7.90002H41.3997L41.3896 5.52002Z" fill="white"/>
<path d="M7.7398 7.91016H7.2998C7.2998 7.18016 7.2998 6.46016 7.2998 5.74016C7.2998 5.64016 7.5298 5.55016 7.7198 5.41016L7.7398 7.91016Z" fill="white"/>
<path d="M5.5697 7.86015L3.8497 7.29015L2.6897 6.88015V6.80015C2.86622 6.78992 3.04318 6.78992 3.2197 6.80015C3.4297 6.80015 3.6297 6.90015 3.8397 6.94015L4.1597 7.03015L5.6097 7.51015L5.9297 7.60015L6.4497 7.87015V8.00015L5.5697 7.86015Z" fill="white"/>
<path d="M45.2997 7.33004L43.5497 7.86004L42.6697 8.00004V7.89004L43.1797 7.67004L43.5497 7.58004L44.9597 7.09004L45.2997 7.00004C45.5157 6.91812 45.736 6.84802 45.9597 6.79004C46.1093 6.77507 46.2601 6.77507 46.4097 6.79004V6.88004L45.5797 7.16004C45.48 7.20555 45.386 7.26261 45.2997 7.33004Z" fill="white"/>
<path d="M15.9297 6.07031C15.9297 6.07031 16.0197 6.07031 16.0497 6.07031L17.8197 7.82031C17.6897 7.72031 17.5497 7.63031 17.4297 7.52031L15.9297 6.07031Z" fill="#0095FF"/>
<path d="M31.2998 7.86035L33.0698 6.11035C33.0698 6.11035 33.1398 6.11035 33.1798 6.11035L31.4398 7.80035C31.3959 7.82632 31.3489 7.84648 31.2998 7.86035Z" fill="#0095FF"/>
<path d="M44.9498 7.09033L43.5398 7.58033C43.7705 7.47253 44.0076 7.37902 44.2498 7.30033C44.4498 7.21033 44.6998 7.16033 44.9498 7.09033Z" fill="#0095FF"/>
</g>
<defs>
<clipPath id="clip0_270_1371">
<rect width="48.61" height="28.54" fill="white" transform="translate(0.249756)"/>
</clipPath>
</defs>
</svg>
