<svg width="30" height="29" viewBox="0 0 30 29" fill="none" xmlns="http://www.w3.org/2000/svg">
<g clip-path="url(#clip0_270_2282)">
<path d="M29.3602 0.370117H1.25024V28.4801H29.3602V0.370117Z" stroke="#0095FF" stroke-width="0.75" stroke-miterlimit="10"/>
<path d="M1.28027 27.8601L9.45027 8.27014L24.1503 3.14014L29.3203 27.8601H1.28027Z" fill="white" stroke="#0095FF" stroke-width="0.4" stroke-miterlimit="10"/>
<path d="M8.94019 9.51L24.3302 4" stroke="#0095FF" stroke-width="0.4" stroke-miterlimit="10"/>
<path d="M8.18018 11.3303L24.7102 5.80029" stroke="#0095FF" stroke-width="0.4" stroke-miterlimit="10"/>
<path d="M7.18018 13.7102L25.2102 8.22021" stroke="#0095FF" stroke-width="0.4" stroke-miterlimit="10"/>
<path d="M5.96021 16.6501L25.8302 11.1401" stroke="#0095FF" stroke-width="0.4" stroke-miterlimit="10"/>
<path d="M4.52026 20.0801L26.5603 15.1201" stroke="#0095FF" stroke-width="0.4" stroke-miterlimit="10"/>
<path d="M2.78027 24.2502L27.7303 20.2202" stroke="#0095FF" stroke-width="0.4" stroke-miterlimit="10"/>
<path d="M2.24023 27.8603L9.98023 8.09033" stroke="#0095FF" stroke-width="0.4" stroke-miterlimit="10"/>
<path d="M5.75024 27.8601L12.1402 7.33008" stroke="#0095FF" stroke-width="0.4" stroke-miterlimit="10"/>
<path d="M9.86035 27.86L14.6504 6.45996" stroke="#0095FF" stroke-width="0.4" stroke-miterlimit="10"/>
<path d="M14.6702 27.86L17.2702 5.54004" stroke="#0095FF" stroke-width="0.4" stroke-miterlimit="10"/>
<path d="M20.3902 27.8603L20.0002 4.59033" stroke="#0095FF" stroke-width="0.4" stroke-miterlimit="10"/>
<path d="M27.1302 27.8603L22.9202 3.57031" stroke="#0095FF" stroke-width="0.4" stroke-miterlimit="10"/>
</g>
<defs>
<clipPath id="clip0_270_2282">
<rect width="28.86" height="28.86" fill="white" transform="translate(0.870361)"/>
</clipPath>
</defs>
</svg>
