<svg width="40" height="34" viewBox="0 0 40 34" fill="none" xmlns="http://www.w3.org/2000/svg">
<g clip-path="url(#clip0_270_1405)">
<path d="M12.3497 27.3599L0.689697 24.1599V0.399902L38.8297 2.3699L35.7397 31.8799L34.8897 32.7399L12.3497 27.3599Z" stroke="#0095FF" stroke-width="0.75" stroke-miterlimit="10"/>
<path d="M22.1097 9.64014L20.9897 29.4301L25.8897 30.6601L27.4297 10.2601L22.1097 9.64014Z" stroke="#0095FF" stroke-width="0.75" stroke-miterlimit="10"/>
<path d="M8.38965 7.98975L13.1096 8.58975L12.4096 27.3597L8.38965 26.1997V7.98975Z" stroke="#0095FF" stroke-width="0.72" stroke-miterlimit="10"/>
<path d="M7.50977 26.0799L7.81977 6.62988L28.5998 8.70988L26.7398 30.7699L7.50977 26.0799Z" stroke="#0095FF" stroke-width="0.5" stroke-miterlimit="10"/>
<path d="M7.71973 7.95996L28.2797 10.36" stroke="#0095FF" stroke-width="0.75" stroke-miterlimit="10"/>
<path d="M12.3496 26.9198L13.1096 8.58984L14.5996 8.75984L13.7896 26.0298L12.3496 26.9198Z" stroke="#0095FF" stroke-width="0.74" stroke-linejoin="bevel"/>
<path d="M9.76972 9.42988L11.6997 9.84988L11.3797 17.4599L9.44972 16.9999L9.76972 9.43988M9.30972 8.87988L8.95972 17.3399L11.8097 17.9999L12.1697 9.45988L9.30972 8.87988Z" fill="#0095FF"/>
<path d="M9.65976 18.4499L11.6598 18.8299L11.4398 25.8299L9.43976 25.3999L9.65976 18.4599M9.23976 17.9399L8.99976 25.7399L11.8198 26.3599L12.0698 18.4799L9.23976 17.9399Z" fill="#0095FF"/>
<path d="M23.3097 11.76L25.9697 12.21L25.4297 20.29L22.8497 19.8L23.3097 11.8M22.9097 11.3L22.3997 20.19L25.8297 20.84L26.4197 11.84L22.9097 11.25V11.3Z" fill="#0095FF"/>
<path d="M22.5397 20.9299L25.4497 21.3699L24.8897 29.0599L22.0597 28.5799L22.5397 20.9299ZM22.1797 20.4799L21.6497 28.8999L25.2397 29.5199L25.8597 20.9999L22.1797 20.4399V20.4799Z" fill="#0095FF"/>
</g>
<defs>
<clipPath id="clip0_270_1405">
<rect width="38.94" height="33.15" fill="white" transform="translate(0.309814)"/>
</clipPath>
</defs>
</svg>
