<svg width="76" height="36" viewBox="0 0 76 36" fill="none" xmlns="http://www.w3.org/2000/svg">
<g clip-path="url(#clip0_270_1973)">
<path d="M38.57 31.6301C58.0246 30.9066 73.5366 23.3539 73.217 14.7607C72.8974 6.16762 56.8672 -0.211925 37.4127 0.511642C17.9581 1.23521 2.4461 8.78789 2.7657 17.381C3.0853 25.9742 19.1154 32.3537 38.57 31.6301Z" stroke="#0095FF" stroke-width="0.91" stroke-miterlimit="10"/>
<path d="M54.9502 9.86016C55.2802 13.8602 48.3602 17.7002 39.4902 18.4202C30.6202 19.1402 23.1802 16.5002 22.8502 12.5002C22.5202 8.50016 29.4402 4.66016 38.3002 3.93016C47.1602 3.20016 54.6202 5.86016 54.9502 9.86016Z" stroke="#0095FF" stroke-width="0.91" stroke-miterlimit="10"/>
<path d="M29.1601 17.6099L25.4201 19.5899L15.8701 28.8499" stroke="#0095FF" stroke-width="0.91" stroke-miterlimit="10"/>
<path d="M30.7201 17.9902L27.8801 20.1902L20.4001 30.0902" stroke="#0095FF" stroke-width="0.91" stroke-miterlimit="10"/>
<path d="M32.5101 18.29L30.7201 20.41L25.1201 30.78" stroke="#0095FF" stroke-width="0.91" stroke-miterlimit="10"/>
<path d="M27.6002 17.1001L23.6302 18.7001L12.1902 27.1201" stroke="#0095FF" stroke-width="0.91" stroke-miterlimit="10"/>
<path d="M8.77026 25.65L21.1303 18.29L26.1703 16.46" stroke="#0095FF" stroke-width="0.91" stroke-miterlimit="10"/>
<path d="M6.21021 23.7501L19.4902 17.2801L25.1202 15.8301" stroke="#0095FF" stroke-width="0.91" stroke-miterlimit="10"/>
<path d="M4.43018 21.8202L18.1502 16.4602L24.3702 15.2402" stroke="#0095FF" stroke-width="0.91" stroke-miterlimit="10"/>
<path d="M3.11011 19.3401L17.4701 15.4201L23.7701 14.6201" stroke="#0095FF" stroke-width="0.91" stroke-miterlimit="10"/>
<path d="M2.76025 17.3799L17.0703 14.2999L23.2703 13.8799" stroke="#0095FF" stroke-width="0.91" stroke-miterlimit="10"/>
<path d="M2.92017 15.6302L16.9202 13.2902L22.9202 12.9702" stroke="#0095FF" stroke-width="0.91" stroke-miterlimit="10"/>
<path d="M30.4902 31.51L33.3402 20.62L34.5202 18.48" stroke="#0095FF" stroke-width="0.91" stroke-miterlimit="10"/>
<path d="M41.4602 31.46L38.9002 20.45L37.9902 18.54" stroke="#0095FF" stroke-width="0.91" stroke-miterlimit="10"/>
<path d="M46.6502 30.7799L41.7302 20.7299L39.7302 18.3999" stroke="#0095FF" stroke-width="0.91" stroke-miterlimit="10"/>
<path d="M51.3102 30.09L44.1902 20.11L41.9502 18.29" stroke="#0095FF" stroke-width="0.91" stroke-miterlimit="10"/>
<path d="M55.8803 28.8502L46.6503 19.7902L44.0203 17.9902" stroke="#0095FF" stroke-width="0.91" stroke-miterlimit="10"/>
<path d="M59.9903 27.5699L49.3403 19.0499L45.5603 17.3799" stroke="#0095FF" stroke-width="0.91" stroke-miterlimit="10"/>
<path d="M47.9102 16.6299L51.6302 18.2899L63.2802 26.1499" stroke="#0095FF" stroke-width="0.91" stroke-miterlimit="10"/>
<path d="M49.5603 15.9399L53.7503 17.3799L66.1403 24.5899" stroke="#0095FF" stroke-width="0.91" stroke-miterlimit="10"/>
<path d="M51.0303 15.1602L55.2403 16.3902L68.4103 23.0202" stroke="#0095FF" stroke-width="0.91" stroke-miterlimit="10"/>
<path d="M22.5203 12.1401H15.8703L3.80025 13.8801H3.51025" stroke="#0095FF" stroke-width="0.91" stroke-miterlimit="10"/>
<path d="M4.43018 12.1402L15.9802 11.1802L22.9202 11.3602" stroke="#0095FF" stroke-width="0.91" stroke-miterlimit="10"/>
<path d="M5.80029 10.69L16.2303 10.25L23.2703 10.51" stroke="#0095FF" stroke-width="0.91" stroke-miterlimit="10"/>
<path d="M7.15015 9.4499L18.0801 9.1499L23.7101 9.7899" stroke="#0095FF" stroke-width="0.91" stroke-miterlimit="10"/>
<path d="M8.58032 8.36018L18.8303 8.18018L24.0903 9.15018" stroke="#0095FF" stroke-width="0.91" stroke-miterlimit="10"/>
<path d="M52.2903 14.3301L56.8803 15.5901L70.0903 21.5301" stroke="#0095FF" stroke-width="0.91" stroke-miterlimit="10"/>
<path d="M53.1602 13.6001L58.0902 14.4901L71.4402 19.9701" stroke="#0095FF" stroke-width="0.91" stroke-miterlimit="10"/>
<path d="M53.8901 12.8198L59.2901 13.5998L72.3901 18.3998" stroke="#0095FF" stroke-width="0.91" stroke-miterlimit="10"/>
<path d="M54.4502 11.9902L59.7202 12.7102L72.7402 16.7802H73.0002" stroke="#0095FF" stroke-width="0.91" stroke-miterlimit="10"/>
<path d="M54.7703 11.2603L59.7203 11.7803L73.2103 15.3903" stroke="#0095FF" stroke-width="0.91" stroke-miterlimit="10"/>
<path d="M54.9202 10.6602H60.3502L73.0002 13.7402" stroke="#0095FF" stroke-width="0.91" stroke-miterlimit="10"/>
<path d="M54.9402 9.77979H60.5002L72.6402 12.1998" stroke="#0095FF" stroke-width="0.91" stroke-miterlimit="10"/>
<path d="M54.9202 9.06024L60.4202 8.99023L71.8402 10.7202" stroke="#0095FF" stroke-width="0.91" stroke-miterlimit="10"/>
<path d="M54.4802 8.38986L60.6702 8.10986L70.0902 8.87986" stroke="#0095FF" stroke-width="0.91" stroke-miterlimit="10"/>
<path d="M54.0203 7.7402L59.7203 7.2002L68.8503 7.6202" stroke="#0095FF" stroke-width="0.91" stroke-miterlimit="10"/>
<path d="M24.8102 8.5998L19.4502 7.4198L10.6702 7.0498" stroke="#0095FF" stroke-width="0.91" stroke-miterlimit="10"/>
<path d="M25.7002 7.89023L21.1002 6.72023L12.6702 5.99023" stroke="#0095FF" stroke-width="0.91" stroke-miterlimit="10"/>
<path d="M37.5101 3.84006L35.8001 2.17006L32.8601 0.810059" stroke="#0095FF" stroke-width="0.91" stroke-miterlimit="10"/>
<path d="M36.2001 4.17002L34.5201 2.33002L30.8401 1.02002" stroke="#0095FF" stroke-width="0.91" stroke-miterlimit="10"/>
<path d="M34.7002 4.40996L32.7302 2.77996L29.4402 1.20996" stroke="#0095FF" stroke-width="0.91" stroke-miterlimit="10"/>
<path d="M26.5402 7.32986L22.6602 5.98986L15.2302 4.85986" stroke="#0095FF" stroke-width="0.91" stroke-miterlimit="10"/>
<path d="M27.4703 6.80008L24.3703 5.38008L17.3003 4.08008" stroke="#0095FF" stroke-width="0.91" stroke-miterlimit="10"/>
<path d="M28.4901 6.31023L25.5601 4.86023L19.8901 3.24023" stroke="#0095FF" stroke-width="0.91" stroke-miterlimit="10"/>
<path d="M29.8403 5.7501L26.9403 4.0801L22.2603 2.6001" stroke="#0095FF" stroke-width="0.91" stroke-miterlimit="10"/>
<path d="M31.3401 5.2401L28.8201 3.5101L24.3701 2.1001" stroke="#0095FF" stroke-width="0.91" stroke-miterlimit="10"/>
<path d="M32.7003 4.86008L30.3203 3.00008L27.0703 1.58008" stroke="#0095FF" stroke-width="0.91" stroke-miterlimit="10"/>
<path d="M53.3103 7.00986L58.9203 6.14986L66.5803 6.10986" stroke="#0095FF" stroke-width="0.91" stroke-miterlimit="10"/>
<path d="M52.6301 6.4998L58.0201 5.5798L64.5801 5.0498" stroke="#0095FF" stroke-width="0.91" stroke-miterlimit="10"/>
<path d="M52.0002 6.11L56.1402 4.87L62.5102 4.25" stroke="#0095FF" stroke-width="0.91" stroke-miterlimit="10"/>
<path d="M51.1101 5.64L55.0801 4.46L60.7701 3.5" stroke="#0095FF" stroke-width="0.91" stroke-miterlimit="10"/>
<path d="M49.8901 5.0501L52.7101 4.0501L58.7101 2.8501" stroke="#0095FF" stroke-width="0.91" stroke-miterlimit="10"/>
<path d="M48.8901 4.82004L51.2601 3.60004L56.6501 2.29004" stroke="#0095FF" stroke-width="0.91" stroke-miterlimit="10"/>
<path d="M38.7702 3.84012L37.7202 2.10012L35.1902 0.620117" stroke="#0095FF" stroke-width="0.91" stroke-miterlimit="10"/>
<path d="M40.1503 3.83002L39.4803 1.87002L37.2603 0.52002" stroke="#0095FF" stroke-width="0.91" stroke-miterlimit="10"/>
<path d="M41.4303 3.8102L41.3003 1.7702L40.0303 0.450195" stroke="#0095FF" stroke-width="0.91" stroke-miterlimit="10"/>
<path d="M42.7703 3.81012L43.0303 1.98012L43.7603 0.620117" stroke="#0095FF" stroke-width="0.91" stroke-miterlimit="10"/>
<path d="M44.1501 3.8399L44.8101 2.2199L45.9101 0.649902" stroke="#0095FF" stroke-width="0.91" stroke-miterlimit="10"/>
<path d="M45.5303 4.10014L46.5403 2.48014L48.5603 0.890137" stroke="#0095FF" stroke-width="0.91" stroke-miterlimit="10"/>
<path d="M47.0503 4.24996L48.4203 2.80996L51.0303 1.20996" stroke="#0095FF" stroke-width="0.91" stroke-miterlimit="10"/>
<path d="M47.9902 4.57008L50.1902 3.04008L53.1602 1.58008" stroke="#0095FF" stroke-width="0.91" stroke-miterlimit="10"/>
<path d="M75.4102 17.8001C75.4102 27.3601 58.4102 35.1001 37.4102 35.1001C16.4102 35.1001 -0.259798 26.9301 0.590202 18.2901C1.5302 8.78008 20.8902 1.00008 37.3702 0.510084C58.3702 -0.149916 75.4102 8.25008 75.4102 17.8001Z" stroke="#0095FF" stroke-width="0.91" stroke-miterlimit="10"/>
<path d="M36.1902 31.51V18.54" stroke="#0095FF" stroke-width="0.91" stroke-miterlimit="10"/>
</g>
<defs>
<clipPath id="clip0_270_1973">
<rect width="75.75" height="35.55" fill="white" transform="translate(0.110107)"/>
</clipPath>
</defs>
</svg>
