<svg width="40" height="27" viewBox="0 0 40 27" fill="none" xmlns="http://www.w3.org/2000/svg">
<g clip-path="url(#clip0_270_1418)">
<path d="M15.41 13.0001C15.2774 12.9799 15.1426 12.9799 15.01 13.0001C14.47 13.2401 13.94 13.5001 13.37 13.7701C13.3545 13.6171 13.3545 13.463 13.37 13.3101C13.3904 13.199 13.4509 13.0994 13.54 13.0301C13.78 12.8801 14.05 12.7601 14.31 12.6301C14.4 12.5801 14.47 12.5401 14.31 12.4401L14.6 12.5101C14.6 12.3101 14.6 12.0601 14.55 11.9801C14.3007 11.8067 14.0363 11.656 13.76 11.5301C13.59 12.0201 13.61 12.0601 13.99 12.2501C14.0902 12.3041 14.1871 12.3643 14.28 12.4301C14.1407 12.41 13.9993 12.41 13.86 12.4301C13.6811 12.5021 13.5102 12.5926 13.35 12.7001H13.27C13.33 12.3601 13.39 12.0101 13.43 11.7001C13.4405 11.5569 13.4405 11.4132 13.43 11.2701C13.3664 11.0574 13.3196 10.8401 13.29 10.6201C13.29 9.74006 13.29 8.87006 13.29 7.99006C13.286 7.89978 13.304 7.80988 13.3423 7.72804C13.3806 7.64619 13.4381 7.57484 13.51 7.52006C14.8434 6.45339 16.1467 5.37673 17.42 4.29006L17.61 4.13006V4.00006L13.38 7.56006C13.38 7.17006 13.38 6.83006 13.38 6.50006C13.38 6.42006 13.49 6.33006 13.57 6.26006C14.2 5.68006 14.84 5.12006 15.47 4.55006L15.71 4.32006C15.6176 4.28951 15.5185 4.28454 15.4235 4.30566C15.3284 4.32679 15.2408 4.37322 15.17 4.44006L13.66 5.83006C13.5722 5.90716 13.4786 5.97737 13.38 6.04006C13.46 5.54006 13.22 5.04006 13.53 4.54006L13.4 4.48006V4.43006L21.89 3.56006V26.0701C21.64 26.1301 21.58 26.0701 21.58 25.8101C21.58 23.0201 21.58 20.2301 21.58 17.4301V17.0501C21.3828 17.0736 21.1884 17.1172 21 17.1801C20.95 17.1801 20.9 17.3301 20.9 17.4101C20.9 18.6201 20.9 19.8201 20.9 21.0301C20.9 21.8801 20.9 22.7201 20.9 23.5701V18.5701C20.36 20.2701 20.71 22.0201 20.6 23.7401V23.1601L16.6 22.9801V23.4501H16.51V22.5501H16.44L16.29 23.4901C16.281 23.4237 16.281 23.3564 16.29 23.2901C16.29 22.0501 16.24 20.8001 16.16 19.5601C16.168 18.863 16.2519 18.1689 16.41 17.4901C16.4029 17.3781 16.3827 17.2674 16.35 17.1601C16.35 17.1601 16.48 17.1001 16.49 17.0301C16.49 16.7701 16.71 16.4601 16.35 16.2401L16.62 16.4001C16.57 16.3501 16.53 16.2801 16.48 16.2401C16.43 16.2001 16.24 16.1301 16.13 16.0601C16.02 15.9901 16.13 15.9601 16.13 15.9001C16.36 15.9001 16.6 15.8401 16.82 15.7801L18.38 15.2901C18.358 15.2801 18.3342 15.275 18.31 15.275C18.2859 15.275 18.262 15.2801 18.24 15.2901L16.13 15.9101L15.91 16.0401L16.17 16.2601L15.89 16.1501C15.89 16.4101 15.81 16.6501 15.75 16.9701C15.6997 16.894 15.6562 16.8137 15.62 16.7301C15.6105 16.6772 15.6105 16.623 15.62 16.5701C15.71 15.9901 15.62 15.9201 15.05 15.7801C14.86 16.2601 14.86 16.2601 15.42 16.6901L14 17.0601C13.52 17.1901 13.47 17.2501 13.46 17.7301C13.4612 17.8829 13.4376 18.0348 13.39 18.1801C13.39 18.1801 13.39 18.1201 13.39 18.1001C13.4551 17.552 13.4551 16.9981 13.39 16.4501C13.3844 16.4178 13.3854 16.3846 13.393 16.3527C13.4006 16.3208 13.4147 16.2908 13.4344 16.2646C13.4541 16.2384 13.4789 16.2164 13.5074 16.2002C13.5359 16.1839 13.5674 16.1737 13.6 16.1701H13.72C13.8865 16.0835 14.0652 16.0228 14.25 15.9901C14.4205 16.0226 14.5834 16.0871 14.73 16.1801C14.91 15.6901 14.81 15.5401 14.13 15.3801V15.8901L13.8 16.0201L13.42 16.1401C13.33 15.5801 13.42 15.5301 13.87 15.6601C14.13 15.1701 13.64 15.1701 13.44 14.9501L13.96 15.1601V15.0901L13.52 14.8601L15.02 14.2301C15.43 14.0601 15.85 13.9001 16.25 13.7201C16.32 13.7201 16.37 13.6001 16.42 13.5401L16.86 13.7201C16.86 13.5001 16.86 13.2601 16.79 13.1701C16.5672 13.0164 16.3293 12.8857 16.08 12.7801C15.9 13.1701 15.92 13.2601 16.25 13.4401L16.43 13.5401C16.2849 13.5439 16.1407 13.564 16 13.6001L13.59 14.6001L13.39 14.6701C13.3 14.1401 13.31 14.1201 13.76 13.9201L15.26 13.2201C15.33 13.2201 15.37 13.1001 15.43 13.0401L15.74 13.1401C15.74 13.0201 15.74 12.9201 15.74 12.8201C15.74 12.7201 15.74 12.6201 15.67 12.5901C15.43 12.4401 15.18 12.3201 14.93 12.1901C14.75 12.6401 14.77 12.6901 15.15 12.8801C15.24 12.9124 15.327 12.9526 15.41 13.0001ZM18.28 14.4701L18.85 14.8901C18.85 14.7001 18.91 14.5501 18.93 14.3901C18.95 14.2301 18.93 14.2301 18.88 14.2101C18.65 14.0701 18.42 13.9601 18.16 13.8201C18.1 14.1001 18.02 14.3301 18.29 14.4801C18.2101 14.4753 18.1299 14.4753 18.05 14.4801L15.23 15.4801C15.1438 15.5177 15.0603 15.5611 14.98 15.6101L15.68 15.9401V15.8601L15.2 15.6101C16.2 15.2901 17.09 14.9801 18 14.6601C18.13 14.6301 18.2 14.5301 18.28 14.4601V14.4701ZM17.39 14.0001L17.92 14.2001C17.92 13.9801 17.92 13.7501 17.84 13.6601C17.6274 13.5042 17.3954 13.3765 17.15 13.2801C16.99 13.6801 16.99 13.6801 17.4 14.0001C17.2805 13.9848 17.1595 13.9848 17.04 14.0001C16.16 14.3201 15.28 14.6601 14.4 15.0001C14.2974 15.0482 14.1972 15.1017 14.1 15.1601L14.82 15.4801V15.4101L14.36 15.1701L14.64 15.0601L17.18 14.1101C17.2537 14.0808 17.324 14.0439 17.39 14.0001ZM20.3 14.5901C20.16 14.6401 20.19 14.7301 20.3 14.7701C20.3682 14.795 20.424 14.8454 20.4557 14.9107C20.4875 14.976 20.4926 15.0511 20.47 15.1201L20.22 14.8201L20.12 14.8701C20.12 15.1801 20.06 15.4901 20.04 15.8001C19.9794 15.7783 19.9221 15.748 19.87 15.7101C19.7872 15.6253 19.6797 15.569 19.5629 15.5493C19.4461 15.5295 19.3261 15.5473 19.22 15.6001C18.47 15.8301 17.7 16.0401 16.94 16.2301C16.8279 16.2493 16.7267 16.3086 16.6549 16.3969C16.5832 16.4851 16.546 16.5964 16.55 16.7101C16.4954 17.3847 16.385 18.0536 16.22 18.7101C16.22 19.0001 16.17 19.2801 16.15 19.5701H16.22C16.31 19.0701 16.41 18.5701 16.47 18.0801C16.4687 18.0236 16.4785 17.9674 16.4989 17.9147C16.5193 17.862 16.5499 17.8139 16.5889 17.773C16.6279 17.7322 16.6745 17.6994 16.7262 17.6766C16.7779 17.6538 16.8335 17.6414 16.89 17.6401C17.98 17.4201 19.07 17.1801 20.15 16.9401C20.23 16.9401 20.36 16.8501 20.35 16.8201C20.3255 16.5348 20.2854 16.251 20.23 15.9701C20.46 15.9701 20.42 16.2001 20.43 16.3501C20.43 16.8101 20.43 17.2701 20.43 17.7301C20.5308 17.3148 20.6076 16.8941 20.66 16.4701C20.6481 16.3333 20.6178 16.1988 20.57 16.0701H20.77C20.72 15.7001 21.07 15.2801 20.52 15.0001H20.6L20.93 15.2301C20.9082 15.1351 20.8596 15.0483 20.79 14.9801L20.27 14.6401L21.52 14.3601V14.2601L20.3 14.5901ZM20.39 17.2901L20.03 17.3401C19.03 17.5301 18.03 17.7301 17.1 17.9101C16.53 18.0201 16.53 18.0101 16.53 18.6001V20.0001L20.39 19.5801V17.2901ZM20.48 22.8001C20.48 22.3301 20.48 21.9001 20.48 21.4601C20.48 21.2001 20.38 21.1601 20.15 21.1701C19.04 21.2301 17.93 21.2701 16.83 21.3001C16.7271 21.313 16.6229 21.313 16.52 21.3001V22.7501L20.48 22.8001ZM14.3 11.5501C14.3705 11.5021 14.444 11.4587 14.52 11.4201L18.37 9.19006C18.5175 9.0868 18.6518 8.9659 18.77 8.83006L18.86 8.93006H18.94V7.93006H19.14L18.86 7.54006L18.6 7.73006C18.5183 7.76447 18.4349 7.79451 18.35 7.82006V7.91006H18.73V8.61006C18.73 8.43006 18.73 8.26006 18.73 8.06006L18.4 8.00006C18.4 8.22006 18.4 8.42006 18.4 8.61006H18.33L18.27 8.07006H18.19C18.19 8.32006 18.11 8.58006 18.07 8.86006C17.87 8.96006 17.87 8.78006 17.88 8.65006C17.89 8.52006 17.88 8.29006 17.96 8.06006L17.24 8.17006C16.67 8.27006 16.67 8.27006 16.6 8.84006C16.6 9.04006 16.6 9.12006 16.85 9.08006C17.1 9.04006 17.42 8.98006 17.7 8.93006L13.77 11.2901V11.3801L14.64 11.8301V11.7401L14.3 11.5501ZM20.43 19.9001H20.19L17 20.1801C16.84 20.1801 16.68 20.1801 16.51 20.1801V21.0501C17.78 20.9801 19.03 20.9201 20.28 20.8401C20.33 20.8401 20.42 20.7301 20.42 20.6701C20.46 20.4301 20.44 20.1801 20.43 19.9001ZM20.12 9.67006C20.0475 9.56784 19.9378 9.49805 19.8145 9.47563C19.6911 9.4532 19.5639 9.47992 19.46 9.55006C18.2 10.2401 16.93 10.9001 15.66 11.5501C15.48 11.6501 15.29 11.7401 15.12 11.8501C14.95 11.9601 15.05 12.0301 15.12 12.0401C15.37 12.1901 15.63 12.3201 15.89 12.4601L15.94 12.3801L15.45 12.0801L20.12 9.67006ZM16.45 12.6701L21.34 10.4201C21.2792 10.3329 21.1876 10.2721 21.0836 10.2498C20.9797 10.2275 20.8712 10.2455 20.78 10.3001L16.33 12.4101C16.25 12.4101 16.18 12.5101 16.04 12.6001L16.91 13.0601L17 13.0001L16.45 12.6701ZM20 8.29006L21.31 7.54006C21.69 7.32006 21.73 7.21006 21.6 6.72006L19.6 7.94006C19.47 8.02006 19.49 8.13006 19.6 8.21006L20.46 8.73006C20.46 8.73006 20.53 8.73006 20.65 8.73006L20 8.29006ZM15.33 8.59006H15.2C15.2 8.80006 15.11 9.00006 15.08 9.21006C15.05 9.42006 15.08 9.43006 15.28 9.40006C15.6 9.33006 15.92 9.28006 16.28 9.22006C16.34 9.22006 16.43 9.16006 16.44 9.11006C16.44 8.87006 16.49 8.62006 16.52 8.37006C16.14 8.37006 15.8 8.54006 15.45 8.46006V8.37006L16.66 8.12006V7.99006L15.4 8.19006C15.4 8.55006 15.45 8.85006 15.48 9.19006H15.4C15.31 9.00006 15.3 8.78006 15.28 8.59006H15.33ZM17.53 13.1901L17.86 13.0401L21.45 11.5601C21.61 11.4901 21.71 11.4201 21.6 11.2101L19.95 11.9101L17.38 13.0001C17.31 13.0001 17.28 13.1401 17.23 13.2101L17.96 13.6101L18.01 13.5201L17.53 13.1901ZM14.92 8.60006L13.72 8.79006C13.67 8.79006 13.6 8.79006 13.59 8.87006C13.52 9.13006 13.47 9.40006 13.4 9.72006L14.73 9.48006C14.73 9.48006 14.84 9.42006 14.84 9.38006C14.87 9.14006 14.89 8.89006 14.92 8.60006ZM20.92 16.8301C21.16 16.7601 21.46 16.7501 21.56 16.6001C21.66 16.4501 21.56 16.1401 21.61 15.9001V15.0001C21.19 15.0001 20.95 15.2201 20.93 15.5401C20.91 15.8601 20.91 16.3801 20.91 16.8301H20.92ZM19.38 8.32006C19.16 8.82006 19.2 8.95006 19.6 9.20006L20.04 9.46006L20.34 9.62006C20.34 9.42006 20.34 9.27006 20.39 9.11006C20.44 8.95006 20.39 8.95006 20.34 8.93006L19.38 8.32006ZM21.62 12.4301L21.55 12.3301L18.21 13.6001V13.7101L18.97 14.1001L19 14.0001L18.46 13.6901L18.82 13.5501L21.39 12.5501C21.4709 12.5186 21.548 12.4784 21.62 12.4301ZM21.53 10.3601H21.62C21.62 10.1401 21.62 9.85006 21.51 9.72006C21.2663 9.5061 20.9937 9.32766 20.7 9.19006C20.7 9.47006 20.5 9.72006 20.7 9.91006C20.968 10.0755 21.2451 10.2258 21.53 10.3601ZM19.19 14.3601C18.93 14.9901 19.09 15.2901 19.81 15.5601C19.81 15.3401 19.88 15.1301 19.9 14.9101C19.9031 14.8291 19.8744 14.7501 19.82 14.6901C19.62 14.5601 19.4 14.4601 19.19 14.3501V14.3601ZM19.41 14.2101L20.19 13.9501L20.95 13.7001C21.52 13.5001 21.52 13.5001 21.59 13.3301L19.22 14.1301V14.2401L19.95 14.6201V14.5401L19.41 14.2101ZM21.57 8.45006C21.33 8.57006 21.09 8.69006 20.87 8.82006C20.8579 8.84852 20.8517 8.87913 20.8517 8.91006C20.8517 8.94099 20.8579 8.9716 20.87 9.00006C21.1 9.16006 21.34 9.30006 21.58 9.45006L21.63 9.37006L21.28 9.10006C21.61 9.00006 21.66 8.77006 21.57 8.44006V8.45006ZM16.15 21.4501H16.25C16.4919 20.7383 16.5334 19.9738 16.37 19.2401L16.15 21.4501ZM20.89 16.6501H20.79C20.5824 17.4628 20.4981 18.3022 20.54 19.1401C20.66 18.2901 20.78 17.4601 20.89 16.6401V16.6501ZM13.67 8.65006C14.125 8.59947 14.5718 8.49196 15 8.33006C14.5364 8.26824 14.0658 8.37085 13.67 8.62006V8.65006ZM16.86 8.00006V8.10006C17.21 8.10006 18.01 7.97006 18.09 7.78006L16.86 8.00006Z" fill="#0095FF"/>
<path d="M4.06009 22.9001C4.11009 22.9601 4.16009 23.0601 4.22009 23.0701L6.54009 23.3501V20.4401C6.14009 20.4401 6.14009 20.4401 6.06009 20.8601V20.4801L3.45009 20.8901V20.7801C3.52009 20.7801 3.64009 20.7201 3.66009 20.6601C3.80009 20.2201 4.21009 20.3601 4.51009 20.2801C5.14009 20.1201 5.79009 20.0001 6.43009 19.8501C6.50009 19.8501 6.60009 19.7501 6.60009 19.7001C6.60009 19.1401 6.60009 18.5801 6.60009 17.9701L3.43009 19.1801C3.4213 19.1305 3.4213 19.0798 3.43009 19.0301C3.69511 18.7274 4.04261 18.5085 4.43009 18.4001C5.11009 18.1101 5.79009 17.8201 6.43009 17.5101C6.46996 17.4832 6.50326 17.4477 6.52749 17.4061C6.55173 17.3646 6.56629 17.3181 6.57009 17.2701C6.57009 16.9001 6.57009 16.5401 6.57009 16.1801C6.55521 16.0921 6.52473 16.0074 6.48009 15.9301H6.40009L6.28009 16.1801C6.28009 16.0201 6.07009 15.8501 6.28009 15.7401C6.28009 15.7401 6.28009 15.6601 6.28009 15.6201V15.0001C5.77009 15.0001 5.48009 15.2201 5.43009 15.7801H5.35009V15.4301H5.12009L5.39009 15.3301V15.2601L4.67009 15.4201V15.5001H4.94009C4.63009 15.5001 4.51009 15.7501 4.49009 16.0501C4.37009 15.6601 4.49009 15.4601 4.78009 15.3101C5.07009 15.1601 4.96009 14.8501 5.08009 14.6201C4.93355 14.6425 4.79448 14.6995 4.67445 14.7865C4.55443 14.8734 4.45693 14.9878 4.39009 15.1201C4.18009 16.0201 3.96009 16.9301 3.76009 17.8401C3.70009 18.0901 3.66009 18.3401 3.62009 18.5801C3.66199 17.4582 3.8297 16.3446 4.12009 15.2601L3.47009 15.7901C3.3493 15.9076 3.21884 16.0146 3.08009 16.1101C2.89828 16.2291 2.7449 16.3866 2.63083 16.5716C2.51676 16.7565 2.44481 16.9643 2.42009 17.1801C2.29009 17.8401 2.13009 18.4901 1.96009 19.1801C2.01769 18.343 2.15158 17.5129 2.36009 16.7001C2.03263 16.9346 1.72493 17.1954 1.44009 17.4801C1.32656 17.6825 1.26153 17.9084 1.25009 18.1401C1.13009 18.6101 1.02009 19.0801 0.910088 19.5501C1.04009 18.9501 1.16009 18.3401 1.30009 17.6501L0.0900879 18.6501V18.5901L1.44009 17.3601L1.11009 17.2901H1.40009C1.47009 16.9401 1.54009 16.5901 1.61009 16.2201L1.36009 16.0001L1.91009 15.4001C2.13009 15.6901 1.91009 15.8701 1.77009 16.0801H1.96009C1.56009 16.2801 1.68009 16.7001 1.55009 17.0101H1.61009L2.61009 16.1601L2.16009 16.0901H2.56009C2.70692 15.7114 2.77168 15.3058 2.75009 14.9001L2.87009 14.8201L2.54009 14.6701L3.54009 13.5601C3.58509 13.5902 3.62353 13.629 3.65308 13.6743C3.68264 13.7196 3.7027 13.7705 3.71205 13.8237C3.72139 13.877 3.71984 13.9316 3.70747 13.9843C3.6951 14.037 3.67218 14.0866 3.64009 14.1301L3.23009 14.5501C3.15628 14.6346 3.0894 14.7249 3.03009 14.8201L3.69009 14.7001V14.7701L3.24009 14.8601C3.17024 14.8681 3.10497 14.8989 3.05436 14.9477C3.00375 14.9965 2.97062 15.0606 2.96009 15.1301C2.91009 15.4101 2.84009 15.6801 2.77009 15.9601H2.83009L4.40009 14.5801L3.82009 14.4701V14.4101H4.37009C4.47009 13.9601 4.57009 13.5301 4.68009 13.0901L4.43009 13.0001L4.73009 12.8501L4.29009 12.6501L6.29009 10.4201C6.29009 10.3701 6.44009 10.3701 6.53009 10.3401V10.0201L6.12009 9.90014L5.49009 10.6401L3.64009 12.8401C3.53009 12.9701 3.38009 13.1001 3.64009 13.2301H3.31009C2.87009 13.7501 2.40009 14.2901 1.95009 14.8401C1.95009 14.8401 1.95009 14.9901 1.95009 15.0801C1.46009 15.2401 1.27009 15.7901 0.950088 16.1401C0.950088 16.1401 0.950088 16.2501 0.950088 16.3201C0.560088 16.4201 0.450088 16.8501 0.160088 17.0901C0.114873 16.9912 0.0983975 16.8815 0.112544 16.7737C0.12669 16.6658 0.170887 16.5641 0.240088 16.4801C2.92675 12.8668 5.64342 9.23347 8.39009 5.58014L12.0501 0.730137L12.1601 0.640137V1.31014C12.1601 1.69014 12.1601 2.07014 12.1601 2.45014C12.1601 2.68014 12.2301 2.74014 12.4301 2.71014H12.7201V7.81014H12.2701V8.24014V7.97014C12.6601 7.91014 12.7201 7.97014 12.7201 8.32014C12.7201 10.3201 12.7201 12.4101 12.7201 14.4501V14.7201L12.2601 14.5101C12.2601 14.6701 12.2101 14.8001 12.1901 14.9601L12.6601 14.8201V15.3001H12.2001V15.7501V15.4301C12.6101 15.3701 12.6401 15.4301 12.6401 15.7901V18.2701C12.6448 18.3167 12.6448 18.3636 12.6401 18.4101H12.5701C12.5701 18.0001 12.5701 17.5901 12.5701 17.1901C12.5701 16.7901 12.3301 16.9201 12.2101 16.7801L12.5301 16.8601L12.2201 16.6901L12.5501 16.5201V16.4401L12.0101 16.6401L12.2401 16.8401H12.0401C11.8701 17.2101 11.8701 17.2101 12.2901 17.6001C11.9201 17.8301 11.4001 17.7301 11.1101 18.0901L10.6201 17.7701C10.7359 17.8325 10.8607 17.8764 10.9901 17.9001C11.0327 17.8998 11.0747 17.8897 11.1128 17.8706C11.1509 17.8515 11.1842 17.824 11.2101 17.7901C11.2101 17.7201 11.2101 17.6101 11.2101 17.4901L10.8901 17.5701C10.8218 17.5841 10.7548 17.6042 10.6901 17.6301C10.6786 17.6795 10.6786 17.7308 10.6901 17.7801C10.6201 17.8701 10.5501 17.9501 10.4901 18.0401C10.5701 17.7801 10.4101 17.6801 10.2001 17.6201C10.1626 17.5992 10.1288 17.5721 10.1001 17.5401L10.6401 17.7001C10.5401 17.2601 10.8701 17.2701 11.1101 17.1601C11.2254 17.0878 11.3614 17.0555 11.4969 17.0682C11.6325 17.0808 11.7601 17.1377 11.8601 17.2301C12.0001 16.9201 11.9901 16.7101 11.6501 16.6301L11.5901 16.5801L11.9601 16.6701V16.6201L11.5901 16.4301C11.9661 16.3006 12.3307 16.14 12.6801 15.9501V15.8701L11.3601 16.3701L11.6101 16.5901L11.3401 16.5201C11.3401 16.6801 11.3401 16.8201 11.3401 16.9701L10.2201 17.3601C10.1001 17.3601 10.0301 17.4301 10.1401 17.5501L9.85009 17.7801C9.94009 17.3801 9.61009 17.3701 9.34009 17.2601L9.22009 17.5101H9.11009C9.11009 17.4001 9.11009 17.3001 9.11009 17.1401C8.57009 17.3501 8.04009 17.5401 7.52009 17.7601C7.46009 17.7601 7.43009 17.9301 7.42009 18.0301C7.42009 18.4101 7.42009 18.7901 7.37009 19.1701V17.7101C6.68009 17.8301 6.62009 17.8901 6.62009 18.5201V19.7601C7.25009 19.7601 7.28009 19.7101 7.35009 19.1501C7.3409 19.1073 7.3409 19.063 7.35009 19.0201V19.6301C7.814 19.5749 8.26625 19.4467 8.69009 19.2501C8.77009 19.2501 8.86009 19.3101 8.93009 19.2501C9.56009 19.1201 10.1801 18.9801 10.8101 18.8601C10.9701 18.8601 11.0601 18.7701 11.0501 18.5801C11.0442 18.448 11.083 18.3176 11.1601 18.2101L11.1101 18.7501H11.3801L12.2901 18.5501C12.7301 18.4601 12.7501 18.4801 12.6901 18.9401C12.5501 18.9401 12.3501 18.9401 12.2801 19.0301C12.2101 19.1201 12.2801 19.3101 12.2801 19.4401C11.9001 19.6401 11.4001 19.4401 11.1401 19.8001C11.0601 19.8001 10.9601 19.6901 10.8801 19.7001L7.65009 20.2001C7.44009 20.2001 7.37009 20.3201 7.37009 20.5301C7.37009 21.4001 7.37009 22.2701 7.28009 23.1301C7.28009 23.3801 7.37009 23.4301 7.58009 23.4501L12.3501 23.9801C12.7901 24.0301 12.7901 24.0401 12.7501 24.5301H12.0001C12.3601 24.5301 12.2601 24.8101 12.2501 25.0501L10.6501 24.7601C9.60009 24.5701 8.55009 24.3901 7.50009 24.1801C7.25009 24.1301 7.18009 24.1801 7.20009 24.4401C7.2198 24.5425 7.2198 24.6477 7.20009 24.7501C7.20009 24.7501 7.20009 24.7001 7.20009 24.6701C7.20009 24.1901 7.20009 24.1901 6.67009 24.0701C6.67009 24.3701 6.67009 24.6601 6.67009 24.9901C6.67009 24.9401 6.57009 24.9001 6.57009 24.8601C6.57009 24.6501 6.57009 24.4301 6.57009 24.2201C6.57009 24.0101 6.57009 24.0001 6.37009 23.9701C5.55009 23.8501 4.73009 23.7201 3.91009 23.5801C3.73891 23.5335 3.57171 23.4733 3.41009 23.4001V23.3201L3.65009 23.2501V23.0601L4.03009 22.8901L4.06009 22.9001ZM5.37009 14.3701L6.30009 14.1001V14.0001L5.56009 14.1301C5.90009 13.8601 5.90009 13.8601 5.89009 13.7201C5.65009 13.8901 5.40009 14.0301 5.38009 14.3501L5.46009 14.5801L5.34009 14.3901C5.34009 14.6101 5.25009 14.7801 5.21009 14.9801L5.86009 14.8301C6.21009 14.7501 6.30009 14.6101 6.21009 14.2201L5.37009 14.3701ZM10.0001 15.7701H10.2501V15.7201L10.0201 15.5701L12.0201 14.6501C12.0201 14.5801 12.0201 14.3801 11.9101 14.3001C11.7306 14.1779 11.5356 14.0803 11.3301 14.0101C11.1501 14.3601 11.1601 14.3801 11.5201 14.6101L9.66009 15.5101L9.98009 15.7501L9.66009 15.6501L9.60009 16.0401L9.96009 15.8901C9.96009 15.8901 10.0001 15.8201 10.0001 15.7701ZM9.05009 15.3501L9.52009 15.4901V15.4401L9.22009 15.2701L9.41009 15.1501C9.92009 14.8801 10.4101 14.6301 10.9401 14.3301C11.0201 14.2801 11.0701 13.9601 11.0101 13.9201C10.8062 13.7865 10.5882 13.6759 10.3601 13.5901C10.1201 13.9601 10.3601 14.1001 10.6601 14.2101L8.84009 15.2101L9.04009 15.3801C8.97009 15.3801 8.82009 15.4501 8.82009 15.4701C8.8491 15.6174 8.89264 15.7615 8.95009 15.9001L7.81009 16.4501L8.00009 16.5001C8.38009 16.6801 8.38009 16.6801 8.59009 16.3201L9.49009 15.8901C9.55009 15.6401 9.55009 15.6401 9.28009 15.5101L9.05009 15.3501ZM8.39009 9.63014V10.9801H8.50009C8.81009 10.7101 9.11009 10.4201 9.44009 10.1701C9.54183 10.0859 9.62144 9.97814 9.67198 9.85614C9.72253 9.73413 9.74247 9.60162 9.73009 9.47014H9.35009L8.35009 9.59014C8.42009 9.53014 8.48009 9.44014 8.56009 9.42014C8.90009 9.35014 9.26009 9.30014 9.56009 9.24014C9.64237 9.22158 9.7204 9.18765 9.79009 9.14014V9.05014L9.00009 9.22014V9.16014C9.12009 9.06014 9.23009 8.97014 9.34009 8.86014C10.4201 7.79014 11.4901 6.72014 12.5801 5.66014C12.8401 5.41014 12.7901 5.16014 12.7201 4.85014C12.6401 4.85014 12.6101 4.97014 12.5601 5.02014L11.2601 6.36014L8.44009 9.14014C8.30009 9.29014 8.16009 9.45014 8.39009 9.63014ZM8.39009 15.0601L8.07009 15.0001C7.87009 15.2801 8.07009 15.4001 8.30009 15.5101L7.56009 15.8901C7.56009 15.6901 7.56009 15.5001 7.64009 15.4201C7.72009 15.3401 7.80009 15.0501 7.83009 14.8301C7.86009 14.6101 7.71009 14.6501 7.53009 14.5501C7.68219 14.4788 7.83927 14.4187 8.00009 14.3701C8.42009 14.2701 8.45009 14.2301 8.41009 13.7501L7.77009 13.8701L8.51009 13.6801V13.6001L7.75009 13.7401C7.75009 13.2101 7.75009 13.2101 8.20009 13.1001L8.69009 12.9901C8.75009 12.9901 8.84009 12.9301 8.85009 12.8801C8.86009 12.8301 8.92009 12.5001 8.96009 12.2701L7.96009 12.4601V12.8501C7.96009 12.7501 7.96009 12.6401 7.90009 12.4901L7.79009 12.6401V12.4401H7.59009C7.59009 13.5101 7.52009 14.5801 7.49009 15.4401V13.0001C7.09184 14.4658 6.78789 15.9556 6.58009 17.4601C6.73607 17.3871 6.89637 17.3236 7.06009 17.2701C7.1215 17.261 7.18028 17.239 7.23257 17.2055C7.28486 17.172 7.32947 17.1278 7.36347 17.0759C7.39748 17.024 7.4201 16.9654 7.42986 16.9041C7.43962 16.8428 7.43629 16.7801 7.42009 16.7201C7.4051 16.4804 7.4051 16.2399 7.42009 16.0001H7.48009V17.0901L8.26009 16.7301L7.88009 16.5701L7.70009 16.9001C7.70009 16.6901 7.70009 16.5601 7.64009 16.4101C7.77009 16.4901 7.86009 16.4101 7.84009 16.2501C7.82009 16.0901 7.94009 15.9701 8.09009 15.9001L8.40009 15.7501C8.55009 15.6701 8.76009 15.6001 8.70009 15.3901C8.64009 15.1801 8.52009 15.2101 8.42009 15.1301L8.78009 15.2101L8.50009 15.0301L9.92009 14.0001C10.1601 13.8701 10.1401 13.6501 10.1201 13.4301C10.1288 13.3714 10.1456 13.3142 10.1701 13.2601L10.0001 13.1301L9.66009 13.3101H9.91009C9.78184 13.3632 9.66351 13.4376 9.56009 13.5301C9.50117 13.6633 9.46403 13.8051 9.45009 13.9501H9.36009C9.36009 13.8001 9.36009 13.6601 9.36009 13.4901L8.85009 13.5901C8.48009 13.6701 8.41009 13.7801 8.46009 14.2001L9.08009 14.0701L8.00009 14.8201L8.39009 15.0601ZM7.55009 11.1301H7.62009C7.69009 10.7001 7.77009 10.2701 7.84009 9.85014L7.54009 9.71014L8.00009 9.49014L7.45009 9.30014C7.32009 9.49014 7.32009 9.49014 7.16009 9.46014C8.93009 7.46014 10.6901 5.46014 12.4601 3.46014L12.6701 3.77014V2.93014L12.0701 2.88014C11.0001 3.93014 6.40009 9.53014 6.38009 9.69014C6.36009 9.85014 6.58009 9.93014 6.58009 10.0201C6.60509 10.4564 6.60509 10.8938 6.58009 11.3301C6.58009 11.7401 6.73009 12.1801 6.45009 12.5801L6.58009 12.5001L6.64009 12.6401L7.47009 11.8901L7.00009 11.8001C6.75009 11.8001 6.75009 11.8001 6.73009 11.5801L7.51009 11.6501C7.51009 11.0301 7.40009 10.4601 7.35009 9.87014L6.87009 9.93014C6.80832 9.92191 6.74974 9.89779 6.70009 9.86014C6.70009 9.86014 6.78009 9.77014 6.83009 9.76014L7.41009 9.67014C7.45009 10.1701 7.50009 10.6501 7.54009 11.1301H7.55009ZM7.35009 20.2901C7.20477 20.319 7.05784 20.3391 6.91009 20.3501C6.66009 20.3501 6.60009 20.4701 6.61009 20.7101C6.61009 21.4301 6.61009 22.1501 6.61009 22.8701C6.61009 23.3801 6.51009 23.3701 7.11009 23.3601C7.11009 23.3601 7.11009 23.3601 7.17009 23.3601V23.1101L7.06009 23.2501C7.14009 22.2701 7.24009 21.3101 7.34009 20.2901H7.35009ZM10.4201 13.4001V13.4901L11.1501 13.8301V13.7501L10.7901 13.5501L12.4701 12.5501C12.5151 12.5224 12.5542 12.4861 12.5851 12.4432C12.616 12.4002 12.6381 12.3516 12.6501 12.3001C12.6501 12.0201 12.6501 11.7501 12.6501 11.4401L12.0401 11.5601C11.6601 11.6301 11.5301 11.8701 11.6401 12.2801L12.4301 12.1201C11.7501 12.5801 11.0801 13.0001 10.4101 13.4001H10.4201ZM11.5701 9.12014C11.4273 9.16499 11.2898 9.22535 11.1601 9.30014C10.7601 9.62014 10.3701 9.95014 9.98009 10.3001C9.89404 10.3642 9.83436 10.4575 9.81226 10.5624C9.79016 10.6674 9.80717 10.7768 9.86009 10.8701L11.3401 10.2601C11.3609 10.2518 11.3792 10.2382 11.3933 10.2207C11.4073 10.2031 11.4165 10.1823 11.4201 10.1601C11.4601 9.83014 11.5101 9.52014 11.5601 9.12014H11.5701ZM6.14009 12.8601L6.06009 12.7901L5.12009 13.0001C5.02009 13.0001 4.89009 13.0801 4.87009 13.1501C4.76009 13.5601 4.68009 13.9701 4.58009 14.3801H4.65009C5.06009 14.0201 5.49009 13.6601 5.89009 13.2801C5.99213 13.1522 6.07624 13.0109 6.14009 12.8601ZM7.26009 12.6401C7.06555 12.6883 6.89362 12.8023 6.77336 12.9626C6.65311 13.1229 6.5919 13.3199 6.60009 13.5201C6.60009 13.6601 6.60009 13.8101 6.60009 13.9501V15.6901C6.85009 14.6801 7.05009 13.6601 7.26009 12.6401ZM10.6201 8.91014L12.5301 7.19014C12.6501 7.08014 12.7501 6.97014 12.6501 6.79014C12.6501 6.79014 12.5901 6.79014 12.5701 6.79014L10.2801 8.91014C10.2252 8.97965 10.1813 9.05723 10.1501 9.14014V9.22014L10.8101 9.00014L10.6201 8.91014ZM11.9301 9.16014H11.8501C11.7901 9.45014 11.7401 9.75014 11.6801 10.0601C12.0101 10.0001 12.2701 9.95014 12.5201 9.88014C12.5801 9.88014 12.6701 9.80014 12.6701 9.74014C12.6701 9.50014 12.6701 9.26014 12.6701 8.98014L12.0401 9.08014V9.76014C12.0001 9.55014 12.0001 9.35014 11.9301 9.16014ZM5.47009 12.6401L6.41009 11.6401C6.48341 11.5843 6.53327 11.5032 6.54991 11.4126C6.56656 11.3219 6.54879 11.2284 6.50009 11.1501C5.90247 11.6422 5.39491 12.2343 5.00009 12.9001C5.40009 12.7901 5.81009 12.7601 6.19009 12.6301V12.5201L5.47009 12.6401ZM10.1901 12.0001L9.49009 12.1301C9.07009 12.2101 8.95009 12.4001 9.03009 12.8901L10.0301 12.6801C10.053 12.6716 10.0737 12.6583 10.091 12.641C10.1082 12.6238 10.1216 12.603 10.1301 12.5801C10.1401 12.3601 10.1601 12.1801 10.1901 12.0001ZM11.4701 11.7301C11.1601 11.7901 10.8901 11.8401 10.6301 11.9101C10.6063 11.9227 10.5864 11.9413 10.5723 11.9642C10.5582 11.9871 10.5506 12.0133 10.5501 12.0401C10.5401 12.1299 10.5401 12.2204 10.5501 12.3101C10.5409 12.2572 10.5409 12.2031 10.5501 12.1501C10.5501 12.1501 10.5501 12.0501 10.5501 11.9901H10.4001C10.4001 12.1901 10.3301 12.3801 10.2901 12.6301C10.6601 12.5501 10.9601 12.4901 11.2901 12.4101C11.3222 12.4004 11.3511 12.3823 11.374 12.3577C11.3968 12.3331 11.4127 12.3029 11.4201 12.2701C11.4491 12.0781 11.4658 11.8843 11.4701 11.6901V11.7301ZM8.25009 9.76014H8.16009L7.77009 11.5301L7.87009 11.5801C8.04009 11.4001 8.32009 11.2301 8.34009 11.0301C8.35425 10.6048 8.32409 10.1792 8.25009 9.76014ZM11.7401 14.0001L12.5401 13.5801C12.7301 13.4801 12.7401 13.4201 12.6101 13.2001L11.3801 13.8701V14.0001L12.1001 14.3301V14.2501L11.7401 14.0001ZM10.0001 17.3001C9.89009 16.8501 10.1801 16.8001 10.4201 16.7201C10.6601 16.6401 10.8801 16.6001 11.1601 16.5301V16.2401C11.0384 16.2669 10.9182 16.3003 10.8001 16.3401L9.89009 16.7701C9.71009 16.8501 9.53009 16.9101 9.35009 16.9801V17.0601L10.0001 17.3001ZM8.10009 12.1201C8.54009 11.7701 8.99009 11.4301 9.42009 11.1201C9.49009 11.1201 9.51009 10.9501 9.55009 10.8701H9.47009L7.80009 12.2301V12.3201C8.20841 12.2723 8.61061 12.1818 9.00009 12.0501V11.9701L8.10009 12.1201ZM8.10009 23.9201V24.0001L11.0201 24.4401V24.3601L8.10009 23.9201ZM12.0001 8.89014C12.2301 8.82014 12.5001 8.89014 12.6901 8.73014V8.65014H12.2301L12.5201 8.41014L12.7101 8.20014L12.6401 8.15014C12.4101 8.42014 12.0601 8.51014 12.0001 8.89014ZM6.16009 13.7801C6.56009 13.7201 6.61009 13.6201 6.47009 13.2401C6.15009 13.4701 6.13009 13.5001 6.16009 13.7801ZM9.16009 11.9201V11.9901C9.54709 12.0182 9.93197 11.9123 10.2501 11.6901L9.16009 11.9201ZM10.4701 11.6501V11.7801C10.8001 11.6901 11.1601 11.6701 11.4701 11.5501V11.4401L10.4701 11.6501ZM11.7301 11.4001V11.5201L12.6201 11.3401V11.2201L11.7301 11.4001ZM9.47009 13.4001V13.3001L8.66009 13.5001V13.5901L9.47009 13.4001ZM6.47009 14.1701C6.47009 14.3401 6.40009 14.5101 6.36009 14.7001C6.56009 14.6401 6.59009 14.5401 6.44009 14.1801L6.47009 14.1701ZM12.6901 14.5401C12.6901 14.3701 12.6901 14.2701 12.6901 14.1101L12.2901 14.3301L12.6901 14.5401ZM7.52009 23.9001V23.8301L6.39009 23.6701L7.52009 23.9001Z" fill="#0095FF"/>
<path d="M23.8301 13.5401L22.3701 14.0001L22.1301 14.0601C22.1148 13.847 22.1148 13.6331 22.1301 13.4201C22.1301 13.3601 22.2501 13.2901 22.3301 13.2601L24.3301 12.5701C24.4151 12.5506 24.492 12.5052 24.5501 12.4401C24.2601 12.3601 24.0201 12.5301 23.7601 12.6101C23.5001 12.6901 23.2101 12.7901 22.9301 12.8801L22.1001 13.1601C22.1001 12.9201 22.1001 12.7001 22.1001 12.4901C22.1162 12.4494 22.1404 12.4124 22.1714 12.3814C22.2024 12.3504 22.2393 12.3262 22.2801 12.3101L23.5401 11.8301V11.7301C23.4306 11.7151 23.3196 11.7151 23.2101 11.7301L22.1001 12.1501C22.0747 11.9108 22.0747 11.6694 22.1001 11.4301C22.1001 11.3001 22.2901 11.2101 22.4101 11.0901L22.0601 10.8701L22.1201 10.7901L22.9501 11.2701C22.9501 11.1701 22.9501 11.1201 22.9501 11.0901C23.1201 10.5601 22.7101 10.4101 22.3801 10.2101C22.2785 10.1326 22.1817 10.0491 22.0901 9.96008L22.1501 9.88008L23.0701 10.4201L23.1201 10.3401L22.4901 9.91008L23.8601 9.27008C25.3101 8.60008 26.7601 7.92008 28.2201 7.27008C28.2805 7.25337 28.3364 7.22334 28.3838 7.18218C28.4311 7.14103 28.4686 7.0898 28.4935 7.03225C28.5185 6.97471 28.5302 6.91231 28.5279 6.84964C28.5255 6.78696 28.5092 6.72561 28.4801 6.67008L22.1201 9.67008C22.1047 9.38028 22.1047 9.08988 22.1201 8.80008C22.1201 8.72008 22.2401 8.62008 22.3201 8.57008C23.3201 8.03008 24.3901 7.50008 25.4301 6.97008C26.4701 6.44008 27.3401 5.97008 28.3001 5.49008C28.5501 5.36008 28.5801 5.26008 28.4701 4.78008L22.1301 8.13008C22.1301 7.77008 22.1301 7.45008 22.1301 7.13008C22.1301 7.06008 22.2501 6.97008 22.3301 6.92008L26.9001 4.28008L28.2901 3.49008C28.3501 3.49008 28.4301 3.43008 28.4701 3.37008C28.5414 3.25102 28.6049 3.12743 28.6601 3.00008C28.5501 3.00008 28.4401 3.00008 28.3201 3.00008C27.9214 3.01001 27.5349 3.13885 27.2101 3.37008C25.6201 4.30008 24.0001 5.24008 22.4301 6.20008L22.1501 6.35008V3.53008L28.8801 2.83008V25.6401H28.4901V23.8101C28.4901 23.4701 28.4901 23.4701 28.1401 23.4601C27.6301 23.4601 27.6301 23.4601 27.6301 23.9401C27.6301 24.0301 27.6301 24.1101 27.6301 24.1901H27.5301C27.5001 24.0996 27.4833 24.0053 27.4801 23.9101C27.4801 23.4901 27.5401 23.0701 27.5701 22.6501H27.4901C27.4901 22.9201 27.4001 23.1901 27.3701 23.4601C27.3401 23.7301 27.3701 23.9601 27.3201 24.2101H27.1901C27.1101 21.4901 27.0001 18.7601 27.0001 16.0001L22.1901 16.9301C22.0801 16.5801 22.1001 16.5601 22.4401 16.4801L26.7101 15.5701C26.9301 15.5701 26.9601 15.4401 26.9901 15.2301C27.0238 14.9378 26.9659 14.6422 26.8244 14.3843C26.6829 14.1263 26.4647 13.9187 26.2001 13.7901C26.0904 13.7495 25.9698 13.7495 25.8601 13.7901L22.4901 14.7201L22.1501 14.8001C22.1348 14.6104 22.1348 14.4198 22.1501 14.2301C22.1501 14.1701 22.2501 14.1001 22.3201 14.0701L23.5901 13.6701C23.6741 13.6346 23.7545 13.5911 23.8301 13.5401L24.5201 13.3901L25.3001 13.1501V13.0701L23.8301 13.5401ZM28.5001 15.7001C28.2901 15.7001 28.1201 15.7801 27.9501 15.8001C27.7801 15.8201 27.6401 15.9201 27.6501 16.1601C27.6601 16.4001 27.6501 16.8801 27.6501 17.2501V18.8001C27.8613 18.7568 28.0751 18.7267 28.2901 18.7101C28.4701 18.7101 28.5301 18.6201 28.5301 18.4401C28.5301 17.7601 28.5301 17.0801 28.5301 16.3901L28.5001 15.7001ZM28.5001 23.0201V20.9101C28.2601 20.9101 28.0501 20.9101 27.8401 20.9101C27.8017 20.9168 27.7661 20.9345 27.7377 20.9612C27.7092 20.9878 27.6892 21.0222 27.6801 21.0601C27.6801 21.7101 27.6801 22.3601 27.6801 23.0101H28.5101L28.5001 23.0201ZM28.5001 13.0701C27.9801 13.1301 27.7001 13.2901 27.6801 13.6301C27.6801 14.2301 27.6801 14.8301 27.6801 15.3901L28.2301 15.2501C28.4401 15.2501 28.5401 15.1501 28.5201 14.9101C28.5001 14.6701 28.5201 14.3101 28.5201 14.0101C28.5201 13.7101 28.5001 13.3901 28.5001 13.0701ZM23.6901 10.6101L28.2901 8.71008C28.5001 8.62008 28.5901 8.51008 28.4901 8.27008L28.1901 8.39008L23.8001 10.2501C23.6525 10.3199 23.5118 10.4036 23.3801 10.5001C23.5101 10.6001 23.6201 10.7201 23.7501 10.8101C23.8801 10.9001 24.1101 11.0201 24.2901 11.1301L24.3401 11.0401L23.6901 10.6101ZM27.4801 14.4701C27.4801 14.1601 27.5401 13.8901 27.5701 13.6201C27.5875 13.5418 27.5783 13.4599 27.5438 13.3874C27.5094 13.3149 27.4518 13.256 27.3801 13.2201C27.3201 13.2201 27.2901 13.1101 27.2501 13.0601L27.3401 12.9901L27.6801 13.3501C27.7301 13.1201 27.7301 13.1301 27.5001 12.9801C27.3918 12.8923 27.2883 12.7989 27.1901 12.7001H27.0101V12.6401L28.4601 12.2001V12.1101L27.0001 12.5501C27.0001 12.5501 27.0001 12.7501 27.0001 12.7601C27.2401 12.8701 27.2201 13.0601 27.2001 13.2601C27.1801 13.4601 27.1501 13.8301 27.1401 14.0001C27.1248 13.7837 27.1248 13.5665 27.1401 13.3501C27.1401 13.0801 27.0801 12.9501 26.8001 12.8901C26.8001 13.2201 26.8001 13.5301 26.7201 13.8301C26.7024 13.8943 26.7065 13.9625 26.7319 14.024C26.7572 14.0856 26.8023 14.137 26.8601 14.1701C26.9672 14.2406 27.0523 14.34 27.1054 14.4568C27.1584 14.5736 27.1774 14.703 27.1601 14.8301C27.1601 14.9901 27.1601 15.1501 27.1601 15.3101C27.1601 15.7301 27.1601 16.1601 27.1601 16.5801C27.2501 16.0601 27.3201 15.5801 27.3901 15.0301C27.3901 14.8201 27.5701 14.5601 27.2001 14.4701H27.4801ZM24.8301 11.3201L25.2801 11.1501L28.2801 10.0201C28.4201 9.96008 28.5501 9.91008 28.4401 9.70008L28.1901 9.79008L25.1701 11.0001C25.0094 11.053 24.8524 11.1165 24.7001 11.1901C24.6501 11.1901 24.6101 11.3601 24.6301 11.3701C24.9001 11.5601 25.1801 11.7301 25.4501 11.9101L25.5101 11.8101L24.8301 11.3201ZM28.4901 19.1601C28.2691 19.1679 28.0488 19.1879 27.8301 19.2201C27.7601 19.2201 27.6501 19.3401 27.6501 19.4101C27.6501 19.6901 27.6501 19.9801 27.6501 20.2601C27.6501 20.3901 27.6501 20.4901 27.8301 20.4501C28.0101 20.4101 28.4101 20.6001 28.4901 20.3001C28.5305 19.9212 28.5305 19.539 28.4901 19.1601ZM26.3801 13.8101C26.3801 13.4801 26.4601 13.2101 26.4801 12.9301C26.4801 12.8401 26.4801 12.7101 26.4301 12.6701C26.1901 12.5001 25.9301 12.3501 25.6401 12.1701C25.5975 12.3483 25.5642 12.5285 25.5401 12.7101C25.5135 12.8475 25.5384 12.9899 25.6101 13.1101C25.8401 13.3601 26.1101 13.5701 26.3801 13.8101ZM24.5201 11.4801H24.4301C24.4301 11.6801 24.4301 11.9401 24.5001 12.0801C24.7425 12.3517 25.0104 12.5995 25.3001 12.8201C25.3001 12.5701 25.3601 12.3601 25.3701 12.1601C25.3801 11.9601 25.3701 11.9901 25.3701 11.9601C25.0701 11.8201 24.7901 11.6501 24.5201 11.4801ZM27.2701 21.2401C27.4849 20.0327 27.5654 18.8052 27.5101 17.5801C27.2258 18.778 27.1447 20.0152 27.2701 21.2401ZM23.2701 10.7401C23.1201 11.1101 23.1001 11.3001 23.2701 11.4001C23.4401 11.5001 23.8501 11.7601 24.1501 11.9501C24.1501 11.7501 24.1501 11.6001 24.1501 11.4501C24.155 11.3814 24.1336 11.3134 24.0901 11.2601C23.8701 11.0801 23.6001 10.9201 23.3101 10.7401H23.2701ZM28.5001 11.0601L28.4401 10.9601L27.9601 11.1301L25.8901 11.8201C25.7701 11.8201 25.6001 11.9201 25.7601 12.0601C26.0053 12.2407 26.2626 12.4044 26.5301 12.5501L26.5901 12.4601L26.0001 12.0001L26.2701 11.9001L28.3401 11.2001C28.4101 11.1584 28.4769 11.1116 28.5401 11.0601H28.5001ZM27.1701 18.3401C27.2401 17.8001 27.3101 17.2701 27.3701 16.7301C27.4869 16.2019 27.5239 15.6592 27.4801 15.1201C27.2263 16.1734 27.1353 17.2593 27.2101 18.3401H27.1701Z" fill="#0095FF"/>
<path d="M34.0001 14.6201L29.0601 15.6201C28.9301 15.1901 28.9701 15.1201 29.3901 15.0301L33.8201 14.0301C33.9001 14.0301 34.0201 13.9201 34.0201 13.8601C34.0201 13.0901 34.0201 12.3201 34.0201 11.4901L29.0201 12.8701C29.0048 12.6137 29.0048 12.3566 29.0201 12.1001C29.0201 12.0201 29.1901 11.9301 29.2901 11.9001L33.3901 10.6501L33.9901 10.4601V10.3701L29.0501 11.9001C29.0349 11.627 29.0349 11.3533 29.0501 11.0801C29.0501 11.0101 29.1801 10.9101 29.2701 10.8801L33.6201 9.41014C33.7509 9.38474 33.8784 9.34447 34.0001 9.29014C34.0591 9.24905 34.1072 9.19411 34.1401 9.13014L34.0001 9.06014L29.0001 10.7601C29.0001 10.4301 29.0001 10.1301 29.0001 9.84014C29.0001 9.77014 29.1301 9.69014 29.2201 9.66014L33.8301 8.00014C34.0001 7.94014 34.1601 7.88014 34.0401 7.62014L29.0401 9.51014C29.0401 9.17014 29.0401 8.86014 29.0401 8.51014C29.0401 8.43014 29.1601 8.33014 29.2501 8.29014L32.8901 6.78014L33.2401 6.62014C33.2217 6.57091 33.1924 6.52646 33.1545 6.49008C33.1166 6.4537 33.0709 6.42633 33.021 6.41C32.971 6.39367 32.918 6.3888 32.866 6.39575C32.8139 6.40269 32.764 6.42128 32.7201 6.45014C31.6001 6.94014 30.4701 7.45014 29.3401 7.89014L29.0601 8.00014C29.0601 7.62014 29.0601 7.26014 29.0601 6.91014C29.0601 6.85014 29.1801 6.77014 29.2601 6.73014L31.6501 5.62014L31.8901 5.51014C31.6901 5.17014 31.6001 5.14014 31.2801 5.29014L29.2801 6.29014L29.0801 6.38014C29.0801 5.97014 29.0801 5.59014 29.0801 5.21014C29.0801 5.14014 29.1801 5.06014 29.2601 5.01014L30.2601 4.50014C30.3573 4.45392 30.4509 4.40044 30.5401 4.34014C30.41 4.21905 30.2731 4.10553 30.1301 4.00014C30.0527 3.97096 29.9674 3.97096 29.8901 4.00014L29.1001 4.42014V2.89014L30.7201 4.24014L34.2701 7.24014C34.3351 7.2833 34.3871 7.34334 34.4205 7.4138C34.454 7.48426 34.4677 7.5625 34.4601 7.64014V17.0801V25.0801C34.4654 25.1667 34.4654 25.2536 34.4601 25.3401C34.1101 25.3901 34.1001 25.3401 34.1001 25.0501C34.1001 24.7601 34.1001 24.3901 34.1001 24.0501C34.1001 23.7101 34.0101 23.7901 33.8201 23.7801L30.7301 23.6601L29.0001 23.4901V23.0501L34.0001 23.1901V21.9101C34.0001 21.5901 34.0001 21.2701 34.0001 20.9101C34.0001 20.5501 33.9301 20.6401 33.7201 20.6501L29.4501 20.8101H29.0001V20.3501L34.0001 20.0901V18.6601L29.0001 19.1001V18.6201L34.0001 18.0901V14.6201Z" fill="#0095FF"/>
<path d="M34.6001 11.33C34.6001 11.01 34.6001 10.71 34.6001 10.41C34.6001 10.35 34.7301 10.26 34.8101 10.23L36.5401 9.7L36.8101 9.61V9.52L34.6201 10.19C34.6201 9.83 34.6201 9.5 34.6201 9.19C34.6201 9.14 34.7301 9.07 34.8001 9.04L35.8001 8.71C35.6701 8.54 35.6701 8.54 35.2701 8.71L34.6701 8.91V7.5L35.5901 8.25C36.5901 9.11 37.6601 9.98 38.7101 10.83C38.7684 10.8759 38.8144 10.9356 38.8441 11.0036C38.8738 11.0717 38.8861 11.146 38.8801 11.22C38.8801 15.72 38.8568 20.2167 38.8101 24.71C38.8153 24.7933 38.8153 24.8767 38.8101 24.96H38.7201V24.64C38.7201 24.41 38.8001 24.1 38.7201 23.97C38.6401 23.84 38.2901 23.9 38.0601 23.89L34.9501 23.74H34.7001V23.2L38.7001 23.31V20.52L34.7001 20.66V20.11L36.1401 20L38.4301 19.87C38.5001 19.87 38.6401 19.79 38.6401 19.75C38.6401 19.25 38.6401 18.75 38.6401 18.23L34.6401 18.59C34.6357 18.5602 34.6357 18.5298 34.6401 18.5C34.6401 17.92 34.5701 18.03 35.1101 17.97L38.5201 17.6C38.6801 17.6 38.7501 17.54 38.7501 17.38V13.85C38.7501 13.85 38.7501 13.78 38.7501 13.71L34.7501 14.5C34.7501 14.5 34.7501 14.5 34.7501 14.45C34.6901 13.91 34.6901 13.91 35.2201 13.79L38.5801 13.08C38.7801 13.08 38.8601 12.96 38.8501 12.75C38.8501 12.25 38.8501 11.75 38.8501 11.26C38.8295 11.1389 38.7778 11.0252 38.7001 10.93C38.5494 10.7225 38.3291 10.5761 38.0795 10.5174C37.8299 10.4587 37.5675 10.4915 37.3401 10.61C36.5801 10.89 35.7701 11.07 34.9901 11.28L34.6001 11.33Z" fill="#0095FF"/>
<path d="M11.1801 20.5202C11.5801 20.4702 11.9801 20.4102 12.3901 20.3902C12.6301 20.3902 12.7101 20.2902 12.6901 20.0502C12.6706 19.7521 12.6908 19.4529 12.7501 19.1602V23.9302H12.7001V22.8102L11.2001 22.7202C11.2001 22.8102 11.2001 22.9402 11.2001 23.0702H11.1401C11.1401 22.9102 11.1901 22.7602 11.2201 22.5902H12.7301V21.4902H11.2001C11.2001 21.7902 11.2001 22.0902 11.1201 22.4002V20.8002H11.2001V21.3302L12.6901 21.2502V20.6102C12.1901 20.5302 11.6901 20.7702 11.2001 20.6102L11.1801 20.5202Z" fill="#0095FF"/>
<path d="M20.55 1.77023L22.41 0.240234C22.41 0.710234 22.47 1.13023 22.49 1.57023H22.31C22.31 1.81023 22.11 1.74023 21.98 1.75023C21.51 1.80023 21.05 1.83023 20.58 1.86023L20.55 1.77023Z" fill="#0095FF"/>
<path d="M22.5901 1.61988L24.5301 0.129883C24.5301 0.559883 24.5901 0.929883 24.5301 1.28988C24.5301 1.38988 24.3401 1.52988 24.2301 1.53988C23.6701 1.60988 23.1201 1.63988 22.5601 1.67988L22.5901 1.61988Z" fill="#0095FF"/>
<path d="M24.6301 1.54C24.6801 1.43 24.6801 1.35 24.7301 1.32L26.4901 0C26.5252 0.358914 26.5419 0.719384 26.5401 1.08C26.5182 1.14843 26.4792 1.21011 26.4267 1.25913C26.3741 1.30816 26.3099 1.34289 26.2401 1.36C25.7301 1.47 25.2101 1.49 24.6301 1.54Z" fill="#0095FF"/>
<path d="M18.3 2.0001L20.14 0.350098C20.14 0.850098 20.2 1.2801 20.23 1.7501H20.1201C19.9901 1.8101 19.9 1.9001 19.8 1.9101C19.33 1.9301 18.85 2.0001 18.3 2.0001Z" fill="#0095FF"/>
<path d="M28.41 1.13003C27.8986 1.30442 27.3601 1.3857 26.82 1.37003C26.7841 1.37415 26.7478 1.36896 26.7145 1.35495C26.6812 1.34093 26.6521 1.31857 26.63 1.29003C26.6229 1.25507 26.6238 1.21898 26.6324 1.18438C26.6411 1.14979 26.6573 1.11756 26.68 1.09003L28.26 2.69776e-05C28.2859 -0.00912358 28.3141 -0.00912358 28.34 2.69776e-05C28.34 0.390027 28.34 0.760027 28.41 1.14003V1.13003Z" fill="#0095FF"/>
<path d="M16.0601 2.16002C16.6101 1.62002 17.1401 1.08002 17.6901 0.52002C17.6901 0.98002 17.7601 1.44002 17.7901 1.91002H17.6601C17.5301 1.98002 17.4401 2.07002 17.3401 2.08002C16.9101 2.11002 16.4801 2.13002 16.0601 2.16002Z" fill="#0095FF"/>
<path d="M13.48 2.3501L15 0.600098C15 1.1001 15.07 1.5401 15.09 1.9701C15.09 2.1901 14.99 2.1101 14.94 2.0701C14.89 2.0301 14.77 2.2401 14.68 2.2501C14.33 2.3001 14 2.3201 13.48 2.3501Z" fill="#0095FF"/>
<path d="M16.0701 18.1299C15.2901 18.2799 14.4901 18.4499 13.6901 18.5899C13.5101 18.5899 13.4501 18.7099 13.4601 18.8799C13.4701 19.0499 13.4601 19.3099 13.4601 19.5299H13.3601C13.3601 19.1999 13.3601 18.8599 13.4401 18.5299C13.4401 18.4499 13.5901 18.3699 13.6901 18.3399L15.6901 17.9099C16.1601 17.7999 16.0801 17.9099 16.0801 17.4199C16.0652 17.3305 16.0652 17.2393 16.0801 17.1499L16.0701 18.1299Z" fill="#0095FF"/>
<path d="M28.4102 1.14003L29.4102 0.470032C29.5402 0.380032 29.6502 0.410032 29.6502 0.570032C29.6502 0.920032 29.6002 1.26003 29.5802 1.57003H29.5002L29.0002 1.00003C28.9848 1.05826 28.9537 1.11117 28.9104 1.15302C28.8671 1.19487 28.8132 1.22408 28.7545 1.23747C28.6958 1.25086 28.6345 1.24793 28.5773 1.22899C28.5202 1.21005 28.4693 1.17583 28.4302 1.13003L28.4102 1.14003Z" fill="#0095FF"/>
<path d="M0.300098 22.9998L0.100098 22.8098C0.270098 22.4598 0.580098 22.6898 0.820098 22.6998C1.0601 22.7098 1.1901 22.6398 1.2101 22.3898C1.22164 22.2024 1.25865 22.0173 1.3201 21.8398C1.3201 22.0598 1.3201 22.2898 1.2501 22.5098C1.1801 22.7298 1.2501 22.7598 1.4501 22.7698H1.8001C1.87869 22.7906 1.95557 22.8174 2.0301 22.8498C1.7001 23.2498 1.3401 23.0398 1.0301 23.0098C0.830098 22.9998 0.670098 22.9998 0.500098 22.9298C0.430622 22.9442 0.363366 22.9677 0.300098 22.9998Z" fill="#0095FF"/>
<path d="M31.1901 3.06985L30.3101 2.32985C30.5801 2.16985 30.8201 2.02985 31.0701 1.90985C31.3201 1.78985 31.2701 1.90985 31.2601 2.07985C31.2401 2.38985 31.2201 2.69985 31.1901 3.06985Z" fill="#0095FF"/>
<path d="M31.8401 3.64986L32.5701 3.26986C32.7301 3.18986 32.8001 3.26986 32.7901 3.41986C32.7801 3.56986 32.7901 4.03986 32.7301 4.41986L31.8401 3.64986Z" fill="#0095FF"/>
<path d="M34.18 5.64004L33.28 4.89004C33.57 4.76004 33.82 4.64004 34.08 4.54004C34.08 4.54004 34.23 4.63004 34.23 4.67004C34.23 5.00004 34.2 5.28004 34.18 5.64004Z" fill="#0095FF"/>
<path d="M38.25 9.16988L39.25 8.87988C39.25 9.20988 39.25 9.48988 39.25 9.76988C39.25 10.0499 39.13 9.90988 39.03 9.82988L38.25 9.16988Z" fill="#0095FF"/>
<path d="M35.5401 6.81996L34.6501 6.06996C34.9301 5.94996 35.1801 5.83996 35.4301 5.74996C35.6801 5.65996 35.6101 5.81996 35.6101 5.93996C35.6101 6.05996 35.5701 6.48996 35.5401 6.81996Z" fill="#0095FF"/>
<path d="M36.8299 7.93026L35.9399 7.18026L36.6899 6.90026C36.8399 6.84026 36.8999 6.90026 36.8899 7.06026C36.8799 7.22026 36.8499 7.61026 36.8299 7.93026Z" fill="#0095FF"/>
<path d="M37.1501 8.23L37.9101 8C38.0701 8 38.1201 8 38.1101 8.18C38.1001 8.36 38.1101 8.69 38.0501 9L37.1501 8.23Z" fill="#0095FF"/>
<path d="M0.0500488 21.3198C0.216013 21.2461 0.386332 21.1827 0.560049 21.1298C0.940049 21.0298 1.34005 20.9498 1.72005 20.8698L2.00005 20.8198V20.9198C1.83521 21.0314 1.65719 21.1221 1.47005 21.1898C1.00005 21.2898 0.520049 21.3498 0.0500488 21.4198V21.3198Z" fill="#0095FF"/>
<path d="M0.0500488 20.3902C0.672151 20.0276 1.32461 19.7198 2.00005 19.4702L2.06005 19.5302C1.98005 19.6202 1.91005 19.7502 1.81005 19.7902C1.25005 20.0302 0.690049 20.2502 0.130049 20.4702L0.0500488 20.3902Z" fill="#0095FF"/>
<path d="M4.06006 22.9102L4.15006 22.0702C4.15006 21.7102 4.21006 21.3502 4.21006 20.9902V22.8502H4.06006V22.9102Z" fill="#0095FF"/>
<path d="M0.449951 17.1201L0.929951 16.8501L0.769951 17.4501H0.699951V17.1101L0.449951 17.1201Z" fill="#0095FF"/>
<path d="M5.6001 16.21V15.82L6.0001 15.71C6.0001 15.87 6.0001 15.95 6.0001 16.06V15.84C5.9301 15.84 5.8301 15.84 5.7901 15.94C5.74841 16.0283 5.72139 16.1229 5.7101 16.22L5.6001 16.21Z" fill="#0095FF"/>
<path d="M4.86006 16.1002H4.56006L5.15006 15.9102L4.86006 16.4202V16.1002Z" fill="#0095FF"/>
<path d="M2.23999 23.0001C2.30999 22.6301 2.36999 22.2601 2.43999 21.8901H2.49999C2.43999 22.2601 2.37999 22.6301 2.30999 23.0001H2.23999Z" fill="#0095FF"/>
<path d="M3.23999 16.9998V16.3798L3.55999 16.2798C3.25999 16.4698 3.33999 16.7798 3.26999 17.0398L3.23999 16.9998Z" fill="#0095FF"/>
<path d="M6.08 16.6401V17.3101H6V16.6401H6.08Z" fill="#0095FF"/>
<path d="M3.78003 13.1398L4.29003 13.0498V13.1498L3.78003 13.2198V13.1398Z" fill="#0095FF"/>
<path d="M0.359951 19.1201C0.359951 19.3401 0.289951 19.5601 0.259951 19.7801H0.199951L0.289951 19.1201H0.359951Z" fill="#0095FF"/>
</g>
<defs>
<clipPath id="clip0_270_1418">
<rect width="39.25" height="26.67" fill="white"/>
</clipPath>
</defs>
</svg>
