<svg width="23" height="34" viewBox="0 0 23 34" fill="none" xmlns="http://www.w3.org/2000/svg">
<g clip-path="url(#clip0_270_1894)">
<path d="M22.5101 16.5799C22.5101 21.7399 22.5101 26.8965 22.5101 32.0499C22.5101 32.3599 22.4301 32.5399 22.1401 32.6399C22.1401 32.6399 22.0901 32.6399 22.0601 32.6399C21.6401 32.7599 21.3101 33.1899 20.8401 33.0799C20.4114 32.9574 19.9933 32.8002 19.5901 32.6099L12.2601 29.7399L4.0101 26.5199C2.8301 26.0599 1.6501 25.5899 0.470101 25.1399C0.365801 25.1203 0.272763 25.062 0.209689 24.9767C0.146615 24.8914 0.11818 24.7853 0.130101 24.6799C0.130101 22.4865 0.130101 20.2965 0.130101 18.1099C0.130101 14.9632 0.130101 11.8132 0.130101 8.65987C0.130101 7.99987 0.130101 7.99987 0.750101 7.77987L9.9201 4.22987L20.8701 -0.000130907C20.974 -0.0344616 21.0862 -0.0344616 21.1901 -0.000130907C21.5201 0.139869 21.8301 0.309869 22.1901 0.439869C22.3125 0.474779 22.4183 0.552602 22.4881 0.659105C22.5579 0.765607 22.587 0.89367 22.5701 1.01987C22.5701 3.34987 22.5701 5.68987 22.5701 8.01987V16.5299L22.5101 16.5799ZM21.1301 32.9999C21.4801 32.8399 21.7701 32.6799 22.1301 32.5599C22.235 32.5296 22.3254 32.4621 22.3842 32.3701C22.4431 32.2781 22.4665 32.1679 22.4501 32.0599C22.4501 28.1199 22.4501 24.1699 22.4501 20.2299C22.4501 15.9599 22.4501 11.6999 22.4501 7.42987C22.4501 5.30987 22.4501 3.18987 22.4501 1.06987C22.4501 0.939869 22.4501 0.749869 22.3501 0.709869C21.9301 0.489869 21.5301 0.329869 21.1301 0.129869V6.21987C21.5701 6.27987 21.5901 6.30987 21.5601 6.94987C21.5601 7.23987 21.3301 7.20987 21.1301 7.19987V12.8199C21.5301 12.8999 21.5201 12.8999 21.5401 13.5299C21.5401 13.8399 21.2901 13.7399 21.1401 13.7999V19.4199C21.3501 19.4199 21.5401 19.4199 21.5301 19.6999C21.5238 19.8873 21.5071 20.0743 21.4801 20.2599C21.4801 20.2599 21.4101 20.3399 21.3701 20.3399C21.1101 20.3399 21.1101 20.5099 21.1101 20.6899C21.1101 22.3199 21.1101 23.9499 21.1101 25.5799V25.9999L21.2001 25.9399C21.3001 26.0399 21.4901 26.1199 21.5101 26.2299C21.6101 26.7499 21.5101 26.9099 21.1201 27.0299L21.1301 32.9999ZM20.8501 6.62987V6.49987C20.7101 6.43987 20.5801 6.38987 20.4501 6.31987C20.3201 6.24987 20.2801 6.23987 20.2801 6.18987C20.2899 6.14926 20.3084 6.11126 20.3343 6.07847C20.3602 6.04568 20.3929 6.01886 20.4301 5.99987C20.4301 5.99987 20.5801 5.99987 20.6301 5.99987C20.7228 6.08073 20.8066 6.17124 20.8801 6.26987V0.139869L15.4201 2.23987C15.724 2.39643 16.0421 2.52367 16.3701 2.61987C16.4755 2.63713 16.5701 2.69487 16.6336 2.78078C16.6971 2.8667 16.7245 2.97401 16.7101 3.07987C16.7101 4.44987 16.7101 5.82987 16.7101 7.19987C16.7101 7.30987 16.7101 7.42987 16.7101 7.56987L20.8501 6.62987ZM20.8501 26.6299V26.5299L16.7201 25.5299C16.7201 25.6999 16.7201 25.8099 16.7201 25.9199C16.7201 27.2399 16.7201 28.5599 16.7201 29.8699C16.7201 30.1999 16.6201 30.3699 16.3001 30.4399C15.9801 30.5099 15.7201 30.6399 15.4301 30.7499V30.8199L20.8801 32.9999V26.8399C20.8026 26.9444 20.7156 27.0415 20.6201 27.1299C20.5463 27.1594 20.4639 27.1594 20.3901 27.1299C20.3901 27.1299 20.3001 27.0099 20.3101 26.9799C20.3554 26.9145 20.4176 26.8627 20.4901 26.8299C20.6101 26.7899 20.7501 26.7299 20.8801 26.6599L20.8501 26.6299ZM20.8501 6.73987H20.6401L16.8601 7.61987C16.6401 7.61987 16.6301 7.77987 16.6301 7.94987C16.6301 9.68987 16.6301 11.4299 16.6301 13.1799C16.6301 13.2799 16.6301 13.3799 16.6301 13.5099L20.7801 13.2099V13.0899L20.3601 12.8299C20.2879 12.7966 20.2258 12.7449 20.1801 12.6799C20.1801 12.6799 20.2401 12.5199 20.2901 12.5099C20.3684 12.5012 20.4471 12.5226 20.5101 12.5699C20.5939 12.6463 20.6709 12.73 20.7401 12.8199V7.32987C20.6401 7.32987 20.6101 7.46987 20.5501 7.50987C20.459 7.55093 20.36 7.57142 20.2601 7.56987C20.2358 7.54483 20.2171 7.51499 20.205 7.48227C20.1929 7.44955 20.1879 7.41467 20.1901 7.37987C20.2395 7.30799 20.3147 7.25786 20.4001 7.23987C20.8201 7.20987 20.8401 6.99987 20.9201 6.76987L20.8501 6.73987ZM20.8501 13.3599H20.5001L19.4201 13.4299L16.9701 13.5999C16.7601 13.5999 16.6101 13.5999 16.6101 13.9299C16.6101 15.6899 16.6101 17.4499 16.6101 19.2099C16.6101 19.4199 16.6701 19.4899 16.8901 19.5099C18.0501 19.5899 19.2001 19.6999 20.3601 19.7899H20.7901L20.8401 19.6699L20.4301 19.3799C20.3562 19.3356 20.2859 19.2855 20.2201 19.2299C20.2201 19.2299 20.2701 19.0699 20.3001 19.0699C20.3995 19.0669 20.4973 19.0949 20.5801 19.1499C20.6625 19.2181 20.7334 19.2991 20.7901 19.3899V13.7999C20.6701 13.9299 20.6201 14.0299 20.5301 14.0799C20.4936 14.095 20.4546 14.1028 20.4151 14.1028C20.3756 14.1028 20.3366 14.095 20.3001 14.0799C20.3001 14.0799 20.2101 13.9499 20.2301 13.9199C20.2481 13.8848 20.2735 13.8541 20.3046 13.8299C20.3357 13.8057 20.3717 13.7887 20.4101 13.7799C20.7601 13.8099 20.7901 13.5999 20.9401 13.3899L20.8501 13.3599ZM20.8501 26.4099C20.8499 26.2965 20.8127 26.1863 20.7441 26.096C20.6755 26.0058 20.5793 25.9404 20.4701 25.9099C20.3902 25.88 20.3231 25.8235 20.2801 25.7499C20.2801 25.7499 20.3501 25.5799 20.3801 25.5799C20.4781 25.5925 20.5712 25.6304 20.6501 25.6899C20.7243 25.7606 20.7883 25.8414 20.8401 25.9299V20.3299C20.7788 20.4231 20.7048 20.5073 20.6201 20.5799C20.546 20.6284 20.4587 20.6528 20.3701 20.6499C20.3701 20.6499 20.2601 20.4999 20.2801 20.4799C20.3326 20.4112 20.4065 20.362 20.4901 20.3399C20.5822 20.3327 20.6686 20.2922 20.733 20.2259C20.7974 20.1596 20.8355 20.0722 20.8401 19.9799L20.1301 19.8999C19.1301 19.8199 18.0501 19.7499 17.0101 19.6399C16.7501 19.6399 16.6801 19.6399 16.6801 19.9299C16.6801 21.6699 16.6801 23.4199 16.6801 25.1599C16.6801 25.3699 16.7401 25.4699 16.9501 25.5199L20.8501 26.4099ZM12.2301 8.59987L15.0701 7.99987V7.83987C14.9518 7.80208 14.8378 7.75179 14.7301 7.68987C14.7301 7.68987 14.6601 7.54987 14.6301 7.48987C14.6001 7.42987 14.7801 7.40987 14.8401 7.41987C14.9001 7.42987 14.9701 7.50987 15.0301 7.55987V2.37987L11.0301 3.93987C11.3118 4.07986 11.6112 4.18079 11.9201 4.23987C11.9707 4.24466 12.0199 4.25984 12.0644 4.28446C12.1089 4.30908 12.1478 4.34261 12.1788 4.38296C12.2098 4.42332 12.2321 4.46962 12.2443 4.51898C12.2566 4.56835 12.2586 4.61971 12.2501 4.66987C12.2501 5.85987 12.2501 7.04987 12.2501 8.23987L12.2301 8.59987ZM12.2301 24.5099V24.8999C12.2301 26.0799 12.2301 27.2599 12.2301 28.4399C12.2301 28.6599 12.1701 28.7699 11.9401 28.8199C11.7101 28.8699 11.3001 28.9999 10.9401 29.1099L15.0801 30.7299V25.4599C15.0201 25.5499 15.0101 25.5899 14.9901 25.5999L14.7401 25.7599C14.7401 25.6999 14.6301 25.6199 14.6501 25.5999C14.7144 25.5324 14.7886 25.4751 14.8701 25.4299L15.1601 25.2099L12.2301 24.5099ZM15.0501 13.2299V8.61987L14.9701 8.68987C14.8886 8.73316 14.8009 8.76353 14.7101 8.77987C14.67 8.7383 14.6423 8.68635 14.6301 8.62987C14.6901 8.56987 14.7801 8.53987 14.8401 8.47987C14.9353 8.38466 15.0254 8.28452 15.1101 8.17987L15.0401 8.10987H14.9101C14.0801 8.29987 13.2501 8.48987 12.4201 8.69987C12.3713 8.72538 12.3294 8.76238 12.298 8.80767C12.2667 8.85296 12.2468 8.90519 12.2401 8.95987C12.2401 10.5099 12.2401 12.0599 12.2401 13.5999C12.2401 13.8299 12.3201 13.8899 12.5401 13.8699C12.7601 13.8499 13.1701 13.8099 13.4901 13.7899L15.0601 13.6699L15.1101 13.5699L14.8001 13.3399C14.7501 13.3399 14.6701 13.2699 14.6401 13.2199C14.6101 13.1699 14.6401 13.0899 14.7101 13.0799C14.7788 13.0607 14.8514 13.0607 14.9201 13.0799C14.9698 13.124 15.0135 13.1744 15.0501 13.2299ZM15.1001 13.8899L15.0301 13.8099H14.9201L12.4301 13.9999C12.2401 13.9999 12.2301 14.1399 12.2301 14.2899V18.9399C12.2301 19.1299 12.2901 19.1799 12.4801 19.1899C13.0401 19.1899 13.6001 19.2899 14.1601 19.3399L15.0601 19.3899L15.1101 19.3099C15.0201 19.2199 14.9301 19.1199 14.8301 19.0299C14.7301 18.9399 14.6901 18.9399 14.6301 18.8799C14.5701 18.8199 14.6901 18.7499 14.7001 18.7499C14.7955 18.7716 14.8867 18.8088 14.9701 18.8599C14.9701 18.8599 15.0201 18.9099 15.0601 18.9599V14.2899C15.0601 14.2899 14.8601 14.3999 14.7501 14.4399C14.6401 14.4799 14.6601 14.3199 14.6701 14.3099L14.9101 14.1299L15.1001 13.8899ZM15.1001 25.0599C15.1001 24.7999 15.0101 24.6999 14.8101 24.6599C14.7756 24.6474 14.7443 24.6275 14.7184 24.6016C14.6925 24.5756 14.6726 24.5443 14.6601 24.5099C14.6601 24.5099 14.6601 24.3599 14.7401 24.3599C14.815 24.3546 14.8893 24.3759 14.9501 24.4199C15.0001 24.4199 15.0301 24.4999 15.0901 24.5699V19.8699C15.0901 19.9299 15.0201 19.9599 15.0001 19.9699C14.9187 20.0231 14.8315 20.0667 14.7401 20.0999C14.7036 20.052 14.6765 19.9977 14.6601 19.9399C14.7301 19.8899 14.8201 19.8599 14.8901 19.7999C14.9773 19.7311 15.0577 19.6541 15.1301 19.5699V19.4999C14.2401 19.4199 13.3601 19.3399 12.4801 19.2799C12.4201 19.2799 12.3101 19.4199 12.3101 19.4999C12.3101 21.0599 12.3101 22.6199 12.3101 24.1799C12.3185 24.2354 12.3415 24.2878 12.3766 24.3317C12.4117 24.3756 12.4577 24.4094 12.5101 24.4299C13.3001 24.6499 14.1301 24.8499 15.0701 25.0599H15.1001ZM7.5301 5.26987V5.34987C7.8101 5.40987 8.0801 5.48987 8.3501 5.52987C8.6201 5.56987 8.6701 5.66987 8.6701 5.90987C8.6701 6.90987 8.6701 8.00987 8.6701 9.04987C8.6701 9.15987 8.6701 9.26987 8.6701 9.40987L10.3601 8.99987C10.447 8.9706 10.5281 8.92663 10.6001 8.86987L10.3901 8.68987C10.351 8.64514 10.3143 8.59841 10.2801 8.54987C10.3318 8.50329 10.3889 8.46301 10.4501 8.42987C10.4501 8.42987 10.5501 8.42987 10.5901 8.42987V4.09987L7.5301 5.26987ZM7.5301 27.7299V27.7899L10.6101 28.9999V24.6799L10.3001 24.5399L10.5001 24.3499L10.6701 24.1499L8.6701 23.6799V27.1599C8.67879 27.2037 8.67791 27.2488 8.66754 27.2922C8.65717 27.3356 8.63755 27.3763 8.61001 27.4114C8.58248 27.4466 8.54768 27.4753 8.508 27.4958C8.46832 27.5162 8.42469 27.5278 8.3801 27.5299C8.1301 27.5799 7.8301 27.6599 7.5501 27.7299H7.5301ZM10.5301 18.9999L10.6101 18.9199L10.3901 18.7099L10.2401 18.5399L10.4401 18.4399C10.4401 18.4399 10.5301 18.4399 10.5601 18.4399V14.7399L10.2301 14.5799L10.3701 14.4199L10.5501 14.2499C10.4601 14.2499 10.3801 14.1299 10.2901 14.1399C9.8301 14.1399 9.3701 14.2099 8.9101 14.2399C8.6901 14.2399 8.6401 14.3399 8.6401 14.5399V18.5399C8.6401 18.7499 8.7201 18.8299 8.9201 18.8399L10.5301 18.9999ZM10.6101 9.09987C9.9501 9.24987 9.3701 9.36987 8.7901 9.51987C8.7201 9.51987 8.6501 9.68987 8.6501 9.78987C8.6501 11.1499 8.6501 12.5199 8.6501 13.8899C8.6501 14.0899 8.7301 14.1499 8.9301 14.1299L10.3601 13.9999C10.4434 13.9752 10.5239 13.9417 10.6001 13.8999L10.4001 13.6999L10.2801 13.5599C10.3288 13.5111 10.3824 13.4676 10.4401 13.4299C10.4963 13.4198 10.5539 13.4198 10.6101 13.4299V9.77987L10.2801 9.59987C10.3642 9.54553 10.4444 9.48538 10.5201 9.41987C10.5816 9.32034 10.6288 9.21261 10.6601 9.09987H10.6101ZM10.6101 19.0999C10.0401 19.0799 9.4701 18.9999 8.9101 18.9999C8.7301 18.9999 8.6901 19.0699 8.6901 19.2199C8.6901 20.5999 8.6901 21.9699 8.6901 23.3499C8.6901 23.5399 8.7901 23.5999 8.9501 23.6299L10.3301 23.9599H10.6001V23.8699L10.3701 23.6599C10.3298 23.6041 10.2864 23.5507 10.2401 23.4999C10.2944 23.4566 10.3511 23.4165 10.4101 23.3799C10.4101 23.3799 10.5001 23.3799 10.5601 23.3799V19.7299L10.2401 19.5499C10.3101 19.4899 10.3901 19.4399 10.4501 19.3799C10.5352 19.3047 10.6122 19.2209 10.6801 19.1299L10.6101 19.0999ZM15.2001 13.3799C15.2701 13.2899 15.3101 13.2499 15.3401 13.1999C15.3597 13.1163 15.3899 13.0357 15.4301 12.9599C15.4301 12.9599 15.5901 12.9599 15.6001 12.9599C15.6108 13.0529 15.6108 13.1468 15.6001 13.2399C15.5936 13.3331 15.5936 13.4267 15.6001 13.5199C15.8384 13.5302 16.077 13.51 16.3101 13.4599C16.3801 13.4599 16.4101 13.2099 16.4101 13.0799C16.4101 11.4399 16.4101 9.80987 16.4101 8.16987V7.74987L16.1401 7.81987L15.8801 7.88987C15.4601 7.97987 15.4701 7.97987 15.5901 8.39987C15.598 8.43638 15.5976 8.4742 15.5889 8.51054C15.5803 8.54688 15.5636 8.58083 15.5401 8.60987C15.4661 8.63837 15.3841 8.63837 15.3101 8.60987C15.3101 8.60987 15.2601 8.50987 15.2401 8.45987L15.1401 8.51987L15.2001 13.3799ZM15.3701 19.8199H15.2601C15.2276 19.8969 15.2042 19.9774 15.1901 20.0599V24.6299L15.6101 24.5599C15.6101 24.6699 15.6101 24.7799 15.6101 24.8899C15.6101 24.9999 15.6101 25.1899 15.6901 25.2099C15.952 25.2869 16.2195 25.3438 16.4901 25.3799V23.9999C16.4901 22.6499 16.4901 21.3099 16.4901 19.9999C16.4901 19.8999 16.4201 19.7299 16.3501 19.7099C16.0885 19.666 15.8248 19.636 15.5601 19.6199C15.5884 19.7455 15.6252 19.8691 15.6701 19.9899C15.7301 20.1399 15.6701 20.2699 15.5301 20.2699C15.3901 20.2699 15.3801 19.9999 15.4401 19.8499L15.3701 19.8199ZM16.4601 19.4399C16.4601 19.2999 16.4601 19.2099 16.4601 19.1299C16.4601 17.4099 16.4601 15.6999 16.4601 13.9799C16.47 13.9236 16.47 13.8661 16.4601 13.8099C16.4601 13.7499 16.3501 13.6699 16.2901 13.6699C16.0501 13.6699 15.8201 13.6699 15.5401 13.7399C15.5401 13.8899 15.6301 14.0099 15.6501 14.1299C15.6361 14.2091 15.6126 14.2863 15.5801 14.3599C15.4915 14.3359 15.4046 14.3058 15.3201 14.2699C15.3201 14.2699 15.3201 14.1799 15.2601 14.1299H15.2101V18.9999C15.2801 18.9999 15.2801 18.9299 15.3101 18.9199C15.3401 18.9099 15.4901 18.7699 15.5701 18.7799C15.6501 18.7899 15.6901 18.9299 15.6301 19.0499C15.5896 19.1664 15.5628 19.2872 15.5501 19.4099L16.4601 19.4399ZM15.2701 2.38987V7.60987H15.3701C15.3656 7.54662 15.3656 7.48312 15.3701 7.41987C15.3911 7.33357 15.4213 7.24977 15.4601 7.16987C15.4601 7.16987 15.6101 7.16987 15.6301 7.22987C15.6557 7.31465 15.6557 7.40509 15.6301 7.48987C15.605 7.59567 15.5715 7.69932 15.5301 7.79987C15.7969 7.74753 16.0606 7.68077 16.3201 7.59987C16.3613 7.57194 16.3953 7.53481 16.4196 7.49141C16.4439 7.44802 16.4578 7.39955 16.4601 7.34987C16.4601 5.9032 16.4601 4.4532 16.4601 2.99987C16.4601 2.91987 16.4001 2.78987 16.3401 2.76987C16.0601 2.64987 15.6801 2.52987 15.2701 2.38987ZM12.1301 13.8599V9.43987C12.1301 8.76987 12.1301 8.78987 11.4701 8.91987C11.1701 8.97987 11.1001 9.10987 11.2001 9.37987C11.2159 9.40906 11.2241 9.4417 11.2241 9.47487C11.2241 9.50804 11.2159 9.54068 11.2001 9.56987C11.1254 9.5943 11.0448 9.5943 10.9701 9.56987C10.9701 9.56987 10.9101 9.49987 10.8901 9.47987V13.7499C10.9601 13.6199 11.0301 13.4299 11.0901 13.4299C11.3201 13.4299 11.2501 13.6199 11.2101 13.7699C11.1701 13.9199 11.2701 13.9899 11.4201 13.9699L12.1301 13.8599ZM15.6401 25.3599C15.6857 25.4632 15.7225 25.5703 15.7501 25.6799C15.7557 25.7203 15.7533 25.7614 15.743 25.8008C15.7327 25.8403 15.7147 25.8774 15.6901 25.9099C15.6901 25.9099 15.5201 25.9599 15.5001 25.9099C15.4801 25.8599 15.5001 25.7699 15.4301 25.6899C15.3601 25.6099 15.4301 25.5599 15.4301 25.4999C15.3912 25.5531 15.3578 25.61 15.3301 25.6699C15.3249 25.7464 15.3249 25.8233 15.3301 25.8999C15.3301 27.4199 15.3301 28.8999 15.3301 30.4599C15.3301 30.5299 15.3301 30.5999 15.3301 30.6999C15.7101 30.5699 16.0701 30.4599 16.4201 30.3199C16.4656 30.2914 16.5044 30.2535 16.5337 30.2086C16.5631 30.1637 16.5823 30.1129 16.5901 30.0599C16.5901 28.6199 16.5901 27.1799 16.5901 25.7399C16.5819 25.687 16.5613 25.6368 16.53 25.5933C16.4988 25.5499 16.4577 25.5144 16.4101 25.4899C16.1495 25.4311 15.8858 25.3877 15.6201 25.3599H15.6401ZM10.8301 18.6099C10.9401 18.5599 11.0401 18.4699 11.1201 18.4799C11.2001 18.4899 11.2501 18.6299 11.1901 18.7499C11.1578 18.8298 11.1376 18.914 11.1301 18.9999L12.0701 19.0799V14.6599C12.0701 13.9899 12.0701 13.9899 11.3901 14.0599C11.1301 14.0599 11.0401 14.1799 11.1501 14.4399C11.1584 14.4755 11.1572 14.5128 11.1467 14.5479C11.1362 14.5829 11.1167 14.6147 11.0901 14.6399C11.0086 14.6491 10.9267 14.6277 10.8601 14.5799C10.8601 14.5799 10.8601 14.4899 10.8601 14.4399L10.8301 18.6099ZM10.8901 19.4599H10.8301V23.6499L11.1401 23.5399C11.1401 23.6399 11.1401 23.7299 11.2101 23.8199C11.2801 23.9099 11.2701 24.1299 11.3501 24.1599C11.5996 24.2324 11.8535 24.2892 12.1101 24.3299C12.1101 24.1599 12.1101 24.0399 12.1101 23.9199V19.8599C12.1101 19.2199 12.1101 19.2199 11.4601 19.1999C11.2201 19.1999 11.0701 19.1999 11.2001 19.5299C11.2001 19.5299 11.1201 19.6699 11.0701 19.7399C11.0057 19.6954 10.9455 19.6452 10.8901 19.5899C10.8901 19.5899 10.8701 19.4999 10.8701 19.4599H10.8901ZM4.7401 6.34987V6.41987C5.0101 6.41987 5.2701 6.52987 5.5301 6.55987C5.7901 6.58987 5.8301 6.71987 5.8301 6.93987C5.8301 7.85987 5.8301 8.77987 5.8301 9.69987C5.8301 9.80987 5.8301 9.92987 5.8301 10.0799L7.1301 9.75987V9.68987L6.8401 9.48987L7.1301 9.23987V5.42987L4.7401 6.34987ZM4.7401 26.6299V26.6999L7.1401 27.6299V23.7799L6.9001 23.7099L7.1801 23.3199L5.8601 22.9999C5.8601 23.1199 5.8601 23.1999 5.8601 23.2899C5.8601 24.2299 5.8601 25.1699 5.8601 26.1099C5.8601 26.3299 5.7901 26.4399 5.5501 26.4699C5.3101 26.4999 5.0201 26.5799 4.7501 26.6299H4.7401ZM10.8101 8.70987C11.0601 8.70987 10.7201 8.24987 11.0601 8.33987C11.1401 8.33987 11.1601 8.62987 11.2201 8.81987C11.4401 8.76987 11.7001 8.72987 11.9401 8.64987C11.9883 8.63316 12.0313 8.60402 12.0647 8.56539C12.098 8.52677 12.1206 8.48002 12.1301 8.42987C12.1301 7.16987 12.1301 5.90987 12.1301 4.64987C12.1301 4.56987 12.0701 4.42987 12.0201 4.41987C11.6301 4.29987 11.2401 4.19987 10.8401 4.09987L10.8101 8.70987ZM10.8601 24.3899H10.8001C10.8001 25.8299 10.8001 27.2799 10.8001 28.7199C10.8001 28.9099 10.8701 28.9599 11.0501 28.9099L11.8601 28.6899C11.8965 28.6874 11.9321 28.6776 11.9646 28.661C11.9971 28.6444 12.0259 28.6214 12.0493 28.5933C12.0726 28.5653 12.0901 28.5328 12.1005 28.4978C12.111 28.4629 12.1142 28.4261 12.1101 28.3899C12.1101 27.1499 12.1101 25.9099 12.1101 24.6699C12.1101 24.5999 12.1101 24.4899 12.0301 24.4799C11.7601 24.3899 11.4701 24.3299 11.1501 24.2499C11.1597 24.3296 11.1597 24.4102 11.1501 24.4899C11.1597 24.57 11.1421 24.651 11.1001 24.7199C11.1001 24.7199 10.9901 24.7199 10.9201 24.7199V24.4799C10.9018 24.4487 10.8818 24.4187 10.8601 24.3899ZM7.2001 14.3899C6.7401 14.3899 6.3501 14.4499 5.9601 14.4999C5.9601 14.4999 5.8301 14.6099 5.8301 14.6799C5.8301 15.9299 5.8301 17.1899 5.8301 18.4499C5.83308 18.4889 5.84557 18.5267 5.86649 18.5598C5.88741 18.5929 5.91611 18.6204 5.9501 18.6399C6.3501 18.6899 6.7501 18.7199 7.2001 18.7599C7.17534 18.6766 7.14182 18.5961 7.1001 18.5199C7.03058 18.4584 6.95709 18.4016 6.8801 18.3499L7.1301 18.1699V14.9299L6.8501 14.7899C6.94877 14.7386 7.04249 14.6783 7.1301 14.6099C7.16172 14.5291 7.18517 14.4453 7.2001 14.3599V14.3899ZM7.1301 13.7299V10.4899L6.8601 10.3299C6.93043 10.2815 6.99428 10.2244 7.0501 10.1599C7.09525 10.077 7.1321 9.98995 7.1601 9.89987C6.7601 9.98987 6.4301 10.0699 6.1001 10.1299C5.7701 10.1899 5.8001 10.2699 5.8001 10.4999C5.8001 11.6799 5.8001 12.8599 5.8001 14.0399C5.8001 14.1299 5.8001 14.2199 5.8001 14.3399L6.9501 14.2699C7.01331 14.2468 7.0737 14.2166 7.1301 14.1799L7.0401 13.9999L6.8901 13.8199L7.1301 13.7299ZM7.1301 18.8599L5.9801 18.7499C5.8201 18.7499 5.8001 18.8399 5.8001 18.9699V22.6899C5.8001 22.7599 5.8601 22.8799 5.9101 22.8899C6.3001 22.9999 6.7001 23.0899 7.1801 23.1999C7.17102 23.1053 7.15429 23.0117 7.1301 22.9199C7.07366 22.8588 7.00984 22.8051 6.9401 22.7599L7.1301 22.5999V19.3299C6.9501 19.3099 6.9501 19.3099 7.1301 18.8599ZM8.5301 18.8099V14.7299C8.5301 14.2899 8.5301 14.2899 8.0801 14.3199H7.9501C7.7301 14.3199 7.6201 14.3799 7.6501 14.6199C7.6501 14.6899 7.6501 14.8099 7.5701 14.8299C7.4901 14.8499 7.4001 14.8299 7.3201 14.8299V18.3699C7.5601 18.2299 7.6801 18.2699 7.6601 18.4699C7.6401 18.6699 7.7901 18.8099 8.0101 18.8299L8.5301 18.8099ZM7.3201 13.8899C7.3844 13.8294 7.45477 13.7758 7.5301 13.7299C7.5301 13.7299 7.6701 13.8399 7.6601 13.8699C7.5601 14.2399 7.7901 14.1999 8.0201 14.1799C8.09667 14.1744 8.17353 14.1744 8.2501 14.1799C8.5301 14.1799 8.5801 14.0699 8.5801 13.8199C8.5801 12.5499 8.5801 11.2899 8.5801 10.0199C8.5801 9.89987 8.5801 9.78987 8.5801 9.63987C8.35268 9.66421 8.12824 9.71111 7.9101 9.77987C7.85643 9.80533 7.80947 9.84301 7.773 9.8899C7.73653 9.9368 7.71157 9.99158 7.7001 10.0499C7.7001 10.3299 7.6101 10.4199 7.3501 10.3399L7.3201 13.8899ZM7.3201 19.3099V22.7499C7.6201 22.6999 7.6901 22.8399 7.6401 23.0899C7.6401 23.1499 7.6401 23.2899 7.7201 23.2999C7.9701 23.3799 8.2401 23.4299 8.5201 23.4999C8.5201 23.3599 8.5201 23.2699 8.5201 23.1699V19.5699C8.5201 18.9199 8.5201 18.9199 7.8601 18.9099C7.6801 18.9099 7.5901 18.9099 7.6001 19.1499C7.60287 19.1895 7.59615 19.2292 7.58049 19.2658C7.56484 19.3023 7.54071 19.3345 7.5101 19.3599C7.4901 19.3799 7.4001 19.3199 7.3501 19.3099H7.3201ZM7.3201 9.11987C7.4501 9.20987 7.6501 9.30987 7.6401 9.34987C7.5501 9.71987 7.7601 9.59987 7.9401 9.55987C8.08313 9.54637 8.22409 9.51616 8.3601 9.46987C8.40782 9.45231 8.45029 9.4229 8.48353 9.38442C8.51676 9.34594 8.53967 9.29964 8.5501 9.24987C8.5501 8.12987 8.5501 7.01987 8.5501 5.90987C8.5501 5.83987 8.5501 5.70987 8.4501 5.69987C8.1301 5.58987 7.7201 5.49987 7.3301 5.39987L7.3201 9.11987ZM7.6501 23.5099C7.6501 23.7499 7.6501 23.9299 7.3501 23.9199V27.6299L8.2601 27.4399C8.4901 27.4399 8.5701 27.2799 8.5701 27.0399C8.5701 26.1599 8.5701 25.2799 8.5701 24.3999C8.5701 23.5199 8.5701 23.5599 7.7301 23.4799L7.6501 23.5099ZM5.6501 22.8199C5.6501 22.6199 5.6501 22.4799 5.6501 22.3399C5.6501 21.3999 5.6501 20.4599 5.6501 19.5299C5.6501 18.5999 5.6501 18.6799 4.8501 18.6799C4.8001 18.8599 4.8501 19.1399 4.5201 19.0999V22.0999C4.7701 22.0999 4.8401 22.1899 4.8401 22.4099C4.8424 22.4518 4.85444 22.4926 4.87527 22.5291C4.8961 22.5655 4.92515 22.5966 4.9601 22.6199C5.1901 22.7199 5.4201 22.7599 5.7001 22.8199H5.6501ZM4.5101 13.9299H4.5901C4.65434 14.0338 4.72445 14.1339 4.8001 14.2299C4.86209 14.2973 4.93688 14.3517 5.0201 14.3899C5.1101 14.3899 5.2201 14.3899 5.3101 14.3899C5.6101 14.3899 5.6801 14.2899 5.6801 13.9999C5.6801 12.8899 5.6801 11.7799 5.6801 10.6699C5.6801 10.5499 5.6801 10.4399 5.6801 10.2999L5.2301 10.3599C5.18018 10.3572 5.13022 10.3644 5.08308 10.381C5.03595 10.3976 4.99255 10.4234 4.9554 10.4569C4.91824 10.4903 4.88804 10.5308 4.86654 10.5759C4.84504 10.621 4.83266 10.6699 4.8301 10.7199C4.8301 10.8399 4.6601 10.9299 4.5301 11.0799L4.5101 13.9299ZM4.5901 15.0899H4.5201V18.0899C4.7401 18.0899 4.8401 18.1499 4.8401 18.3699C4.8401 18.5899 4.9201 18.5899 5.0701 18.5799C5.15003 18.5751 5.23017 18.5751 5.3101 18.5799C5.6601 18.6299 5.6701 18.5799 5.6701 18.2699V14.8099C5.6701 14.7099 5.6701 14.6199 5.6701 14.5099C5.4601 14.5099 5.2901 14.5099 5.1201 14.5099C4.9501 14.5099 4.8901 14.5799 4.8401 14.7299C4.7901 14.8799 4.6701 14.9999 4.5901 15.0899ZM4.5301 26.5599C4.8901 26.4899 5.2101 26.4399 5.5301 26.3499C5.57807 26.3298 5.62044 26.2984 5.65354 26.2584C5.68665 26.2183 5.70949 26.1708 5.7201 26.1199C5.7201 25.1199 5.7201 24.1199 5.7201 23.1199C5.7201 23.0499 5.7201 22.9399 5.6301 22.9299C5.3801 22.8599 5.1201 22.8099 4.8601 22.7499V22.8399L4.6201 23.1199L4.5101 22.8399L4.5301 26.5599ZM4.5301 9.81987C4.6501 9.92987 4.7901 9.99987 4.8001 10.0799C4.8101 10.1599 4.9201 10.2799 5.0701 10.2399C5.21406 10.2153 5.3549 10.1751 5.4901 10.1199C5.53531 10.0973 5.57492 10.065 5.60606 10.0252C5.63719 9.9854 5.65907 9.93917 5.6701 9.88987C5.6701 8.88987 5.6701 7.88987 5.6701 6.88987C5.6701 6.80987 5.6001 6.67987 5.5501 6.66987C5.2201 6.57987 4.8801 6.51987 4.5501 6.44987L4.5301 9.81987ZM3.2701 18.3899V18.2999C3.2701 17.1499 3.2701 15.9999 3.2701 14.8399C3.2643 14.8068 3.25026 14.7757 3.22929 14.7495C3.20832 14.7233 3.18108 14.7028 3.1501 14.6899C3.00777 14.6389 2.85144 14.6436 2.71239 14.7029C2.57334 14.7622 2.4618 14.8719 2.4001 15.0099C2.4001 15.0599 2.3101 15.0999 2.2801 15.1499C2.2501 15.1999 2.1401 15.3099 2.1401 15.3899C2.1401 16.1399 2.1401 16.8999 2.1401 17.6499C2.13639 17.7264 2.15368 17.8025 2.1901 17.8699C2.2701 17.9999 2.3701 18.1099 2.4601 18.2299C2.5501 18.3499 2.5401 18.3299 2.5801 18.3399L3.2701 18.3899ZM2.2701 11.5299H2.2001C2.2001 12.2099 2.2001 12.8799 2.2001 13.5299C2.17588 13.7925 2.24686 14.0552 2.4001 14.2699C2.6101 14.5599 2.7801 14.5299 3.0301 14.5299C3.2801 14.5299 3.3401 14.4399 3.3401 14.1999C3.3401 13.1399 3.3401 12.0799 3.3401 11.0099C3.34812 10.9301 3.34812 10.8497 3.3401 10.7699L2.6701 10.9999C2.60656 11.0357 2.55717 11.0921 2.5301 11.1599C2.4401 11.2399 2.3601 11.3899 2.2801 11.5299H2.2701ZM3.3401 22.2599V21.8899C3.3401 20.9499 3.3401 19.9999 3.3401 19.0499C3.3401 18.5199 3.3401 18.5199 2.8201 18.4999C2.6501 18.4999 2.5201 18.4999 2.4701 18.7099C2.4201 18.9199 2.4201 18.8299 2.3801 18.8399C2.1801 18.8399 2.2001 19.0199 2.2001 19.1599C2.2001 19.9099 2.2001 20.6699 2.2001 21.4199C2.2001 21.6599 2.4701 21.8799 2.6201 22.1099C2.6201 22.1099 2.6701 22.1099 2.7001 22.1099L3.3401 22.2599ZM4.3401 26.5299C4.34334 26.4866 4.34334 26.4431 4.3401 26.3999C4.3401 25.3399 4.3401 24.2899 4.3401 23.2299C4.33497 23.1992 4.32341 23.17 4.30617 23.1442C4.28893 23.1183 4.26642 23.0964 4.2401 23.0799C4.1201 22.9999 4.0401 22.9299 4.2401 22.8299C4.28659 22.8052 4.32746 22.7712 4.3601 22.7299C4.3601 22.7299 4.2701 22.6299 4.2201 22.6199L3.4901 22.4499C3.4901 22.5999 3.4901 22.7099 3.4901 22.8299C3.4901 23.6099 3.4901 24.3999 3.4901 25.1799C3.4901 25.4699 3.4301 25.6099 3.1101 25.6199C2.9089 25.6392 2.71079 25.6828 2.5201 25.7499V25.8099L4.3401 26.5299ZM2.1901 7.36987C2.1901 8.09987 2.1901 8.76987 2.1901 9.42987C2.1901 9.83987 2.0301 10.2999 2.4401 10.6499C2.5301 10.7199 2.5701 10.8099 2.7001 10.7699C2.84624 10.7554 2.99041 10.7252 3.1301 10.6799C3.17531 10.6573 3.21492 10.625 3.24606 10.5852C3.27719 10.5454 3.29907 10.4992 3.3101 10.4499C3.3101 9.55987 3.3101 8.66987 3.3101 7.77987C3.29976 7.73029 3.27814 7.68376 3.24693 7.64387C3.21572 7.60399 3.17574 7.57182 3.1301 7.54987C2.8601 7.46987 2.5501 7.42987 2.1901 7.36987ZM4.3301 10.3699C4.3301 10.1699 3.9601 10.1999 4.1901 9.97987C4.22747 9.94908 4.25824 9.91107 4.28058 9.86812C4.30291 9.82516 4.31636 9.77814 4.3201 9.72987C4.3201 9.02987 4.3201 8.32987 4.3201 7.63987V6.51987L2.4101 7.23987C2.58576 7.32442 2.7757 7.3753 2.9701 7.38987C3.4001 7.45987 3.4501 7.50987 3.4501 7.94987V10.2399C3.4501 10.3499 3.4501 10.4599 3.4501 10.6099L4.3301 10.3699ZM2.2301 25.6399C2.5701 25.5899 2.8501 25.5699 3.1201 25.5099C3.17155 25.4875 3.21772 25.4546 3.25562 25.4133C3.29353 25.3719 3.32231 25.3231 3.3401 25.2699C3.3401 24.3799 3.3401 23.4899 3.3401 22.5999C3.3215 22.5523 3.29324 22.509 3.2571 22.4729C3.22095 22.4367 3.17771 22.4085 3.1301 22.3899C2.9201 22.3399 2.7101 22.3199 2.5001 22.2799C2.30622 22.5312 2.20709 22.8427 2.2201 23.1599C2.24015 23.4495 2.24015 23.7402 2.2201 24.0299L2.2301 25.6399ZM1.3501 11.2499C0.990101 11.3599 0.570101 11.2499 0.500101 11.7399C0.500101 11.7399 0.500101 11.8199 0.420101 11.8199C0.220101 11.8199 0.260101 11.9999 0.260101 12.1299V13.9999C0.249281 14.1015 0.262213 14.2043 0.297877 14.3C0.333541 14.3958 0.390963 14.482 0.465617 14.5518C0.54027 14.6216 0.630117 14.6731 0.728074 14.7023C0.826031 14.7315 0.929423 14.7375 1.0301 14.7199C1.2601 14.7199 1.3601 14.6399 1.3501 14.3899C1.3501 13.5099 1.3501 12.6299 1.3501 11.7499V11.2499ZM1.3501 18.2499C1.3501 18.1299 1.3501 18.0299 1.3501 17.9399C1.3501 17.0099 1.3501 16.0799 1.3501 15.1499C1.3501 15.0499 1.2801 14.8599 1.2301 14.8599C1.0201 14.8599 0.700101 14.8599 0.610101 14.9399C0.482697 15.056 0.385247 15.2012 0.326049 15.3632C0.266851 15.5251 0.247657 15.6989 0.270101 15.8699C0.295379 16.1593 0.295379 16.4504 0.270101 16.7399C0.270101 17.1699 0.140101 17.6199 0.520101 17.9999C0.610101 18.0999 0.660101 18.1999 0.820101 18.1999C0.980101 18.1999 1.1301 18.2299 1.3301 18.2499H1.3501ZM1.3501 21.7899C1.3501 20.6699 1.3501 19.6099 1.3501 18.5499C1.3501 18.4999 1.3501 18.4099 1.2801 18.4099C1.07015 18.3561 0.850048 18.3561 0.640101 18.4099C0.54944 18.4597 0.471562 18.5299 0.412573 18.615C0.353584 18.7 0.315088 18.7975 0.300101 18.8999C0.300101 19.5999 0.300101 20.3099 0.300101 21.0099C0.316289 21.0803 0.343275 21.1477 0.380101 21.2099C0.44088 21.3201 0.507647 21.4269 0.580101 21.5299C0.613901 21.5938 0.66617 21.6461 0.730101 21.6799C0.900101 21.6999 1.1301 21.7399 1.3501 21.7899ZM4.3501 10.6399L4.2901 10.5599C4.10224 10.6094 3.912 10.6495 3.7201 10.6799C3.5001 10.6799 3.4501 10.8299 3.4501 11.0299C3.4501 12.0999 3.4501 13.1599 3.4501 14.2299C3.4501 14.3099 3.4501 14.3999 3.4501 14.5199L4.3201 14.4499V14.3499C4.3201 14.3499 4.1801 14.3499 4.1601 14.2499C4.14525 14.2151 4.13759 14.1777 4.13759 14.1399C4.13759 14.1021 4.14525 14.0646 4.1601 14.0299C4.1601 13.9299 4.3001 13.8399 4.3001 13.7399C4.3001 12.8899 4.3001 12.0399 4.3001 11.1899C4.3001 11.0899 4.1301 10.9899 4.1201 10.8899C4.1101 10.7899 4.2801 10.7299 4.3501 10.6399ZM4.3501 14.6399H3.7001C3.5301 14.6399 3.4601 14.7199 3.4601 14.8899C3.4601 15.9999 3.4601 17.1199 3.4601 18.2299C3.47053 18.2796 3.49344 18.3259 3.52668 18.3644C3.55991 18.4029 3.60238 18.4323 3.6501 18.4499C3.83024 18.4919 4.01534 18.5087 4.2001 18.4999C4.2001 18.4999 4.3001 18.4999 4.3301 18.4299C4.3601 18.3599 4.3301 18.3199 4.3301 18.3099C4.0301 18.2099 4.1201 18.1199 4.3301 18.0199C4.3301 18.0199 4.3301 17.9299 4.3301 17.8899C4.3301 16.9499 4.3301 16.0099 4.3301 15.0799C3.7501 14.8999 4.5101 14.7799 4.3101 14.6199L4.3501 14.6399ZM4.3501 22.5299L4.4301 22.4699C4.2301 22.2999 4.0901 22.1299 4.4301 21.9599C4.4301 21.9599 4.4301 21.9599 4.4301 21.8999C4.4301 21.0199 4.4301 20.1399 4.4301 19.2599C4.42902 19.2251 4.42042 19.1911 4.40488 19.16C4.38934 19.1289 4.36724 19.1016 4.3401 19.0799C4.1701 18.9899 4.1601 18.9199 4.3401 18.8399C4.5201 18.7599 4.4101 18.7599 4.4401 18.7199C4.4701 18.6799 4.3601 18.6399 4.3201 18.6299L3.7701 18.5799C3.6001 18.5799 3.5501 18.6399 3.5501 18.7999V22.0999C3.5501 22.1799 3.6101 22.3199 3.6701 22.3399C3.8201 22.3999 4.0701 22.4499 4.3201 22.5099L4.3501 22.5299ZM0.270101 24.8999C0.570101 24.8999 0.830101 24.8199 1.0801 24.7999C1.3301 24.7799 1.3701 24.6799 1.3701 24.4599C1.3701 23.7999 1.3701 23.1499 1.3701 22.4599C1.3701 21.7699 1.2301 21.7599 0.670101 21.7599C0.670101 21.7599 0.550101 21.7599 0.540101 21.7599C0.450101 21.9999 0.210101 22.1599 0.260101 22.4799C0.292085 22.9859 0.295424 23.4934 0.270101 23.9999V24.8999ZM0.270101 8.10987C0.270101 9.03987 0.270101 9.92987 0.270101 10.8199C0.270101 11.0099 0.620101 11.2399 0.810101 11.1999C0.919326 11.1903 1.02687 11.1668 1.1301 11.1299C1.2101 11.1299 1.3201 10.9799 1.3201 10.8999C1.3201 10.0999 1.3201 9.29987 1.3201 8.49987C1.3201 8.41987 1.2401 8.27987 1.1701 8.26987C0.910101 8.19987 0.610101 8.15987 0.260101 8.10987H0.270101ZM0.560101 24.9999V25.0799L2.0401 25.6499C2.0446 25.6133 2.0446 25.5764 2.0401 25.5399C2.0401 24.5399 2.0401 23.6399 2.0401 22.6899C2.0401 22.6899 2.0401 22.5899 2.0401 22.5799C1.7901 22.4499 1.8901 22.3199 2.1201 22.1599L1.4601 21.9999C1.4601 22.1299 1.4601 22.2099 1.4601 22.2999C1.4601 23.0699 1.4601 23.8399 1.4601 24.6099C1.4601 24.8099 1.4601 24.8999 1.2201 24.9199C0.980101 24.9399 0.780101 24.9399 0.560101 24.9999ZM1.5001 10.9999C1.57253 11.0162 1.64768 11.0162 1.7201 10.9999C1.8301 10.9399 2.2301 10.9999 1.8801 10.6999C1.8801 10.6999 1.8801 10.6099 1.8801 10.5699C1.9372 10.4242 1.98072 10.2736 2.0101 10.1199C2.0101 9.44987 2.0101 8.76987 2.0101 8.11987V7.39987L0.500101 7.99987C0.700084 8.08369 0.913438 8.13111 1.1301 8.13987C1.3501 8.13987 1.3901 8.25987 1.3901 8.45987C1.3901 8.89987 1.3901 9.34987 1.3901 9.78987C1.3901 10.2299 1.4701 10.6199 1.5001 10.9999ZM1.9101 21.6799C1.97795 21.5338 2.02507 21.379 2.0501 21.2199C2.0501 20.4999 2.0501 19.7699 2.0501 19.0499C2.0501 18.9699 2.0501 18.8399 2.0501 18.8299C1.7001 18.6899 1.9901 18.5899 2.1501 18.4199C1.97078 18.3977 1.78942 18.3977 1.6101 18.4199C1.5601 18.4199 1.5101 18.6199 1.5101 18.7299C1.5101 19.6299 1.5101 20.5299 1.5101 21.4299C1.5101 21.8599 1.6601 21.9999 2.1201 21.8999L1.9101 21.6799ZM2.1301 14.6099C1.9801 14.4399 1.6901 14.3299 2.0301 14.1799C2.0301 14.1799 2.0301 14.0599 2.0301 13.9899V11.7299C2.0301 11.5299 1.7401 11.3399 2.0301 11.1299L1.9701 11.0599C1.8201 11.1899 1.4901 11.0599 1.4901 11.3899C1.4901 12.3899 1.4901 13.3899 1.4901 14.4599C1.4901 14.5299 1.6201 14.6299 1.7001 14.6499C1.84462 14.6578 1.98952 14.6443 2.1301 14.6099ZM2.1301 14.7699C1.5301 14.7699 1.5201 14.7699 1.5201 15.2499V17.9999C1.5201 18.0899 1.5201 18.2499 1.6201 18.2599C1.77947 18.2799 1.94073 18.2799 2.1001 18.2599C1.9701 18.0999 1.7501 18.0099 2.1001 17.8599C2.1001 17.8599 2.1001 17.7399 2.1001 17.6699C2.1001 16.9099 2.1001 16.1499 2.1001 15.3799C2.1001 15.2799 1.9401 15.1799 1.9401 15.0799C1.9401 14.9799 2.0001 14.8899 2.1301 14.7699Z" fill="#0095FF"/>
<path d="M21.1301 32.9999V26.9999C21.5301 26.8799 21.6201 26.7199 21.5201 26.1999C21.5201 26.0899 21.3101 26.0099 21.2101 25.9099L21.1301 25.9999V25.6299C21.1301 23.9999 21.1301 22.3699 21.1301 20.7399C21.1301 20.5599 21.1301 20.3899 21.3901 20.3899C21.3901 20.3899 21.5001 20.3399 21.5001 20.3099C21.5271 20.1243 21.5438 19.9373 21.5501 19.7499C21.5501 19.4799 21.3701 19.4599 21.1601 19.4699V13.7999C21.3101 13.7399 21.5601 13.7999 21.5601 13.5299C21.5601 12.8999 21.5601 12.8999 21.1501 12.8199V7.19988C21.3501 7.19988 21.5701 7.19988 21.5801 6.94988C21.5801 6.30988 21.5801 6.27988 21.1501 6.21988V0.129883C21.5801 0.329883 21.9801 0.489883 22.3601 0.699883C22.4301 0.699883 22.4601 0.929883 22.4601 1.05988C22.4601 3.17988 22.4601 5.29988 22.4601 7.41988C22.4601 11.6899 22.4601 15.9499 22.4601 20.2199C22.4601 24.1599 22.4601 28.1099 22.4601 32.0499C22.4766 32.1579 22.4531 32.2681 22.3943 32.3601C22.3354 32.4521 22.2451 32.5196 22.1401 32.5499C21.7401 32.6699 21.4501 32.8299 21.1301 32.9999Z" fill="white"/>
<path d="M20.8502 6.62965L16.7202 7.56965C16.7202 7.42965 16.7202 7.30965 16.7202 7.19965C16.7202 5.82965 16.7202 4.44965 16.7202 3.07965C16.7346 2.97379 16.7071 2.86648 16.6436 2.78056C16.5801 2.69464 16.4856 2.63691 16.3802 2.61965C16.0522 2.52345 15.7341 2.39621 15.4302 2.23965L20.8802 0.139648V6.29965C20.8084 6.19053 20.7246 6.08989 20.6302 5.99965C20.5802 5.99965 20.4702 5.91965 20.4302 5.99965C20.3981 6.02493 20.3717 6.05671 20.3527 6.0929C20.3338 6.12908 20.3227 6.16887 20.3202 6.20965C20.3202 6.20965 20.4202 6.30965 20.4902 6.33965C20.5602 6.36965 20.7502 6.45965 20.8902 6.51965L20.8502 6.62965Z" fill="white"/>
<path d="M20.8802 26.6598C20.7502 26.7298 20.6102 26.7898 20.4902 26.8698C20.4177 26.9027 20.3555 26.9545 20.3102 27.0198C20.3102 27.0198 20.3102 27.1698 20.3902 27.1698C20.464 27.1993 20.5463 27.1993 20.6202 27.1698C20.7157 27.0815 20.8027 26.9844 20.8802 26.8798V32.9998L15.4302 30.8798V30.8098C15.7202 30.6998 16.0102 30.5798 16.3002 30.4998C16.5902 30.4198 16.7202 30.2598 16.7202 29.9298C16.7202 28.6198 16.7202 27.2998 16.7202 25.9798C16.7202 25.8698 16.7202 25.7598 16.7202 25.5898L20.8502 26.5898L20.8802 26.6598Z" fill="white"/>
<path d="M20.92 6.77002C20.84 7.00002 20.82 7.21002 20.54 7.24002C20.4547 7.25801 20.3795 7.30814 20.33 7.38002C20.3278 7.41482 20.3329 7.4497 20.3449 7.48242C20.357 7.51515 20.3757 7.54498 20.4 7.57002C20.4999 7.57157 20.5989 7.55108 20.69 7.51002C20.75 7.51002 20.78 7.38002 20.88 7.33002V12.86C20.8108 12.7701 20.7338 12.6865 20.65 12.61C20.587 12.5628 20.5083 12.5413 20.43 12.55C20.38 12.55 20.3 12.68 20.32 12.72C20.3657 12.785 20.4278 12.8368 20.5 12.87L20.92 13.13V13.25L16.77 13.55C16.77 13.42 16.77 13.32 16.77 13.22C16.77 11.47 16.77 9.73002 16.77 7.99002C16.77 7.82002 16.77 7.70002 17 7.66002L20.78 6.78002L20.92 6.77002Z" fill="white"/>
<path d="M20.9402 13.3896C20.7902 13.5996 20.7602 13.8096 20.5002 13.7996C20.4618 13.8084 20.4258 13.8255 20.3947 13.8497C20.3636 13.8739 20.3382 13.9046 20.3202 13.9396C20.3202 13.9396 20.3202 14.0896 20.3902 14.0996C20.4266 14.1148 20.4657 14.1226 20.5052 14.1226C20.5447 14.1226 20.5837 14.1148 20.6202 14.0996C20.7102 14.0496 20.7602 13.9496 20.8802 13.8196V19.4396C20.8235 19.3489 20.7526 19.2679 20.6702 19.1996C20.5874 19.1446 20.4896 19.1167 20.3902 19.1196C20.3902 19.1196 20.3002 19.2496 20.3102 19.2796C20.376 19.3353 20.4462 19.3854 20.5202 19.4296L20.9302 19.7196L20.8802 19.8396H20.4502C19.2902 19.7496 18.1402 19.6396 16.9802 19.5596C16.7602 19.5596 16.7002 19.4696 16.7002 19.2596C16.7002 17.4996 16.7002 15.7396 16.7002 13.9796C16.7002 13.6896 16.8502 13.6696 17.0602 13.6496L19.5102 13.4796L20.5902 13.4096L20.9402 13.3896Z" fill="white"/>
<path d="M20.8902 26.4397L16.9702 25.5197C16.7602 25.4697 16.7002 25.3697 16.7002 25.1597C16.7002 23.4197 16.7002 21.6697 16.7002 19.9297C16.7002 19.6697 16.7702 19.6197 17.0302 19.6397C18.0302 19.7497 19.1102 19.8197 20.1502 19.8997L20.8802 19.9797C20.8756 20.072 20.8375 20.1595 20.7731 20.2257C20.7087 20.292 20.6223 20.3325 20.5302 20.3397C20.4466 20.3618 20.3727 20.411 20.3202 20.4797C20.3202 20.4797 20.3202 20.6497 20.4102 20.6497C20.4988 20.6527 20.5861 20.6282 20.6602 20.5797C20.7449 20.5071 20.8189 20.4229 20.8802 20.3297V25.9997C20.8284 25.9112 20.7644 25.8304 20.6902 25.7597C20.6113 25.7002 20.5182 25.6623 20.4202 25.6497C20.4202 25.6497 20.3002 25.7897 20.3202 25.8197C20.3632 25.8933 20.4303 25.9498 20.5102 25.9797C20.6131 26.0081 20.7048 26.0675 20.7727 26.1498C20.8407 26.2321 20.8817 26.3333 20.8902 26.4397Z" fill="white"/>
<path d="M12.23 8.59988V8.23988C12.23 7.04988 12.23 5.85988 12.23 4.66988C12.2385 4.61973 12.2365 4.56836 12.2243 4.519C12.212 4.46963 12.1897 4.42333 12.1587 4.38298C12.1277 4.34262 12.0888 4.30909 12.0443 4.28447C11.9998 4.25985 11.9507 4.24467 11.9 4.23988C11.5911 4.1808 11.2917 4.07987 11.01 3.93988L15.01 2.37988V7.55988C14.95 7.55988 14.9 7.43988 14.82 7.41988C14.74 7.39988 14.68 7.41988 14.61 7.48988C14.54 7.55988 14.66 7.64988 14.71 7.68988C14.8177 7.75181 14.9317 7.80209 15.05 7.83988V7.99988L12.23 8.59988Z" fill="white"/>
<path d="M12.2302 24.5098L15.1402 25.2098L14.8502 25.4298C14.7686 25.475 14.6945 25.5323 14.6302 25.5998C14.6302 25.5998 14.6902 25.6998 14.7202 25.7598L14.9702 25.5998C14.9702 25.5998 14.9702 25.5498 15.0602 25.4598V30.7298L10.9202 29.1098C11.3002 28.9998 11.6102 28.8798 11.9202 28.8198C12.2302 28.7598 12.2102 28.6598 12.2102 28.4398C12.2102 27.2598 12.2102 26.0798 12.2102 24.8998L12.2302 24.5098Z" fill="white"/>
<path d="M15.05 13.2299C15.009 13.1808 14.962 13.1372 14.91 13.0999C14.8413 13.0807 14.7687 13.0807 14.7 13.0999C14.7 13.0999 14.62 13.2099 14.63 13.2399C14.64 13.2699 14.74 13.3199 14.79 13.3599L15.1 13.5899L15.05 13.6899L13.48 13.8099C13.16 13.8099 12.84 13.8099 12.53 13.8899C12.22 13.9699 12.23 13.8899 12.23 13.6199C12.23 12.0799 12.23 10.5299 12.23 8.97988C12.2367 8.9252 12.2566 8.87297 12.288 8.82768C12.3193 8.78239 12.3612 8.7454 12.41 8.71988C13.24 8.50988 14.07 8.31988 14.9 8.12988H15.03L15.1 8.19988C15.0153 8.30453 14.9252 8.40467 14.83 8.49988C14.77 8.55988 14.68 8.58988 14.62 8.64988C14.6322 8.70636 14.6599 8.75831 14.7 8.79988C14.7908 8.78354 14.8785 8.75318 14.96 8.70988L15.04 8.63988L15.05 13.2299Z" fill="white"/>
<path d="M15.1302 13.8898L14.9002 14.1398L14.6602 14.3198C14.6602 14.3198 14.7302 14.4498 14.7402 14.4498C14.7502 14.4498 14.9402 14.3498 15.0502 14.2998V18.9398C15.0502 18.8898 14.9902 18.8498 14.9602 18.8398C14.8768 18.7887 14.7856 18.7516 14.6902 18.7298C14.6902 18.7298 14.6102 18.8498 14.6202 18.8598C14.6302 18.8698 14.7602 18.9598 14.8202 19.0098C14.8802 19.0598 15.0102 19.1998 15.1002 19.2898L15.0502 19.3698L14.1502 19.3198C13.5902 19.3198 13.0302 19.2098 12.4702 19.1698C12.2802 19.1698 12.2202 19.1098 12.2202 18.9198V14.2598C12.2202 14.1098 12.2202 13.9898 12.4202 13.9698L14.9102 13.7998H15.0202L15.1302 13.8898Z" fill="white"/>
<path d="M15.07 25.0598C14.17 24.8498 13.3 24.6498 12.44 24.4298C12.3876 24.4093 12.3416 24.3755 12.3065 24.3316C12.2714 24.2877 12.2484 24.2353 12.24 24.1798C12.24 22.6198 12.24 21.0598 12.24 19.4998C12.24 19.4198 12.35 19.2698 12.41 19.2798C13.29 19.3398 14.17 19.4198 15.06 19.4998V19.5698C14.9876 19.654 14.9072 19.731 14.82 19.7998C14.75 19.8598 14.66 19.8898 14.59 19.9398C14.6064 19.9976 14.6335 20.0519 14.67 20.0998C14.7614 20.0666 14.8486 20.023 14.93 19.9698C14.93 19.9698 14.93 19.9698 15.02 19.8698V24.5698C14.96 24.4998 14.93 24.4398 14.88 24.4198C14.8192 24.3758 14.7449 24.3545 14.67 24.3598C14.67 24.3598 14.58 24.4698 14.59 24.5098C14.6025 24.5442 14.6224 24.5755 14.6483 24.6015C14.6742 24.6274 14.7055 24.6473 14.74 24.6598C14.98 24.6998 15.13 24.7998 15.07 25.0598Z" fill="white"/>
<path d="M7.53003 5.2701L10.59 4.1001V8.4901C10.59 8.4901 10.49 8.4901 10.45 8.4901C10.3888 8.52323 10.3318 8.56351 10.28 8.6101C10.3142 8.65864 10.351 8.70537 10.39 8.7501L10.6 8.9301C10.5281 8.98686 10.4469 9.03083 10.36 9.0601L8.71003 9.4301C8.71003 9.2901 8.71003 9.1801 8.71003 9.0701C8.71003 8.0701 8.71003 6.9801 8.71003 5.9301C8.71003 5.6901 8.63003 5.5801 8.39003 5.5501C8.15003 5.5201 7.85003 5.4301 7.57003 5.3701L7.53003 5.2701Z" fill="white"/>
<path d="M7.55005 27.7297C7.83005 27.6597 8.11005 27.5797 8.40005 27.5297C8.44464 27.5277 8.48827 27.516 8.52795 27.4956C8.56763 27.4751 8.60243 27.4464 8.62996 27.4112C8.6575 27.3761 8.67712 27.3354 8.68749 27.292C8.69786 27.2486 8.69873 27.2035 8.69005 27.1597V23.6797L10.69 24.1497L10.52 24.3497L10.32 24.5397L10.63 24.6797V28.9997L7.57005 27.7997L7.55005 27.7297Z" fill="white"/>
<path d="M10.5802 18.9997L8.97019 18.8797C8.77019 18.8797 8.69019 18.7897 8.69019 18.5797V14.5797C8.69019 14.3797 8.69019 14.2897 8.96019 14.2797C9.42019 14.2797 9.88019 14.1997 10.3402 14.1797C10.4302 14.1797 10.5102 14.2497 10.6002 14.2897L10.4202 14.4597L10.2802 14.6197L10.6102 14.7797V18.4797C10.6102 18.4797 10.5302 18.4797 10.4902 18.4797L10.2902 18.5797L10.4402 18.7497L10.6602 18.9597L10.5802 18.9997Z" fill="white"/>
<path d="M10.6602 9.1001C10.6289 9.21284 10.5817 9.32057 10.5202 9.4201C10.4445 9.48561 10.3643 9.54576 10.2802 9.6001L10.6102 9.7801V13.4501C10.554 13.44 10.4964 13.44 10.4402 13.4501C10.3825 13.4878 10.3289 13.5314 10.2802 13.5801L10.4002 13.7201L10.6002 13.9201C10.524 13.9619 10.4435 13.9954 10.3602 14.0201L8.97019 14.1301C8.77019 14.1301 8.69019 14.1301 8.69019 13.8901C8.69019 12.5201 8.69019 11.1501 8.69019 9.7901C8.69019 9.6901 8.76018 9.5401 8.83018 9.5201C9.42018 9.3701 10.0002 9.2501 10.6602 9.1001Z" fill="white"/>
<path d="M10.68 19.1301C10.6279 19.2189 10.5677 19.3026 10.5 19.3801C10.44 19.4401 10.36 19.4901 10.29 19.5501L10.61 19.7301V23.3901C10.55 23.3901 10.49 23.3901 10.46 23.3901C10.401 23.4267 10.3443 23.4668 10.29 23.5101C10.3363 23.5609 10.3797 23.6144 10.42 23.6701L10.65 23.8801V23.9701H10.38L8.99999 23.6401C8.83999 23.6401 8.73999 23.5501 8.73999 23.3601C8.73999 21.9801 8.73999 20.6101 8.73999 19.2301C8.73999 19.0801 8.73999 18.9901 8.95999 19.0101C9.46999 19.0001 10.04 19.0801 10.68 19.1301Z" fill="white"/>
<path d="M15.27 13.4097V8.48973L15.37 8.42973C15.37 8.47973 15.37 8.55973 15.44 8.57973C15.514 8.60823 15.596 8.60823 15.67 8.57973C15.6935 8.55068 15.7102 8.51674 15.7189 8.4804C15.7275 8.44406 15.7279 8.40624 15.72 8.36973C15.6 7.94973 15.59 7.94973 16.01 7.85973L16.27 7.78973L16.54 7.71973V8.19973C16.54 9.83973 16.54 11.4697 16.54 13.1097C16.54 13.2397 16.54 13.4697 16.44 13.4897C16.2069 13.5399 15.9683 13.56 15.73 13.5497C15.7235 13.4565 15.7235 13.3629 15.73 13.2697C15.7407 13.1767 15.7407 13.0828 15.73 12.9897C15.73 12.9897 15.57 12.9297 15.56 12.9897C15.5198 13.0655 15.4896 13.1462 15.47 13.2297C15.47 13.2297 15.34 13.3197 15.27 13.4097Z" fill="white"/>
<path d="M15.44 19.85C15.38 20.01 15.34 20.19 15.58 20.19C15.82 20.19 15.78 20.06 15.72 19.91C15.6751 19.7893 15.6383 19.6657 15.61 19.54C15.8747 19.5562 16.1384 19.5862 16.4 19.63C16.47 19.63 16.54 19.82 16.54 19.92C16.54 21.27 16.54 22.61 16.54 23.92V25.33C16.2694 25.2939 16.0019 25.2371 15.74 25.16C15.68 25.16 15.67 24.95 15.66 24.84C15.65 24.73 15.66 24.62 15.66 24.51L15.24 24.58V20.05C15.254 19.9676 15.2775 19.8871 15.31 19.81L15.44 19.85Z" fill="white"/>
<path d="M16.53 19.4697L15.63 19.3997C15.6427 19.277 15.6696 19.1562 15.71 19.0397C15.77 18.9197 15.8 18.8097 15.65 18.7697C15.5 18.7297 15.47 18.8497 15.39 18.9097C15.31 18.9697 15.39 18.9697 15.29 18.9897V14.1797H15.34C15.34 14.2297 15.34 14.2997 15.4 14.3197C15.4845 14.3557 15.5714 14.3857 15.66 14.4097C15.6925 14.3362 15.716 14.2589 15.73 14.1797C15.73 14.0597 15.66 13.9397 15.62 13.7897C15.9 13.7897 16.13 13.7297 16.37 13.7197C16.43 13.7197 16.5 13.7997 16.54 13.8597C16.5499 13.916 16.5499 13.9735 16.54 14.0297C16.54 15.7497 16.54 17.4597 16.54 19.1797C16.54 19.2397 16.54 19.3297 16.53 19.4697Z" fill="white"/>
<path d="M15.27 2.38965C15.68 2.52965 16.06 2.64965 16.42 2.78965C16.48 2.78965 16.54 2.93965 16.54 3.01965C16.54 4.47298 16.54 5.92298 16.54 7.36965C16.5377 7.41933 16.5239 7.4678 16.4996 7.51119C16.4753 7.55459 16.4412 7.59172 16.4 7.61965C16.1405 7.70054 15.8768 7.76731 15.61 7.81965C15.6514 7.7191 15.6849 7.61545 15.71 7.50965C15.7356 7.42487 15.7356 7.33443 15.71 7.24965C15.71 7.24965 15.55 7.17965 15.54 7.18965C15.5012 7.26955 15.4711 7.35335 15.45 7.43965C15.4455 7.5029 15.4455 7.5664 15.45 7.62965H15.35L15.27 2.38965Z" fill="white"/>
<path d="M12.1301 13.8599L11.3801 13.9399C11.2301 13.9399 11.1401 13.9399 11.1701 13.7399C11.2001 13.5399 11.2801 13.4199 11.0501 13.3999C10.9901 13.3999 10.9201 13.5899 10.8501 13.7199V9.44987C10.8501 9.44987 10.8501 9.52987 10.9301 9.53987C11.0048 9.56431 11.0854 9.56431 11.1601 9.53987C11.1759 9.51069 11.1841 9.47804 11.1841 9.44487C11.1841 9.41171 11.1759 9.37906 11.1601 9.34987C11.0601 9.07987 11.1601 8.94987 11.4301 8.88987C12.0901 8.75987 12.0901 8.73987 12.0901 9.40987V13.8299L12.1301 13.8599Z" fill="white"/>
<path d="M15.62 25.3599C15.8693 25.3962 16.1163 25.4462 16.36 25.5099C16.4076 25.5344 16.4487 25.5699 16.48 25.6133C16.5113 25.6568 16.5318 25.707 16.54 25.7599C16.54 27.1999 16.54 28.6399 16.54 30.0799C16.5322 30.1329 16.513 30.1837 16.4836 30.2286C16.4543 30.2735 16.4155 30.3114 16.37 30.3399C16.02 30.4799 15.66 30.5899 15.28 30.7199C15.28 30.6199 15.28 30.5499 15.28 30.4799C15.28 28.9599 15.28 27.4799 15.28 25.9199C15.2748 25.8433 15.2748 25.7664 15.28 25.6899C15.3077 25.63 15.3412 25.5731 15.38 25.5199C15.38 25.5799 15.38 25.6499 15.38 25.7099C15.38 25.7699 15.38 25.8799 15.45 25.9299C15.52 25.9799 15.6 25.9299 15.64 25.9299C15.6647 25.8974 15.6827 25.8603 15.693 25.8208C15.7033 25.7814 15.7057 25.7403 15.7 25.6999C15.6833 25.5844 15.6566 25.4706 15.62 25.3599Z" fill="white"/>
<path d="M10.8101 18.6101V14.4501C10.8101 14.5001 10.8101 14.5701 10.8101 14.5901C10.8766 14.6379 10.9586 14.6593 11.0401 14.6501C11.0666 14.6249 11.0862 14.5931 11.0967 14.558C11.1072 14.523 11.1084 14.4857 11.1001 14.4501C10.9901 14.1901 11.1001 14.1001 11.3401 14.0701C12.0201 14.0001 12.0201 14.0001 12.0201 14.6701V19.1201L11.1301 19.0001C11.1149 18.9073 11.1149 18.8128 11.1301 18.7201C11.1901 18.6001 11.2101 18.4801 11.0601 18.4501C10.9101 18.4201 10.9201 18.5601 10.8101 18.6101Z" fill="white"/>
<path d="M10.8701 19.4597C10.8701 19.4597 10.8701 19.5597 10.8701 19.5897C10.9254 19.645 10.9857 19.6952 11.0501 19.7397C11.1001 19.6697 11.2001 19.5697 11.1801 19.5297C11.0501 19.2297 11.1801 19.1997 11.4401 19.1997C12.0901 19.1997 12.0901 19.1997 12.0901 19.8597V23.9197C12.0901 24.0397 12.0901 24.1597 12.0901 24.3297C11.8334 24.289 11.5796 24.2323 11.3301 24.1597C11.2501 24.1597 11.2301 23.9397 11.1901 23.8197C11.1501 23.6997 11.1901 23.6397 11.1201 23.5397L10.8101 23.6497V19.4597H10.8701Z" fill="white"/>
<path d="M4.73999 6.34969L7.12999 5.42969V9.23969L6.87999 9.48969L7.16999 9.68969V9.75969L5.85999 10.0797C5.85999 9.92969 5.85999 9.80969 5.85999 9.69969C5.85999 8.77969 5.85999 7.85969 5.85999 6.93969C5.85999 6.71969 5.78999 6.59969 5.55999 6.55969C5.32999 6.51969 5.03999 6.46969 4.76999 6.41969L4.73999 6.34969Z" fill="white"/>
<path d="M4.74999 26.6298C5.01999 26.5798 5.27999 26.5098 5.53999 26.4798C5.79999 26.4498 5.84999 26.3398 5.84999 26.1198C5.84999 25.1798 5.84999 24.2398 5.84999 23.2998C5.84999 23.2098 5.84999 23.1298 5.84999 23.0098L7.17999 23.3198L6.89999 23.7098L7.13999 23.7798V27.6298L4.73999 26.6998L4.74999 26.6298Z" fill="white"/>
<path d="M10.8101 8.7101V4.1001C11.2101 4.2001 11.6001 4.3001 11.9901 4.4201C12.0401 4.4201 12.1001 4.5701 12.1001 4.6501C12.1001 5.9101 12.1001 7.1701 12.1001 8.4301C12.0934 8.47706 12.0753 8.52167 12.0475 8.56002C12.0196 8.59838 11.9827 8.62931 11.9401 8.6501C11.7001 8.7301 11.4401 8.7701 11.2201 8.8201C11.1601 8.6301 11.1401 8.3601 11.0601 8.3401C10.7201 8.2501 11.0601 8.6801 10.8101 8.7101Z" fill="white"/>
<path d="M10.86 24.3901C10.8843 24.4382 10.9044 24.4884 10.92 24.5401V24.7801C10.99 24.7801 11.08 24.7801 11.1 24.7801C11.142 24.7112 11.1596 24.6302 11.15 24.5501C11.1597 24.4703 11.1597 24.3898 11.15 24.3101C11.47 24.3901 11.76 24.4501 12.03 24.5401C12.03 24.5401 12.11 24.6601 12.11 24.7301C12.11 25.9701 12.11 27.2101 12.11 28.4501C12.1142 28.4863 12.1109 28.5231 12.1005 28.558C12.09 28.593 12.0726 28.6255 12.0492 28.6535C12.0258 28.6816 11.997 28.7046 11.9645 28.7212C11.932 28.7378 11.8965 28.7476 11.86 28.7501L11.05 28.9701C10.87 28.9701 10.8 28.9701 10.8 28.7801C10.8 27.3401 10.8 25.8901 10.8 24.4501L10.86 24.3901Z" fill="white"/>
<path d="M7.20008 14.3599C7.17229 14.4468 7.13542 14.5306 7.09008 14.6099C7.02477 14.6751 6.95457 14.7353 6.88008 14.7899L7.16008 14.9299V18.1699L6.88008 18.3199C6.95707 18.3716 7.03056 18.4284 7.10008 18.4899C7.1418 18.5661 7.17532 18.6466 7.20008 18.7299C6.75008 18.7299 6.35008 18.6599 5.95008 18.6099C5.91609 18.5904 5.88738 18.5629 5.86647 18.5298C5.84555 18.4967 5.83306 18.4589 5.83008 18.4199C5.83008 17.1599 5.83008 15.8999 5.83008 14.6499C5.83008 14.5799 5.91008 14.4699 5.96008 14.4699C6.35008 14.4199 6.74008 14.3999 7.20008 14.3599Z" fill="white"/>
<path d="M7.13008 13.7299L6.87008 13.8499L7.02008 14.0299L7.14008 14.1799C7.08999 14.2153 7.03637 14.2455 6.98008 14.2699L5.83008 14.3399C5.83008 14.2199 5.83008 14.1299 5.83008 14.0399C5.83008 12.8599 5.83008 11.6799 5.83008 10.4999C5.83008 10.2699 5.91008 10.1699 6.13008 10.1299C6.35008 10.0899 6.78008 9.9999 7.18008 9.8999C7.15208 9.98999 7.11523 10.0771 7.07008 10.1599C7.01426 10.2244 6.95041 10.2816 6.88008 10.3299L7.15008 10.4899L7.13008 13.7299Z" fill="white"/>
<path d="M7.13007 18.8597C6.91007 19.3097 6.91007 19.3097 7.13007 19.3297V22.5997L6.87007 22.7597C6.9398 22.8049 7.00363 22.8587 7.06007 22.9197C7.11496 23.0087 7.16181 23.1024 7.20007 23.1997C6.72007 23.0897 6.32007 22.9997 5.93007 22.8897C5.88007 22.8897 5.82007 22.7597 5.82007 22.6897V18.9997C5.82007 18.8697 5.82007 18.7597 6.00007 18.7797L7.13007 18.8597Z" fill="white"/>
<path d="M8.57007 18.8098H8.01007C7.79007 18.8098 7.62007 18.7498 7.66007 18.4498C7.70007 18.1498 7.56007 18.2098 7.32007 18.3498V14.7898C7.40007 14.7898 7.50007 14.8498 7.57007 14.7898C7.64007 14.7298 7.66007 14.6498 7.65007 14.5798C7.65007 14.3398 7.73007 14.2598 7.95007 14.2798H8.13007C8.58007 14.2798 8.58007 14.2798 8.58007 14.6898V18.7698L8.57007 18.8098Z" fill="white"/>
<path d="M7.32007 13.8899V10.3099C7.58007 10.3899 7.68007 10.3099 7.67007 10.0199C7.68153 9.96158 7.7065 9.90679 7.74297 9.8599C7.77944 9.81301 7.8264 9.77532 7.88007 9.74986C8.09821 9.6811 8.32265 9.63421 8.55007 9.60986C8.55007 9.75986 8.55007 9.86986 8.55007 9.98986C8.55007 11.2599 8.55007 12.5199 8.55007 13.7899C8.55007 14.0399 8.55007 14.1899 8.22007 14.1499C8.1435 14.1443 8.06664 14.1443 7.99007 14.1499C7.76007 14.1499 7.53007 14.2099 7.63007 13.8399C7.63007 13.8399 7.51007 13.6899 7.50007 13.6999C7.43373 13.7569 7.37342 13.8205 7.32007 13.8899Z" fill="white"/>
<path d="M7.3501 19.3097C7.3501 19.3097 7.4901 19.3797 7.5601 19.3597C7.59071 19.3343 7.61484 19.3021 7.63049 19.2656C7.64614 19.229 7.65286 19.1893 7.6501 19.1497C7.6501 18.9497 7.7301 18.9097 7.9101 18.9097C8.5701 18.9097 8.5701 18.9097 8.5701 19.5697V23.1697C8.5701 23.2697 8.5701 23.3597 8.5701 23.4997C8.2901 23.4297 8.0201 23.3797 7.7701 23.2997C7.7701 23.2997 7.6801 23.1497 7.6901 23.0897C7.6901 22.8397 7.6901 22.6997 7.3701 22.7497L7.3501 19.3097Z" fill="white"/>
<path d="M7.33008 9.1199V5.3999C7.72008 5.4999 8.10008 5.5899 8.46008 5.6999C8.51008 5.6999 8.55008 5.8399 8.56008 5.9099C8.56008 7.0199 8.56008 8.1299 8.56008 9.2499C8.54965 9.29967 8.52674 9.34597 8.4935 9.38445C8.46027 9.42294 8.4178 9.45234 8.37008 9.4699C8.23407 9.5162 8.09311 9.5464 7.95008 9.5599C7.77008 9.5599 7.56008 9.7199 7.65008 9.3499C7.66008 9.3099 7.46008 9.2099 7.33008 9.1199Z" fill="white"/>
<path d="M7.6601 23.5098H7.7301C8.5701 23.5898 8.5701 23.5898 8.5701 24.4298C8.5701 25.2698 8.5701 26.1898 8.5701 27.0698C8.5701 27.3098 8.4901 27.4298 8.2601 27.4698L7.3501 27.6598V23.9198C7.6501 23.9298 7.7101 23.7498 7.6601 23.5098Z" fill="white"/>
<path d="M5.70003 22.82C5.42003 22.76 5.19003 22.72 4.97003 22.65C4.93508 22.6267 4.90603 22.5956 4.8852 22.5592C4.86437 22.5227 4.85233 22.4819 4.85003 22.44C4.85003 22.22 4.78003 22.1 4.53003 22.13V19.13C4.85003 19.13 4.81003 18.89 4.86003 18.71C5.67003 18.71 5.68003 18.71 5.66003 19.56C5.64003 20.41 5.66003 21.43 5.66003 22.37C5.72003 22.48 5.71003 22.62 5.70003 22.82Z" fill="white"/>
<path d="M4.51001 13.93V11.07C4.64001 10.92 4.80001 10.83 4.81001 10.71C4.81257 10.6601 4.82495 10.6112 4.84645 10.5661C4.86795 10.5209 4.89815 10.4805 4.93531 10.447C4.97246 10.4136 5.01585 10.3878 5.06299 10.3712C5.11013 10.3545 5.16009 10.3473 5.21001 10.35L5.66001 10.29C5.66001 10.43 5.66001 10.54 5.66001 10.66C5.66001 11.77 5.66001 12.88 5.66001 13.99C5.66001 14.28 5.59001 14.41 5.29001 14.38C5.20001 14.38 5.09001 14.38 5.00001 14.38C4.91679 14.3418 4.842 14.2874 4.78001 14.22C4.70436 14.1241 4.63424 14.024 4.57001 13.92L4.51001 13.93Z" fill="white"/>
<path d="M4.59 15.09C4.67 14.98 4.79 14.88 4.82 14.76C4.85 14.64 4.93 14.54 5.1 14.54C5.27 14.54 5.44 14.54 5.65 14.54C5.65 14.65 5.65 14.74 5.65 14.84V18.29C5.65 18.64 5.65 18.65 5.29 18.6C5.21007 18.5952 5.12993 18.5952 5.05 18.6C4.9 18.6 4.82 18.55 4.82 18.39C4.82 18.23 4.72 18.07 4.5 18.11V15.11L4.59 15.09Z" fill="white"/>
<path d="M4.53003 26.56V22.88L4.64003 23.16L4.88003 22.88V22.79C5.14003 22.85 5.40003 22.9 5.65003 22.97C5.65003 22.97 5.74003 23.09 5.74003 23.16C5.74003 24.16 5.74003 25.16 5.74003 26.16C5.72942 26.2109 5.70658 26.2585 5.67347 26.2985C5.64037 26.3386 5.598 26.37 5.55003 26.39C5.21003 26.44 4.89003 26.49 4.53003 26.56Z" fill="white"/>
<path d="M4.52002 9.81975V6.48975C4.88002 6.55975 5.22002 6.61975 5.52002 6.70975C5.52002 6.70975 5.64002 6.84975 5.64002 6.92975C5.64002 7.92975 5.64002 8.92975 5.64002 9.92975C5.62899 9.97905 5.60711 10.0253 5.57597 10.0651C5.54484 10.1048 5.50523 10.1372 5.46002 10.1597C5.32482 10.215 5.18398 10.2552 5.04002 10.2797C4.89002 10.2797 4.79002 10.2797 4.77002 10.1197C4.75002 9.95975 4.64002 9.92975 4.52002 9.81975Z" fill="white"/>
<path d="M3.2702 18.3899L2.6402 18.3399C2.6402 18.3399 2.5502 18.2699 2.5202 18.2299C2.4902 18.1899 2.3302 17.9999 2.2502 17.8699C2.21378 17.8025 2.19649 17.7264 2.2002 17.6499C2.2002 16.8999 2.2002 16.1399 2.2002 15.3899C2.2002 15.3099 2.2902 15.2299 2.3402 15.1499C2.3902 15.0699 2.4402 15.0599 2.4602 15.0099C2.5219 14.8719 2.63343 14.7622 2.77249 14.7029C2.91154 14.6436 3.06787 14.6389 3.2102 14.6899C3.24118 14.7028 3.26842 14.7233 3.28939 14.7496C3.31036 14.7758 3.32439 14.8068 3.3302 14.8399C3.3302 15.9999 3.3302 17.1499 3.3302 18.2999L3.2702 18.3899Z" fill="white"/>
<path d="M2.28016 11.5298C2.36016 11.3898 2.44016 11.2398 2.53016 11.1098C2.56549 11.0607 2.61403 11.0225 2.67016 10.9998L3.30016 10.8398C3.30819 10.9196 3.30819 11 3.30016 11.0798C3.30016 12.1498 3.30016 13.2098 3.30016 14.2698C3.30016 14.5098 3.23016 14.5998 2.99016 14.5998C2.75016 14.5998 2.57016 14.5998 2.36016 14.3398C2.20693 14.1251 2.13595 13.8625 2.16016 13.5998C2.16016 12.9198 2.16016 12.2498 2.16016 11.5998L2.28016 11.5298Z" fill="white"/>
<path d="M3.34005 22.2597L2.74005 22.1397C2.74005 22.1397 2.67005 22.1397 2.66005 22.1397C2.51005 21.9097 2.26005 21.6897 2.24005 21.4497C2.18005 20.6997 2.24005 19.9397 2.24005 19.1897C2.24005 19.0497 2.24005 18.9097 2.42005 18.8697C2.42005 18.8697 2.50005 18.7897 2.51005 18.7397C2.52005 18.6897 2.69005 18.5197 2.86005 18.5297C3.38005 18.5297 3.38005 18.5297 3.38005 19.0797C3.38005 20.0297 3.38005 20.9797 3.38005 21.9197L3.34005 22.2597Z" fill="white"/>
<path d="M4.32999 26.5297L2.48999 25.8097V25.7497C2.68068 25.6827 2.87879 25.639 3.07999 25.6197C3.39999 25.6197 3.46999 25.4697 3.45999 25.1797C3.45999 24.3997 3.45999 23.6097 3.45999 22.8297C3.45999 22.7097 3.45999 22.5997 3.45999 22.4497L4.18999 22.6197C4.18999 22.6197 4.27999 22.6897 4.32999 22.7297C4.29735 22.771 4.25648 22.805 4.20999 22.8297C4.02999 22.9297 4.10999 22.9997 4.20999 23.0797C4.23631 23.0962 4.25882 23.1181 4.27606 23.144C4.2933 23.1698 4.30486 23.1991 4.30999 23.2297C4.30999 24.2897 4.30999 25.3397 4.30999 26.3997C4.31993 26.4425 4.32661 26.4859 4.32999 26.5297Z" fill="white"/>
<path d="M2.19021 7.36963C2.55021 7.42963 2.86021 7.46963 3.19021 7.54963C3.23212 7.57388 3.26818 7.60706 3.29584 7.64681C3.32349 7.68655 3.34205 7.7319 3.35021 7.77963C3.35021 8.66963 3.35021 9.55963 3.35021 10.4496C3.33918 10.4989 3.31731 10.5452 3.28617 10.5849C3.25503 10.6247 3.21542 10.6571 3.17021 10.6796C3.03052 10.7249 2.88636 10.7551 2.74021 10.7696C2.61021 10.7696 2.57021 10.7696 2.48021 10.6496C2.07021 10.2996 2.24021 9.83963 2.23021 9.42963C2.13021 8.76963 2.19021 8.09963 2.19021 7.36963Z" fill="white"/>
<path d="M4.3302 10.4L3.4902 10.61C3.4902 10.46 3.4902 10.35 3.4902 10.24V8.00002C3.4902 7.56002 3.4402 7.51002 3.0102 7.44002C2.8158 7.42545 2.62585 7.37457 2.4502 7.29002L4.3302 6.52002V7.67002C4.3302 8.36002 4.3302 9.06002 4.3302 9.76002C4.32645 9.80829 4.31301 9.85531 4.29067 9.89827C4.26833 9.94122 4.23756 9.97923 4.2002 10.01C3.9602 10.23 4.3002 10.2 4.3302 10.4Z" fill="white"/>
<path d="M2.23014 25.6401V24.0601C2.25019 23.7704 2.25019 23.4797 2.23014 23.1901C2.21712 22.8729 2.31626 22.5614 2.51014 22.3101C2.72014 22.3101 2.93014 22.3701 3.14014 22.4201C3.22503 22.4642 3.28954 22.5394 3.32014 22.6301C3.32014 23.5201 3.32014 24.4101 3.32014 25.3001C3.30235 25.3533 3.27356 25.4021 3.23566 25.4435C3.19776 25.4848 3.15159 25.5177 3.10014 25.5401C2.85014 25.5701 2.57014 25.5901 2.23014 25.6401Z" fill="white"/>
<path d="M1.35003 11.25V11.74C1.35003 12.62 1.35003 13.5 1.35003 14.38C1.35003 14.63 1.26003 14.7 1.03003 14.71C0.93026 14.7273 0.82785 14.7214 0.730724 14.6928C0.633598 14.6641 0.544362 14.6135 0.469921 14.5449C0.39548 14.4763 0.337831 14.3914 0.301435 14.2969C0.265038 14.2024 0.250871 14.1008 0.260029 14V12.13C0.260029 12 0.260029 11.85 0.420029 11.82C0.420029 11.82 0.490029 11.77 0.500029 11.74C0.570029 11.23 0.990029 11.36 1.35003 11.25Z" fill="white"/>
<path d="M1.33013 18.2499C1.12013 18.2499 0.970128 18.1999 0.820128 18.1999C0.670128 18.1999 0.610128 18.0999 0.520128 17.9999C0.130128 17.6199 0.300128 17.1699 0.270128 16.7399C0.295406 16.4504 0.295406 16.1593 0.270128 15.8699C0.247684 15.6989 0.266878 15.5251 0.326076 15.3632C0.385274 15.2012 0.482724 15.056 0.610128 14.9399C0.700128 14.8199 1.02013 14.8499 1.23013 14.8599C1.23013 14.8599 1.35013 15.0499 1.35013 15.1499C1.35013 16.0799 1.35013 17.0099 1.35013 17.9399C1.35013 17.9999 1.34013 18.1299 1.33013 18.2499Z" fill="white"/>
<path d="M1.35002 21.7897C1.13002 21.7397 0.90002 21.6997 0.70002 21.6397C0.636089 21.6059 0.583819 21.5536 0.55002 21.4897C0.477565 21.3868 0.410798 21.2799 0.35002 21.1697C0.315835 21.1169 0.288926 21.0597 0.27002 20.9997C0.27002 20.2997 0.27002 19.5897 0.27002 18.8897C0.285006 18.7873 0.323502 18.6898 0.382491 18.6048C0.44148 18.5198 0.519358 18.4496 0.61002 18.3997C0.819966 18.3459 1.04007 18.3459 1.25002 18.3997C1.25002 18.3997 1.32002 18.4897 1.32002 18.5397C1.35002 19.6097 1.35002 20.6697 1.35002 21.7897Z" fill="white"/>
<path d="M4.35021 10.6401C4.28021 10.7301 4.14022 10.8101 4.14022 10.8901C4.14022 10.9701 4.32021 11.0901 4.32021 11.1901C4.32021 12.0401 4.32021 12.8901 4.32021 13.7401C4.32021 13.8401 4.21022 13.9301 4.18022 14.0301C4.16536 14.0648 4.1577 14.1022 4.1577 14.1401C4.1577 14.1779 4.16536 14.2153 4.18022 14.2501C4.18022 14.3001 4.29021 14.3201 4.34021 14.3501V14.4501L3.47021 14.5201C3.47021 14.4001 3.47021 14.3101 3.47021 14.2301C3.47021 13.1601 3.47021 12.1001 3.47021 11.0301C3.47021 10.8301 3.52021 10.7101 3.74021 10.6801C3.93211 10.6497 4.12235 10.6096 4.31021 10.5601L4.35021 10.6401Z" fill="white"/>
<path d="M4.31019 14.6196C4.51019 14.7796 3.75019 14.8996 4.31019 15.0596C4.31019 15.9896 4.31019 16.9296 4.31019 17.8696C4.31019 17.8696 4.31019 17.9796 4.31019 17.9996C4.10019 18.0996 4.01019 18.1896 4.31019 18.2896C4.31019 18.2896 4.31019 18.3896 4.31019 18.4096C4.31019 18.4296 4.22019 18.4896 4.18019 18.4796C3.99542 18.4885 3.81032 18.4716 3.63019 18.4296C3.58247 18.4121 3.54 18.3827 3.50676 18.3442C3.47352 18.3057 3.45062 18.2594 3.44019 18.2096C3.44019 17.0996 3.44019 15.9796 3.44019 14.8696C3.44019 14.6996 3.51019 14.6196 3.68019 14.6196H4.31019Z" fill="white"/>
<path d="M4.32021 22.5097C4.07021 22.4497 3.82021 22.3997 3.58021 22.3197C3.52021 22.3197 3.46021 22.1597 3.46021 22.0797V18.7797C3.46021 18.6197 3.46021 18.5397 3.68021 18.5597L4.23021 18.6097C4.23021 18.6097 4.3102 18.6697 4.3502 18.6997C4.3902 18.7297 4.29021 18.7997 4.25021 18.8197C4.21021 18.8397 4.08021 18.9697 4.25021 19.0597C4.27734 19.0814 4.29944 19.1087 4.31498 19.1398C4.33052 19.1709 4.33913 19.2049 4.34021 19.2397C4.34021 20.1197 4.34021 20.9997 4.34021 21.8797C4.34021 21.8797 4.34021 21.9297 4.34021 21.9397C4.05021 22.1097 4.19021 22.2797 4.34021 22.4497L4.32021 22.5097Z" fill="white"/>
<path d="M0.27002 24.8999V23.9999C0.295023 23.5269 0.295023 23.0529 0.27002 22.5799C0.27002 22.2599 0.460019 22.0999 0.55002 21.8599C0.55002 21.8599 0.64002 21.8599 0.68002 21.8599C1.24002 21.8599 1.38002 21.9999 1.38002 22.5599C1.38002 23.1199 1.38002 23.8699 1.38002 24.5599C1.38002 24.7799 1.31002 24.8799 1.09002 24.8999C0.87002 24.9199 0.57002 24.8599 0.27002 24.8999Z" fill="white"/>
<path d="M0.26001 8.10986C0.61001 8.15986 0.91001 8.19986 1.20001 8.26986C1.27001 8.26986 1.35001 8.41986 1.35001 8.49986C1.35001 9.29986 1.35001 10.0999 1.35001 10.8999C1.35001 10.9799 1.24001 11.0899 1.16001 11.1299C1.05038 11.1685 0.935996 11.1921 0.82001 11.1999C0.63001 11.1999 0.28001 11.0099 0.28001 10.8199C0.26001 9.92986 0.26001 8.99986 0.26001 8.10986Z" fill="white"/>
<path d="M0.560049 25C0.780049 25 0.990049 24.92 1.21005 24.9C1.43005 24.88 1.46005 24.79 1.45005 24.59C1.45005 23.82 1.45005 23.05 1.45005 22.28C1.45005 22.19 1.45005 22.11 1.45005 21.98L2.11005 22.16C1.88005 22.32 1.78005 22.45 2.03005 22.58C2.03005 22.58 2.03005 22.65 2.03005 22.69C2.03005 23.64 2.03005 24.59 2.03005 25.54C2.03455 25.5765 2.03455 25.6135 2.03005 25.65L0.550049 25.05L0.560049 25Z" fill="white"/>
<path d="M1.5 10.9999C1.5 10.5799 1.43 10.1699 1.42 9.7499C1.41 9.3299 1.42 8.8599 1.42 8.4199C1.42 8.2199 1.42 8.1099 1.16 8.0999C0.935716 8.10754 0.711953 8.07364 0.5 7.9999L2.02 7.3999V8.1099C2.02 8.7899 2.02 9.4699 2.02 10.1099C1.99062 10.2636 1.9471 10.4142 1.89 10.5599C1.89 10.5599 1.89 10.6699 1.89 10.6899C2.24 11.0099 1.84 10.9299 1.73 10.9899C1.65515 11.0111 1.5764 11.0145 1.5 10.9999Z" fill="white"/>
<path d="M1.91015 21.72L2.07015 21.9C1.61015 22 1.45015 21.9 1.46015 21.43C1.46015 20.53 1.46015 19.63 1.46015 18.73C1.46015 18.62 1.46015 18.43 1.56015 18.42C1.73947 18.3978 1.92084 18.3978 2.10015 18.42C1.94015 18.59 1.65015 18.69 2.00015 18.83C2.00015 18.83 2.00015 18.97 2.00015 19.05C2.00015 19.77 2.00015 20.5 2.00015 21.22C1.99492 21.3901 1.9646 21.5586 1.91015 21.72Z" fill="white"/>
<path d="M2.12999 14.61C1.98743 14.6311 1.84255 14.6311 1.69999 14.61C1.61999 14.61 1.48999 14.49 1.48999 14.42C1.48999 13.42 1.48999 12.37 1.48999 11.35C1.48999 11 1.81999 11.15 1.96999 11.02L2.02999 11.09C1.76999 11.3 2.02999 11.49 2.02999 11.69V14C2.02999 14.07 2.02999 14.18 2.02999 14.19C1.67999 14.33 1.96999 14.44 2.12999 14.61Z" fill="white"/>
<path d="M2.13016 14.7699C2.05016 14.8899 1.93016 14.9799 1.93016 15.0699C1.93016 15.1599 2.09016 15.2699 2.09016 15.3699C2.09016 16.1399 2.09016 16.8999 2.09016 17.6599C2.09016 17.7299 2.09016 17.8399 2.09016 17.8499C1.77016 17.9999 1.99016 18.0899 2.09016 18.2499C1.93079 18.27 1.76953 18.27 1.61016 18.2499C1.56016 18.2499 1.52016 18.0799 1.51016 17.9899V15.2499C1.47016 14.7499 1.48016 14.7399 2.13016 14.7699Z" fill="white"/>
</g>
<defs>
<clipPath id="clip0_270_1894">
<rect width="22.42" height="33.13" fill="white" transform="translate(0.130127)"/>
</clipPath>
</defs>
</svg>
