<svg width="30" height="29" viewBox="0 0 30 29" fill="none" xmlns="http://www.w3.org/2000/svg">
<g clip-path="url(#clip0_270_1887)">
<path d="M29.0399 0.379883H0.929932V28.4899H29.0399V0.379883Z" stroke="#0095FF" stroke-width="0.75" stroke-miterlimit="10"/>
<path d="M12.64 12.9297C12.8121 12.9297 12.9803 12.9807 13.1234 13.0763C13.2665 13.1719 13.378 13.3078 13.4438 13.4668C13.5097 13.6257 13.5269 13.8007 13.4933 13.9694C13.4598 14.1382 13.3769 14.2932 13.2552 14.4149C13.1336 14.5366 12.9785 14.6194 12.8098 14.653C12.641 14.6866 12.4661 14.6693 12.3071 14.6035C12.1481 14.5376 12.0123 14.4261 11.9167 14.2831C11.8211 14.14 11.77 13.9718 11.77 13.7997C11.77 13.569 11.8617 13.3477 12.0249 13.1845C12.188 13.0214 12.4093 12.9297 12.64 12.9297ZM12.64 12.4497C12.373 12.4497 12.112 12.5289 11.89 12.6772C11.668 12.8256 11.495 13.0364 11.3928 13.2831C11.2906 13.5298 11.2639 13.8012 11.316 14.0631C11.3681 14.325 11.4966 14.5655 11.6854 14.7543C11.8742 14.9431 12.1148 15.0717 12.3767 15.1238C12.6385 15.1759 12.91 15.1491 13.1567 15.0469C13.4033 14.9448 13.6142 14.7717 13.7625 14.5497C13.9109 14.3277 13.99 14.0667 13.99 13.7997C13.99 13.4417 13.8478 13.0983 13.5946 12.8451C13.3415 12.5919 12.9981 12.4497 12.64 12.4497Z" fill="#0095FF"/>
<path d="M17.2399 12.9298C17.4119 12.9298 17.5801 12.9808 17.7232 13.0764C17.8663 13.172 17.9778 13.3079 18.0436 13.4669C18.1095 13.6258 18.1267 13.8008 18.0931 13.9695C18.0596 14.1383 17.9767 14.2933 17.855 14.415C17.7334 14.5367 17.5783 14.6195 17.4096 14.6531C17.2408 14.6867 17.0659 14.6694 16.9069 14.6036C16.7479 14.5377 16.6121 14.4262 16.5165 14.2832C16.4209 14.1401 16.3699 13.9719 16.3699 13.7998C16.3699 13.5691 16.4615 13.3478 16.6247 13.1846C16.7878 13.0215 17.0091 12.9298 17.2399 12.9298ZM17.2399 12.4498C16.9713 12.4419 16.7065 12.5142 16.4793 12.6576C16.252 12.801 16.0728 13.009 15.9645 13.2549C15.8561 13.5007 15.8236 13.7734 15.8711 14.0378C15.9186 14.3023 16.0439 14.5465 16.231 14.7394C16.4181 14.9322 16.6585 15.0648 16.9214 15.1202C17.1843 15.1756 17.4578 15.1513 17.7068 15.0504C17.9558 14.9495 18.1691 14.7766 18.3193 14.5538C18.4694 14.331 18.5497 14.0685 18.5499 13.7998C18.5499 13.4418 18.4076 13.0984 18.1544 12.8452C17.9013 12.592 17.5579 12.4498 17.1999 12.4498H17.2399Z" fill="#0095FF"/>
<path d="M14.98 0.379883V28.4799" stroke="#0095FF" stroke-width="0.5" stroke-miterlimit="10"/>
</g>
<defs>
<clipPath id="clip0_270_1887">
<rect width="28.86" height="28.86" fill="white" transform="translate(0.550049)"/>
</clipPath>
</defs>
</svg>
